<?xml version="1.0" encoding="UTF-8" standalone="no"?>
<svg
   width="2542.406"
   height="559.87354"
   viewBox="0 0 2542.406 559.87354"
   version="1.2"
   id="svg184"
   sodipodi:docname="clairdelune.svg"
   inkscape:version="1.3.2 (091e20ef0f, 2023-11-25)"
   xmlns:inkscape="http://www.inkscape.org/namespaces/inkscape"
   xmlns:sodipodi="http://sodipodi.sourceforge.net/DTD/sodipodi-0.dtd"
   xmlns="http://www.w3.org/2000/svg"
   xmlns:svg="http://www.w3.org/2000/svg">
  <defs
     id="defs184" />
  <sodipodi:namedview
     id="namedview184"
     pagecolor="#ffffff"
     bordercolor="#000000"
     borderopacity="0.25"
     inkscape:showpageshadow="2"
     inkscape:pageopacity="0.0"
     inkscape:pagecheckerboard="0"
     inkscape:deskcolor="#d1d1d1"
     inkscape:zoom="0.20530303"
     inkscape:cx="1222.583"
     inkscape:cy="1697.4908"
     inkscape:window-width="1920"
     inkscape:window-height="1011"
     inkscape:window-x="0"
     inkscape:window-y="32"
     inkscape:window-maximized="1"
     inkscape:current-layer="svg184" />
  <title
     id="title1">clairdelune - selection</title>
  <desc
     id="desc1">Generated by MuseScore Studio 4.4.3</desc>
  <polyline
     class="StaffLines"
     fill="none"
     stroke="#000000"
     stroke-width="2.73"
     stroke-linejoin="bevel"
     points="336.599,386.199 2847.4,386.199"
     id="polyline1"
     transform="translate(-304.99387,-280.77)" />
  <polyline
     class="StaffLines"
     fill="none"
     stroke="#000000"
     stroke-width="2.73"
     stroke-linejoin="bevel"
     points="336.599,410.999 2847.4,410.999"
     id="polyline2"
     transform="translate(-304.99387,-280.77)" />
  <polyline
     class="StaffLines"
     fill="none"
     stroke="#000000"
     stroke-width="2.73"
     stroke-linejoin="bevel"
     points="336.599,435.799 2847.4,435.799"
     id="polyline3"
     transform="translate(-304.99387,-280.77)" />
  <polyline
     class="StaffLines"
     fill="none"
     stroke="#000000"
     stroke-width="2.73"
     stroke-linejoin="bevel"
     points="336.599,460.599 2847.4,460.599"
     id="polyline4"
     transform="translate(-304.99387,-280.77)" />
  <polyline
     class="StaffLines"
     fill="none"
     stroke="#000000"
     stroke-width="2.73"
     stroke-linejoin="bevel"
     points="336.599,485.399 2847.4,485.399"
     id="polyline5"
     transform="translate(-304.99387,-280.77)" />
  <polyline
     class="StaffLines"
     fill="none"
     stroke="#000000"
     stroke-width="2.73"
     stroke-linejoin="bevel"
     points="336.599,646.599 2847.4,646.599"
     id="polyline6"
     transform="translate(-304.99387,-280.77)" />
  <polyline
     class="StaffLines"
     fill="none"
     stroke="#000000"
     stroke-width="2.73"
     stroke-linejoin="bevel"
     points="336.599,671.399 2847.4,671.399"
     id="polyline7"
     transform="translate(-304.99387,-280.77)" />
  <polyline
     class="StaffLines"
     fill="none"
     stroke="#000000"
     stroke-width="2.73"
     stroke-linejoin="bevel"
     points="336.599,696.199 2847.4,696.199"
     id="polyline8"
     transform="translate(-304.99387,-280.77)" />
  <polyline
     class="StaffLines"
     fill="none"
     stroke="#000000"
     stroke-width="2.73"
     stroke-linejoin="bevel"
     points="336.599,720.999 2847.4,720.999"
     id="polyline9"
     transform="translate(-304.99387,-280.77)" />
  <polyline
     class="StaffLines"
     fill="none"
     stroke="#000000"
     stroke-width="2.73"
     stroke-linejoin="bevel"
     points="336.599,745.799 2847.4,745.799"
     id="polyline10"
     transform="translate(-304.99387,-280.77)" />
  <path
     class="TieSegment"
     stroke="#000000"
     stroke-width="1.24"
     stroke-linecap="round"
     stroke-linejoin="round"
     fill-rule="evenodd"
     d="m 1252.6761,99.384 c 18.56,-23.598 74.23,-23.598 92.78,0 -18.55,-15.919 -74.22,-15.919 -92.78,0"
     id="path10" />
  <path
     class="TieSegment"
     stroke="#000000"
     stroke-width="1.24"
     stroke-linecap="round"
     stroke-linejoin="round"
     fill-rule="evenodd"
     d="m 1831.6961,149.232 c 15.32,-18.635 61.3,-18.635 76.62,0 -15.32,-11.602 -61.3,-11.602 -76.62,0"
     id="path11" />
  <path
     class="TieSegment"
     stroke="#000000"
     stroke-width="1.24"
     stroke-linecap="round"
     stroke-linejoin="round"
     fill-rule="evenodd"
     d="m 780.32612,87.232 c 41.6,-31.63 166.40001,-31.63 208,0 -41.59999,-23.694 -166.4,-23.694 -208,0"
     id="path12" />
  <path
     class="TieSegment"
     stroke="#000000"
     stroke-width="1.24"
     stroke-linecap="round"
     stroke-linejoin="round"
     fill-rule="evenodd"
     d="m 699.41612,90.549 c 11.36,-19.015 45.46,-19.015 56.82001,0 -11.36,-12.774 -45.46001,-12.774 -56.82001,0"
     id="path13" />
  <path
     class="TieSegment"
     stroke="#000000"
     stroke-width="1.24"
     stroke-linecap="round"
     stroke-linejoin="round"
     fill-rule="evenodd"
     d="m 1588.9561,149.232 c 23.94,-19.558 95.75,-19.558 119.68,0 -23.93,-11.622 -95.74,-11.622 -119.68,0"
     id="path14" />
  <path
     class="TieSegment"
     stroke="#000000"
     stroke-width="1.24"
     stroke-linecap="round"
     stroke-linejoin="round"
     fill-rule="evenodd"
     d="m 2081.7461,149.232 c 22.94,-19.667 91.75,-19.667 114.69,0 -22.94,-11.731 -91.75,-11.731 -114.69,0"
     id="path15" />
  <path
     class="TieSegment"
     stroke="#000000"
     stroke-width="1.24"
     stroke-linecap="round"
     stroke-linejoin="round"
     fill-rule="evenodd"
     d="m 1355.3761,99.384 c 42.4,-31.848 169.58,-31.848 211.97,0 -42.39,-23.912 -169.57,-23.912 -211.97,0"
     id="path16" />
  <path
     class="TieSegment"
     stroke="#000000"
     stroke-width="1.24"
     stroke-linecap="round"
     stroke-linejoin="round"
     fill-rule="evenodd"
     d="m 1750.7861,149.332 c 10.12,-18.028 40.5,-18.028 50.62,0 -10.12,-12.035 -40.5,-12.035 -50.62,0"
     id="path17" />
  <path
     class="TieSegment"
     stroke="#000000"
     stroke-width="1.24"
     stroke-linecap="round"
     stroke-linejoin="round"
     fill-rule="evenodd"
     d="m 1950.4561,149.232 c 21.44,-19.329 85.76,-19.329 107.2,0 -21.44,-11.393 -85.76,-11.393 -107.2,0"
     id="path18" />
  <path
     class="TieSegment"
     stroke="#000000"
     stroke-width="1.24"
     stroke-linecap="round"
     stroke-linejoin="round"
     fill-rule="evenodd"
     d="m 2238.5861,112.032 c 26.06,-26.753 104.23,-26.753 130.29,0 -26.06,-18.817 -104.23,-18.817 -130.29,0"
     id="path19" />
  <path
     class="TieSegment"
     stroke="#000000"
     stroke-width="1.24"
     stroke-linecap="round"
     stroke-linejoin="round"
     fill-rule="evenodd"
     d="m 542.58213,62.432 c 27.04499,-27.108 108.178,-27.108 135.22299,0 -27.04499,-19.172 -108.178,-19.172 -135.22299,0"
     id="path20" />
  <path
     class="TieSegment"
     stroke="#000000"
     stroke-width="1.24"
     stroke-linecap="round"
     stroke-linejoin="round"
     fill-rule="evenodd"
     d="m 991.34612,185.874 c 71.30998,32.553 285.22998,32.553 356.53998,0 -71.31,40.489 -285.23,40.489 -356.53998,0"
     id="path21" />
  <path
     class="TieSegment"
     stroke="#000000"
     stroke-width="1.24"
     stroke-linecap="round"
     stroke-linejoin="round"
     fill-rule="evenodd"
     d="m 2052.3561,123.626 c 26.83,19.095 107.33,19.095 134.16,0 -26.83,27.031 -107.33,27.031 -134.16,0"
     id="path22" />
  <path
     class="TieSegment"
     stroke="#000000"
     stroke-width="1.24"
     stroke-linecap="round"
     stroke-linejoin="round"
     fill-rule="evenodd"
     d="m 402.62112,185.874 c 50.93,31.406 203.72001,31.406 254.65,0 -50.92999,39.342 -203.72,39.342 -254.65,0"
     id="path23" />
  <path
     class="TieSegment"
     stroke="#000000"
     stroke-width="1.24"
     stroke-linecap="round"
     stroke-linejoin="round"
     fill-rule="evenodd"
     d="m 1355.3261,185.874 c 45.49,31.066 181.95,31.066 227.43,0 -45.48,39.002 -181.94,39.002 -227.43,0"
     id="path24" />
  <path
     class="TieSegment"
     stroke="#000000"
     stroke-width="1.24"
     stroke-linecap="round"
     stroke-linejoin="round"
     fill-rule="evenodd"
     d="m 780.32612,372.432 c 41.6,-31.63 166.40001,-31.63 208,0 -41.59999,-23.694 -166.4,-23.694 -208,0"
     id="path25" />
  <path
     class="TieSegment"
     stroke="#000000"
     stroke-width="1.24"
     stroke-linecap="round"
     stroke-linejoin="round"
     fill-rule="evenodd"
     d="m 1831.6961,434.184 c 18.56,-18.792 74.23,-18.792 92.78,0 -18.55,-11.113 -74.22,-11.113 -92.78,0"
     id="path26" />
  <path
     class="TieSegment"
     stroke="#000000"
     stroke-width="1.24"
     stroke-linecap="round"
     stroke-linejoin="round"
     fill-rule="evenodd"
     d="m 1252.6761,384.584 c 18.56,-18.792 74.23,-18.792 92.78,0 -18.55,-11.113 -74.22,-11.113 -92.78,0"
     id="path27" />
  <path
     class="TieSegment"
     stroke="#000000"
     stroke-width="1.24"
     stroke-linecap="round"
     stroke-linejoin="round"
     fill-rule="evenodd"
     d="m 1934.3961,434.184 c 60.98,-39.934 243.91,-39.934 304.88,0 -60.97,-31.998 -243.9,-31.998 -304.88,0"
     id="path28" />
  <path
     class="TieSegment"
     stroke="#000000"
     stroke-width="1.24"
     stroke-linecap="round"
     stroke-linejoin="round"
     fill-rule="evenodd"
     d="m 699.41612,372.432 c 11.36,-20.807 45.46,-20.807 56.82001,0 -11.36,-14.567 -45.46001,-14.567 -56.82001,0"
     id="path29" />
  <path
     class="TieSegment"
     stroke="#000000"
     stroke-width="1.24"
     stroke-linecap="round"
     stroke-linejoin="round"
     fill-rule="evenodd"
     d="m 1355.3761,384.584 c 47.85,-39.151 191.39,-39.151 239.24,0 -47.85,-31.215 -191.39,-31.215 -239.24,0"
     id="path30" />
  <path
     class="TieSegment"
     stroke="#000000"
     stroke-width="1.24"
     stroke-linecap="round"
     stroke-linejoin="round"
     fill-rule="evenodd"
     d="m 1616.2261,434.432 c 18.48,-19.031 73.93,-19.031 92.41,0 -18.48,-11.367 -73.93,-11.367 -92.41,0"
     id="path31" />
  <path
     class="TieSegment"
     stroke="#000000"
     stroke-width="1.24"
     stroke-linecap="round"
     stroke-linejoin="round"
     fill-rule="evenodd"
     d="m 1750.7861,434.533 c 10.12,-18.029 40.5,-18.029 50.62,0 -10.12,-12.036 -40.5,-12.036 -50.62,0"
     id="path32" />
  <path
     class="TieSegment"
     stroke="#000000"
     stroke-width="1.24"
     stroke-linecap="round"
     stroke-linejoin="round"
     fill-rule="evenodd"
     d="m 2390.4861,446.933 c 7.76,-19.442 31.02,-19.442 38.77,0 -7.75,-13.923 -31.01,-13.923 -38.77,0"
     id="path33" />
  <path
     class="TieSegment"
     stroke="#000000"
     stroke-width="1.24"
     stroke-linecap="round"
     stroke-linejoin="round"
     fill-rule="evenodd"
     d="m 542.58213,347.632 c 27.04499,-27.107 108.178,-27.107 135.22299,0 -27.04499,-19.171 -108.178,-19.171 -135.22299,0"
     id="path34" />
  <path
     class="TieSegment"
     stroke="#000000"
     stroke-width="1.24"
     stroke-linecap="round"
     stroke-linejoin="round"
     fill-rule="evenodd"
     d="m 1355.3261,458.674 c 38.3,22.76 153.19,22.76 191.49,0 -38.3,30.696 -153.19,30.696 -191.49,0"
     id="path35" />
  <path
     class="TieSegment"
     stroke="#000000"
     stroke-width="1.24"
     stroke-linecap="round"
     stroke-linejoin="round"
     fill-rule="evenodd"
     d="m 991.34612,458.674 c 71.30998,30.683 285.22998,30.683 356.53998,0 -71.31,38.619 -285.23,38.619 -356.53998,0"
     id="path36" />
  <path
     class="TieSegment"
     stroke="#000000"
     stroke-width="1.24"
     stroke-linecap="round"
     stroke-linejoin="round"
     fill-rule="evenodd"
     d="m 402.62112,471.074 c 50.93,26.122 203.72001,26.122 254.65,0 -50.92999,34.058 -203.72,34.058 -254.65,0"
     id="path37" />
  <path
     class="TieSegment"
     stroke="#000000"
     stroke-width="1.24"
     stroke-linecap="round"
     stroke-linejoin="round"
     fill-rule="evenodd"
     d="m 1931.8661,433.874 c 50.93,25.702 203.72,25.702 254.65,0 -50.93,33.638 -203.72,33.638 -254.65,0"
     id="path38" />
  <polyline
     class="BarLine"
     fill="none"
     stroke="#000000"
     stroke-width="4.46"
     stroke-linejoin="bevel"
     points="1603.63,384.835 1603.63,646.599"
     id="polyline38"
     transform="translate(-304.99387,-280.77)" />
  <polyline
     class="BarLine"
     fill="none"
     stroke="#000000"
     stroke-width="4.46"
     stroke-linejoin="bevel"
     points="1233.85,384.835 1233.85,646.599"
     id="polyline39"
     transform="translate(-304.99387,-280.77)" />
  <polyline
     class="BarLine"
     fill="none"
     stroke="#000000"
     stroke-width="4.46"
     stroke-linejoin="bevel"
     points="2182.65,384.835 2182.65,646.599"
     id="polyline40"
     transform="translate(-304.99387,-280.77)" />
  <polyline
     class="BarLine"
     fill="none"
     stroke="#000000"
     stroke-width="4.46"
     stroke-linejoin="bevel"
     points="1823.54,384.835 1823.54,646.599"
     id="polyline41"
     transform="translate(-304.99387,-280.77)" />
  <polyline
     class="BarLine"
     fill="none"
     stroke="#000000"
     stroke-width="4.46"
     stroke-linejoin="bevel"
     points="2463.24,384.835 2463.24,646.599"
     id="polyline42"
     transform="translate(-304.99387,-280.77)" />
  <polyline
     class="BarLine"
     fill="none"
     stroke="#000000"
     stroke-width="4.46"
     stroke-linejoin="bevel"
     points="338.831,384.835 338.831,646.599"
     id="polyline43"
     transform="translate(-304.99387,-280.77)" />
  <polyline
     class="BarLine"
     fill="none"
     stroke="#000000"
     stroke-width="4.46"
     stroke-linejoin="bevel"
     points="2822.35,384.835 2822.35,646.599"
     id="polyline44"
     transform="translate(-304.99387,-280.77)" />
  <polyline
     class="BarLine"
     fill="none"
     stroke="#000000"
     stroke-width="13.64"
     stroke-linejoin="bevel"
     points="2840.58,384.835 2840.58,646.599"
     id="polyline45"
     transform="translate(-304.99387,-280.77)" />
  <polyline
     class="BarLine"
     fill="none"
     stroke="#000000"
     stroke-width="4.46"
     stroke-linejoin="bevel"
     points="933.992,384.835 933.992,646.599"
     id="polyline46"
     transform="translate(-304.99387,-280.77)" />
  <polyline
     class="BarLine"
     fill="none"
     stroke="#000000"
     stroke-width="4.46"
     stroke-linejoin="bevel"
     points="1603.63,645.235 1603.63,747.163"
     id="polyline47"
     transform="translate(-304.99387,-280.77)" />
  <polyline
     class="BarLine"
     fill="none"
     stroke="#000000"
     stroke-width="4.46"
     stroke-linejoin="bevel"
     points="2182.65,645.235 2182.65,747.163"
     id="polyline48"
     transform="translate(-304.99387,-280.77)" />
  <polyline
     class="BarLine"
     fill="none"
     stroke="#000000"
     stroke-width="4.46"
     stroke-linejoin="bevel"
     points="2463.24,645.235 2463.24,747.163"
     id="polyline49"
     transform="translate(-304.99387,-280.77)" />
  <polyline
     class="BarLine"
     fill="none"
     stroke="#000000"
     stroke-width="4.46"
     stroke-linejoin="bevel"
     points="1823.54,645.235 1823.54,747.163"
     id="polyline50"
     transform="translate(-304.99387,-280.77)" />
  <polyline
     class="BarLine"
     fill="none"
     stroke="#000000"
     stroke-width="4.46"
     stroke-linejoin="bevel"
     points="933.992,645.235 933.992,747.163"
     id="polyline51"
     transform="translate(-304.99387,-280.77)" />
  <polyline
     class="BarLine"
     fill="none"
     stroke="#000000"
     stroke-width="4.46"
     stroke-linejoin="bevel"
     points="2822.35,645.235 2822.35,747.163"
     id="polyline52"
     transform="translate(-304.99387,-280.77)" />
  <polyline
     class="BarLine"
     fill="none"
     stroke="#000000"
     stroke-width="13.64"
     stroke-linejoin="bevel"
     points="2840.58,645.235 2840.58,747.163"
     id="polyline53"
     transform="translate(-304.99387,-280.77)" />
  <polyline
     class="BarLine"
     fill="none"
     stroke="#000000"
     stroke-width="4.46"
     stroke-linejoin="bevel"
     points="338.831,645.235 338.831,747.163"
     id="polyline54"
     transform="translate(-304.99387,-280.77)" />
  <polyline
     class="BarLine"
     fill="none"
     stroke="#000000"
     stroke-width="4.46"
     stroke-linejoin="bevel"
     points="1233.85,645.235 1233.85,747.163"
     id="polyline55"
     transform="translate(-304.99387,-280.77)" />
  <path
     class="Accidental"
     d="m 963.66719,149.27846 c -0.186,-0.20148 -0.496,-0.29453 -0.88357,-0.29453 l -0.20148,0.0931 c 0,0 -0.0929,0 -0.0929,0 l -12.50856,3.47201 v -17.36002 h -2.7745 v 49.10405 c 0,1.08505 0.899,1.28652 1.7825,1.28652 l 12.50856,-3.472 v 17.36002 h 2.666 c 0,-16.46107 0,-32.13156 0,-49.10405 0,-0.38758 -0.186,-0.88358 -0.496,-1.08505 m -13.68656,27.77605 v -16.27502 l 11.51656,-3.2705 v 16.36802 l -11.51656,3.1775"
     id="path55"
     style="stroke-width:0.992001" />
  <polyline
     class="LedgerLine"
     fill="none"
     stroke="#000000"
     stroke-width="3.97"
     stroke-linejoin="bevel"
     points="802.207,361.399 850.8,361.399"
     id="polyline56"
     transform="translate(-304.99387,-280.77)" />
  <polyline
     class="LedgerLine"
     fill="none"
     stroke="#000000"
     stroke-width="3.97"
     stroke-linejoin="bevel"
     points="959.041,361.399 1007.63,361.399"
     id="polyline57"
     transform="translate(-304.99387,-280.77)" />
  <polyline
     class="Stem"
     fill="none"
     stroke="#000000"
     stroke-width="2.48"
     stroke-linejoin="bevel"
     points="2537.38,444.231 2537.38,348.999"
     id="polyline58"
     transform="translate(-304.99387,-280.77)" />
  <polyline
     class="Stem"
     fill="none"
     stroke="#000000"
     stroke-width="2.48"
     stroke-linejoin="bevel"
     points="2049.58,444.231 2049.58,348.999"
     id="polyline59"
     transform="translate(-304.99387,-280.77)" />
  <polyline
     class="Stem"
     fill="none"
     stroke="#000000"
     stroke-width="2.48"
     stroke-linejoin="bevel"
     points="2130.49,444.231 2130.49,336.599"
     id="polyline60"
     transform="translate(-304.99387,-280.77)" />
  <polyline
     class="Stem"
     fill="none"
     stroke="#000000"
     stroke-width="2.48"
     stroke-linejoin="bevel"
     points="1079.12,382.231 1079.12,324.199"
     id="polyline61"
     transform="translate(-304.99387,-280.77)" />
  <polyline
     class="Stem"
     fill="none"
     stroke="#000000"
     stroke-width="2.48"
     stroke-linejoin="bevel"
     points="2249.25,444.231 2249.25,348.999"
     id="polyline62"
     transform="translate(-304.99387,-280.77)" />
  <polyline
     class="Stem"
     fill="none"
     stroke="#000000"
     stroke-width="2.48"
     stroke-linejoin="bevel"
     points="2380.54,444.231 2380.54,367.599"
     id="polyline63"
     transform="translate(-304.99387,-280.77)" />
  <polyline
     class="Stem"
     fill="none"
     stroke="#000000"
     stroke-width="2.48"
     stroke-linejoin="bevel"
     points="1887.75,444.231 1887.75,336.599"
     id="polyline64"
     transform="translate(-304.99387,-280.77)" />
  <polyline
     class="Stem"
     fill="none"
     stroke="#000000"
     stroke-width="2.48"
     stroke-linejoin="bevel"
     points="1308.73,382.231 1308.73,324.199"
     id="polyline65"
     transform="translate(-304.99387,-280.77)" />
  <polyline
     class="Stem"
     fill="none"
     stroke="#000000"
     stroke-width="2.48"
     stroke-linejoin="bevel"
     points="2770.19,419.431 2770.19,355.199"
     id="polyline66"
     transform="translate(-304.99387,-280.77)" />
  <polyline
     class="Stem"
     fill="none"
     stroke="#000000"
     stroke-width="2.48"
     stroke-linejoin="bevel"
     points="841.376,357.431 841.376,299.398"
     id="polyline67"
     transform="translate(-304.99387,-280.77)" />
  <polyline
     class="Stem"
     fill="none"
     stroke="#000000"
     stroke-width="2.48"
     stroke-linejoin="bevel"
     points="1470.56,382.231 1470.56,324.199"
     id="polyline68"
     transform="translate(-304.99387,-280.77)" />
  <polyline
     class="Stem"
     fill="none"
     stroke="#000000"
     stroke-width="2.48"
     stroke-linejoin="bevel"
     points="998.209,382.231 998.209,299.398"
     id="polyline69"
     transform="translate(-304.99387,-280.77)" />
  <polyline
     class="Stem"
     fill="none"
     stroke="#000000"
     stroke-width="2.48"
     stroke-linejoin="bevel"
     points="1551.47,394.631 1551.47,336.599"
     id="polyline70"
     transform="translate(-304.99387,-280.77)" />
  <polyline
     class="Stem"
     fill="none"
     stroke="#000000"
     stroke-width="2.48"
     stroke-linejoin="bevel"
     points="2689.28,407.031 2689.28,348.999"
     id="polyline71"
     transform="translate(-304.99387,-280.77)" />
  <polyline
     class="Stem"
     fill="none"
     stroke="#000000"
     stroke-width="2.48"
     stroke-linejoin="bevel"
     points="1389.65,394.631 1389.65,336.599"
     id="polyline72"
     transform="translate(-304.99387,-280.77)" />
  <polyline
     class="Stem"
     fill="none"
     stroke="#000000"
     stroke-width="2.48"
     stroke-linejoin="bevel"
     points="2340.88,390.365 2340.88,472.999"
     id="polyline73"
     transform="translate(-304.99387,-280.77)" />
  <polyline
     class="Stem"
     fill="none"
     stroke="#000000"
     stroke-width="2.48"
     stroke-linejoin="bevel"
     points="968.465,452.365 968.465,516.399"
     id="polyline74"
     transform="translate(-304.99387,-280.77)" />
  <polyline
     class="Stem"
     fill="none"
     stroke="#000000"
     stroke-width="2.48"
     stroke-linejoin="bevel"
     points="1893.95,452.365 1893.95,516.399"
     id="polyline75"
     transform="translate(-304.99387,-280.77)" />
  <polyline
     class="Stem"
     fill="none"
     stroke="#000000"
     stroke-width="2.48"
     stroke-linejoin="bevel"
     points="2497.71,390.365 2497.71,472.999"
     id="polyline76"
     transform="translate(-304.99387,-280.77)" />
  <polyline
     class="Stem"
     fill="none"
     stroke="#000000"
     stroke-width="2.48"
     stroke-linejoin="bevel"
     points="2659.54,464.765 2659.54,522.599"
     id="polyline77"
     transform="translate(-304.99387,-280.77)" />
  <polyline
     class="Stem"
     fill="none"
     stroke="#000000"
     stroke-width="2.48"
     stroke-linejoin="bevel"
     points="998.209,667.431 998.209,584.599"
     id="polyline78"
     transform="translate(-304.99387,-280.77)" />
  <polyline
     class="Stem"
     fill="none"
     stroke="#000000"
     stroke-width="2.48"
     stroke-linejoin="bevel"
     points="2689.28,741.831 2689.28,658.999"
     id="polyline79"
     transform="translate(-304.99387,-280.77)" />
  <polyline
     class="Stem"
     fill="none"
     stroke="#000000"
     stroke-width="2.48"
     stroke-linejoin="bevel"
     points="2770.19,741.831 2770.19,627.999"
     id="polyline80"
     transform="translate(-304.99387,-280.77)" />
  <polyline
     class="Stem"
     fill="none"
     stroke="#000000"
     stroke-width="2.48"
     stroke-linejoin="bevel"
     points="1389.65,679.831 1389.65,615.599"
     id="polyline81"
     transform="translate(-304.99387,-280.77)" />
  <polyline
     class="Stem"
     fill="none"
     stroke="#000000"
     stroke-width="2.48"
     stroke-linejoin="bevel"
     points="2130.49,729.431 2130.49,615.599"
     id="polyline82"
     transform="translate(-304.99387,-280.77)" />
  <polyline
     class="Stem"
     fill="none"
     stroke="#000000"
     stroke-width="2.48"
     stroke-linejoin="bevel"
     points="841.376,642.631 841.376,584.599"
     id="polyline83"
     transform="translate(-304.99387,-280.77)" />
  <polyline
     class="Stem"
     fill="none"
     stroke="#000000"
     stroke-width="2.48"
     stroke-linejoin="bevel"
     points="2049.58,729.431 2049.58,621.799"
     id="polyline84"
     transform="translate(-304.99387,-280.77)" />
  <polyline
     class="Stem"
     fill="none"
     stroke="#000000"
     stroke-width="2.48"
     stroke-linejoin="bevel"
     points="1079.12,667.431 1079.12,609.399"
     id="polyline85"
     transform="translate(-304.99387,-280.77)" />
  <polyline
     class="Stem"
     fill="none"
     stroke="#000000"
     stroke-width="2.48"
     stroke-linejoin="bevel"
     points="2559.68,729.431 2559.68,646.599"
     id="polyline86"
     transform="translate(-304.99387,-280.77)" />
  <polyline
     class="Stem"
     fill="none"
     stroke="#000000"
     stroke-width="2.48"
     stroke-linejoin="bevel"
     points="1308.73,667.431 1308.73,609.399"
     id="polyline87"
     transform="translate(-304.99387,-280.77)" />
  <polyline
     class="Stem"
     fill="none"
     stroke="#000000"
     stroke-width="2.48"
     stroke-linejoin="bevel"
     points="1915.02,729.431 1915.02,615.599"
     id="polyline88"
     transform="translate(-304.99387,-280.77)" />
  <polyline
     class="Stem"
     fill="none"
     stroke="#000000"
     stroke-width="2.48"
     stroke-linejoin="bevel"
     points="1551.47,679.831 1551.47,615.599"
     id="polyline89"
     transform="translate(-304.99387,-280.77)" />
  <polyline
     class="Stem"
     fill="none"
     stroke="#000000"
     stroke-width="2.48"
     stroke-linejoin="bevel"
     points="1470.56,667.431 1470.56,609.399"
     id="polyline90"
     transform="translate(-304.99387,-280.77)" />
  <polyline
     class="Stem"
     fill="none"
     stroke="#000000"
     stroke-width="2.48"
     stroke-linejoin="bevel"
     points="968.465,737.565 968.465,795.399"
     id="polyline91"
     transform="translate(-304.99387,-280.77)" />
  <polyline
     class="Stem"
     fill="none"
     stroke="#000000"
     stroke-width="2.48"
     stroke-linejoin="bevel"
     points="2497.71,700.365 2497.71,770.599"
     id="polyline92"
     transform="translate(-304.99387,-280.77)" />
  <polyline
     class="Stem"
     fill="none"
     stroke="#000000"
     stroke-width="2.48"
     stroke-linejoin="bevel"
     points="1858.01,725.165 1858.01,782.999"
     id="polyline93"
     transform="translate(-304.99387,-280.77)" />
  <path
     class="Note"
     d="m 972.75612,109.59851 c 0,4.2625 3.06901,9.02103 11.11349,9.02103 10.30759,0 21.12659,-8.43203 21.12659,-17.15854 0,-5.85901 -4.96,-9.129488 -11.11353,-9.129488 -9.62548,0 -21.12655,8.137488 -21.12655,17.266998"
     id="path93"
     style="stroke-width:0.992001" />
  <path
     class="Note"
     d="m 2065.6927,154.33151 c -9.6255,0 -21.1266,8.04448 -21.1266,17.267 0,4.2625 3.069,9.02103 11.1135,9.02103 10.3076,0 21.1266,-8.43203 21.1266,-17.15854 0,-5.85901 -4.96,-9.12949 -11.1135,-9.12949 m -13.6866,21.6225 c -3.2705,0 -3.968,-2.666 -3.968,-3.565 0,-4.86701 16.6626,-13.39202 21.328,-13.39202 2.3871,0 3.9681,1.395 3.9681,3.56501 0,4.96 -16.771,13.39201 -21.3281,13.39201"
     id="path94"
     style="stroke-width:0.992001" />
  <path
     class="Note"
     d="m 1572.9027,154.33151 c -9.6255,0 -21.1266,8.04448 -21.1266,17.267 0,4.2625 3.069,9.02103 11.1135,9.02103 10.3076,0 21.1266,-8.43203 21.1266,-17.15854 0,-5.85901 -4.96,-9.12949 -11.1135,-9.12949 m -13.6866,21.6225 c -3.2705,0 -3.968,-2.666 -3.968,-3.565 0,-4.86701 16.6626,-13.39202 21.328,-13.39202 2.3871,0 3.9681,1.395 3.9681,3.56501 0,4.96 -16.771,13.39201 -21.3281,13.39201"
     id="path95"
     style="stroke-width:0.992001" />
  <path
     class="Note"
     d="m 1350.4196,104.34394 c -13.6865,0 -18.5535,6.94405 -18.5535,13.39206 0,6.44801 4.867,13.39206 18.5535,13.39206 13.6866,0 18.4451,-6.94405 18.4451,-13.39206 0,-6.44801 -4.7585,-13.39206 -18.4451,-13.39206 m 0.7905,23.60655 c -2.7745,0 -4.6654,-0.79048 -5.952,-3.27048 -1.2865,-2.48001 -3.0689,-8.92801 -3.1774,-11.51652 -0.2015,-2.6815 0.7905,-4.2625 3.1774,-5.053 1.1935,-0.40298 2.7746,-0.60455 4.3711,-0.60455 2.666,0 4.464,0.60455 5.8435,3.28605 1.3949,2.57301 3.286,9.02101 3.286,11.50101 0,4.86701 -3.5806,5.65749 -7.5486,5.65749"
     id="path96"
     style="stroke-width:0.992001" />
  <path
     class="Note"
     d="m 2222.5227,117.13151 c -9.6255,0 -21.1266,8.04448 -21.1266,17.267 0,4.2625 3.069,9.02103 11.1135,9.02103 10.3076,0 21.1266,-8.43203 21.1266,-17.15854 0,-5.85901 -4.96,-9.12949 -11.1135,-9.12949 m -13.6866,21.6225 c -3.2705,0 -3.968,-2.666 -3.968,-3.565 0,-4.86701 16.6626,-13.39202 21.328,-13.39202 2.3871,0 3.9681,1.395 3.9681,3.56501 0,4.96 -16.771,13.39201 -21.3281,13.39201"
     id="path97"
     style="stroke-width:0.992001" />
  <path
     class="Note"
     d="m 2222.5227,154.33151 c -9.6255,0 -21.1266,8.04448 -21.1266,17.267 0,4.2625 3.069,9.02103 11.1135,9.02103 10.3076,0 21.1266,-8.43203 21.1266,-17.15854 0,-5.85901 -4.96,-9.12949 -11.1135,-9.12949 m -13.6866,21.6225 c -3.2705,0 -3.968,-2.666 -3.968,-3.565 0,-4.86701 16.6626,-13.39202 21.328,-13.39202 2.3871,0 3.9681,1.395 3.9681,3.56501 0,4.96 -16.771,13.39201 -21.3281,13.39201"
     id="path98"
     style="stroke-width:0.992001" />
  <path
     class="Note"
     d="m 1934.4027,117.13151 c -9.6255,0 -21.1266,8.04448 -21.1266,17.267 0,4.2625 3.069,9.02103 11.1135,9.02103 10.3076,0 21.1266,-8.43203 21.1266,-17.15854 0,-5.85901 -4.96,-9.12949 -11.1135,-9.12949 m -13.6866,21.6225 c -3.2705,0 -3.968,-2.666 -3.968,-3.565 0,-4.86701 16.6626,-13.39202 21.328,-13.39202 2.3871,0 3.9681,1.395 3.9681,3.56501 0,4.96 -16.771,13.39201 -21.3281,13.39201"
     id="path99"
     style="stroke-width:0.992001" />
  <path
     class="Note"
     d="m 1934.4027,154.33151 c -9.6255,0 -21.1266,8.04448 -21.1266,17.267 0,4.2625 3.069,9.02103 11.1135,9.02103 10.3076,0 21.1266,-8.43203 21.1266,-17.15854 0,-5.85901 -4.96,-9.12949 -11.1135,-9.12949 m -13.6866,21.6225 c -3.2705,0 -3.968,-2.666 -3.968,-3.565 0,-4.86701 16.6626,-13.39202 21.328,-13.39202 2.3871,0 3.9681,1.395 3.9681,3.56501 0,4.96 -16.771,13.39201 -21.3281,13.39201"
     id="path100"
     style="stroke-width:0.992001" />
  <path
     class="Note"
     d="m 1572.9027,104.73151 c -9.6255,0 -21.1266,8.04448 -21.1266,17.267 0,4.2625 3.069,9.02103 11.1135,9.02103 10.3076,0 21.1266,-8.43203 21.1266,-17.15854 0,-5.85901 -4.96,-9.12949 -11.1135,-9.12949 m -13.6866,21.6225 c -3.2705,0 -3.968,-2.666 -3.968,-3.565 0,-4.86701 16.6626,-13.39202 21.328,-13.39202 2.3871,0 3.9681,1.395 3.9681,3.56501 0,4.96 -16.771,13.39201 -21.3281,13.39201"
     id="path101"
     style="stroke-width:0.992001" />
  <path
     class="Note"
     d="m 1053.6661,121.99851 c 0,4.2625 3.069,9.02103 11.1135,9.02103 10.3076,0 21.1266,-8.43203 21.1266,-17.15854 0,-5.85901 -4.96,-9.12949 -11.1135,-9.12949 -9.6255,0 -21.1266,8.13749 -21.1266,17.267"
     id="path102"
     style="stroke-width:0.992001" />
  <path
     class="Note"
     d="m 662.23113,84.798509 c 0,4.2625 3.069,9.021029 11.11348,9.021029 10.30759,0 21.12655,-8.432028 21.12655,-17.158542 0,-5.859006 -4.96001,-9.129484 -11.11349,-9.129484 -9.62548,0 -21.12654,8.137483 -21.12654,17.266997"
     id="path103"
     style="stroke-width:0.992001" />
  <path
     class="Note"
     d="m 662.23113,109.59851 c 0,4.2625 3.069,9.02103 11.11348,9.02103 10.30759,0 21.12655,-8.43203 21.12655,-17.15854 0,-5.85901 -4.96001,-9.129488 -11.11349,-9.129488 -9.62548,0 -21.12654,8.137488 -21.12654,17.266998"
     id="path104"
     style="stroke-width:0.992001" />
  <path
     class="Note"
     d="m 2353.3061,134.39851 c 0,4.2625 3.069,9.02103 11.1135,9.02103 10.3076,0 21.1266,-8.43203 21.1266,-17.15854 0,-5.85901 -4.96,-9.12949 -11.1135,-9.12949 -9.6255,0 -21.1266,8.13749 -21.1266,17.267"
     id="path105"
     style="stroke-width:0.992001" />
  <path
     class="Note"
     d="m 526.52367,67.531512 c -9.62548,0 -21.12655,8.044483 -21.12655,17.266997 0,4.2625 3.06901,9.021029 11.11349,9.021029 10.30759,0 21.12655,-8.432028 21.12655,-17.158542 0,-5.859006 -4.96001,-9.129484 -11.11349,-9.129484 m -13.68654,21.622497 c -3.2705,0 -3.968,-2.666003 -3.968,-3.565004 0,-4.867005 16.66254,-13.392013 21.32802,-13.392013 2.38705,0 3.968,1.395001 3.968,3.565003 0,4.960005 -16.77096,13.392014 -21.32802,13.392014"
     id="path106"
     style="stroke-width:0.992001" />
  <path
     class="Note"
     d="m 1794.5161,121.99851 c 0,4.2625 3.069,9.02103 11.1135,9.02103 10.3076,0 21.1266,-8.43203 21.1266,-17.15854 0,-5.85901 -4.96,-9.12949 -11.1135,-9.12949 -9.6255,0 -21.1266,8.13749 -21.1266,17.267"
     id="path107"
     style="stroke-width:0.992001" />
  <path
     class="Note"
     d="m 1794.5161,171.59851 c 0,4.2625 3.069,9.02103 11.1135,9.02103 10.3076,0 21.1266,-8.43203 21.1266,-17.15854 0,-5.85901 -4.96,-9.12949 -11.1135,-9.12949 -9.6255,0 -21.1266,8.13749 -21.1266,17.267"
     id="path108"
     style="stroke-width:0.992001" />
  <path
     class="Note"
     d="m 764.27267,92.331512 c -9.62548,0 -21.12654,8.044478 -21.12654,17.266998 0,4.2625 3.069,9.02103 11.11348,9.02103 10.30759,0 21.12655,-8.43203 21.12655,-17.15854 0,-5.85901 -4.96001,-9.129488 -11.11349,-9.129488 m -13.68654,21.622498 c -3.2705,0 -3.968,-2.666 -3.968,-3.565 0,-4.86701 16.66254,-13.392018 21.32802,-13.392018 2.38705,0 3.968,1.395001 3.968,3.565008 0,4.96 -16.77096,13.39201 -21.32802,13.39201"
     id="path109"
     style="stroke-width:0.992001" />
  <path
     class="Note"
     d="m 2434.2161,146.79851 c 0,4.2625 3.069,9.02103 11.1135,9.02103 10.3076,0 21.1266,-8.43203 21.1266,-17.15854 0,-5.85901 -4.96,-9.12949 -11.1135,-9.12949 -9.6255,0 -21.1266,8.13749 -21.1266,17.267"
     id="path110"
     style="stroke-width:0.992001" />
  <path
     class="Note"
     d="m 1215.4961,121.99851 c 0,4.2625 3.069,9.02103 11.1135,9.02103 10.3076,0 21.1266,-8.43203 21.1266,-17.15854 0,-5.85901 -4.96,-9.12949 -11.1135,-9.12949 -9.6255,0 -21.1266,8.13749 -21.1266,17.267"
     id="path111"
     style="stroke-width:0.992001" />
  <path
     class="Note"
     d="m 1713.5961,134.39851 c 0,4.2625 3.069,9.02103 11.1135,9.02103 10.3076,0 21.1266,-8.43203 21.1266,-17.15854 0,-5.85901 -4.96,-9.12949 -11.1135,-9.12949 -9.6255,0 -21.1266,8.13749 -21.1266,17.267"
     id="path112"
     style="stroke-width:0.992001" />
  <path
     class="Note"
     d="m 1713.5961,171.59851 c 0,4.2625 3.069,9.02103 11.1135,9.02103 10.3076,0 21.1266,-8.43203 21.1266,-17.15854 0,-5.85901 -4.96,-9.12949 -11.1135,-9.12949 -9.6255,0 -21.1266,8.13749 -21.1266,17.267"
     id="path113"
     style="stroke-width:0.992001" />
  <path
     class="Note"
     d="m 1134.5761,109.59851 c 0,4.2625 3.069,9.02103 11.1135,9.02103 10.3076,0 21.1266,-8.43203 21.1266,-17.15854 0,-5.85901 -4.96,-9.129488 -11.1135,-9.129488 -9.6255,0 -21.1266,8.137488 -21.1266,17.266998"
     id="path114"
     style="stroke-width:0.992001" />
  <path
     class="Note"
     d="m 2374.4327,166.73151 c -9.6255,0 -21.1266,8.04448 -21.1266,17.267 0,4.2625 3.069,9.02103 11.1135,9.02103 10.3076,0 21.1266,-8.43203 21.1266,-17.15854 0,-5.85901 -4.96,-9.12949 -11.1135,-9.12949 m -13.6866,21.6225 c -3.2705,0 -3.968,-2.666 -3.968,-3.56501 0,-4.867 16.6626,-13.39201 21.3281,-13.39201 2.387,0 3.968,1.395 3.968,3.56501 0,4.96 -16.771,13.39201 -21.3281,13.39201"
     id="path115"
     style="stroke-width:0.992001" />
  <path
     class="Note"
     d="m 2191.4761,109.59851 c 0,4.2625 3.069,9.02103 11.1135,9.02103 10.3076,0 21.1266,-8.43203 21.1266,-17.15854 0,-5.85901 -4.96,-9.129488 -11.1135,-9.129488 -9.6255,0 -21.1266,8.137488 -21.1266,17.266998"
     id="path116"
     style="stroke-width:0.992001" />
  <path
     class="Note"
     d="m 1350.4196,153.94394 c -13.6865,0 -18.5535,6.94405 -18.5535,13.39206 0,6.44801 4.867,13.39206 18.5535,13.39206 13.6866,0 18.4451,-6.94405 18.4451,-13.39206 0,-6.44801 -4.7585,-13.39206 -18.4451,-13.39206 m 0.7905,23.60655 c -2.7745,0 -4.6654,-0.79048 -5.952,-3.27048 -1.2865,-2.48001 -3.0689,-8.92801 -3.1774,-11.51652 -0.2015,-2.6815 0.7905,-4.2625 3.1774,-5.053 1.1935,-0.40298 2.7746,-0.60455 4.3711,-0.60455 2.666,0 4.464,0.60455 5.8435,3.28605 1.3949,2.57301 3.286,9.02101 3.286,11.50101 0,4.86701 -3.5806,5.65749 -7.5486,5.65749"
     id="path117"
     style="stroke-width:0.992001" />
  <path
     class="Note"
     d="m 988.91962,153.94394 c -13.68649,0 -18.5535,6.94405 -18.5535,13.39206 0,6.44801 4.86701,13.39206 18.5535,13.39206 13.68658,0 18.44508,-6.94405 18.44508,-13.39206 0,-6.44801 -4.7585,-13.39206 -18.44508,-13.39206 m 0.79052,23.60655 c -2.77452,0 -4.66548,-0.79048 -5.952,-3.27048 -1.28653,-2.48001 -3.06895,-8.92801 -3.17748,-11.51652 -0.20148,-2.6815 0.79053,-4.2625 3.17748,-5.053 1.19347,-0.40298 2.77453,-0.60455 4.37105,-0.60455 2.66601,0 4.46401,0.60455 5.84348,3.28605 1.39496,2.57301 3.28601,9.02101 3.28601,11.50101 0,4.86701 -3.58053,5.65749 -7.54854,5.65749"
     id="path118"
     style="stroke-width:0.992001" />
  <path
     class="Note"
     d="m 683.35767,154.33151 c -9.62548,0 -21.12654,8.04448 -21.12654,17.267 0,4.2625 3.069,9.02103 11.11348,9.02103 10.30759,0 21.12655,-8.43203 21.12655,-17.15854 0,-5.85901 -4.96001,-9.12949 -11.11349,-9.12949 m -13.68654,21.6225 c -3.2705,0 -3.968,-2.666 -3.968,-3.565 0,-4.86701 16.66254,-13.39202 21.32802,-13.39202 2.38705,0 3.968,1.395 3.968,3.56501 0,4.96 -16.77096,13.39201 -21.32802,13.39201"
     id="path119"
     style="stroke-width:0.992001" />
  <path
     class="Note"
     d="m 2055.7727,92.331512 c -9.6255,0 -21.1266,8.044478 -21.1266,17.266998 0,4.2625 3.069,9.02103 11.1135,9.02103 10.3076,0 21.1266,-8.43203 21.1266,-17.15854 0,-5.85901 -4.96,-9.129488 -11.1135,-9.129488 m -13.6866,21.622498 c -3.2705,0 -3.968,-2.666 -3.968,-3.565 0,-4.86701 16.6626,-13.392018 21.328,-13.392018 2.3871,0 3.9681,1.395001 3.9681,3.565008 0,4.96 -16.771,13.39201 -21.3281,13.39201"
     id="path120"
     style="stroke-width:0.992001" />
  <path
     class="Note"
     d="m 400.19462,153.94394 c -13.68649,0 -18.5535,6.94405 -18.5535,13.39206 0,6.44801 4.86701,13.39206 18.5535,13.39206 13.68654,0 18.44507,-6.94405 18.44507,-13.39206 0,-6.44801 -4.75853,-13.39206 -18.44507,-13.39206 m 0.79052,23.60655 c -2.77452,0 -4.66548,-0.79048 -5.952,-3.27048 -1.28653,-2.48001 -3.06895,-8.92801 -3.17748,-11.51652 -0.20148,-2.6815 0.79053,-4.2625 3.17748,-5.053 1.19347,-0.40298 2.77453,-0.60455 4.37105,-0.60455 2.66601,0 4.46401,0.60455 5.84348,3.28605 1.39496,2.57301 3.28601,9.02101 3.28601,11.50101 0,4.86701 -3.58053,5.65749 -7.54854,5.65749"
     id="path121"
     style="stroke-width:0.992001" />
  <path
     class="Note"
     d="m 1587.7161,171.59851 c 0,4.2625 3.069,9.02103 11.1135,9.02103 10.3076,0 21.1266,-8.43203 21.1266,-17.15854 0,-5.85901 -4.96,-9.12949 -11.1135,-9.12949 -9.6255,0 -21.1266,8.13749 -21.1266,17.267"
     id="path122"
     style="stroke-width:0.992001" />
  <path
     class="Note"
     d="m 764.27267,377.53151 c -9.62548,0 -21.12654,8.04448 -21.12654,17.267 0,4.2625 3.069,9.02103 11.11348,9.02103 10.30759,0 21.12655,-8.43203 21.12655,-17.15854 0,-5.85901 -4.96001,-9.12949 -11.11349,-9.12949 m -13.68654,21.6225 c -3.2705,0 -3.968,-2.666 -3.968,-3.565 0,-4.86701 16.66254,-13.39202 21.32802,-13.39202 2.38705,0 3.968,1.395 3.968,3.56501 0,4.96 -16.77096,13.39201 -21.32802,13.39201"
     id="path123"
     style="stroke-width:0.992001" />
  <path
     class="Note"
     d="m 1350.4196,389.54394 c -13.6865,0 -18.5535,6.94405 -18.5535,13.39206 0,6.44801 4.867,13.39206 18.5535,13.39206 13.6866,0 18.4451,-6.94405 18.4451,-13.39206 0,-6.44801 -4.7585,-13.39206 -18.4451,-13.39206 m 0.7905,23.60655 c -2.7745,0 -4.6654,-0.79048 -5.952,-3.27048 -1.2865,-2.48001 -3.0689,-8.92801 -3.1774,-11.51652 -0.2015,-2.6815 0.7905,-4.2625 3.1774,-5.053 1.1935,-0.40298 2.7746,-0.60455 4.3711,-0.60455 2.666,0 4.464,0.60455 5.8435,3.28605 1.3949,2.57301 3.286,9.02101 3.286,11.50101 0,4.86701 -3.5806,5.65749 -7.5486,5.65749"
     id="path124"
     style="stroke-width:0.992001" />
  <path
     class="Note"
     d="m 526.52367,352.73151 c -9.62548,0 -21.12655,8.04448 -21.12655,17.267 0,4.2625 3.06901,9.02103 11.11349,9.02103 10.30759,0 21.12655,-8.43203 21.12655,-17.15854 0,-5.85901 -4.96001,-9.12949 -11.11349,-9.12949 m -13.68654,21.6225 c -3.2705,0 -3.968,-2.666 -3.968,-3.565 0,-4.86701 16.66254,-13.39202 21.32802,-13.39202 2.38705,0 3.968,1.395 3.968,3.56501 0,4.96 -16.77096,13.39201 -21.32802,13.39201"
     id="path125"
     style="stroke-width:0.992001" />
  <path
     class="Note"
     d="m 1600.1627,389.93151 c -9.6255,0 -21.1266,8.04448 -21.1266,17.267 0,4.2625 3.069,9.02103 11.1135,9.02103 10.3076,0 21.1266,-8.43203 21.1266,-17.15854 0,-5.85901 -4.96,-9.12949 -11.1135,-9.12949 m -13.6866,21.6225 c -3.2705,0 -3.968,-2.666 -3.968,-3.565 0,-4.86701 16.6626,-13.39202 21.3281,-13.39202 2.387,0 3.968,1.395 3.968,3.56501 0,4.96 -16.771,13.39201 -21.3281,13.39201"
     id="path126"
     style="stroke-width:0.992001" />
  <path
     class="Note"
     d="m 1134.5761,394.79851 c 0,4.2625 3.069,9.02103 11.1135,9.02103 10.3076,0 21.1266,-8.43203 21.1266,-17.15854 0,-5.85901 -4.96,-9.12949 -11.1135,-9.12949 -9.6255,0 -21.1266,8.13748 -21.1266,17.267"
     id="path127"
     style="stroke-width:0.992001" />
  <path
     class="Note"
     d="m 2434.2161,431.99851 c 0,4.2625 3.069,9.02103 11.1135,9.02103 10.3076,0 21.1266,-8.43203 21.1266,-17.15854 0,-5.85901 -4.96,-9.12949 -11.1135,-9.12949 -9.6255,0 -21.1266,8.13749 -21.1266,17.267"
     id="path128"
     style="stroke-width:0.992001" />
  <path
     class="Note"
     d="m 2434.2161,469.19851 c 0,4.2625 3.069,9.02103 11.1135,9.02103 10.3076,0 21.1266,-8.43203 21.1266,-17.15854 0,-5.85901 -4.96,-9.12949 -11.1135,-9.12949 -9.6255,0 -21.1266,8.13748 -21.1266,17.267"
     id="path129"
     style="stroke-width:0.992001" />
  <path
     class="Note"
     d="m 1713.5961,456.79851 c 0,4.2625 3.069,9.02103 11.1135,9.02103 10.3076,0 21.1266,-8.43203 21.1266,-17.15854 0,-5.85901 -4.96,-9.12949 -11.1135,-9.12949 -9.6255,0 -21.1266,8.13748 -21.1266,17.267"
     id="path130"
     style="stroke-width:0.992001" />
  <path
     class="Note"
     d="m 1713.5961,419.59851 c 0,4.2625 3.069,9.02103 11.1135,9.02103 10.3076,0 21.1266,-8.43203 21.1266,-17.15854 0,-5.85901 -4.96,-9.12949 -11.1135,-9.12949 -9.6255,0 -21.1266,8.13748 -21.1266,17.267"
     id="path131"
     style="stroke-width:0.992001" />
  <path
     class="Note"
     d="m 1600.1627,439.53151 c -9.6255,0 -21.1266,8.04448 -21.1266,17.267 0,4.2625 3.069,9.02103 11.1135,9.02103 10.3076,0 21.1266,-8.43203 21.1266,-17.15854 0,-5.85901 -4.96,-9.12949 -11.1135,-9.12949 m -13.6866,21.6225 c -3.2705,0 -3.968,-2.666 -3.968,-3.565 0,-4.86701 16.6626,-13.39202 21.3281,-13.39202 2.387,0 3.968,1.395 3.968,3.56501 0,4.96 -16.771,13.39201 -21.3281,13.39201"
     id="path132"
     style="stroke-width:0.992001" />
  <path
     class="Note"
     d="m 2353.3061,469.19851 c 0,4.2625 3.069,9.02103 11.1135,9.02103 10.3076,0 21.1266,-8.43203 21.1266,-17.15854 0,-5.85901 -4.96,-9.12949 -11.1135,-9.12949 -9.6255,0 -21.1266,8.13748 -21.1266,17.267"
     id="path133"
     style="stroke-width:0.992001" />
  <path
     class="Note"
     d="m 1215.4961,407.19851 c 0,4.2625 3.069,9.02103 11.1135,9.02103 10.3076,0 21.1266,-8.43203 21.1266,-17.15854 0,-5.85901 -4.96,-9.12949 -11.1135,-9.12949 -9.6255,0 -21.1266,8.13748 -21.1266,17.267"
     id="path134"
     style="stroke-width:0.992001" />
  <path
     class="Note"
     d="m 1794.5161,456.79851 c 0,4.2625 3.069,9.02103 11.1135,9.02103 10.3076,0 21.1266,-8.43203 21.1266,-17.15854 0,-5.85901 -4.96,-9.12949 -11.1135,-9.12949 -9.6255,0 -21.1266,8.13748 -21.1266,17.267"
     id="path135"
     style="stroke-width:0.992001" />
  <path
     class="Note"
     d="m 1794.5161,407.19851 c 0,4.2625 3.069,9.02103 11.1135,9.02103 10.3076,0 21.1266,-8.43203 21.1266,-17.15854 0,-5.85901 -4.96,-9.12949 -11.1135,-9.12949 -9.6255,0 -21.1266,8.13748 -21.1266,17.267"
     id="path136"
     style="stroke-width:0.992001" />
  <path
     class="Note"
     d="m 972.75612,394.79851 c 0,4.2625 3.06901,9.02103 11.11349,9.02103 10.30759,0 21.12659,-8.43203 21.12659,-17.15854 0,-5.85901 -4.96,-9.12949 -11.11353,-9.12949 -9.62548,0 -21.12655,8.13748 -21.12655,17.267"
     id="path137"
     style="stroke-width:0.992001" />
  <path
     class="Note"
     d="m 662.23113,369.99851 c 0,4.2625 3.069,9.02103 11.11348,9.02103 10.30759,0 21.12655,-8.43203 21.12655,-17.15854 0,-5.85901 -4.96001,-9.12949 -11.11349,-9.12949 -9.62548,0 -21.12654,8.13749 -21.12654,17.267"
     id="path138"
     style="stroke-width:0.992001" />
  <path
     class="Note"
     d="m 1053.6661,407.19851 c 0,4.2625 3.069,9.02103 11.1135,9.02103 10.3076,0 21.1266,-8.43203 21.1266,-17.15854 0,-5.85901 -4.96,-9.12949 -11.1135,-9.12949 -9.6255,0 -21.1266,8.13748 -21.1266,17.267"
     id="path139"
     style="stroke-width:0.992001" />
  <path
     class="Note"
     d="m 662.23113,394.79851 c 0,4.2625 3.069,9.02103 11.11348,9.02103 10.30759,0 21.12655,-8.43203 21.12655,-17.15854 0,-5.85901 -4.96001,-9.12949 -11.11349,-9.12949 -9.62548,0 -21.12654,8.13748 -21.12654,17.267"
     id="path140"
     style="stroke-width:0.992001" />
  <path
     class="Note"
     d="m 2244.8327,439.53151 c -9.6255,0 -21.1266,8.04448 -21.1266,17.267 0,4.2625 3.069,9.02103 11.1135,9.02103 10.3076,0 21.1266,-8.43203 21.1266,-17.15854 0,-5.85901 -4.96,-9.12949 -11.1135,-9.12949 m -13.6866,21.6225 c -3.2705,0 -3.968,-2.666 -3.968,-3.565 0,-4.86701 16.6626,-13.39202 21.328,-13.39202 2.3871,0 3.9681,1.395 3.9681,3.56501 0,4.96 -16.771,13.39201 -21.3281,13.39201"
     id="path141"
     style="stroke-width:0.992001" />
  <path
     class="Note"
     d="m 1929.4396,439.14394 c -13.6865,0 -18.5535,6.94405 -18.5535,13.39206 0,6.44801 4.867,13.39206 18.5535,13.39206 13.6866,0 18.4451,-6.94405 18.4451,-13.39206 0,-6.44801 -4.7585,-13.39206 -18.4451,-13.39206 m 0.7905,23.60655 c -2.7745,0 -4.6654,-0.79048 -5.952,-3.27048 -1.2865,-2.48001 -3.0689,-8.92801 -3.1774,-11.51652 -0.2015,-2.6815 0.7905,-4.2625 3.1774,-5.053 1.1935,-0.40298 2.7746,-0.60455 4.3711,-0.60455 2.666,0 4.464,0.60455 5.8435,3.28605 1.3949,2.57301 3.286,9.02101 3.286,11.50101 0,4.86701 -3.5806,5.65749 -7.5486,5.65749"
     id="path142"
     style="stroke-width:0.992001" />
  <path
     class="Note"
     d="m 400.19462,439.14394 c -13.68649,0 -18.5535,6.94405 -18.5535,13.39206 0,6.44801 4.86701,13.39206 18.5535,13.39206 13.68654,0 18.44507,-6.94405 18.44507,-13.39206 0,-6.44801 -4.75853,-13.39206 -18.44507,-13.39206 m 0.79052,23.60655 c -2.77452,0 -4.66548,-0.79048 -5.952,-3.27048 -1.28653,-2.48001 -3.06895,-8.92801 -3.17748,-11.51652 -0.20148,-2.6815 0.79053,-4.2625 3.17748,-5.053 1.19347,-0.40298 2.77453,-0.60455 4.37105,-0.60455 2.66601,0 4.46401,0.60455 5.84348,3.28605 1.39496,2.57301 3.28601,9.02101 3.28601,11.50101 0,4.86701 -3.58053,5.65749 -7.54854,5.65749"
     id="path143"
     style="stroke-width:0.992001" />
  <path
     class="Note"
     d="m 1551.7761,444.39851 c 0,4.2625 3.069,9.02103 11.1135,9.02103 10.3076,0 21.1266,-8.43203 21.1266,-17.15854 0,-5.85901 -4.96,-9.12949 -11.1135,-9.12949 -9.6255,0 -21.1266,8.13749 -21.1266,17.267"
     id="path144"
     style="stroke-width:0.992001" />
  <path
     class="Note"
     d="m 988.91962,426.74394 c -13.68649,0 -18.5535,6.94405 -18.5535,13.39206 0,6.44801 4.86701,13.39206 18.5535,13.39206 13.68658,0 18.44508,-6.94405 18.44508,-13.39206 0,-6.44801 -4.7585,-13.39206 -18.44508,-13.39206 m 0.79052,23.60655 c -2.77452,0 -4.66548,-0.79048 -5.952,-3.27048 -1.28653,-2.48001 -3.06895,-8.92801 -3.17748,-11.51652 -0.20148,-2.6815 0.79053,-4.2625 3.17748,-5.053 1.19347,-0.40298 2.77453,-0.60455 4.37105,-0.60455 2.66601,0 4.46401,0.60455 5.84348,3.28605 1.39496,2.57301 3.28601,9.02101 3.28601,11.50101 0,4.86701 -3.58053,5.65749 -7.54854,5.65749"
     id="path145"
     style="stroke-width:0.992001" />
  <path
     class="Note"
     d="m 2212.6027,402.33151 c -9.6255,0 -21.1266,8.04448 -21.1266,17.267 0,4.2625 3.069,9.02103 11.1135,9.02103 10.3076,0 21.1266,-8.43203 21.1266,-17.15854 0,-5.85901 -4.96,-9.12949 -11.1135,-9.12949 m -13.6866,21.6225 c -3.2705,0 -3.968,-2.666 -3.968,-3.56501 0,-4.867 16.6626,-13.39201 21.328,-13.39201 2.3871,0 3.9681,1.395 3.9681,3.56501 0,4.96 -16.771,13.39201 -21.3281,13.39201"
     id="path146"
     style="stroke-width:0.992001" />
  <path
     class="Note"
     d="m 1350.4196,426.74394 c -13.6865,0 -18.5535,6.94405 -18.5535,13.39206 0,6.44801 4.867,13.39206 18.5535,13.39206 13.6866,0 18.4451,-6.94405 18.4451,-13.39206 0,-6.44801 -4.7585,-13.39206 -18.4451,-13.39206 m 0.7905,23.60655 c -2.7745,0 -4.6654,-0.79048 -5.952,-3.27048 -1.2865,-2.48001 -3.0689,-8.92801 -3.1774,-11.51652 -0.2015,-2.6815 0.7905,-4.2625 3.1774,-5.053 1.1935,-0.40298 2.7746,-0.60455 4.3711,-0.60455 2.666,0 4.464,0.60455 5.8435,3.28605 1.3949,2.57301 3.286,9.02101 3.286,11.50101 0,4.86701 -3.5806,5.65749 -7.5486,5.65749"
     id="path147"
     style="stroke-width:0.992001" />
  <path
     class="Note"
     d="m 1929.4396,401.94394 c -13.6865,0 -18.5535,6.94405 -18.5535,13.39206 0,6.44801 4.867,13.39206 18.5535,13.39206 13.6866,0 18.4451,-6.94405 18.4451,-13.39206 0,-6.44801 -4.7585,-13.39206 -18.4451,-13.39206 m 0.7905,23.60655 c -2.7745,0 -4.6654,-0.79048 -5.952,-3.27048 -1.2865,-2.48001 -3.0689,-8.92801 -3.1774,-11.51652 -0.2015,-2.6815 0.7905,-4.2625 3.1774,-5.053 1.1935,-0.40298 2.7746,-0.60455 4.3711,-0.60455 2.666,0 4.464,0.60455 5.8435,3.28605 1.3949,2.57301 3.286,9.02101 3.286,11.50101 0,4.86701 -3.5806,5.65749 -7.5486,5.65749"
     id="path148"
     style="stroke-width:0.992001" />
  <path
     class="Note"
     d="m 683.35767,439.53151 c -9.62548,0 -21.12654,8.04448 -21.12654,17.267 0,4.2625 3.069,9.02103 11.11348,9.02103 10.30759,0 21.12655,-8.43203 21.12655,-17.15854 0,-5.85901 -4.96001,-9.12949 -11.11349,-9.12949 m -13.68654,21.6225 c -3.2705,0 -3.968,-2.666 -3.968,-3.565 0,-4.86701 16.66254,-13.39202 21.32802,-13.39202 2.38705,0 3.968,1.395 3.968,3.56501 0,4.96 -16.77096,13.39201 -21.32802,13.39201"
     id="path149"
     style="stroke-width:0.992001" />
  <path
     class="Clef"
     d="m 66.867662,230.71558 c 0,6.55653 4.960005,15.19001 18.352019,15.19001 4.66548,0 8.742008,-1.19347 12.306962,-3.37905 5.363057,-3.76643 6.742537,-10.32296 6.742537,-16.56949 0,-3.85948 -0.58896,-8.32349 -1.58096,-13.98097 -0.29452,-1.984 -0.89905,-4.96 -1.488,-8.83506 9.71844,-3.17747 16.95697,-13.29896 16.95697,-23.51352 0,-14.97304 -10.61749,-25.09453 -25.094551,-25.09453 -0.992001,-5.952 -1.984002,-11.81106 -2.774428,-17.36001 10.416009,-11.02054 17.654439,-23.42055 17.654439,-39.184043 0,-9.036533 -2.77442,-16.368016 -4.37095,-19.948148 -2.37148,-5.053253 -5.254531,-8.525256 -7.037058,-8.525256 -0.697475,0 -3.766429,1.193377 -7.036957,5.053253 -6.355056,7.548135 -8.137483,20.242673 -8.137483,28.566154 0,5.36296 0.496,10.23001 2.185477,21.3435 -0.108525,0.0931 -5.270005,5.34748 -7.347057,7.03706 -9.036435,8.33895 -21.529497,20.42897 -21.529497,40.28451 0,18.53807 16.166541,33.12356 34.627085,33.12356 2.867478,0 5.548956,-0.29452 7.827483,-0.69748 1.890952,9.53244 3.084527,16.47645 3.084527,21.73098 0,10.32306 -5.363054,15.77906 -15.376015,15.77906 -2.387052,0 -4.464004,-0.496 -4.665579,-0.496 -0.09295,-0.10852 -0.294426,-0.20157 -0.294426,-0.29452 0,-0.20148 0.201475,-0.31 0.496001,-0.31 4.665479,-0.79053 9.315484,-4.75853 9.315484,-11.09802 0,-5.36305 -4.061054,-11.02053 -11.501061,-11.02053 -6.944007,0 -11.314962,5.65748 -11.314962,12.19854 M 87.606633,98.283443 c 0.899051,-3.968004 5.456006,-14.384015 10.617586,-14.384015 1.488001,0 3.859481,4.75843 3.859481,11.702437 0,10.323065 -7.62601,18.057595 -14.477067,24.800025 -0.588951,-3.968 -1.084951,-7.82748 -1.084951,-11.99696 0,-3.67348 0.294525,-7.05253 1.084951,-10.121487 m 8.726534,101.974627 c -1.984002,0.40295 -3.859479,0.60443 -5.750531,0.60443 -14.182439,0 -26.287996,-9.92001 -26.287996,-24.9085 0,-12.09007 8.525028,-22.90903 17.267037,-30.45756 1.674002,-1.488 3.270528,-2.86748 4.75853,-4.35548 0.883476,5.34748 1.580952,10.01296 2.278427,14.08949 -9.036434,2.68148 -15.17444,12.19854 -15.17444,21.52955 0,6.944 5.456005,16.46101 13.392013,16.46101 0.790426,0 1.689477,-0.40295 1.689477,-1.28652 0,-0.89895 -0.992001,-1.39495 -2.185477,-2.18548 -3.875054,-2.387 -6.060531,-4.96001 -6.060531,-9.82701 0,-6.04501 4.572529,-10.91206 10.32296,-12.29154 l 5.750531,32.62761 M 110.42266,181.906 c 0,7.05251 -2.88296,14.29102 -9.92001,17.17407 -2.076956,-11.90406 -4.758434,-27.68308 -5.456009,-32.05413 8.928009,0 15.376019,6.06055 15.376019,14.88006"
     id="path150"
     style="stroke-width:0.992001" />
  <path
     class="Clef"
     d="m 66.867662,491.11558 c 0,6.55653 4.960005,15.19001 18.352019,15.19001 4.66548,0 8.742008,-1.19347 12.306962,-3.37905 5.363057,-3.76643 6.742537,-10.32296 6.742537,-16.56949 0,-3.85948 -0.58896,-8.32349 -1.58096,-13.98097 -0.29452,-1.984 -0.89905,-4.96 -1.488,-8.83506 9.71844,-3.17747 16.95697,-13.29896 16.95697,-23.51352 0,-14.97304 -10.61749,-25.09453 -25.094551,-25.09453 -0.992001,-5.952 -1.984002,-11.81106 -2.774428,-17.36001 10.416009,-11.02054 17.654439,-23.42055 17.654439,-39.18404 0,-9.03654 -2.77442,-16.36802 -4.37095,-19.94815 -2.37148,-5.05325 -5.254531,-8.52526 -7.037058,-8.52526 -0.697475,0 -3.766429,1.19338 -7.036957,5.05326 -6.355056,7.54813 -8.137483,20.24267 -8.137483,28.56615 0,5.36296 0.496,10.23001 2.185477,21.3435 -0.108525,0.0931 -5.270005,5.34748 -7.347057,7.03706 -9.036435,8.33895 -21.529497,20.42897 -21.529497,40.28451 0,18.53807 16.166541,33.12356 34.627085,33.12356 2.867478,0 5.548956,-0.29452 7.827483,-0.69748 1.890952,9.53244 3.084527,16.47645 3.084527,21.73098 0,10.32306 -5.363054,15.77906 -15.376015,15.77906 -2.387052,0 -4.464004,-0.496 -4.665579,-0.496 -0.09295,-0.10852 -0.294426,-0.20157 -0.294426,-0.29452 0,-0.20148 0.201475,-0.31 0.496001,-0.31 4.665479,-0.79053 9.315484,-4.75853 9.315484,-11.09802 0,-5.36305 -4.061054,-11.02053 -11.501061,-11.02053 -6.944007,0 -11.314962,5.65748 -11.314962,12.19854 M 87.606633,358.68344 c 0.899051,-3.968 5.456006,-14.38401 10.617586,-14.38401 1.488001,0 3.859481,4.75843 3.859481,11.70244 0,10.32306 -7.62601,18.05759 -14.477067,24.80002 -0.588951,-3.968 -1.084951,-7.82748 -1.084951,-11.99696 0,-3.67348 0.294525,-7.05253 1.084951,-10.12149 m 8.726534,101.97463 c -1.984002,0.40295 -3.859479,0.60443 -5.750531,0.60443 -14.182439,0 -26.287996,-9.92001 -26.287996,-24.9085 0,-12.09007 8.525028,-22.90903 17.267037,-30.45756 1.674002,-1.488 3.270528,-2.86748 4.75853,-4.35548 0.883476,5.34748 1.580952,10.01296 2.278427,14.08949 -9.036434,2.68148 -15.17444,12.19854 -15.17444,21.52955 0,6.944 5.456005,16.46101 13.392013,16.46101 0.790426,0 1.689477,-0.40295 1.689477,-1.28652 0,-0.89895 -0.992001,-1.39495 -2.185477,-2.18548 -3.875054,-2.387 -6.060531,-4.96 -6.060531,-9.82701 0,-6.04501 4.572529,-10.91206 10.32296,-12.29154 l 5.750531,32.62761 M 110.42266,442.306 c 0,7.05251 -2.88296,14.29102 -9.92001,17.17407 -2.076956,-11.90406 -4.758434,-27.68308 -5.456009,-32.05413 8.928009,0 15.376019,6.06055 15.376019,14.88006"
     id="path151"
     style="stroke-width:0.992001" />
  <path
     class="KeySig"
     d="m 148.64514,139.65298 c -4.96001,0 -7.84301,3.06896 -8.33901,3.67348 l 0.403,-31.85255 c 0,-0.79043 -0.589,-1.37948 -1.395,-1.37948 h -1.178 c -0.806,0 -1.39501,0.58905 -1.39501,1.37948 l 0.49601,59.62858 c 0,0.79053 0.589,1.37958 1.395,1.37958 0.186,0 0.589,-0.0931 0.7905,-0.186 8.52503,-4.27801 17.45304,-12.40007 17.45304,-22.63008 0,-5.14605 -2.37148,-10.01301 -8.23053,-10.01301 m -8.63351,27.97751 0.2945,-19.344 c 0.2015,-0.899 1.68951,-3.76655 5.65751,-3.76655 3.58055,0 3.87497,3.36355 3.87497,5.45605 0,8.81952 -3.27048,12.49302 -9.82698,17.6545"
     id="path152"
     style="stroke-width:0.992001" />
  <path
     class="KeySig"
     d="m 176.22014,102.45298 c -4.96001,0 -7.84301,3.06896 -8.33901,3.67348 l 0.403,-31.852554 c 0,-0.790426 -0.589,-1.379476 -1.395,-1.379476 h -1.178 c -0.806,0 -1.39501,0.58905 -1.39501,1.379476 l 0.49601,59.628584 c 0,0.79053 0.589,1.37958 1.395,1.37958 0.186,0 0.589,-0.0931 0.7905,-0.186 8.52503,-4.27801 17.45304,-12.40007 17.45304,-22.63008 0,-5.14605 -2.37148,-10.01301 -8.23053,-10.01301 m -8.63351,27.97751 0.2945,-19.344 c 0.2015,-0.899 1.68951,-3.76655 5.65751,-3.76655 3.58055,0 3.87497,3.36355 3.87497,5.45605 0,8.81952 -3.27048,12.49302 -9.82698,17.6545"
     id="path153"
     style="stroke-width:0.992001" />
  <path
     class="KeySig"
     d="m 203.79414,152.05298 c -4.96001,0 -7.84301,3.06896 -8.33901,3.67348 l 0.403,-31.85255 c 0,-0.79043 -0.589,-1.37948 -1.395,-1.37948 h -1.178 c -0.806,0 -1.39501,0.58905 -1.39501,1.37948 l 0.49601,59.62858 c 0,0.79053 0.589,1.37958 1.395,1.37958 0.186,0 0.589,-0.0931 0.7905,-0.186 8.52503,-4.27801 17.45304,-12.40007 17.45304,-22.63008 0,-5.14605 -2.37148,-10.01301 -8.23053,-10.01301 m -8.63351,27.97751 0.2945,-19.344 c 0.2015,-0.899 1.68951,-3.76655 5.65751,-3.76655 3.58055,0 3.87497,3.36355 3.87497,5.45605 0,8.81952 -3.27048,12.49302 -9.82698,17.6545"
     id="path154"
     style="stroke-width:0.992001" />
  <path
     class="KeySig"
     d="m 231.36914,114.85298 c -4.96001,0 -7.84301,3.06896 -8.33901,3.67348 l 0.403,-31.852554 c 0,-0.790426 -0.589,-1.379476 -1.395,-1.379476 h -1.178 c -0.806,0 -1.39501,0.58905 -1.39501,1.379476 l 0.49601,59.628584 c 0,0.79053 0.589,1.37958 1.395,1.37958 0.186,0 0.589,-0.0931 0.7905,-0.186 8.52503,-4.27801 17.45304,-12.40007 17.45304,-22.63008 0,-5.14605 -2.37148,-10.01301 -8.23053,-10.01301 m -8.63351,27.97751 0.2945,-19.344 c 0.2015,-0.899 1.68951,-3.76655 5.65751,-3.76655 3.58055,0 3.87497,3.36355 3.87497,5.45605 0,8.81952 -3.27048,12.49302 -9.82698,17.6545"
     id="path155"
     style="stroke-width:0.992001" />
  <path
     class="KeySig"
     d="m 258.94314,164.45298 c -4.96001,0 -7.84301,3.06896 -8.33901,3.67348 l 0.403,-31.85255 c 0,-0.79043 -0.589,-1.37948 -1.395,-1.37948 h -1.178 c -0.806,0 -1.395,0.58905 -1.395,1.37948 l 0.496,59.62858 c 0,0.79053 0.589,1.37958 1.395,1.37958 0.186,0 0.589,-0.0931 0.7905,-0.186 8.52503,-4.27801 17.45304,-12.40007 17.45304,-22.63008 0,-5.14605 -2.37148,-10.01301 -8.23053,-10.01301 m -8.63351,27.97751 0.2945,-19.344 c 0.2015,-0.899 1.68951,-3.76655 5.65751,-3.76655 3.58055,0 3.87497,3.36355 3.87497,5.45605 0,8.81952 -3.27048,12.49302 -9.82698,17.6545"
     id="path156"
     style="stroke-width:0.992001" />
  <path
     class="KeySig"
     d="m 148.64514,400.05298 c -4.96001,0 -7.84301,3.06896 -8.33901,3.67348 l 0.403,-31.85255 c 0,-0.79043 -0.589,-1.37948 -1.395,-1.37948 h -1.178 c -0.806,0 -1.39501,0.58905 -1.39501,1.37948 l 0.49601,59.62858 c 0,0.79053 0.589,1.37958 1.395,1.37958 0.186,0 0.589,-0.0931 0.7905,-0.186 8.52503,-4.27801 17.45304,-12.40007 17.45304,-22.63008 0,-5.14605 -2.37148,-10.01301 -8.23053,-10.01301 m -8.63351,27.97751 0.2945,-19.344 c 0.2015,-0.899 1.68951,-3.76655 5.65751,-3.76655 3.58055,0 3.87497,3.36355 3.87497,5.45605 0,8.81952 -3.27048,12.49302 -9.82698,17.6545"
     id="path157"
     style="stroke-width:0.992001" />
  <path
     class="KeySig"
     d="m 176.22014,362.85298 c -4.96001,0 -7.84301,3.06896 -8.33901,3.67348 l 0.403,-31.85255 c 0,-0.79043 -0.589,-1.37948 -1.395,-1.37948 h -1.178 c -0.806,0 -1.39501,0.58905 -1.39501,1.37948 l 0.49601,59.62858 c 0,0.79053 0.589,1.37958 1.395,1.37958 0.186,0 0.589,-0.0931 0.7905,-0.186 8.52503,-4.27801 17.45304,-12.40007 17.45304,-22.63008 0,-5.14605 -2.37148,-10.01301 -8.23053,-10.01301 m -8.63351,27.97751 0.2945,-19.344 c 0.2015,-0.899 1.68951,-3.76655 5.65751,-3.76655 3.58055,0 3.87497,3.36355 3.87497,5.45605 0,8.81952 -3.27048,12.49302 -9.82698,17.6545"
     id="path158"
     style="stroke-width:0.992001" />
  <path
     class="KeySig"
     d="m 203.79414,412.45298 c -4.96001,0 -7.84301,3.06896 -8.33901,3.67348 l 0.403,-31.85255 c 0,-0.79043 -0.589,-1.37948 -1.395,-1.37948 h -1.178 c -0.806,0 -1.39501,0.58905 -1.39501,1.37948 l 0.49601,59.62858 c 0,0.79053 0.589,1.37958 1.395,1.37958 0.186,0 0.589,-0.093 0.7905,-0.186 8.52503,-4.27801 17.45304,-12.40007 17.45304,-22.63008 0,-5.14605 -2.37148,-10.01301 -8.23053,-10.01301 m -8.63351,27.97751 0.2945,-19.344 c 0.2015,-0.899 1.68951,-3.76655 5.65751,-3.76655 3.58055,0 3.87497,3.36355 3.87497,5.45605 0,8.81952 -3.27048,12.49302 -9.82698,17.6545"
     id="path159"
     style="stroke-width:0.992001" />
  <path
     class="KeySig"
     d="m 231.36914,375.25298 c -4.96001,0 -7.84301,3.06896 -8.33901,3.67348 l 0.403,-31.85255 c 0,-0.79043 -0.589,-1.37948 -1.395,-1.37948 h -1.178 c -0.806,0 -1.39501,0.58905 -1.39501,1.37948 l 0.49601,59.62858 c 0,0.79053 0.589,1.37958 1.395,1.37958 0.186,0 0.589,-0.0931 0.7905,-0.186 8.52503,-4.27801 17.45304,-12.40007 17.45304,-22.63008 0,-5.14605 -2.37148,-10.01301 -8.23053,-10.01301 m -8.63351,27.97751 0.2945,-19.344 c 0.2015,-0.899 1.68951,-3.76655 5.65751,-3.76655 3.58055,0 3.87497,3.36355 3.87497,5.45605 0,8.81952 -3.27048,12.49302 -9.82698,17.6545"
     id="path160"
     style="stroke-width:0.992001" />
  <path
     class="KeySig"
     d="m 258.94314,424.85298 c -4.96001,0 -7.84301,3.06896 -8.33901,3.67348 l 0.403,-31.85255 c 0,-0.79043 -0.589,-1.37948 -1.395,-1.37948 h -1.178 c -0.806,0 -1.395,0.58905 -1.395,1.37948 l 0.496,59.62858 c 0,0.79053 0.589,1.37958 1.395,1.37958 0.186,0 0.589,-0.0931 0.7905,-0.186 8.52503,-4.27801 17.45304,-12.40007 17.45304,-22.63008 0,-5.14605 -2.37148,-10.01301 -8.23053,-10.01301 m -8.63351,27.97751 0.2945,-19.344 c 0.2015,-0.899 1.68951,-3.76655 5.65751,-3.76655 3.58055,0 3.87497,3.36355 3.87497,5.45605 0,8.81952 -3.27048,12.49302 -9.82698,17.6545"
     id="path161"
     style="stroke-width:0.992001" />
  <path
     class="TimeSig"
     d="m 311.22467,142.83049 v 7.33158 h -8.23053 c -0.69748,0 -1.39495,0.60443 -1.39495,1.39495 v 1.89105 c 0,0.79043 0.69747,1.37948 1.39495,1.37948 h 30.05455 c 0.806,0 1.39495,-0.58905 1.39495,-1.37948 v -1.89105 c 0,-0.79052 -0.58895,-1.39495 -1.39495,-1.39495 h -8.81948 v -7.33158 h 8.81948 c 0.806,0 1.39495,-0.69748 1.39495,-1.488 v -1.89098 c 0,-0.6975 -0.58895,-1.3795 -1.39495,-1.3795 h -8.81948 v -15.77902 c 0,-0.589 -0.29453,-1.085 -0.79053,-1.2865 l -1.19347,-0.6045 c -0.20158,-0.093 -0.496,-0.18605 -0.69758,-0.18605 -0.29442,0.093 -0.69747,0.18605 -0.89895,0.38755 l -9.02106,8.23051 c -0.29442,0.31 -0.40295,0.6975 -0.40295,1.1005 v 8.13751 h -11.40803 c 0,0 11.02056,-11.90401 22.72299,-27.59008 0.40305,-0.496 0.496,-0.992 0.496,-1.37948 0,-0.496 -0.20147,-0.89895 -0.29442,-0.992 l -2.18558,-2.18547 c -0.20148,-0.20148 -0.58895,-0.40305 -0.992,-0.40305 -0.58895,0 -13.99644,0 -14.67844,0 -0.806,0 -1.302,0.60452 -1.39505,1.19357 0,0 -0.496,7.34696 -3.06901,15.37599 -2.58849,8.04451 -5.5645,13.00451 -8.1375,16.66252 0,0 -0.2945,0.496 -0.2945,1.1005 0,0.2015 0,0.38755 0.093,0.58903 0.403,0.69747 0.992,1.78252 0.992,1.78252 0,0 0.2015,0.60443 1.085,0.60443 h 17.06554"
     id="path162"
     style="stroke-width:0.992001" />
  <path
     class="TimeSig"
     d="m 311.22467,192.43049 v 7.33158 h -8.23053 c -0.69748,0 -1.39495,0.60443 -1.39495,1.39495 v 1.89105 c 0,0.79043 0.69747,1.37948 1.39495,1.37948 h 30.05455 c 0.806,0 1.39495,-0.58905 1.39495,-1.37948 v -1.89105 c 0,-0.79052 -0.58895,-1.39495 -1.39495,-1.39495 h -8.81948 v -7.33158 h 8.81948 c 0.806,0 1.39495,-0.69748 1.39495,-1.488 v -1.89098 c 0,-0.6975 -0.58895,-1.3795 -1.39495,-1.3795 h -8.81948 v -15.77902 c 0,-0.589 -0.29453,-1.085 -0.79053,-1.2865 l -1.19347,-0.6045 c -0.20158,-0.093 -0.496,-0.18605 -0.69758,-0.18605 -0.29442,0.093 -0.69747,0.18605 -0.89895,0.38755 l -9.02106,8.23051 c -0.29442,0.31 -0.40295,0.6975 -0.40295,1.1005 v 8.13751 h -11.40803 c 0,0 11.02056,-11.90401 22.72299,-27.59008 0.40305,-0.496 0.496,-0.992 0.496,-1.37948 0,-0.496 -0.20147,-0.89895 -0.29442,-0.992 l -2.18558,-2.18547 c -0.20148,-0.20148 -0.58895,-0.40305 -0.992,-0.40305 -0.58895,0 -13.99644,0 -14.67844,0 -0.806,0 -1.302,0.60452 -1.39505,1.19357 0,0 -0.496,7.34696 -3.06901,15.37599 -2.58849,8.04451 -5.5645,13.00451 -8.1375,16.66252 0,0 -0.2945,0.496 -0.2945,1.1005 0,0.2015 0,0.38755 0.093,0.58903 0.403,0.69747 0.992,1.78252 0.992,1.78252 0,0 0.2015,0.60443 1.085,0.60443 h 17.06554"
     id="path163"
     style="stroke-width:0.992001" />
  <path
     class="TimeSig"
     d="m 311.22467,403.23049 v 7.33158 h -8.23053 c -0.69748,0 -1.39495,0.60443 -1.39495,1.39495 v 1.89105 c 0,0.79043 0.69747,1.37948 1.39495,1.37948 h 30.05455 c 0.806,0 1.39495,-0.58905 1.39495,-1.37948 v -1.89105 c 0,-0.79052 -0.58895,-1.39495 -1.39495,-1.39495 h -8.81948 v -7.33158 h 8.81948 c 0.806,0 1.39495,-0.69748 1.39495,-1.488 v -1.89098 c 0,-0.6975 -0.58895,-1.3795 -1.39495,-1.3795 h -8.81948 v -15.77902 c 0,-0.589 -0.29453,-1.085 -0.79053,-1.2865 l -1.19347,-0.6045 c -0.20158,-0.093 -0.496,-0.18605 -0.69758,-0.18605 -0.29442,0.093 -0.69747,0.18605 -0.89895,0.38755 l -9.02106,8.23051 c -0.29442,0.31 -0.40295,0.6975 -0.40295,1.1005 v 8.13751 h -11.40803 c 0,0 11.02056,-11.90401 22.72299,-27.59008 0.40305,-0.496 0.496,-0.992 0.496,-1.37948 0,-0.496 -0.20147,-0.89895 -0.29442,-0.992 l -2.18558,-2.18547 c -0.20148,-0.20148 -0.58895,-0.40305 -0.992,-0.40305 -0.58895,0 -13.99644,0 -14.67844,0 -0.806,0 -1.302,0.60452 -1.39505,1.19357 0,0 -0.496,7.34696 -3.06901,15.37599 -2.58849,8.04451 -5.5645,13.00451 -8.1375,16.66252 0,0 -0.2945,0.496 -0.2945,1.1005 0,0.2015 0,0.38755 0.093,0.58903 0.403,0.69747 0.992,1.78252 0.992,1.78252 0,0 0.2015,0.60443 1.085,0.60443 h 17.06554"
     id="path164"
     style="stroke-width:0.992001" />
  <path
     class="TimeSig"
     d="m 311.22467,452.83049 v 7.33158 h -8.23053 c -0.69748,0 -1.39495,0.60443 -1.39495,1.39495 v 1.89105 c 0,0.79043 0.69747,1.37948 1.39495,1.37948 h 30.05455 c 0.806,0 1.39495,-0.58905 1.39495,-1.37948 v -1.89105 c 0,-0.79052 -0.58895,-1.39495 -1.39495,-1.39495 h -8.81948 v -7.33158 h 8.81948 c 0.806,0 1.39495,-0.69748 1.39495,-1.488 v -1.89098 c 0,-0.6975 -0.58895,-1.3795 -1.39495,-1.3795 h -8.81948 v -15.77902 c 0,-0.589 -0.29453,-1.085 -0.79053,-1.2865 l -1.19347,-0.6045 c -0.20158,-0.093 -0.496,-0.18605 -0.69758,-0.18605 -0.29442,0.0931 -0.69747,0.18605 -0.89895,0.38755 l -9.02106,8.23051 c -0.29442,0.31 -0.40295,0.6975 -0.40295,1.1005 v 8.13751 h -11.40803 c 0,0 11.02056,-11.90401 22.72299,-27.59008 0.40305,-0.496 0.496,-0.992 0.496,-1.37948 0,-0.496 -0.20147,-0.89895 -0.29442,-0.992 l -2.18558,-2.18547 c -0.20148,-0.20148 -0.58895,-0.40305 -0.992,-0.40305 -0.58895,0 -13.99644,0 -14.67844,0 -0.806,0 -1.302,0.60452 -1.39505,1.19357 0,0 -0.496,7.34696 -3.06901,15.37599 -2.58849,8.04451 -5.5645,13.00451 -8.1375,16.66252 0,0 -0.2945,0.496 -0.2945,1.1005 0,0.2015 0,0.38755 0.093,0.58903 0.403,0.69747 0.992,1.78252 0.992,1.78252 0,0 0.2015,0.60443 1.085,0.60443 h 17.06554"
     id="path165"
     style="stroke-width:0.992001" />
  <path
     class="Rest"
     d="m 384.02813,129.237 c 0,1.395 0,1.395 1.395,1.395 h 29.46555 c 1.37948,0 1.37948,0 1.37948,-1.395 v -10.71054 c 0,-1.39495 0,-1.39495 -1.37948,-1.39495 h -29.46555 c -1.395,0 -1.395,0 -1.395,1.39495 V 129.237"
     id="path166"
     style="stroke-width:0.992001" />
  <path
     class="Rest"
     d="m 1655.5021,245.89007 c -0.093,-0.0931 -0.2945,-0.29453 -0.5889,-0.682 l -11.408,-14.08956 c -0.1085,-0.10851 -0.2016,-0.403 -0.2016,-0.60451 0,-0.2945 0.093,-0.682 0.2016,-0.8835 l 10.106,-15.28299 c 0.1084,-0.20158 0.2015,-0.496 0.2015,-0.69758 v -0.88347 c 0,-0.29453 -0.093,-0.60453 -0.2946,-0.79053 l -16.0735,-21.73097 c 0,0 -0.3875,-0.60452 -0.992,-0.60452 -0.2945,0 -0.496,0 -0.7905,0.31 -0.403,0.29452 -0.496,0.682 -0.496,0.992 0,0.58905 0.2945,1.08505 0.2945,1.08505 l 7.5486,10.32296 c 0.186,0.29452 0.2944,0.682 0.2944,1.178 0,0.40305 -0.1084,0.89905 -0.2944,1.19348 l -10.0286,15.28306 c -0.093,0.2015 -0.2015,0.589 -0.2015,0.7905 v 0.899 c 0,0.2945 0.1085,0.589 0.31,0.7905 l 11.0981,13.79502 c -0.3876,-0.1085 -1.2865,-0.31 -2.4801,-0.31 -5.053,0 -9.021,4.16953 -9.021,9.23806 0,1.37947 0.2945,2.77442 1.085,3.85947 2.0925,3.17748 9.5325,12.60149 9.5325,12.60149 0,0 0.496,0.60453 1.1936,0.60453 0.186,0 0.3875,0 0.5889,-0.20148 0.496,-0.40305 0.6975,-0.79052 0.6975,-1.19357 0,-0.40295 -0.2015,-0.69748 -0.2944,-0.89895 -0.31,-0.496 -3.4721,-6.24654 -3.4721,-6.24654 0,0 -0.6975,-1.39495 -0.6975,-3.17747 0,-3.17748 2.3716,-5.75053 5.5491,-5.75053 1.2865,0 2.3869,0.40305 3.1774,0.89905 l 3.8751,2.48 c 0,0 0.3875,0.186 0.7904,0.186 0.3876,0 0.6976,-0.0931 0.992,-0.496 0.2016,-0.29453 0.2945,-0.58905 0.2945,-0.88358 0,-0.29442 -0.093,-0.496 -0.2945,-0.79042 l -0.2015,-0.31"
     id="path167"
     style="stroke-width:0.992001" />
  <path
     class="Rest"
     d="m 2295.2021,245.89007 c -0.093,-0.0931 -0.2945,-0.29453 -0.5889,-0.682 l -11.408,-14.08956 c -0.1085,-0.10851 -0.2016,-0.403 -0.2016,-0.60451 0,-0.2945 0.093,-0.682 0.2016,-0.8835 l 10.106,-15.28299 c 0.1084,-0.20158 0.2015,-0.496 0.2015,-0.69758 v -0.88347 c 0,-0.29453 -0.093,-0.60453 -0.2946,-0.79053 l -16.0735,-21.73097 c 0,0 -0.3875,-0.60452 -0.992,-0.60452 -0.2945,0 -0.496,0 -0.7905,0.31 -0.403,0.29452 -0.496,0.682 -0.496,0.992 0,0.58905 0.2945,1.08505 0.2945,1.08505 l 7.5486,10.32296 c 0.186,0.29452 0.2944,0.682 0.2944,1.178 0,0.40305 -0.1084,0.89905 -0.2944,1.19348 l -10.0286,15.28306 c -0.093,0.2015 -0.2015,0.589 -0.2015,0.7905 v 0.899 c 0,0.2945 0.1085,0.589 0.31,0.7905 l 11.0981,13.79502 c -0.3876,-0.1085 -1.2865,-0.31 -2.4801,-0.31 -5.053,0 -9.021,4.16953 -9.021,9.23806 0,1.37947 0.2945,2.77442 1.085,3.85947 2.0925,3.17748 9.5325,12.60149 9.5325,12.60149 0,0 0.496,0.60453 1.1936,0.60453 0.186,0 0.3875,0 0.5889,-0.20148 0.496,-0.40305 0.6975,-0.79052 0.6975,-1.19357 0,-0.40295 -0.2015,-0.69748 -0.2944,-0.89895 -0.31,-0.496 -3.4721,-6.24654 -3.4721,-6.24654 0,0 -0.6975,-1.39495 -0.6975,-3.17747 0,-3.17748 2.3716,-5.75053 5.5491,-5.75053 1.2865,0 2.3869,0.40305 3.1774,0.89905 l 3.8751,2.48 c 0,0 0.3875,0.186 0.7904,0.186 0.3876,0 0.6976,-0.0931 0.992,-0.496 0.2016,-0.29453 0.2945,-0.58905 0.2945,-0.88358 0,-0.29442 -0.093,-0.496 -0.2945,-0.79042 l -0.2015,-0.31"
     id="path168"
     style="stroke-width:0.992001" />
  <path
     class="Rest"
     d="m 868.53215,196.29007 c -0.0929,-0.093 -0.29453,-0.29453 -0.58895,-0.682 l -11.40801,-14.08956 c -0.10853,-0.10851 -0.20158,-0.403 -0.20158,-0.60451 0,-0.2945 0.093,-0.682 0.20158,-0.8835 l 10.10601,-15.28299 c 0.10842,-0.20158 0.20147,-0.496 0.20147,-0.69758 v -0.88347 c 0,-0.29453 -0.093,-0.60453 -0.29452,-0.79053 l -16.07352,-21.73097 c 0,0 -0.3875,-0.60452 -0.992,-0.60452 -0.2945,0 -0.496,0 -0.7905,0.31 -0.403,0.29452 -0.496,0.682 -0.496,0.992 0,0.58905 0.2945,1.08505 0.2945,1.08505 l 7.54856,10.32296 c 0.186,0.29452 0.29442,0.682 0.29442,1.178 0,0.40305 -0.10842,0.89905 -0.29442,1.19348 l -10.02856,15.28306 c -0.093,0.2015 -0.2015,0.589 -0.2015,0.7905 v 0.899 c 0,0.2945 0.1085,0.589 0.31,0.7905 l 11.09806,13.79502 c -0.38758,-0.1085 -1.28653,-0.31 -2.48006,-0.31 -5.053,0 -9.021,4.16953 -9.021,9.23806 0,1.37947 0.2945,2.77442 1.085,3.85947 2.0925,3.17748 9.53248,12.60149 9.53248,12.60149 0,0 0.496,0.60453 1.19358,0.60453 0.186,0 0.38747,0 0.58895,-0.20148 0.496,-0.40305 0.69747,-0.79052 0.69747,-1.19357 0,-0.40295 -0.20147,-0.69748 -0.29442,-0.89895 -0.31,-0.496 -3.47206,-6.24654 -3.47206,-6.24654 0,0 -0.69749,-1.39495 -0.69749,-3.17747 0,-3.17748 2.37155,-5.75053 5.54902,-5.75053 1.28653,0 2.38696,0.40305 3.17748,0.89905 l 3.87506,2.48 c 0,0 0.38747,0.186 0.79042,0.186 0.38758,0 0.69758,-0.0931 0.992,-0.496 0.20158,-0.29453 0.29453,-0.58905 0.29453,-0.88358 0,-0.29442 -0.0929,-0.496 -0.29453,-0.79042 l -0.20147,-0.31"
     id="path169"
     style="stroke-width:0.992001" />
  <path
     class="Rest"
     d="m 1913.2761,203.637 c 0,1.395 0,1.395 1.395,1.395 h 29.4656 c 1.3795,0 1.3795,0 1.3795,-1.395 v -10.71054 c 0,-1.39495 0,-1.39495 -1.3795,-1.39495 h -29.4656 c -1.395,0 -1.395,0 -1.395,1.39495 V 203.637"
     id="path170"
     style="stroke-width:0.992001" />
  <path
     class="Rest"
     d="m 1713.5961,203.637 c 0,1.395 0,1.395 1.395,1.395 h 29.4656 c 1.3795,0 1.3795,0 1.3795,-1.395 v -10.71054 c 0,-1.39495 0,-1.39495 -1.3795,-1.39495 h -29.4656 c -1.395,0 -1.395,0 -1.395,1.39495 V 203.637"
     id="path171"
     style="stroke-width:0.992001" />
  <path
     class="Rest"
     d="m 384.02813,389.637 c 0,1.395 0,1.395 1.395,1.395 h 29.46555 c 1.37948,0 1.37948,0 1.37948,-1.395 v -10.71054 c 0,-1.39495 0,-1.39495 -1.37948,-1.39495 h -29.46555 c -1.395,0 -1.395,0 -1.395,1.39495 V 389.637"
     id="path172"
     style="stroke-width:0.992001" />
  <path
     class="Rest"
     d="m 2457.0321,543.49007 c -0.093,-0.093 -0.2945,-0.29453 -0.5889,-0.682 l -11.408,-14.08956 c -0.1085,-0.10851 -0.2016,-0.403 -0.2016,-0.60451 0,-0.2945 0.093,-0.682 0.2016,-0.8835 l 10.106,-15.28299 c 0.1084,-0.20158 0.2015,-0.496 0.2015,-0.69758 v -0.88347 c 0,-0.29453 -0.093,-0.60453 -0.2946,-0.79053 l -16.0735,-21.73097 c 0,0 -0.3875,-0.60452 -0.992,-0.60452 -0.2945,0 -0.496,0 -0.7905,0.31 -0.403,0.29452 -0.496,0.682 -0.496,0.992 0,0.58905 0.2945,1.08505 0.2945,1.08505 l 7.5486,10.32296 c 0.186,0.29452 0.2944,0.682 0.2944,1.178 0,0.40305 -0.1084,0.89905 -0.2944,1.19348 l -10.0286,15.28306 c -0.093,0.2015 -0.2015,0.589 -0.2015,0.7905 v 0.899 c 0,0.2945 0.1085,0.589 0.31,0.7905 l 11.0981,13.79502 c -0.3876,-0.1085 -1.2865,-0.31 -2.4801,-0.31 -5.053,0 -9.021,4.16953 -9.021,9.23806 0,1.37947 0.2945,2.77442 1.085,3.85947 2.0925,3.17748 9.5325,12.60149 9.5325,12.60149 0,0 0.496,0.60453 1.1936,0.60453 0.186,0 0.3875,0 0.5889,-0.20148 0.496,-0.40305 0.6975,-0.79052 0.6975,-1.19357 0,-0.40295 -0.2015,-0.69748 -0.2944,-0.89895 -0.31,-0.496 -3.4721,-6.24654 -3.4721,-6.24654 0,0 -0.6975,-1.39495 -0.6975,-3.17747 0,-3.17748 2.3716,-5.75053 5.5491,-5.75053 1.2865,0 2.3869,0.40305 3.1774,0.89905 l 3.8751,2.48 c 0,0 0.3875,0.186 0.7904,0.186 0.3876,0 0.6976,-0.093 0.992,-0.496 0.2016,-0.29453 0.2945,-0.58905 0.2945,-0.88358 0,-0.29442 -0.093,-0.496 -0.2945,-0.79042 l -0.2015,-0.31"
     id="path173"
     style="stroke-width:0.992001" />
  <path
     class="Rest"
     d="m 868.53215,456.69007 c -0.0929,-0.0931 -0.29453,-0.29453 -0.58895,-0.682 l -11.40801,-14.08956 c -0.10853,-0.10851 -0.20158,-0.403 -0.20158,-0.60451 0,-0.2945 0.093,-0.682 0.20158,-0.8835 l 10.10601,-15.28299 c 0.10842,-0.20158 0.20147,-0.496 0.20147,-0.69758 v -0.88347 c 0,-0.29453 -0.093,-0.60453 -0.29452,-0.79053 l -16.07352,-21.73097 c 0,0 -0.3875,-0.60452 -0.992,-0.60452 -0.2945,0 -0.496,0 -0.7905,0.31 -0.403,0.29452 -0.496,0.682 -0.496,0.992 0,0.58905 0.2945,1.08505 0.2945,1.08505 l 7.54856,10.32296 c 0.186,0.29452 0.29442,0.682 0.29442,1.178 0,0.40305 -0.10842,0.89905 -0.29442,1.19348 l -10.02856,15.28306 c -0.093,0.2015 -0.2015,0.589 -0.2015,0.7905 v 0.899 c 0,0.2945 0.1085,0.589 0.31,0.7905 l 11.09806,13.79502 c -0.38758,-0.1085 -1.28653,-0.31 -2.48006,-0.31 -5.053,0 -9.021,4.16953 -9.021,9.23806 0,1.37947 0.2945,2.77442 1.085,3.85947 2.0925,3.17748 9.53248,12.60149 9.53248,12.60149 0,0 0.496,0.60453 1.19358,0.60453 0.186,0 0.38747,0 0.58895,-0.20148 0.496,-0.40305 0.69747,-0.79052 0.69747,-1.19357 0,-0.40295 -0.20147,-0.69748 -0.29442,-0.89895 -0.31,-0.496 -3.47206,-6.24654 -3.47206,-6.24654 0,0 -0.69749,-1.39495 -0.69749,-3.17747 0,-3.17748 2.37155,-5.75053 5.54902,-5.75053 1.28653,0 2.38696,0.40305 3.17748,0.89905 l 3.87506,2.48 c 0,0 0.38747,0.186 0.79042,0.186 0.38758,0 0.69758,-0.0931 0.992,-0.496 0.20158,-0.29453 0.29453,-0.58905 0.29453,-0.88358 0,-0.29442 -0.0929,-0.496 -0.29453,-0.79042 l -0.20147,-0.31"
     id="path174"
     style="stroke-width:0.992001" />
  <path
     class="Rest"
     d="m 1655.5021,531.09007 c -0.093,-0.093 -0.2945,-0.29453 -0.5889,-0.682 l -11.408,-14.08956 c -0.1085,-0.10851 -0.2016,-0.403 -0.2016,-0.60451 0,-0.2945 0.093,-0.682 0.2016,-0.8835 l 10.106,-15.28299 c 0.1084,-0.20158 0.2015,-0.496 0.2015,-0.69758 v -0.88347 c 0,-0.29453 -0.093,-0.60453 -0.2946,-0.79053 l -16.0735,-21.73097 c 0,0 -0.3875,-0.60452 -0.992,-0.60452 -0.2945,0 -0.496,0 -0.7905,0.31 -0.403,0.29452 -0.496,0.682 -0.496,0.992 0,0.58905 0.2945,1.08505 0.2945,1.08505 l 7.5486,10.32296 c 0.186,0.29452 0.2944,0.682 0.2944,1.178 0,0.40305 -0.1084,0.89905 -0.2944,1.19348 l -10.0286,15.28306 c -0.093,0.2015 -0.2015,0.589 -0.2015,0.7905 v 0.899 c 0,0.2945 0.1085,0.589 0.31,0.7905 l 11.0981,13.79502 c -0.3876,-0.1085 -1.2865,-0.31 -2.4801,-0.31 -5.053,0 -9.021,4.16953 -9.021,9.23806 0,1.37947 0.2945,2.77442 1.085,3.85947 2.0925,3.17748 9.5325,12.60149 9.5325,12.60149 0,0 0.496,0.60453 1.1936,0.60453 0.186,0 0.3875,0 0.5889,-0.20148 0.496,-0.40305 0.6975,-0.79052 0.6975,-1.19357 0,-0.40295 -0.2015,-0.69748 -0.2944,-0.89895 -0.31,-0.496 -3.4721,-6.24654 -3.4721,-6.24654 0,0 -0.6975,-1.39495 -0.6975,-3.17747 0,-3.17748 2.3716,-5.75053 5.5491,-5.75053 1.2865,0 2.3869,0.40305 3.1774,0.89905 l 3.8751,2.48 c 0,0 0.3875,0.186 0.7904,0.186 0.3876,0 0.6976,-0.093 0.992,-0.496 0.2016,-0.29453 0.2945,-0.58905 0.2945,-0.88358 0,-0.29442 -0.093,-0.496 -0.2945,-0.79042 l -0.2015,-0.31"
     id="path175"
     style="stroke-width:0.992001" />
  <path
     class="Rest"
     d="m 1759.6312,488.434 h -13.795 v -9.31554 c 0,-0.79052 -0.496,-1.39495 -1.2866,-1.39495 h -29.667 c -0.7905,0 -1.2865,0.60443 -1.2865,1.39495 v 9.31554 h -13.795 v 2.79 h 59.8301 v -2.79"
     id="path176"
     style="stroke-width:0.992001" />
  <path
     class="Tempo"
     d="m 315.92213,0 h -3.265 v 42.266 c -1.094,-0.687 -2.485,-1.094 -4.063,-1.281 -3.562,0 -6.437,0.39 -9.609,2.172 -3.953,2.078 -8.313,6.437 -8.313,11.281 0,4.75 4.266,7.031 8.61,7.031 6.937,0 16.64,-5.937 16.64,-13.469 V 0"
     id="path177" />
  <path
     class="Tempo"
     d="m 338.17213,37.954 h 30.235 v -6.907 h -30.235 v 6.907 m 0,12.359 h 30.235 v -6.906 h -30.235 v 6.906 m 72.782,-36.969 h -2.11 c -3.781,2.828 -8.031,4.031 -15.172,4.141 v 3.359 h 2.516 c 5.344,0 5.40599,0.125 5.344,5.047 v 21.297 c 0,3.719 0,3.906 -0.422,4.5 -0.547,0.656 -1.75,0.906 -4.98401,0.906 h -1.922 v 3.235 h 23.937 v -3.235 h -1.922 c -3.172,0 -4.312,-0.25 -4.859,-0.906 -0.406,-0.594 -0.406,-0.844 -0.406,-4.5 V 13.344 m 34.437,0 h -2.109 c -3.781,2.828 -8.031,4.031 -15.172,4.141 v 3.359 h 2.516 c 5.343,0 5.406,0.125 5.343,5.047 v 21.297 c 0,3.719 0,3.906 -0.422,4.5 -0.546,0.656 -1.75,0.906 -4.984,0.906 h -1.922 v 3.235 h 23.938 v -3.235 h -1.922 c -3.172,0 -4.313,-0.25 -4.86,-0.906 -0.406,-0.594 -0.406,-0.844 -0.406,-4.5 V 13.344 m 24.297,20.828 c 0,-4.984 1.078,-17.703 7.922,-17.703 1.5,0 2.578,0.547 2.578,1.375 0,0.422 -0.062,0.61 -0.484,1.141 -0.782,1.031 -1.203,2.344 -1.203,3.547 0,2.703 2.156,4.625 5.281,4.625 3.422,0 5.578,-2.11 5.578,-5.407 0,-5.156 -4.375,-8.406 -11.219,-8.406 -5.765,0 -10.203,2.219 -13.672,6.844 -3.547,4.625 -5.172,10.141 -5.172,17.281 0,6 1.266,10.266 4.079,13.735 2.953,3.609 6.968,5.468 11.89,5.468 8.813,0 15.235,-5.937 15.235,-14.218 0,-7.204 -4.922,-12.25 -12.063,-12.25 -3.891,0 -6.234,1.093 -8.75,3.968 m 5.641,0.532 c 3.109,0.125 4.734,3 4.734,8.406 0,6.953 -1.734,10.734 -4.922,10.734 -3.234,0 -5.094,-3.469 -5.094,-9.656 0,-2.156 0.172,-4.016 0.469,-5.406 0.672,-2.578 2.531,-4.188 4.813,-4.078"
     id="path178" />
  <path
     class="NoteDot"
     d="m 787.76612,93.029 c 0,2.774508 2.18551,4.960005 4.96001,4.960005 2.77451,0 4.96001,-2.185497 4.96001,-4.960005 0,-2.774508 -2.1855,-4.960005 -4.96001,-4.960005 -2.7745,0 -4.96001,2.185497 -4.96001,4.960005"
     id="path179"
     style="stroke-width:0.992001" />
  <path
     class="NoteDot"
     d="m 706.85613,167.429 c 0,2.77451 2.1855,4.96001 4.96,4.96001 2.77451,0 4.96001,-2.1855 4.96001,-4.96001 0,-2.77451 -2.1855,-4.96 -4.96001,-4.96 -2.7745,0 -4.96,2.18549 -4.96,4.96"
     id="path180"
     style="stroke-width:0.992001" />
  <path
     class="NoteDot"
     d="m 787.76612,378.229 c 0,2.77451 2.18551,4.96001 4.96001,4.96001 2.77451,0 4.96001,-2.1855 4.96001,-4.96001 0,-2.77451 -2.1855,-4.96 -4.96001,-4.96 -2.7745,0 -4.96001,2.18549 -4.96001,4.96"
     id="path181"
     style="stroke-width:0.992001" />
  <path
     class="NoteDot"
     d="m 2236.1061,427.829 c 0,2.77451 2.1855,4.96001 4.96,4.96001 2.7745,0 4.96,-2.1855 4.96,-4.96001 0,-2.77451 -2.1855,-4.96 -4.96,-4.96 -2.7745,0 -4.96,2.18549 -4.96,4.96"
     id="path182"
     style="stroke-width:0.992001" />
  <path
     class="NoteDot"
     d="m 706.85613,452.629 c 0,2.77451 2.1855,4.96001 4.96,4.96001 2.77451,0 4.96001,-2.1855 4.96001,-4.96001 0,-2.77451 -2.1855,-4.96001 -4.96001,-4.96001 -2.7745,0 -4.96,2.1855 -4.96,4.96001"
     id="path183"
     style="stroke-width:0.992001" />
  <path
     class="Bracket"
     d="m 3.596,285.229 c 6.46158,-6.85505 19.04758,-20.84565 19.04758,-46.748 0,-32.7574 -14.0468745,-65.85175 -14.0468745,-86.304 0,-21.9694 12.5859995,-42.47775 13.3164195,-43.152 0,-0.3934 0,-0.3934 0,-0.73035 0,-0.3934 0,-0.7307 -0.337125,-1.06765 -0.393295,0 -1.12375,0 -1.460875,0.67425 -0.337125,0.3934 -19.778,19.778 -19.778,49.27635 0,31.63365 12.586,53.94 12.586,95.294 0,7.92235 -3.258875,20.50835 -12.248875,31.68975 -0.337125,0 -0.337125,0.67425 -0.67425,1.06765 0,0.33695 0.337125,0.73035 0.67425,1.06765 8.99,11.12495 12.248875,23.71095 12.248875,31.6333 0,41.354 -12.586,63.6607 -12.586,95.294 0,29.16147 19.440875,48.93949 19.778,49.27661 0.337125,0.73044 1.06758,1.06756 1.460875,0.73044 0.337125,-0.33713 0.67425,-0.73044 0.337125,-1.06756 0,0 0,-0.39332 0,-0.73044 -0.73042,-0.73046 -13.3164195,-21.23888 -13.3164195,-43.152 0,-20.50835 14.0468745,-53.60305 14.0468745,-86.304 0,-26.23965 -12.586,-39.9494 -19.04758,-46.748"
     id="path184"
     style="stroke-width:3.596" />
</svg>
