<?xml version="1.0" encoding="UTF-8" standalone="no"?>
<svg
   width="2519.6069"
   height="182.15283"
   viewBox="0 0 2519.6069 182.15283"
   version="1.2"
   id="svg84"
   sodipodi:docname="fourseasons.svg"
   inkscape:version="1.3.2 (091e20ef0f, 2023-11-25)"
   xmlns:inkscape="http://www.inkscape.org/namespaces/inkscape"
   xmlns:sodipodi="http://sodipodi.sourceforge.net/DTD/sodipodi-0.dtd"
   xmlns="http://www.w3.org/2000/svg"
   xmlns:svg="http://www.w3.org/2000/svg">
  <defs
     id="defs84" />
  <sodipodi:namedview
     id="namedview84"
     pagecolor="#ffffff"
     bordercolor="#000000"
     borderopacity="0.25"
     inkscape:showpageshadow="2"
     inkscape:pageopacity="0.0"
     inkscape:pagecheckerboard="0"
     inkscape:deskcolor="#d1d1d1"
     inkscape:zoom="0.20530303"
     inkscape:cx="1203.0996"
     inkscape:cy="1658.524"
     inkscape:window-width="1920"
     inkscape:window-height="1011"
     inkscape:window-x="0"
     inkscape:window-y="32"
     inkscape:window-maximized="1"
     inkscape:current-layer="svg84" />
  <title
     id="title1">fourseasons - selection - selection</title>
  <desc
     id="desc1">Generated by MuseScore Studio 4.4.3</desc>
  <polyline
     class="StaffLines"
     fill="none"
     stroke="#000000"
     stroke-width="2.53"
     stroke-linejoin="bevel"
     points="327.798,373.878 2847.4,373.878"
     id="polyline1"
     transform="translate(-327.798,-322.2324)" />
  <polyline
     class="StaffLines"
     fill="none"
     stroke="#000000"
     stroke-width="2.53"
     stroke-linejoin="bevel"
     points="327.798,396.918 2847.4,396.918"
     id="polyline2"
     transform="translate(-327.798,-322.2324)" />
  <polyline
     class="StaffLines"
     fill="none"
     stroke="#000000"
     stroke-width="2.53"
     stroke-linejoin="bevel"
     points="327.798,419.958 2847.4,419.958"
     id="polyline3"
     transform="translate(-327.798,-322.2324)" />
  <polyline
     class="StaffLines"
     fill="none"
     stroke="#000000"
     stroke-width="2.53"
     stroke-linejoin="bevel"
     points="327.798,442.998 2847.4,442.998"
     id="polyline4"
     transform="translate(-327.798,-322.2324)" />
  <polyline
     class="StaffLines"
     fill="none"
     stroke="#000000"
     stroke-width="2.53"
     stroke-linejoin="bevel"
     points="327.798,466.038 2847.4,466.038"
     id="polyline5"
     transform="translate(-327.798,-322.2324)" />
  <polyline
     class="BarLine"
     fill="none"
     stroke="#000000"
     stroke-width="4.15"
     stroke-linejoin="bevel"
     points="2824.13,372.611 2824.13,467.306"
     id="polyline6"
     transform="translate(-327.798,-322.2324)" />
  <polyline
     class="BarLine"
     fill="none"
     stroke="#000000"
     stroke-width="12.67"
     stroke-linejoin="bevel"
     points="2841.07,372.611 2841.07,467.306"
     id="polyline7"
     transform="translate(-327.798,-322.2324)" />
  <polyline
     class="BarLine"
     fill="none"
     stroke="#000000"
     stroke-width="4.15"
     stroke-linejoin="bevel"
     points="1144.58,372.611 1144.58,467.306"
     id="polyline8"
     transform="translate(-327.798,-322.2324)" />
  <polyline
     class="BarLine"
     fill="none"
     stroke="#000000"
     stroke-width="4.15"
     stroke-linejoin="bevel"
     points="2055.72,372.611 2055.72,467.306"
     id="polyline9"
     transform="translate(-327.798,-322.2324)" />
  <polyline
     class="LedgerLine"
     fill="none"
     stroke="#000000"
     stroke-width="3.69"
     stroke-linejoin="bevel"
     points="2749.96,350.838 2795.1,350.838"
     id="polyline10"
     transform="translate(-327.798,-322.2324)" />
  <polyline
     class="LedgerLine"
     fill="none"
     stroke="#000000"
     stroke-width="3.69"
     stroke-linejoin="bevel"
     points="2690.32,350.838 2735.46,350.838"
     id="polyline11"
     transform="translate(-327.798,-322.2324)" />
  <polyline
     class="LedgerLine"
     fill="none"
     stroke="#000000"
     stroke-width="3.69"
     stroke-linejoin="bevel"
     points="1981.54,350.838 2026.69,350.838"
     id="polyline12"
     transform="translate(-327.798,-322.2324)" />
  <polyline
     class="LedgerLine"
     fill="none"
     stroke="#000000"
     stroke-width="3.69"
     stroke-linejoin="bevel"
     points="2466.66,350.838 2511.8,350.838"
     id="polyline13"
     transform="translate(-327.798,-322.2324)" />
  <polyline
     class="LedgerLine"
     fill="none"
     stroke="#000000"
     stroke-width="3.69"
     stroke-linejoin="bevel"
     points="1921.9,350.838 1967.05,350.838"
     id="polyline14"
     transform="translate(-327.798,-322.2324)" />
  <polyline
     class="LedgerLine"
     fill="none"
     stroke="#000000"
     stroke-width="3.69"
     stroke-linejoin="bevel"
     points="1698.24,350.838 1743.39,350.838"
     id="polyline15"
     transform="translate(-327.798,-322.2324)" />
  <polyline
     class="Stem"
     fill="none"
     stroke="#000000"
     stroke-width="2.3"
     stroke-linejoin="bevel"
     points="1441.76,366.229 1441.76,442.906"
     id="polyline16"
     transform="translate(-327.798,-322.2324)" />
  <polyline
     class="Stem"
     fill="none"
     stroke="#000000"
     stroke-width="2.3"
     stroke-linejoin="bevel"
     points="1581.72,377.749 1581.72,477.656"
     id="polyline17"
     transform="translate(-327.798,-322.2324)" />
  <polyline
     class="Stem"
     fill="none"
     stroke="#000000"
     stroke-width="2.3"
     stroke-linejoin="bevel"
     points="2415.77,389.269 2415.77,465.995"
     id="polyline18"
     transform="translate(-327.798,-322.2324)" />
  <polyline
     class="Stem"
     fill="none"
     stroke="#000000"
     stroke-width="2.3"
     stroke-linejoin="bevel"
     points="1647.36,389.269 1647.36,483.221"
     id="polyline19"
     transform="translate(-327.798,-322.2324)" />
  <polyline
     class="Stem"
     fill="none"
     stroke="#000000"
     stroke-width="2.3"
     stroke-linejoin="bevel"
     points="1707,343.189 1707,419.958"
     id="polyline20"
     transform="translate(-327.798,-322.2324)" />
  <polyline
     class="Stem"
     fill="none"
     stroke="#000000"
     stroke-width="2.3"
     stroke-linejoin="bevel"
     points="2356.13,377.749 2356.13,463.726"
     id="polyline21"
     transform="translate(-327.798,-322.2324)" />
  <polyline
     class="Stem"
     fill="none"
     stroke="#000000"
     stroke-width="2.3"
     stroke-linejoin="bevel"
     points="1930.66,343.189 1930.66,414.305"
     id="polyline22"
     transform="translate(-327.798,-322.2324)" />
  <polyline
     class="Stem"
     fill="none"
     stroke="#000000"
     stroke-width="2.3"
     stroke-linejoin="bevel"
     points="2177.21,366.229 2177.21,441.627"
     id="polyline23"
     transform="translate(-327.798,-322.2324)" />
  <polyline
     class="Stem"
     fill="none"
     stroke="#000000"
     stroke-width="2.3"
     stroke-linejoin="bevel"
     points="2087.74,366.229 2087.74,437.238"
     id="polyline24"
     transform="translate(-327.798,-322.2324)" />
  <polyline
     class="Stem"
     fill="none"
     stroke="#000000"
     stroke-width="2.3"
     stroke-linejoin="bevel"
     points="2266.67,366.229 2266.67,460.322"
     id="polyline25"
     transform="translate(-327.798,-322.2324)" />
  <polyline
     class="Stem"
     fill="none"
     stroke="#000000"
     stroke-width="2.3"
     stroke-linejoin="bevel"
     points="1990.3,354.709 1990.3,419.851"
     id="polyline26"
     transform="translate(-327.798,-322.2324)" />
  <polyline
     class="Stem"
     fill="none"
     stroke="#000000"
     stroke-width="2.3"
     stroke-linejoin="bevel"
     points="2475.41,343.189 2475.41,419.958"
     id="polyline27"
     transform="translate(-327.798,-322.2324)" />
  <polyline
     class="Stem"
     fill="none"
     stroke="#000000"
     stroke-width="2.3"
     stroke-linejoin="bevel"
     points="2758.71,354.709 2758.71,419.851"
     id="polyline28"
     transform="translate(-327.798,-322.2324)" />
  <polyline
     class="Stem"
     fill="none"
     stroke="#000000"
     stroke-width="2.3"
     stroke-linejoin="bevel"
     points="1054.2,389.269 1054.2,465.946"
     id="polyline29"
     transform="translate(-327.798,-322.2324)" />
  <polyline
     class="Stem"
     fill="none"
     stroke="#000000"
     stroke-width="2.3"
     stroke-linejoin="bevel"
     points="2699.07,343.189 2699.07,414.305"
     id="polyline30"
     transform="translate(-327.798,-322.2324)" />
  <polyline
     class="Stem"
     fill="none"
     stroke="#000000"
     stroke-width="2.3"
     stroke-linejoin="bevel"
     points="1316.57,366.229 1316.57,461.338"
     id="polyline31"
     transform="translate(-327.798,-322.2324)" />
  <polyline
     class="Stem"
     fill="none"
     stroke="#000000"
     stroke-width="2.3"
     stroke-linejoin="bevel"
     points="1176.61,366.229 1176.61,442.906"
     id="polyline32"
     transform="translate(-327.798,-322.2324)" />
  <path
     class="Hook"
     d="m 847.652,120.6792 c 0,0.6336 0.5472,1.19521 1.1952,1.19521 0.4608,0 1.0224,-0.37441 1.1088,-0.73441 0,-0.1008 0.8352,-3.3264 0.9216,-3.6 0.0864,-0.3744 0.9216,-3.8736 4.2336,-9.30244 3.6,-5.9904 9.1296,-10.324778 13.7376,-16.775978 4.608,-6.4512 7.28645,-12.542423 7.28645,-20.649554 0,-8.380846 -1.8432,-15.393669 -6.82565,-24.336046 -0.27362,-0.647977 -0.83515,-1.007954 -1.3824,-1.007954 -0.18718,0 -0.37435,0 -0.4608,0.08635 -0.4608,0.187177 -0.64798,0.561623 -0.64798,1.108777 0,0.273623 0.10083,0.648069 0.27363,1.108869 3.6864,8.567931 5.16953,13.449554 5.16953,20.087931 0,7.646423 -2.67836,11.620823 -4.33438,14.472069 -5.9904,10.223954 -15.6672,15.2064 -19.5408,16.502354 -0.648,0.187177 -0.7344,0.734423 -0.7344,1.008046 V 120.6792"
     id="path32"
     style="stroke-width:0.9216" />
  <path
     class="Hook"
     d="m 725.242,143.7192 c 0,0.6336 0.5472,1.19521 1.1952,1.19521 0.4608,0 1.0224,-0.37441 1.1088,-0.73441 0,-0.1008 0.8352,-3.3264 0.9216,-3.6 0.0864,-0.3744 0.9216,-3.8736 4.2336,-9.30244 3.6,-5.9904 9.1296,-10.32478 13.7376,-16.77598 4.608,-6.4512 7.28645,-12.54242 7.28645,-20.649552 0,-8.380846 -1.8432,-15.393669 -6.82565,-24.336046 -0.27362,-0.647977 -0.83515,-1.007954 -1.3824,-1.007954 -0.18718,0 -0.37435,0 -0.4608,0.08635 -0.4608,0.187177 -0.64798,0.561623 -0.64798,1.108777 0,0.273623 0.10083,0.648069 0.27363,1.108869 3.6864,8.567931 5.16953,13.449554 5.16953,20.087931 0,7.646423 -2.67836,11.620825 -4.33438,14.472075 -5.9904,10.22395 -15.6672,15.2064 -19.5408,16.50235 -0.648,0.18718 -0.7344,0.73442 -0.7344,1.00805 v 20.83677"
     id="path33"
     style="stroke-width:0.9216" />
  <path
     class="Hook"
     d="m 1112.812,120.6792 c 0,0.6336 0.5472,1.19521 1.1952,1.19521 0.4608,0 1.0224,-0.37441 1.1088,-0.73441 0,-0.1008 0.8352,-3.3264 0.9216,-3.6 0.086,-0.3744 0.9216,-3.8736 4.2336,-9.30244 3.6,-5.9904 9.1296,-10.324778 13.7376,-16.775978 4.608,-6.4512 7.2864,-12.542423 7.2864,-20.649554 0,-8.380846 -1.8432,-15.393669 -6.8256,-24.336046 -0.2736,-0.647977 -0.8352,-1.007954 -1.3824,-1.007954 -0.1872,0 -0.3744,0 -0.4608,0.08635 -0.4608,0.187177 -0.648,0.561623 -0.648,1.108777 0,0.273623 0.1008,0.648069 0.2736,1.108869 3.6864,8.567931 5.1696,13.449554 5.1696,20.087931 0,7.646423 -2.6784,11.620823 -4.3344,14.472069 -5.9904,10.223954 -15.6672,15.2064 -19.5408,16.502354 -0.648,0.187177 -0.7344,0.734423 -0.7344,1.008046 V 120.6792"
     id="path34"
     style="stroke-width:0.9216" />
  <path
     class="Hook"
     d="m 987.622,139.1976 c 0,0.64798 0.648,1.46885 1.3824,1.46885 0.7344,0 1.1952,-0.73442 1.3824,-1.46885 1.3824,-9.5904 4.2336,-12.3552 7.92005,-15.85439 4.98235,-4.60801 17.79835,-11.70721 17.79835,-28.756851 0,-3.412777 -0.3744,-7.099177 -0.9216,-10.785577 0.2736,-1.656023 0.5472,-3.124777 0.648,-4.694354 0,-0.4608 0,-1.008046 0,-1.569669 0,-2.851154 -0.3744,-5.615954 -1.0224,-8.481577 0.648,-2.016 1.0224,-4.32 1.0224,-7.0848 0,-7.286354 -4.248,-12.355154 -7.2864,-14.759977 -0.3744,-0.273623 -0.8352,-0.4608 -1.3824,-0.4608 -0.3744,0 -0.8352,0 -1.1952,0.288 -0.3744,0.1728 -0.4608,0.273623 -0.4608,0.4608 0,0.273623 0.5472,0.547154 0.9216,1.007954 3.2256,3.412869 5.616,6.552023 5.616,12.715223 0,3.412777 -1.1088,6.2784 -3.4992,9.0432 -6.4512,7.459246 -15.3936,11.332823 -19.5408,12.254423 -0.648,0.273623 -1.3824,2.203177 -1.3824,2.491177 V 139.1976 m 10.41122,-51.523241 c 5.44318,-4.608 10.51198,-8.020777 13.00318,-11.246377 0.36,-0.4608 0.7344,-1.007954 1.008,-1.468754 0.1008,0.4608 0.1008,1.007954 0.1008,1.468754 0,12.355246 -10.9728,18.532823 -21.1104,22.4064 0.0864,-0.561623 0.1872,-1.022423 0.2736,-1.295954 0.5472,-2.390446 1.5696,-5.5296 6.72482,-9.864069 M 990.934,116.0712 c 0.3744,-2.0304 1.2096,-4.3344 2.4912,-6.27844 3.49925,-5.0688 11.7072,-9.3888 16.4016,-14.745601 0.9216,-1.007954 1.7568,-2.116731 2.4048,-3.311954 0,6.825554 -1.4832,10.684755 -3.8736,13.737555 -5.7168,6.99844 -12.9024,9.30244 -17.424,10.59844"
     id="path35"
     style="stroke-width:0.9216" />
  <path
     class="Note"
     d="m 2146.462,20.959209 c 0,3.959996 2.8512,8.380819 10.3248,8.380819 9.576,0 19.6272,-7.833619 19.6272,-15.940823 0,-5.4432004 -4.608,-8.4815774 -10.3248,-8.4815774 -8.9424,0 -19.6272,7.5599774 -19.6272,16.0415814"
     id="path36"
     style="stroke-width:0.9216" />
  <path
     class="Note"
     d="m 1758.792,43.999209 c 0,3.959996 2.8512,8.380819 10.3248,8.380819 9.576,0 19.6272,-7.833619 19.6272,-15.940823 0,-5.4432 -4.608,-8.481577 -10.3248,-8.481577 -8.9424,0 -19.6272,7.559977 -19.6272,16.041581"
     id="path37"
     style="stroke-width:0.9216" />
  <path
     class="Note"
     d="m 2429.762,32.479209 c 0,3.959996 2.8512,8.380819 10.3248,8.380819 9.576,0 19.6272,-7.833619 19.6272,-15.940823 0,-5.4432 -4.608,-8.481577 -10.3248,-8.481577 -8.9424,0 -19.6272,7.559977 -19.6272,16.041581"
     id="path38"
     style="stroke-width:0.9216" />
  <path
     class="Note"
     d="m 1848.252,43.999209 c 0,3.959996 2.8512,8.380819 10.3248,8.380819 9.576,0 19.6272,-7.833619 19.6272,-15.940823 0,-5.4432 -4.608,-8.481577 -10.3248,-8.481577 -8.9424,0 -19.6272,7.559977 -19.6272,16.041581"
     id="path39"
     style="stroke-width:0.9216" />
  <path
     class="Note"
     d="m 1112.812,43.999209 c 0,3.959996 2.8512,8.380819 10.3248,8.380819 9.576,0 19.6272,-7.833619 19.6272,-15.940823 0,-5.4432 -4.608,-8.481577 -10.3248,-8.481577 -8.9424,0 -19.6272,7.559977 -19.6272,16.041581"
     id="path40"
     style="stroke-width:0.9216" />
  <path
     class="Note"
     d="m 2370.122,20.959209 c 0,3.959996 2.8512,8.380819 10.3248,8.380819 9.576,0 19.6272,-7.833619 19.6272,-15.940823 0,-5.4432004 -4.608,-8.4815774 -10.3248,-8.4815774 -8.9424,0 -19.6272,7.5599774 -19.6272,16.0415814"
     id="path41"
     style="stroke-width:0.9216" />
  <path
     class="Note"
     d="m 1661.352,32.479209 c 0,3.959996 2.8512,8.380819 10.3248,8.380819 9.576,0 19.6272,-7.833619 19.6272,-15.940823 0,-5.4432 -4.608,-8.481577 -10.3248,-8.481577 -8.9424,0 -19.6272,7.559977 -19.6272,16.041581"
     id="path42"
     style="stroke-width:0.9216" />
  <path
     class="Note"
     d="m 2086.822,67.039209 c 0,3.959996 2.8512,8.380819 10.3248,8.380819 9.576,0 19.6272,-7.833619 19.6272,-15.940823 0,-5.4432 -4.608,-8.481577 -10.3248,-8.481577 -8.9424,0 -19.6272,7.559977 -19.6272,16.041581"
     id="path43"
     style="stroke-width:0.9216" />
  <path
     class="Note"
     d="m 987.622,43.999209 c 0,3.959996 2.8512,8.380819 10.32478,8.380819 9.57602,0 19.62722,-7.833619 19.62722,-15.940823 0,-5.4432 -4.608,-8.481577 -10.3248,-8.481577 -8.94235,0 -19.6272,7.559977 -19.6272,16.041581"
     id="path44"
     style="stroke-width:0.9216" />
  <path
     class="Note"
     d="m 725.242,67.039209 c 0,3.959996 2.8512,8.380819 10.32478,8.380819 9.57607,0 19.62722,-7.833619 19.62722,-15.940823 0,-5.4432 -4.608,-8.481577 -10.32478,-8.481577 -8.94237,0 -19.62722,7.559977 -19.62722,16.041581"
     id="path45"
     style="stroke-width:0.9216" />
  <path
     class="Note"
     d="m 1937.722,43.999209 c 0,3.959996 2.8512,8.380819 10.3248,8.380819 9.576,0 19.6272,-7.833619 19.6272,-15.940823 0,-5.4432 -4.608,-8.481577 -10.3248,-8.481577 -8.9424,0 -19.6272,7.559977 -19.6272,16.041581"
     id="path46"
     style="stroke-width:0.9216" />
  <path
     class="Note"
     d="m 1601.702,20.959209 c 0,3.959996 2.8512,8.380819 10.3248,8.380819 9.576,0 19.6272,-7.833619 19.6272,-15.940823 0,-5.4432004 -4.608,-8.4815774 -10.3248,-8.4815774 -8.9424,0 -19.6272,7.5599774 -19.6272,16.0415814"
     id="path47"
     style="stroke-width:0.9216" />
  <path
     class="Note"
     d="m 1252.772,55.519209 c 0,3.959996 2.8512,8.380819 10.3248,8.380819 9.576,0 19.6272,-7.833619 19.6272,-15.940823 0,-5.4432 -4.608,-8.481577 -10.3248,-8.481577 -8.9424,0 -19.6272,7.559977 -19.6272,16.041581"
     id="path48"
     style="stroke-width:0.9216" />
  <path
     class="Note"
     d="m 2027.182,55.519209 c 0,3.959996 2.8512,8.380819 10.3248,8.380819 9.576,0 19.6272,-7.833619 19.6272,-15.940823 0,-5.4432 -4.608,-8.481577 -10.3248,-8.481577 -8.9424,0 -19.6272,7.559977 -19.6272,16.041581"
     id="path49"
     style="stroke-width:0.9216" />
  <path
     class="Note"
     d="m 1378.052,20.959209 c 0,3.959996 2.8512,8.380819 10.3248,8.380819 9.576,0 19.6272,-7.833619 19.6272,-15.940823 0,-5.4432004 -4.608,-8.4815774 -10.3248,-8.4815774 -8.9424,0 -19.6272,7.5599774 -19.6272,16.0415814"
     id="path50"
     style="stroke-width:0.9216" />
  <path
     class="Note"
     d="m 847.652,43.999209 c 0,3.959996 2.8512,8.380819 10.32478,8.380819 9.57607,0 19.62722,-7.833619 19.62722,-15.940823 0,-5.4432 -4.608,-8.481577 -10.32478,-8.481577 -8.94237,0 -19.62722,7.559977 -19.62722,16.041581"
     id="path51"
     style="stroke-width:0.9216" />
  <path
     class="Note"
     d="m 1318.412,67.039209 c 0,3.959996 2.8512,8.380819 10.3248,8.380819 9.576,0 19.6272,-7.833619 19.6272,-15.940823 0,-5.4432 -4.608,-8.481577 -10.3248,-8.481577 -8.9424,0 -19.6272,7.559977 -19.6272,16.041581"
     id="path52"
     style="stroke-width:0.9216" />
  <path
     class="Clef"
     d="m 28.612823,168.04083 c 0,6.09122 4.608,14.112 17.0496,14.112 4.334377,0 8.1216,-1.10878 11.433554,-3.13925 C 62.078423,175.51445 63.36,169.42323 63.36,163.62 c 0,-3.58557 -0.547154,-7.73277 -1.468754,-12.98875 -0.273623,-1.8432 -0.835246,-4.608 -1.3824,-8.20805 9.028731,-2.95197 15.753554,-12.35515 15.753554,-21.8448 0,-13.91042 -9.863977,-23.313595 -23.313623,-23.313595 -0.9216,-5.5296 -1.8432,-10.972846 -2.577531,-16.128 9.6768,-10.238423 16.401531,-21.758423 16.401531,-36.4032 0,-8.395223 -2.577531,-15.2064 -4.060754,-18.532455 -2.203177,-4.69463 -4.881623,-7.92023 -6.537646,-7.92023 -0.647977,0 -3.499131,1.108685 -6.537554,4.69463 -5.904046,7.012455 -7.559977,18.806078 -7.559977,26.538855 0,4.982354 0.4608,9.504 2.030377,19.828777 -0.100823,0.08645 -4.896,4.967977 -6.825646,6.537646 C 28.886446,83.627982 17.28,94.859982 17.28,113.3064 c 0,17.22245 15.019223,30.77283 32.169646,30.77283 2.663977,0 5.155154,-0.27363 7.271977,-0.64798 1.756754,8.85593 2.865623,15.30713 2.865623,20.18875 0,9.59045 -4.982446,14.65925 -14.2848,14.65925 -2.217646,0 -4.1472,-0.4608 -4.334469,-0.4608 -0.08635,-0.10082 -0.273531,-0.18727 -0.273531,-0.27362 0,-0.18718 0.187177,-0.288 0.4608,-0.288 4.334377,-0.73443 8.654377,-4.42083 8.654377,-10.3104 0,-4.98245 -3.772846,-10.23843 -10.684846,-10.23843 -6.4512,0 -10.511954,5.25598 -10.511954,11.33283 M 47.879977,45.007228 c 0.835246,-3.6864 5.0688,-13.3632 9.864069,-13.3632 1.3824,0 3.585577,4.420731 3.585577,10.871931 0,9.590446 -7.0848,16.776069 -13.449646,23.04 -0.547154,-3.6864 -1.007954,-7.271977 -1.007954,-11.145554 0,-3.412777 0.273623,-6.552023 1.007954,-9.403177 M 55.9872,139.74485 c -1.8432,0.37435 -3.585577,0.56153 -5.342423,0.56153 -13.175931,0 -24.422372,-9.216 -24.422372,-23.14078 0,-11.23204 7.920018,-21.283195 16.041618,-28.296018 1.5552,-1.3824 3.038423,-2.663977 4.420823,-4.046377 0.820777,4.967977 1.468754,9.302354 2.116731,13.089577 -8.395131,2.491178 -14.097531,11.332818 -14.097531,20.001618 0,6.4512 5.0688,15.2928 12.4416,15.2928 0.734331,0 1.569577,-0.37435 1.569577,-1.19522 0,-0.83515 -0.9216,-1.29595 -2.030377,-2.03038 -3.600046,-2.2176 -5.630423,-4.608 -5.630423,-9.1296 0,-5.616 4.248023,-10.13764 9.590354,-11.41922 L 55.9872,139.74485 M 69.076777,122.6952 c 0,6.55201 -2.678354,13.2768 -9.216,15.95525 -1.929554,-11.05925 -4.420731,-25.71845 -5.0688,-29.77929 8.2944,0 14.2848,5.63044 14.2848,13.82404"
     id="path53"
     style="stroke-width:0.9216" />
  <path
     class="KeySig"
     d="m 114.99842,41.968805 c 0.56163,-0.08645 1.02243,-0.734423 1.02243,-1.296046 v -5.428777 c 0,-0.9216 -0.64807,-1.295954 -1.48323,-1.295954 l -3.03842,0.647977 V 20.858359 h -2.57762 v 14.2848 l -8.20798,1.6704 V 23.810428 H 98.136 v 13.550377 l -3.6,0.734423 c -0.5472,0.100731 -1.008,0.734331 -1.008,1.295954 v 5.342423 c 0,1.008 0.7344,1.296 1.569605,1.296 L 98.136,45.3816 v 15.206409 l -3.6,0.734396 c -0.5472,0.08645 -1.008,0.734423 -1.008,1.296046 v 5.342331 c 0,1.008046 0.7344,1.281669 1.569605,1.281669 l 3.038395,-0.6336 v 13.723177 h 2.5776 v -14.2848 l 8.20798,-1.656023 v 13.003223 h 2.57762 V 65.844051 l 3.49922,-0.648069 c 0.56163,-0.100731 1.02243,-0.734331 1.02243,-1.295954 v -5.428823 c 0,-0.9216 -0.64807,-1.296 -1.48323,-1.296 l -3.03842,0.648004 V 42.6168 l 3.49922,-0.647995 m -14.28482,2.8512 8.20798,-1.656005 v 15.206409 l -8.20798,1.7568 V 44.820005"
     id="path54"
     style="stroke-width:0.9216" />
  <path
     class="KeySig"
     d="m 140.24242,76.528805 c 0.56163,-0.08645 1.02243,-0.734423 1.02243,-1.296046 v -5.428777 c 0,-0.9216 -0.64807,-1.295954 -1.48323,-1.295954 l -3.03842,0.647977 V 55.418359 h -2.57762 v 14.2848 l -8.20798,1.6704 V 58.370428 H 123.38 v 13.550377 l -3.6,0.734423 c -0.5472,0.100731 -1.008,0.734331 -1.008,1.295954 v 5.342423 c 0,1.008 0.7344,1.296 1.5696,1.296 L 123.38,79.9416 v 15.206409 l -3.6,0.734396 c -0.5472,0.08645 -1.008,0.734423 -1.008,1.296046 v 5.342329 c 0,1.00805 0.7344,1.28167 1.5696,1.28167 l 3.0384,-0.6336 v 13.72318 h 2.5776 v -14.2848 l 8.20798,-1.65603 v 13.00323 h 2.57762 v -13.55038 l 3.49922,-0.648068 c 0.56163,-0.100731 1.02243,-0.734331 1.02243,-1.295954 v -5.428823 c 0,-0.9216 -0.64807,-1.296 -1.48323,-1.296 l -3.03842,0.648004 V 77.1768 l 3.49922,-0.647995 m -14.28482,2.8512 8.20798,-1.656005 v 15.206409 l -8.20798,1.7568 V 79.380005"
     id="path55"
     style="stroke-width:0.9216" />
  <path
     class="KeySig"
     d="m 165.47042,30.448805 c 0.56163,-0.08645 1.02243,-0.734423 1.02243,-1.296046 v -5.428777 c 0,-0.9216 -0.64807,-1.295954 -1.48323,-1.295954 l -3.03842,0.647977 V 9.3383585 h -2.57762 V 23.623159 l -8.20798,1.6704 V 12.290428 h -2.5776 v 13.550377 l -3.6,0.734423 C 144.4608,26.675959 144,27.309559 144,27.871182 v 5.342423 c 0,1.008 0.7344,1.296 1.5696,1.296 L 148.608,33.8616 v 15.206409 l -3.6,0.734396 C 144.4608,49.888851 144,50.536828 144,51.098451 v 5.342331 c 0,1.008046 0.7344,1.281669 1.5696,1.281669 l 3.0384,-0.6336 v 13.723177 h 2.5776 v -14.2848 l 8.20798,-1.656023 v 13.003223 h 2.57762 V 54.324051 l 3.49922,-0.648069 c 0.56163,-0.100731 1.02243,-0.734331 1.02243,-1.295954 v -5.428823 c 0,-0.9216 -0.64807,-1.296 -1.48323,-1.296 l -3.03842,0.648004 V 31.0968 l 3.49922,-0.647995 m -14.28482,2.8512 8.20798,-1.656005 v 15.206409 l -8.20798,1.7568 V 33.300005"
     id="path56"
     style="stroke-width:0.9216" />
  <path
     class="KeySig"
     d="m 190.71442,65.008805 c 0.56163,-0.08645 1.02243,-0.734423 1.02243,-1.296046 v -5.428777 c 0,-0.9216 -0.64807,-1.295954 -1.48323,-1.295954 l -3.03842,0.647977 V 43.898359 h -2.57762 v 14.2848 l -8.20798,1.6704 V 46.850428 h -2.5776 v 13.550377 l -3.6,0.734423 c -0.5472,0.100731 -1.008,0.734331 -1.008,1.295954 v 5.342423 c 0,1.008 0.7344,1.296 1.5696,1.296 L 173.852,68.4216 v 15.206409 l -3.6,0.734396 c -0.5472,0.08645 -1.008,0.734423 -1.008,1.296046 v 5.342331 c 0,1.008046 0.7344,1.281669 1.5696,1.281669 l 3.0384,-0.6336 v 13.723179 h 2.5776 V 91.087228 l 8.20798,-1.656023 v 13.003225 h 2.57762 V 88.884051 l 3.49922,-0.648069 c 0.56163,-0.100731 1.02243,-0.734331 1.02243,-1.295954 v -5.428823 c 0,-0.9216 -0.64807,-1.296 -1.48323,-1.296 l -3.03842,0.648004 V 65.6568 l 3.49922,-0.647995 m -14.28482,2.8512 8.20798,-1.656005 v 15.206409 l -8.20798,1.7568 V 67.860005"
     id="path57"
     style="stroke-width:0.9216" />
  <path
     class="TimeSig"
     d="m 232.66142,86.392782 v 6.811269 H 225.015 c -0.64798,0 -1.29595,0.561531 -1.29595,1.295954 v 1.756846 c 0,0.734331 0.64797,1.281577 1.29595,1.281577 h 27.92162 c 0.7488,0 1.29596,-0.547246 1.29596,-1.281577 v -1.756846 c 0,-0.734423 -0.54716,-1.295954 -1.29596,-1.295954 h -8.19357 v -6.811269 h 8.19357 c 0.7488,0 1.29596,-0.647977 1.29596,-1.3824 v -1.756773 c 0,-0.648004 -0.54716,-1.281604 -1.29596,-1.281604 h -8.19357 v -14.6592 c 0,-0.5472 -0.27363,-1.008 -0.73443,-1.195205 l -1.10877,-0.561595 c -0.18727,-0.0864 -0.4608,-0.172846 -0.64807,-0.172846 -0.27353,0.08645 -0.64798,0.172846 -0.83516,0.360041 l -8.38084,7.646405 c -0.27353,0.288 -0.37436,0.648 -0.37436,1.0224 v 7.56 H 222.063 c 0,0 10.23845,-11.0592 21.11038,-25.632046 0.37444,-0.4608 0.4608,-0.9216 0.4608,-1.281577 0,-0.4608 -0.18718,-0.835154 -0.27353,-0.9216 l -2.03047,-2.030377 c -0.18718,-0.187177 -0.54716,-0.374446 -0.9216,-0.374446 -0.54716,0 -13.00313,0 -13.63673,0 -0.7488,0 -1.2096,0.561623 -1.29605,1.108869 0,0 -0.4608,6.825554 -2.8512,14.284772 -2.4048,7.473605 -5.1696,12.081605 -7.56,15.480005 0,0 -0.2736,0.4608 -0.2736,1.022404 0,0.187196 0,0.360042 0.0864,0.547219 0.3744,0.647977 0.9216,1.656023 0.9216,1.656023 0,0 0.1872,0.561531 1.008,0.561531 h 15.85442"
     id="path58"
     style="stroke-width:0.9216" />
  <path
     class="TimeSig"
     d="m 232.66142,132.47278 v 6.81127 H 225.015 c -0.64798,0 -1.29595,0.56153 -1.29595,1.29595 v 1.75685 c 0,0.73433 0.64797,1.28158 1.29595,1.28158 h 27.92162 c 0.7488,0 1.29596,-0.54725 1.29596,-1.28158 V 140.58 c 0,-0.73442 -0.54716,-1.29595 -1.29596,-1.29595 h -8.19357 v -6.81127 h 8.19357 c 0.7488,0 1.29596,-0.64798 1.29596,-1.3824 v -1.75677 c 0,-0.64801 -0.54716,-1.28161 -1.29596,-1.28161 h -8.19357 v -14.6592 c 0,-0.5472 -0.27363,-1.008 -0.73443,-1.1952 l -1.10877,-0.5616 c -0.18727,-0.0864 -0.4608,-0.17284 -0.64807,-0.17284 -0.27353,0.0864 -0.64798,0.17284 -0.83516,0.36004 l -8.38084,7.6464 c -0.27353,0.288 -0.37436,0.648 -0.37436,1.0224 v 7.56 H 222.063 c 0,0 10.23845,-11.0592 21.11038,-25.63204 0.37444,-0.4608 0.4608,-0.9216 0.4608,-1.28158 0,-0.4608 -0.18718,-0.83515 -0.27353,-0.9216 l -2.03047,-2.030375 c -0.18718,-0.187177 -0.54716,-0.374446 -0.9216,-0.374446 -0.54716,0 -13.00313,0 -13.63673,0 -0.7488,0 -1.2096,0.561623 -1.29605,1.108869 0,0 -0.4608,6.825552 -2.8512,14.284772 -2.4048,7.4736 -5.1696,12.0816 -7.56,15.48 0,0 -0.2736,0.4608 -0.2736,1.02241 0,0.18719 0,0.36004 0.0864,0.54722 0.3744,0.64797 0.9216,1.65602 0.9216,1.65602 0,0 0.1872,0.56153 1.008,0.56153 h 15.85442"
     id="path59"
     style="stroke-width:0.9216" />
  <path
     class="Rest"
     d="m 1084.78,80.589559 c 0.1008,-0.187177 0.1008,-0.288 0.1008,-0.4608 0,-0.4608 -0.2736,-0.9216 -0.8352,-1.108777 -0.1872,-0.100823 -0.36,-0.100823 -0.4608,-0.100823 -0.5472,0 -0.9216,0.288 -1.1952,0.7488 -2.2176,4.420823 -5.904,9.388846 -10.9728,10.684846 1.1088,-1.296 1.5696,-2.7648 1.5696,-4.420823 0,-3.599954 -3.2256,-6.364754 -6.8256,-6.364754 -3.5856,0.187177 -6.3504,3.2256 -6.3504,6.825554 0.1872,5.155218 5.1552,6.912018 9.4896,6.912018 4.608,-0.187195 8.208,-2.491195 10.9728,-6.091241 l -4.1472,14.659241 c -1.296,4.42081 -6.552,10.32478 -11.2464,11.52 1.008,-1.29595 1.5696,-2.85115 1.5696,-4.42082 0,-3.68637 -3.1392,-6.36477 -6.7392,-6.36477 -3.6864,0 -6.4512,3.1392 -6.4512,6.82557 0,2.7648 1.944,5.0688 4.3344,5.88967 1.7568,0.7488 3.3264,0.9216 5.1696,0.9216 4.608,-0.0864 8.1936,-2.4768 10.9584,-6.07685 l -9.4032,33.6384 2.4912,0.64798 17.9712,-63.864021"
     id="path60"
     style="stroke-width:0.9216" />
  <path
     class="Rest"
     d="m 300.298,96.804005 c 0,1.296 0,1.296 1.296,1.296 h 27.37442 c 1.28158,0 1.28158,0 1.28158,-1.296 v -9.950423 c 0,-1.295954 0,-1.295954 -1.28158,-1.295954 H 301.594 c -1.296,0 -1.296,0 -1.296,1.295954 v 9.950423"
     id="path61"
     style="stroke-width:0.9216" />
  <path
     class="Rest"
     d="m 522.7858,113.01845 c -0.0864,-0.0864 -0.27362,-0.27362 -0.54715,-0.6336 l -10.5984,-13.089641 c -0.10083,-0.100804 -0.18727,-0.3744 -0.18727,-0.561604 0,-0.2736 0.0864,-0.6336 0.18727,-0.8208 l 9.3888,-14.198377 c 0.10073,-0.187269 0.18717,-0.4608 0.18717,-0.648069 v -0.820777 c 0,-0.273623 -0.0864,-0.561623 -0.27362,-0.734423 L 506.0098,61.322405 c 0,0 -0.36,-0.561623 -0.9216,-0.561623 -0.2736,0 -0.4608,0 -0.7344,0.288 -0.3744,0.273623 -0.4608,0.6336 -0.4608,0.9216 0,0.547246 0.2736,1.008046 0.2736,1.008046 l 7.01285,9.590354 c 0.1728,0.273623 0.27353,0.6336 0.27353,1.0944 0,0.374446 -0.10073,0.835246 -0.27353,1.108777 l -9.31685,14.198446 c -0.0864,0.187195 -0.1872,0.5472 -0.1872,0.734395 V 90.54 c 0,0.273605 0.1008,0.5472 0.288,0.734405 l 10.31045,12.815995 c -0.36007,-0.10079 -1.19523,-0.288 -2.30405,-0.288 -4.6944,0 -8.3808,3.87363 -8.3808,8.58245 0,1.28158 0.2736,2.57753 1.008,3.58558 1.944,2.95197 8.85598,11.70717 8.85598,11.70717 0,0 0.4608,0.56163 1.10887,0.56163 0.1728,0 0.35997,0 0.54715,-0.18718 0.4608,-0.37445 0.64798,-0.73442 0.64798,-1.10887 0,-0.37435 -0.18718,-0.64798 -0.27353,-0.83515 -0.288,-0.4608 -3.22565,-5.80323 -3.22565,-5.80323 0,0 -0.648,-1.29595 -0.648,-2.95197 0,-2.95198 2.20325,-5.34243 5.15522,-5.34243 1.19523,0 2.21756,0.37445 2.95198,0.83525 l 3.60005,2.304 c 0,0 0.35997,0.1728 0.73433,0.1728 0.36007,0 0.64807,-0.0864 0.9216,-0.4608 0.18727,-0.27362 0.27362,-0.54725 0.27362,-0.82087 0,-0.27353 -0.0863,-0.4608 -0.27362,-0.73433 l -0.18718,-0.288"
     id="path62"
     style="stroke-width:0.9216" />
  <path
     class="Rest"
     d="m 660.39258,79.019982 c -0.0864,0 -0.27353,-0.100823 -0.37436,-0.100823 -0.54724,0 -1.00804,0.288 -1.19522,0.7488 -2.11682,4.233646 -6.53755,9.950441 -11.52,10.872041 1.00805,-1.195195 1.65602,-2.678372 1.65602,-4.420841 0,-3.599954 -2.95197,-6.551931 -6.53762,-6.551931 -3.6864,0 -6.6384,2.951977 -6.6384,6.551931 0,4.968041 4.8816,7.272041 9.216,7.272041 4.88162,0 8.10722,-2.304 11.24638,-5.716841 l -10.51196,32.817621 2.49118,0.73442 12.9024,-40.636841 c 0.10082,-0.100731 0.10082,-0.288 0.10082,-0.4608 0,-0.4608 -0.288,-0.835154 -0.83524,-1.108777"
     id="path63"
     style="stroke-width:0.9216" />
  <path
     class="Rest"
     d="m 2305.2716,79.019982 c -0.086,0 -0.2736,-0.100823 -0.3744,-0.100823 -0.5472,0 -1.008,0.288 -1.1952,0.7488 -2.1168,4.233646 -6.5376,9.950441 -11.52,10.872041 1.008,-1.195195 1.656,-2.678372 1.656,-4.420841 0,-3.599954 -2.952,-6.551931 -6.5376,-6.551931 -3.6864,0 -6.6384,2.951977 -6.6384,6.551931 0,4.968041 4.8816,7.272041 9.216,7.272041 4.8816,0 8.1072,-2.304 11.2464,-5.716841 l -10.512,32.817621 2.4912,0.73442 12.9024,-40.636841 c 0.1008,-0.100731 0.1008,-0.288 0.1008,-0.4608 0,-0.4608 -0.288,-0.835154 -0.8352,-1.108777"
     id="path64"
     style="stroke-width:0.9216" />
  <path
     class="Rest"
     d="m 950.39885,167.03278 2.4768,0.54725 c 2.304,-11.0592 22.95355,-110.404825 23.14073,-111.139248 0.0864,-0.100823 0.0864,-0.187177 0.0864,-0.288 0,-0.547154 -0.35997,-1.007954 -0.9216,-1.0944 -0.0864,-0.100823 -0.1728,-0.100823 -0.27362,-0.100823 -0.82078,0 -1.00795,0.273623 -1.3824,0.9216 -0.35998,0.648069 -2.49118,5.169623 -6.07675,8.481669 -1.10887,1.007954 -2.49127,1.756754 -3.96003,2.217554 0.82078,-1.108777 1.28158,-2.491177 1.28158,-3.787223 0,-3.873577 -3.2256,-6.638377 -6.63838,-6.638377 -3.41277,0 -6.53764,2.678446 -6.53764,6.638377 0,5.169623 4.69444,6.912 8.56802,6.912 5.16962,0 9.216,-2.7648 11.89445,-6.912 l 0.0863,-0.08635 -3.03842,14.371154 c -0.54716,1.483223 -3.03833,7.286446 -6.4512,10.324869 -1.10878,1.108777 -2.49118,1.843172 -3.95993,2.303972 0.82077,-1.108795 1.28157,-0.5472 1.28157,-3.772818 0,-3.2256 -2.57762,-6.638377 -6.63837,-6.638377 -4.04647,0 -6.53765,3.311954 -6.53765,6.4512 0,3.1392 2.03038,7.099195 8.56802,7.099195 8.1216,0 11.52,-6.177595 11.89436,-6.912018 l -3.03833,14.644814 c -2.03047,4.896 -4.896,10.69918 -10.32487,12.54238 0.73442,-1.10878 1.19522,-1.8432 1.19522,-3.87358 0,-2.11682 -1.46875,-6.5376 -6.53755,-6.5376 -5.16965,0 -6.63845,4.78085 -6.63845,6.5376 0,1.8432 0.8208,6.99845 8.568,6.99845 7.74725,0 11.52,-6.1632 11.89445,-6.912 l -2.86563,13.83838 c -0.82077,3.31195 -4.1472,8.4672 -6.53764,10.68475 -1.19513,1.10887 -2.57753,1.75685 -3.95993,2.21765 0.73433,-1.02243 1.19513,-2.304 1.19513,-3.78723 0,-2.49117 -1.94393,-6.53755 -6.55198,-6.53755 -4.6944,0 -6.5376,4.04638 -6.5376,6.53755 0,2.49118 1.5696,6.912 8.4816,6.912 8.568,0 11.70725,-6.17757 11.98078,-6.912 l -7.18553,34.74718"
     id="path65"
     style="stroke-width:0.9216" />
  <path
     class="Rest"
     d="m 1215.5488,167.03278 2.4768,0.54725 c 2.304,-11.0592 22.9536,-110.404825 23.1408,-111.139248 0.086,-0.100823 0.086,-0.187177 0.086,-0.288 0,-0.547154 -0.36,-1.007954 -0.9216,-1.0944 -0.086,-0.100823 -0.1728,-0.100823 -0.2736,-0.100823 -0.8208,0 -1.008,0.273623 -1.3824,0.9216 -0.36,0.648069 -2.4912,5.169623 -6.0768,8.481669 -1.1088,1.007954 -2.4912,1.756754 -3.96,2.217554 0.8208,-1.108777 1.2816,-2.491177 1.2816,-3.787223 0,-3.873577 -3.2256,-6.638377 -6.6384,-6.638377 -3.4128,0 -6.5376,2.678446 -6.5376,6.638377 0,5.169623 4.6944,6.912 8.568,6.912 5.1696,0 9.216,-2.7648 11.8944,-6.912 l 0.086,-0.08635 -3.0384,14.371154 c -0.5472,1.483223 -3.0384,7.286446 -6.4512,10.324869 -1.1088,1.108777 -2.4912,1.843172 -3.96,2.303972 0.8208,-1.108795 1.2816,-0.5472 1.2816,-3.772818 0,-3.2256 -2.5776,-6.638377 -6.6384,-6.638377 -4.0464,0 -6.5376,3.311954 -6.5376,6.4512 0,3.1392 2.0304,7.099195 8.568,7.099195 8.1216,0 11.52,-6.177595 11.8944,-6.912018 l -3.0384,14.644814 c -2.0304,4.896 -4.896,10.69918 -10.3248,12.54238 0.7344,-1.10878 1.1952,-1.8432 1.1952,-3.87358 0,-2.11682 -1.4688,-6.5376 -6.5376,-6.5376 -5.1696,0 -6.6384,4.78085 -6.6384,6.5376 0,1.8432 0.8208,6.99845 8.568,6.99845 7.7472,0 11.52,-6.1632 11.8944,-6.912 l -2.8656,13.83838 c -0.8208,3.31195 -4.1472,8.4672 -6.5376,10.68475 -1.1952,1.10887 -2.5776,1.75685 -3.96,2.21765 0.7344,-1.02243 1.1952,-2.304 1.1952,-3.78723 0,-2.49117 -1.944,-6.53755 -6.552,-6.53755 -4.6944,0 -6.5376,4.04638 -6.5376,6.53755 0,2.49118 1.5696,6.912 8.4816,6.912 8.568,0 11.7072,-6.17757 11.9808,-6.912 l -7.1856,34.74718"
     id="path66"
     style="stroke-width:0.9216" />
  <path
     class="Rest"
     d="m 1536.8516,79.019982 c -0.086,0 -0.2736,-0.100823 -0.3744,-0.100823 -0.5472,0 -1.008,0.288 -1.1952,0.7488 -2.1168,4.233646 -6.5376,9.950441 -11.52,10.872041 1.008,-1.195195 1.656,-2.678372 1.656,-4.420841 0,-3.599954 -2.952,-6.551931 -6.5376,-6.551931 -3.6864,0 -6.6384,2.951977 -6.6384,6.551931 0,4.968041 4.8816,7.272041 9.216,7.272041 4.8816,0 8.1072,-2.304 11.2464,-5.716841 l -10.512,32.817621 2.4912,0.73442 12.9024,-40.636841 c 0.1008,-0.100731 0.1008,-0.288 0.1008,-0.4608 0,-0.4608 -0.288,-0.835154 -0.8352,-1.108777"
     id="path67"
     style="stroke-width:0.9216" />
  <path
     class="Articulation"
     d="m 1860.62,17.697605 c 0.7488,0.6336 1.6704,1.008 2.592,1.008 0.9216,0 1.8432,-0.3744 2.5776,-1.008 1.3824,-1.483205 1.3824,-3.6864 0,-5.169605 -0.7344,-0.734395 -1.656,-1.008 -2.5776,-1.008 -0.9216,0 -1.8432,0.273605 -2.592,1.008 -1.3824,1.483205 -1.3824,3.6864 0,5.169605"
     id="path68"
     style="stroke-width:0.9216" />
  <path
     class="Articulation"
     d="m 860.02,17.697605 c 0.7488,0.6336 1.6704,1.008 2.592,1.008 0.9216,0 1.8432,-0.3744 2.5776,-1.008 1.3824,-1.483205 1.3824,-3.6864 0,-5.169605 -0.7344,-0.734395 -1.656,-1.008 -2.5776,-1.008 -0.9216,0 -1.8432,0.273605 -2.592,1.008 -1.3824,1.483205 -1.3824,3.6864 0,5.169605"
     id="path69"
     style="stroke-width:0.9216" />
  <path
     class="Articulation"
     d="m 737.61,40.737605 c 0.7488,0.6336 1.6704,1.008 2.592,1.008 0.9216,0 1.8432,-0.3744 2.5776,-1.008 1.3824,-1.483205 1.3824,-3.6864 0,-5.169605 -0.7344,-0.734395 -1.656,-1.008 -2.5776,-1.008 -0.9216,0 -1.8432,0.273605 -2.592,1.008 -1.3824,1.483205 -1.3824,3.6864 0,5.169605"
     id="path70"
     style="stroke-width:0.9216" />
  <path
     class="Articulation"
     d="m 1673.71,6.1776046 c 0.7488,0.6336 1.6704,1.008 2.592,1.008 0.9216,0 1.8432,-0.3744 2.5776,-1.008 1.3824,-1.4832046 1.3824,-3.6864 0,-5.1696046 C 1678.1452,0.27360461 1677.2236,0 1676.302,0 c -0.9216,0 -1.8432,0.27360461 -2.592,1.008 -1.3824,1.4832046 -1.3824,3.6864 0,5.1696046"
     id="path71"
     style="stroke-width:0.9216" />
  <path
     class="Articulation"
     d="m 1771.16,17.697605 c 0.7488,0.6336 1.6704,1.008 2.592,1.008 0.9216,0 1.8432,-0.3744 2.5776,-1.008 1.3824,-1.483205 1.3824,-3.6864 0,-5.169605 -0.7344,-0.734395 -1.656,-1.008 -2.5776,-1.008 -0.9216,0 -1.8432,0.273605 -2.592,1.008 -1.3824,1.483205 -1.3824,3.6864 0,5.169605"
     id="path72"
     style="stroke-width:0.9216" />
  <path
     class="Beam"
     fill-rule="evenodd"
     d="m 1252.772,149.5456 67.94,5.76 v 11.561 l -67.94,-5.76 v -11.561"
     id="path73" />
  <path
     class="Beam"
     fill-rule="evenodd"
     d="m 1252.772,132.2656 67.94,5.76 v 11.561 l -67.94,-5.76 v -11.561"
     id="path74" />
  <path
     class="Beam"
     fill-rule="evenodd"
     d="m 1252.772,114.9856 25.34,2.148 v 11.562 l -25.34,-2.149 v -11.561"
     id="path75" />
  <path
     class="Beam"
     fill-rule="evenodd"
     d="m 1937.722,132.2816 151.4,5.76 v 11.529 l -151.4,-5.76 v -11.529"
     id="path76" />
  <path
     class="Beam"
     fill-rule="evenodd"
     d="m 2027.182,118.4056 61.94,2.356 v 11.529 l -61.94,-2.357 v -11.528"
     id="path77" />
  <path
     class="Beam"
     fill-rule="evenodd"
     d="m 1601.702,86.181605 61.95,5.76 V 103.5106 l -61.95,-5.759995 v -11.569"
     id="path78" />
  <path
     class="Beam"
     fill-rule="evenodd"
     d="m 1601.702,68.901605 61.95,5.76 v 11.569 l -61.95,-5.76 v -11.569"
     id="path79" />
  <path
     class="Beam"
     fill-rule="evenodd"
     d="m 2370.122,86.181605 61.94,5.76 V 103.5106 l -61.94,-5.759995 v -11.569"
     id="path80" />
  <path
     class="Beam"
     fill-rule="evenodd"
     d="m 2370.122,68.901605 61.94,5.76 v 11.569 l -61.94,-5.76 v -11.569"
     id="path81" />
  <path
     class="Beam"
     fill-rule="evenodd"
     d="m 1758.792,109.2456 h 91.77 v 11.52 h -91.77 v -11.52"
     id="path82" />
  <path
     class="NoteDot"
     d="m 1029.072,40.125605 c 0,2.577604 2.0304,4.608 4.608,4.608 2.5776,0 4.608,-2.030396 4.608,-4.608 0,-2.577605 -2.0304,-4.608 -4.608,-4.608 -2.5776,0 -4.608,2.030395 -4.608,4.608"
     id="path83"
     style="stroke-width:0.9216" />
  <path
     class="NoteDot"
     d="m 1294.232,40.125605 c 0,2.577604 2.0304,4.608 4.608,4.608 2.5776,0 4.608,-2.030396 4.608,-4.608 0,-2.577605 -2.0304,-4.608 -4.608,-4.608 -2.5776,0 -4.608,2.030395 -4.608,4.608"
     id="path84"
     style="stroke-width:0.9216" />
</svg>
