<?xml version="1.0" encoding="UTF-8" standalone="no"?>
<svg
   width="2542.406"
   height="570.42902"
   viewBox="0 0 2542.406 570.42902"
   version="1.2"
   id="svg141"
   sodipodi:docname="Fur_Elise.mid - selection-1.svg"
   inkscape:version="1.3.2 (091e20ef0f, 2023-11-25)"
   xmlns:inkscape="http://www.inkscape.org/namespaces/inkscape"
   xmlns:sodipodi="http://sodipodi.sourceforge.net/DTD/sodipodi-0.dtd"
   xmlns="http://www.w3.org/2000/svg"
   xmlns:svg="http://www.w3.org/2000/svg">
  <defs
     id="defs141" />
  <sodipodi:namedview
     id="namedview141"
     pagecolor="#ffffff"
     bordercolor="#000000"
     borderopacity="0.25"
     inkscape:showpageshadow="2"
     inkscape:pageopacity="0.0"
     inkscape:pagecheckerboard="0"
     inkscape:deskcolor="#d1d1d1"
     inkscape:zoom="0.20530303"
     inkscape:cx="1222.583"
     inkscape:cy="1697.4908"
     inkscape:window-width="1920"
     inkscape:window-height="1011"
     inkscape:window-x="0"
     inkscape:window-y="32"
     inkscape:window-maximized="1"
     inkscape:current-layer="svg141" />
  <title
     id="title1">Fur_Elise.mid - selection</title>
  <desc
     id="desc1">Generated by MuseScore Studio 4.4.3</desc>
  <polyline
     class="StaffLines"
     fill="none"
     stroke="#000000"
     stroke-width="2.73"
     stroke-linejoin="bevel"
     points="336.599,386.199 2847.4,386.199"
     id="polyline1"
     transform="translate(-304.99387,-280.77)" />
  <polyline
     class="StaffLines"
     fill="none"
     stroke="#000000"
     stroke-width="2.73"
     stroke-linejoin="bevel"
     points="336.599,410.999 2847.4,410.999"
     id="polyline2"
     transform="translate(-304.99387,-280.77)" />
  <polyline
     class="StaffLines"
     fill="none"
     stroke="#000000"
     stroke-width="2.73"
     stroke-linejoin="bevel"
     points="336.599,435.799 2847.4,435.799"
     id="polyline3"
     transform="translate(-304.99387,-280.77)" />
  <polyline
     class="StaffLines"
     fill="none"
     stroke="#000000"
     stroke-width="2.73"
     stroke-linejoin="bevel"
     points="336.599,460.599 2847.4,460.599"
     id="polyline4"
     transform="translate(-304.99387,-280.77)" />
  <polyline
     class="StaffLines"
     fill="none"
     stroke="#000000"
     stroke-width="2.73"
     stroke-linejoin="bevel"
     points="336.599,485.399 2847.4,485.399"
     id="polyline5"
     transform="translate(-304.99387,-280.77)" />
  <polyline
     class="StaffLines"
     fill="none"
     stroke="#000000"
     stroke-width="2.73"
     stroke-linejoin="bevel"
     points="336.599,646.599 2847.4,646.599"
     id="polyline6"
     transform="translate(-304.99387,-280.77)" />
  <polyline
     class="StaffLines"
     fill="none"
     stroke="#000000"
     stroke-width="2.73"
     stroke-linejoin="bevel"
     points="336.599,671.399 2847.4,671.399"
     id="polyline7"
     transform="translate(-304.99387,-280.77)" />
  <polyline
     class="StaffLines"
     fill="none"
     stroke="#000000"
     stroke-width="2.73"
     stroke-linejoin="bevel"
     points="336.599,696.199 2847.4,696.199"
     id="polyline8"
     transform="translate(-304.99387,-280.77)" />
  <polyline
     class="StaffLines"
     fill="none"
     stroke="#000000"
     stroke-width="2.73"
     stroke-linejoin="bevel"
     points="336.599,720.999 2847.4,720.999"
     id="polyline9"
     transform="translate(-304.99387,-280.77)" />
  <polyline
     class="StaffLines"
     fill="none"
     stroke="#000000"
     stroke-width="2.73"
     stroke-linejoin="bevel"
     points="336.599,745.799 2847.4,745.799"
     id="polyline10"
     transform="translate(-304.99387,-280.77)" />
  <polyline
     class="BarLine"
     fill="none"
     stroke="#000000"
     stroke-width="4.46"
     stroke-linejoin="bevel"
     points="338.831,384.835 338.831,646.599"
     id="polyline11"
     transform="translate(-304.99387,-280.77)" />
  <polyline
     class="BarLine"
     fill="none"
     stroke="#000000"
     stroke-width="4.46"
     stroke-linejoin="bevel"
     points="2822.35,384.835 2822.35,646.599"
     id="polyline12"
     transform="translate(-304.99387,-280.77)" />
  <polyline
     class="BarLine"
     fill="none"
     stroke="#000000"
     stroke-width="13.64"
     stroke-linejoin="bevel"
     points="2840.58,384.835 2840.58,646.599"
     id="polyline13"
     transform="translate(-304.99387,-280.77)" />
  <polyline
     class="BarLine"
     fill="none"
     stroke="#000000"
     stroke-width="4.46"
     stroke-linejoin="bevel"
     points="1635.14,384.835 1635.14,646.599"
     id="polyline14"
     transform="translate(-304.99387,-280.77)" />
  <polyline
     class="BarLine"
     fill="none"
     stroke="#000000"
     stroke-width="4.46"
     stroke-linejoin="bevel"
     points="338.831,645.235 338.831,747.163"
     id="polyline15"
     transform="translate(-304.99387,-280.77)" />
  <polyline
     class="BarLine"
     fill="none"
     stroke="#000000"
     stroke-width="4.46"
     stroke-linejoin="bevel"
     points="2822.35,645.235 2822.35,747.163"
     id="polyline16"
     transform="translate(-304.99387,-280.77)" />
  <polyline
     class="BarLine"
     fill="none"
     stroke="#000000"
     stroke-width="13.64"
     stroke-linejoin="bevel"
     points="2840.58,645.235 2840.58,747.163"
     id="polyline17"
     transform="translate(-304.99387,-280.77)" />
  <polyline
     class="BarLine"
     fill="none"
     stroke="#000000"
     stroke-width="4.46"
     stroke-linejoin="bevel"
     points="1635.14,645.235 1635.14,747.163"
     id="polyline18"
     transform="translate(-304.99387,-280.77)" />
  <path
     class="Accidental"
     d="m 1718.9667,144.61299 c 0.6045,-0.0931 1.1005,-0.79053 1.1005,-1.39505 v -5.84348 c 0,-0.992 -0.6976,-1.39495 -1.5965,-1.39495 l -3.2706,0.69747 v -14.78706 h -2.7745 v 15.37601 l -8.835,1.798 v -13.99644 h -2.7745 v 14.58549 l -3.875,0.79053 c -0.589,0.10843 -1.085,0.79043 -1.085,1.39495 v 5.75053 c 0,1.085 0.7905,1.395 1.6895,1.395 l 3.2705,-0.6975 v 16.36802 l -3.875,0.7905 c -0.589,0.0931 -1.085,0.79053 -1.085,1.39505 v 5.75043 c 0,1.08505 0.7905,1.37958 1.6895,1.37958 l 3.2705,-0.682 v 14.77149 h 2.7745 v -15.37602 l 8.835,-1.78252 v 13.99653 h 2.7745 v -14.58548 l 3.7666,-0.69758 c 0.6045,-0.10843 1.1005,-0.79043 1.1005,-1.39495 v -5.84353 c 0,-0.992 -0.6976,-1.395 -1.5965,-1.395 l -3.2706,0.6975 v -16.36802 l 3.7666,-0.6975 m -15.3761,3.069 8.835,-1.7825 v 16.36802 l -8.835,1.891 v -16.47652"
     id="path18"
     style="stroke-width:0.992001" />
  <path
     class="Accidental"
     d="m 705.58019,112.07846 c -0.186,-0.20148 -0.496,-0.29453 -0.88357,-0.29453 l -0.20148,0.0931 c 0,0 -0.0929,0 -0.0929,0 l -12.50856,3.47201 V 97.988968 h -2.7745 v 49.104052 c 0,1.08505 0.899,1.28652 1.7825,1.28652 l 12.50856,-3.472 v 17.36002 h 2.666 c 0,-16.46107 0,-32.13156 0,-49.10405 0,-0.38758 -0.186,-0.88358 -0.496,-1.08505 m -13.68656,27.77605 v -16.27502 l 11.51656,-3.2705 v 16.36802 l -11.51656,3.1775"
     id="path19"
     style="stroke-width:0.992001" />
  <path
     class="Accidental"
     d="m 778.76667,144.61299 c 0.60453,-0.0931 1.10053,-0.79053 1.10053,-1.39505 v -5.84348 c 0,-0.992 -0.69758,-1.39495 -1.59653,-1.39495 l -3.27053,0.69747 v -14.78706 h -2.77452 v 15.37601 l -8.83498,1.798 v -13.99644 h -2.77451 v 14.58549 l -3.875,0.79053 c -0.589,0.10843 -1.085,0.79043 -1.085,1.39495 v 5.75053 c 0,1.085 0.7905,1.395 1.6895,1.395 l 3.2705,-0.6975 v 16.36802 l -3.875,0.7905 c -0.589,0.0931 -1.085,0.79053 -1.085,1.39505 v 5.75043 c 0,1.08505 0.7905,1.37958 1.6895,1.37958 l 3.2705,-0.682 v 14.77149 h 2.77451 v -15.37602 l 8.83498,-1.78252 v 13.99653 h 2.77452 v -14.58548 l 3.76653,-0.69758 c 0.60453,-0.10843 1.10053,-0.79043 1.10053,-1.39495 v -5.84353 c 0,-0.992 -0.69758,-1.395 -1.59653,-1.395 l -3.27053,0.6975 v -16.36802 l 3.76653,-0.6975 m -15.37603,3.069 8.83498,-1.7825 v 16.36802 l -8.83498,1.891 v -16.47652"
     id="path20"
     style="stroke-width:0.992001" />
  <path
     class="Accidental"
     d="m 1192.0072,136.87846 c -0.186,-0.20148 -0.496,-0.29453 -0.8836,-0.29453 l -0.2015,0.093 c 0,0 -0.093,0 -0.093,0 l -12.5086,3.472 v -17.36001 h -2.7745 v 49.10405 c 0,1.08505 0.899,1.28652 1.7825,1.28652 l 12.5086,-3.472 v 17.36002 h 2.666 c 0,-16.46107 0,-32.13156 0,-49.10405 0,-0.38758 -0.186,-0.88358 -0.496,-1.08505 m -13.6866,27.77605 v -16.27502 l 11.5166,-3.2705 v 16.36802 l -11.5166,3.1775"
     id="path21"
     style="stroke-width:0.992001" />
  <path
     class="Accidental"
     d="m 1021.9867,343.01299 c 0.6045,-0.0931 1.1005,-0.79053 1.1005,-1.39505 v -5.84348 c 0,-0.992 -0.6976,-1.39495 -1.5965,-1.39495 l -3.2706,0.69747 v -14.78706 h -2.7745 v 15.37601 l -8.835,1.798 v -13.99644 h -2.7745 v 14.58549 l -3.87497,0.79053 c -0.589,0.10843 -1.08501,0.79043 -1.08501,1.39495 v 5.75053 c 0,1.085 0.79051,1.395 1.68948,1.395 l 3.2705,-0.6975 v 16.36802 l -3.87497,0.7905 c -0.589,0.0931 -1.08501,0.79053 -1.08501,1.39505 v 5.75043 c 0,1.08505 0.79051,1.37958 1.68948,1.37958 l 3.2705,-0.682 v 14.77149 h 2.7745 v -15.37602 l 8.835,-1.78252 v 13.99653 h 2.7745 v -14.58548 l 3.7666,-0.69758 c 0.6045,-0.10843 1.1005,-0.79043 1.1005,-1.39495 v -5.84353 c 0,-0.992 -0.6976,-1.395 -1.5965,-1.395 l -3.2706,0.6975 v -16.36802 l 3.7666,-0.6975 m -15.3761,3.069 8.835,-1.7825 v 16.36802 l -8.835,1.891 v -16.47652"
     id="path22"
     style="stroke-width:0.992001" />
  <path
     class="Accidental"
     d="m 2365.2272,372.47846 c -0.186,-0.20148 -0.496,-0.29453 -0.8836,-0.29453 l -0.2015,0.0931 c 0,0 -0.093,0 -0.093,0 l -12.5086,3.472 v -17.36001 h -2.7745 v 49.10405 c 0,1.08505 0.899,1.28652 1.7825,1.28652 l 12.5086,-3.472 v 17.36002 h 2.666 c 0,-16.46107 0,-32.13156 0,-49.10405 0,-0.38758 -0.186,-0.88358 -0.496,-1.08505 m -13.6866,27.77605 v -16.27502 l 11.5166,-3.2705 v 16.36802 l -11.5166,3.1775"
     id="path23"
     style="stroke-width:0.992001" />
  <path
     class="Accidental"
     d="m 2438.4167,405.01299 c 0.6045,-0.0931 1.1005,-0.79053 1.1005,-1.39505 v -5.84348 c 0,-0.992 -0.6976,-1.39495 -1.5965,-1.39495 l -3.2706,0.69747 v -14.78706 h -2.7745 v 15.37601 l -8.835,1.798 v -13.99644 h -2.7745 v 14.58549 l -3.875,0.79053 c -0.589,0.10843 -1.085,0.79043 -1.085,1.39495 v 5.75053 c 0,1.085 0.7905,1.395 1.6895,1.395 l 3.2705,-0.6975 v 16.36802 l -3.875,0.7905 c -0.589,0.0931 -1.085,0.79053 -1.085,1.39505 v 5.75043 c 0,1.08505 0.7905,1.37958 1.6895,1.37958 l 3.2705,-0.682 v 14.77149 h 2.7745 v -15.37602 l 8.835,-1.78252 v 13.99653 h 2.7745 v -14.58548 l 3.7666,-0.69758 c 0.6045,-0.10843 1.1005,-0.79043 1.1005,-1.39495 v -5.84353 c 0,-0.992 -0.6976,-1.395 -1.5965,-1.395 l -3.2706,0.6975 v -16.36802 l 3.7666,-0.6975 m -15.3761,3.069 8.835,-1.7825 v 16.36802 l -8.835,1.891 v -16.47652"
     id="path24"
     style="stroke-width:0.992001" />
  <polyline
     class="LedgerLine"
     fill="none"
     stroke="#000000"
     stroke-width="3.97"
     stroke-linejoin="bevel"
     points="1497.99,770.599 1546.58,770.599"
     id="polyline24"
     transform="translate(-304.99387,-280.77)" />
  <polyline
     class="LedgerLine"
     fill="none"
     stroke="#000000"
     stroke-width="3.97"
     stroke-linejoin="bevel"
     points="1383.38,596.999 1431.98,596.999"
     id="polyline25"
     transform="translate(-304.99387,-280.77)" />
  <polyline
     class="LedgerLine"
     fill="none"
     stroke="#000000"
     stroke-width="3.97"
     stroke-linejoin="bevel"
     points="1383.38,621.799 1431.98,621.799"
     id="polyline26"
     transform="translate(-304.99387,-280.77)" />
  <polyline
     class="LedgerLine"
     fill="none"
     stroke="#000000"
     stroke-width="3.97"
     stroke-linejoin="bevel"
     points="1440.69,621.799 1489.28,621.799"
     id="polyline27"
     transform="translate(-304.99387,-280.77)" />
  <polyline
     class="LedgerLine"
     fill="none"
     stroke="#000000"
     stroke-width="3.97"
     stroke-linejoin="bevel"
     points="1440.69,596.999 1489.28,596.999"
     id="polyline28"
     transform="translate(-304.99387,-280.77)" />
  <polyline
     class="LedgerLine"
     fill="none"
     stroke="#000000"
     stroke-width="3.97"
     stroke-linejoin="bevel"
     points="1440.69,572.199 1489.28,572.199"
     id="polyline29"
     transform="translate(-304.99387,-280.77)" />
  <polyline
     class="Stem"
     fill="none"
     stroke="#000000"
     stroke-width="2.48"
     stroke-linejoin="bevel"
     points="954.448,439.965 954.448,510.199"
     id="polyline30"
     transform="translate(-304.99387,-280.77)" />
  <polyline
     class="Stem"
     fill="none"
     stroke="#000000"
     stroke-width="2.48"
     stroke-linejoin="bevel"
     points="667.927,402.765 667.927,485.399"
     id="polyline31"
     transform="translate(-304.99387,-280.77)" />
  <polyline
     class="Stem"
     fill="none"
     stroke="#000000"
     stroke-width="2.48"
     stroke-linejoin="bevel"
     points="1507.42,439.965 1507.42,516.3"
     id="polyline32"
     transform="translate(-304.99387,-280.77)" />
  <polyline
     class="Stem"
     fill="none"
     stroke="#000000"
     stroke-width="2.48"
     stroke-linejoin="bevel"
     points="725.231,415.165 725.231,485.399"
     id="polyline33"
     transform="translate(-304.99387,-280.77)" />
  <polyline
     class="Stem"
     fill="none"
     stroke="#000000"
     stroke-width="2.48"
     stroke-linejoin="bevel"
     points="782.535,402.765 782.535,485.399"
     id="polyline34"
     transform="translate(-304.99387,-280.77)" />
  <polyline
     class="Stem"
     fill="none"
     stroke="#000000"
     stroke-width="2.48"
     stroke-linejoin="bevel"
     points="839.84,415.165 839.84,485.399"
     id="polyline35"
     transform="translate(-304.99387,-280.77)" />
  <polyline
     class="Stem"
     fill="none"
     stroke="#000000"
     stroke-width="2.48"
     stroke-linejoin="bevel"
     points="1179.34,444.231 1179.34,367.599"
     id="polyline36"
     transform="translate(-304.99387,-280.77)" />
  <polyline
     class="Stem"
     fill="none"
     stroke="#000000"
     stroke-width="2.48"
     stroke-linejoin="bevel"
     points="1092.29,439.965 1092.29,510.199"
     id="polyline37"
     transform="translate(-304.99387,-280.77)" />
  <polyline
     class="Stem"
     fill="none"
     stroke="#000000"
     stroke-width="2.48"
     stroke-linejoin="bevel"
     points="897.144,402.765 897.144,510.199"
     id="polyline38"
     transform="translate(-304.99387,-280.77)" />
  <polyline
     class="Stem"
     fill="none"
     stroke="#000000"
     stroke-width="2.48"
     stroke-linejoin="bevel"
     points="2032.48,439.965 2032.48,510.199"
     id="polyline39"
     transform="translate(-304.99387,-280.77)" />
  <polyline
     class="Stem"
     fill="none"
     stroke="#000000"
     stroke-width="2.48"
     stroke-linejoin="bevel"
     points="1020.99,415.165 1020.99,510.199"
     id="polyline40"
     transform="translate(-304.99387,-280.77)" />
  <polyline
     class="Stem"
     fill="none"
     stroke="#000000"
     stroke-width="2.48"
     stroke-linejoin="bevel"
     points="1564.72,687.965 1564.72,844.999"
     id="polyline41"
     transform="translate(-304.99387,-280.77)" />
  <polyline
     class="Stem"
     fill="none"
     stroke="#000000"
     stroke-width="2.48"
     stroke-linejoin="bevel"
     points="1507.42,774.765 1507.42,844.999"
     id="polyline42"
     transform="translate(-304.99387,-280.77)" />
  <polyline
     class="Stem"
     fill="none"
     stroke="#000000"
     stroke-width="2.48"
     stroke-linejoin="bevel"
     points="2751.94,700.365 2751.94,770.599"
     id="polyline43"
     transform="translate(-304.99387,-280.77)" />
  <polyline
     class="Stem"
     fill="none"
     stroke="#000000"
     stroke-width="2.48"
     stroke-linejoin="bevel"
     points="2680.64,675.565 2680.64,770.599"
     id="polyline44"
     transform="translate(-304.99387,-280.77)" />
  <polyline
     class="Stem"
     fill="none"
     stroke="#000000"
     stroke-width="2.48"
     stroke-linejoin="bevel"
     points="2119.53,679.831 2119.53,572.199"
     id="polyline45"
     transform="translate(-304.99387,-280.77)" />
  <polyline
     class="Stem"
     fill="none"
     stroke="#000000"
     stroke-width="2.48"
     stroke-linejoin="bevel"
     points="2614.1,700.365 2614.1,770.599"
     id="polyline46"
     transform="translate(-304.99387,-280.77)" />
  <polyline
     class="Stem"
     fill="none"
     stroke="#000000"
     stroke-width="2.48"
     stroke-linejoin="bevel"
     points="2062.23,729.431 2062.23,572.199"
     id="polyline47"
     transform="translate(-304.99387,-280.77)" />
  <polyline
     class="Stem"
     fill="none"
     stroke="#000000"
     stroke-width="2.48"
     stroke-linejoin="bevel"
     points="2556.79,663.165 2556.79,770.599"
     id="polyline48"
     transform="translate(-304.99387,-280.77)" />
  <polyline
     class="Stem"
     fill="none"
     stroke="#000000"
     stroke-width="2.48"
     stroke-linejoin="bevel"
     points="2499.49,675.565 2499.49,745.799"
     id="polyline49"
     transform="translate(-304.99387,-280.77)" />
  <polyline
     class="Stem"
     fill="none"
     stroke="#000000"
     stroke-width="2.48"
     stroke-linejoin="bevel"
     points="2442.18,663.165 2442.18,745.799"
     id="polyline50"
     transform="translate(-304.99387,-280.77)" />
  <polyline
     class="Stem"
     fill="none"
     stroke="#000000"
     stroke-width="2.48"
     stroke-linejoin="bevel"
     points="2384.88,675.565 2384.88,745.799"
     id="polyline51"
     transform="translate(-304.99387,-280.77)" />
  <polyline
     class="Stem"
     fill="none"
     stroke="#000000"
     stroke-width="2.48"
     stroke-linejoin="bevel"
     points="2176.84,642.631 2176.84,572.199"
     id="polyline52"
     transform="translate(-304.99387,-280.77)" />
  <polyline
     class="Stem"
     fill="none"
     stroke="#000000"
     stroke-width="2.48"
     stroke-linejoin="bevel"
     points="2327.57,663.165 2327.57,745.799"
     id="polyline53"
     transform="translate(-304.99387,-280.77)" />
  <polyline
     class="Stem"
     fill="none"
     stroke="#000000"
     stroke-width="2.48"
     stroke-linejoin="bevel"
     points="1699.35,655.031 1699.35,584.695"
     id="polyline54"
     transform="translate(-304.99387,-280.77)" />
  <polyline
     class="Stem"
     fill="none"
     stroke="#000000"
     stroke-width="2.48"
     stroke-linejoin="bevel"
     points="1822.53,741.831 1822.53,594.231"
     id="polyline55"
     transform="translate(-304.99387,-280.77)" />
  <polyline
     class="Stem"
     fill="none"
     stroke="#000000"
     stroke-width="2.48"
     stroke-linejoin="bevel"
     points="1879.84,717.031 1879.84,598.667"
     id="polyline56"
     transform="translate(-304.99387,-280.77)" />
  <polyline
     class="Stem"
     fill="none"
     stroke="#000000"
     stroke-width="2.48"
     stroke-linejoin="bevel"
     points="1937.14,692.231 1937.14,603.103"
     id="polyline57"
     transform="translate(-304.99387,-280.77)" />
  <polyline
     class="Stem"
     fill="none"
     stroke="#000000"
     stroke-width="2.48"
     stroke-linejoin="bevel"
     points="2300.02,741.831 2300.02,572.199"
     id="polyline58"
     transform="translate(-304.99387,-280.77)" />
  <polyline
     class="Stem"
     fill="none"
     stroke="#000000"
     stroke-width="2.48"
     stroke-linejoin="bevel"
     points="1450.11,563.965 1450.11,844.999"
     id="polyline59"
     transform="translate(-304.99387,-280.77)" />
  <polyline
     class="Stem"
     fill="none"
     stroke="#000000"
     stroke-width="2.48"
     stroke-linejoin="bevel"
     points="1149.59,737.565 1149.59,807.677"
     id="polyline60"
     transform="translate(-304.99387,-280.77)" />
  <polyline
     class="Stem"
     fill="none"
     stroke="#000000"
     stroke-width="2.48"
     stroke-linejoin="bevel"
     points="1206.9,687.965 1206.9,802.019"
     id="polyline61"
     transform="translate(-304.99387,-280.77)" />
  <polyline
     class="Stem"
     fill="none"
     stroke="#000000"
     stroke-width="2.48"
     stroke-linejoin="bevel"
     points="1264.2,650.765 1264.2,796.361"
     id="polyline62"
     transform="translate(-304.99387,-280.77)" />
  <polyline
     class="Stem"
     fill="none"
     stroke="#000000"
     stroke-width="2.48"
     stroke-linejoin="bevel"
     points="1335.5,638.365 1335.5,789.322"
     id="polyline63"
     transform="translate(-304.99387,-280.77)" />
  <polyline
     class="Stem"
     fill="none"
     stroke="#000000"
     stroke-width="2.48"
     stroke-linejoin="bevel"
     points="1392.81,601.165 1392.81,844.999"
     id="polyline64"
     transform="translate(-304.99387,-280.77)" />
  <path
     class="Hook"
     d="m 1201.1861,235.536 c 0,0.682 0.589,1.28651 1.2865,1.28651 0.496,0 1.1005,-0.40301 1.1935,-0.79051 0,-0.1085 0.899,-3.58051 0.992,-3.875 0.093,-0.403 0.992,-4.16951 4.557,-10.01306 3.875,-6.44801 9.827,-11.11349 14.787,-18.0575 4.9601,-6.944 7.8431,-13.50054 7.8431,-22.22697 0,-9.02106 -1.984,-16.56959 -7.3471,-26.19508 -0.2945,-0.69747 -0.8989,-1.08495 -1.488,-1.08495 -0.2014,0 -0.4029,0 -0.496,0.093 -0.496,0.20148 -0.6974,0.60453 -0.6974,1.19348 0,0.29453 0.1085,0.69758 0.2945,1.19358 3.968,9.22243 5.5644,14.47696 5.5644,21.62244 0,8.23054 -2.8829,12.50854 -4.6655,15.57759 -6.448,11.00496 -16.864,16.36802 -21.0335,17.76297 -0.6975,0.20148 -0.7905,0.79053 -0.7905,1.08505 v 22.4285"
     id="path64"
     style="stroke-width:0.992001" />
  <path
     class="Note"
     d="m 476.30112,121.99851 c 0,4.2625 3.06901,9.02103 11.11349,9.02103 10.30759,0 21.12655,-8.43203 21.12655,-17.15854 0,-5.85901 -4.96001,-9.12949 -11.11349,-9.12949 -9.62548,0 -21.12655,8.13749 -21.12655,17.267"
     id="path65"
     style="stroke-width:0.992001" />
  <path
     class="Note"
     d="m 533.60613,134.39851 c 0,4.2625 3.069,9.02103 11.11348,9.02103 10.30759,0 21.12655,-8.43203 21.12655,-17.15854 0,-5.85901 -4.96001,-9.12949 -11.11349,-9.12949 -9.62548,0 -21.12654,8.13749 -21.12654,17.267"
     id="path66"
     style="stroke-width:0.992001" />
  <path
     class="Note"
     d="m 590.91012,121.99851 c 0,4.2625 3.06901,9.02103 11.11349,9.02103 10.30759,0 21.12655,-8.43203 21.12655,-17.15854 0,-5.85901 -4.96001,-9.12949 -11.11349,-9.12949 -9.62548,0 -21.12655,8.13749 -21.12655,17.267"
     id="path67"
     style="stroke-width:0.992001" />
  <path
     class="Note"
     d="m 648.21412,159.19851 c 0,4.2625 3.06901,9.02103 11.11349,9.02103 10.30759,0 21.12655,-8.43203 21.12655,-17.15854 0,-5.85901 -4.96001,-9.12949 -11.11349,-9.12949 -9.62548,0 -21.12655,8.13748 -21.12655,17.267"
     id="path68"
     style="stroke-width:0.992001" />
  <path
     class="Note"
     d="m 714.75612,134.39851 c 0,4.2625 3.06901,9.02103 11.11349,9.02103 10.30759,0 21.12655,-8.43203 21.12655,-17.15854 0,-5.85901 -4.96001,-9.12949 -11.11349,-9.12949 -9.62548,0 -21.12655,8.13749 -21.12655,17.267"
     id="path69"
     style="stroke-width:0.992001" />
  <path
     class="Note"
     d="m 1726.2461,159.19851 c 0,4.2625 3.069,9.02103 11.1135,9.02103 10.3076,0 21.1266,-8.43203 21.1266,-17.15854 0,-5.85901 -4.96,-9.12949 -11.1135,-9.12949 -9.6255,0 -21.1266,8.13748 -21.1266,17.267"
     id="path70"
     style="stroke-width:0.992001" />
  <path
     class="Note"
     d="m 418.99712,134.39851 c 0,4.2625 3.06901,9.02103 11.11349,9.02103 10.30759,0 21.12655,-8.43203 21.12655,-17.15854 0,-5.85901 -4.96001,-9.12949 -11.11349,-9.12949 -9.62548,0 -21.12655,8.13749 -21.12655,17.267"
     id="path71"
     style="stroke-width:0.992001" />
  <path
     class="Note"
     d="m 843.35612,171.59851 c 0,4.2625 3.06901,9.02103 11.11349,9.02103 10.30759,0 21.12655,-8.43203 21.12655,-17.15854 0,-5.85901 -4.96001,-9.12949 -11.11349,-9.12949 -9.62548,0 -21.12655,8.13749 -21.12655,17.267"
     id="path72"
     style="stroke-width:0.992001" />
  <path
     class="Note"
     d="m 361.69312,121.99851 c 0,4.2625 3.06901,9.02103 11.11349,9.02103 10.30759,0 21.12655,-8.43203 21.12655,-17.15854 0,-5.85901 -4.96001,-9.12949 -11.11349,-9.12949 -9.62548,0 -21.12655,8.13749 -21.12655,17.267"
     id="path73"
     style="stroke-width:0.992001" />
  <path
     class="Note"
     d="m 786.05612,159.19851 c 0,4.2625 3.06901,9.02103 11.11349,9.02103 10.30759,0 21.12655,-8.43203 21.12655,-17.15854 0,-5.85901 -4.96001,-9.12949 -11.11349,-9.12949 -9.62548,0 -21.12655,8.13748 -21.12655,17.267"
     id="path74"
     style="stroke-width:0.992001" />
  <path
     class="Note"
     d="m 1201.1861,159.19851 c 0,4.2625 3.069,9.02103 11.1135,9.02103 10.3076,0 21.1266,-8.43203 21.1266,-17.15854 0,-5.85901 -4.96,-9.12949 -11.1135,-9.12949 -9.6255,0 -21.1266,8.13748 -21.1266,17.267"
     id="path75"
     style="stroke-width:0.992001" />
  <path
     class="Note"
     d="m 1029.2661,357.59851 c 0,4.2625 3.069,9.02103 11.1135,9.02103 10.3076,0 21.1266,-8.43203 21.1266,-17.15854 0,-5.85901 -4.96,-9.12949 -11.1135,-9.12949 -9.6255,0 -21.1266,8.13748 -21.1266,17.267"
     id="path76"
     style="stroke-width:0.992001" />
  <path
     class="Note"
     d="m 2374.4061,394.79851 c 0,4.2625 3.069,9.02103 11.1135,9.02103 10.3076,0 21.1266,-8.43203 21.1266,-17.15854 0,-5.85901 -4.96,-9.12949 -11.1135,-9.12949 -9.6255,0 -21.1266,8.13748 -21.1266,17.267"
     id="path77"
     style="stroke-width:0.992001" />
  <path
     class="Note"
     d="m 2307.8661,419.59851 c 0,4.2625 3.069,9.02103 11.1135,9.02103 10.3076,0 21.1266,-8.43203 21.1266,-17.15854 0,-5.85901 -4.96,-9.12949 -11.1135,-9.12949 -9.6255,0 -21.1266,8.13748 -21.1266,17.267"
     id="path78"
     style="stroke-width:0.992001" />
  <path
     class="Note"
     d="m 1086.5761,320.39851 c 0,4.2625 3.069,9.02103 11.1135,9.02103 10.3076,0 21.1266,-8.43203 21.1266,-17.15854 0,-5.85901 -4.96,-9.12949 -11.1135,-9.12949 -9.6255,0 -21.1266,8.13749 -21.1266,17.267"
     id="path79"
     style="stroke-width:0.992001" />
  <path
     class="Note"
     d="m 2250.5561,382.39851 c 0,4.2625 3.069,9.02103 11.1135,9.02103 10.3076,0 21.1266,-8.43203 21.1266,-17.15854 0,-5.85901 -4.96,-9.12949 -11.1135,-9.12949 -9.6255,0 -21.1266,8.13749 -21.1266,17.267"
     id="path80"
     style="stroke-width:0.992001" />
  <path
     class="Note"
     d="m 2193.2561,394.79851 c 0,4.2625 3.069,9.02103 11.1135,9.02103 10.3076,0 21.1266,-8.43203 21.1266,-17.15854 0,-5.85901 -4.96,-9.12949 -11.1135,-9.12949 -9.6255,0 -21.1266,8.13748 -21.1266,17.267"
     id="path81"
     style="stroke-width:0.992001" />
  <path
     class="Note"
     d="m 2135.9461,382.39851 c 0,4.2625 3.069,9.02103 11.1135,9.02103 10.3076,0 21.1266,-8.43203 21.1266,-17.15854 0,-5.85901 -4.96,-9.12949 -11.1135,-9.12949 -9.6255,0 -21.1266,8.13749 -21.1266,17.267"
     id="path82"
     style="stroke-width:0.992001" />
  <path
     class="Note"
     d="m 2078.6461,394.79851 c 0,4.2625 3.069,9.02103 11.1135,9.02103 10.3076,0 21.1266,-8.43203 21.1266,-17.15854 0,-5.85901 -4.96,-9.12949 -11.1135,-9.12949 -9.6255,0 -21.1266,8.13748 -21.1266,17.267"
     id="path83"
     style="stroke-width:0.992001" />
  <path
     class="Note"
     d="m 1143.8761,283.19851 c 0,4.2625 3.069,9.02103 11.1135,9.02103 10.3076,0 21.1266,-8.43203 21.1266,-17.15854 0,-5.85901 -4.96,-9.12949 -11.1135,-9.12949 -9.6255,0 -21.1266,8.13748 -21.1266,17.267"
     id="path84"
     style="stroke-width:0.992001" />
  <path
     class="Note"
     d="m 2445.7061,419.59851 c 0,4.2625 3.069,9.02103 11.1135,9.02103 10.3076,0 21.1266,-8.43203 21.1266,-17.15854 0,-5.85901 -4.96,-9.12949 -11.1135,-9.12949 -9.6255,0 -21.1266,8.13748 -21.1266,17.267"
     id="path85"
     style="stroke-width:0.992001" />
  <path
     class="Note"
     d="m 2021.3361,382.39851 c 0,4.2625 3.069,9.02103 11.1135,9.02103 10.3076,0 21.1266,-8.43203 21.1266,-17.15854 0,-5.85901 -4.96,-9.12949 -11.1135,-9.12949 -9.6255,0 -21.1266,8.13749 -21.1266,17.267"
     id="path86"
     style="stroke-width:0.992001" />
  <path
     class="Note"
     d="m 1964.0361,469.19851 c 0,4.2625 3.069,9.02103 11.1135,9.02103 10.3076,0 21.1266,-8.43203 21.1266,-17.15854 0,-5.85901 -4.96,-9.12949 -11.1135,-9.12949 -9.6255,0 -21.1266,8.13748 -21.1266,17.267"
     id="path87"
     style="stroke-width:0.992001" />
  <path
     class="Note"
     d="m 1840.8561,369.99851 c 0,4.2625 3.069,9.02103 11.1135,9.02103 10.3076,0 21.1266,-8.43203 21.1266,-17.15854 0,-5.85901 -4.96,-9.12949 -11.1135,-9.12949 -9.6255,0 -21.1266,8.13749 -21.1266,17.267"
     id="path88"
     style="stroke-width:0.992001" />
  <path
     class="Note"
     d="m 1783.5561,407.19851 c 0,4.2625 3.069,9.02103 11.1135,9.02103 10.3076,0 21.1266,-8.43203 21.1266,-17.15854 0,-5.85901 -4.96,-9.12949 -11.1135,-9.12949 -9.6255,0 -21.1266,8.13748 -21.1266,17.267"
     id="path89"
     style="stroke-width:0.992001" />
  <path
     class="Note"
     d="m 1726.2461,456.79851 c 0,4.2625 3.069,9.02103 11.1135,9.02103 10.3076,0 21.1266,-8.43203 21.1266,-17.15854 0,-5.85901 -4.96,-9.12949 -11.1135,-9.12949 -9.6255,0 -21.1266,8.13748 -21.1266,17.267"
     id="path90"
     style="stroke-width:0.992001" />
  <path
     class="Note"
     d="m 957.96613,369.99851 c 0,4.2625 3.069,9.02103 11.11348,9.02103 10.30759,0 21.12655,-8.43203 21.12655,-17.15854 0,-5.85901 -4.96001,-9.12949 -11.11349,-9.12949 -9.62548,0 -21.12654,8.13749 -21.12654,17.267"
     id="path91"
     style="stroke-width:0.992001" />
  <path
     class="Note"
     d="m 843.35612,456.79851 c 0,4.2625 3.06901,9.02103 11.11349,9.02103 10.30759,0 21.12655,-8.43203 21.12655,-17.15854 0,-5.85901 -4.96001,-9.12949 -11.11349,-9.12949 -9.62548,0 -21.12655,8.13748 -21.12655,17.267"
     id="path92"
     style="stroke-width:0.992001" />
  <path
     class="Note"
     d="m 1363.3761,382.39851 c 0,4.2625 3.069,9.02103 11.1135,9.02103 10.3076,0 21.1266,-8.43203 21.1266,-17.15854 0,-5.85901 -4.96,-9.12949 -11.1135,-9.12949 -9.6255,0 -21.1266,8.13749 -21.1266,17.267"
     id="path93"
     style="stroke-width:0.992001" />
  <path
     class="Note"
     d="m 1486.5561,469.19851 c 0,4.2625 3.069,9.02103 11.1135,9.02103 10.3076,0 21.1266,-8.43203 21.1266,-17.15854 0,-5.85901 -4.96,-9.12949 -11.1135,-9.12949 -9.6255,0 -21.1266,8.13748 -21.1266,17.267"
     id="path94"
     style="stroke-width:0.992001" />
  <path
     class="Note"
     d="m 900.66613,407.19851 c 0,4.2625 3.069,9.02103 11.11348,9.02103 10.30759,0 21.12655,-8.43203 21.12655,-17.15854 0,-5.85901 -4.96001,-9.12949 -11.11349,-9.12949 -9.62548,0 -21.12654,8.13748 -21.12654,17.267"
     id="path95"
     style="stroke-width:0.992001" />
  <path
     class="Note"
     d="m 1543.8561,444.39851 c 0,4.2625 3.069,9.02103 11.1135,9.02103 10.3076,0 21.1266,-8.43203 21.1266,-17.15854 0,-5.85901 -4.96,-9.12949 -11.1135,-9.12949 -9.6255,0 -21.1266,8.13749 -21.1266,17.267"
     id="path96"
     style="stroke-width:0.992001" />
  <path
     class="Note"
     d="m 1601.1661,419.59851 c 0,4.2625 3.069,9.02103 11.1135,9.02103 10.3076,0 21.1266,-8.43203 21.1266,-17.15854 0,-5.85901 -4.96,-9.12949 -11.1135,-9.12949 -9.6255,0 -21.1266,8.13748 -21.1266,17.267"
     id="path97"
     style="stroke-width:0.992001" />
  <path
     class="Note"
     d="m 1201.1861,493.99851 c 0,4.2625 3.069,9.02103 11.1135,9.02103 10.3076,0 21.1266,-8.43203 21.1266,-17.15854 0,-5.85901 -4.96,-9.12949 -11.1135,-9.12949 -9.6255,0 -21.1266,8.13749 -21.1266,17.267"
     id="path98"
     style="stroke-width:0.992001" />
  <path
     class="Note"
     d="m 1258.4861,407.19851 c 0,4.2625 3.069,9.02103 11.1135,9.02103 10.3076,0 21.1266,-8.43203 21.1266,-17.15854 0,-5.85901 -4.96,-9.12949 -11.1135,-9.12949 -9.6255,0 -21.1266,8.13748 -21.1266,17.267"
     id="path99"
     style="stroke-width:0.992001" />
  <path
     class="Clef"
     d="m 66.867662,230.71558 c 0,6.55653 4.960005,15.19001 18.352019,15.19001 4.66548,0 8.742008,-1.19347 12.306962,-3.37905 5.363057,-3.76643 6.742537,-10.32296 6.742537,-16.56949 0,-3.85948 -0.58896,-8.32349 -1.58096,-13.98097 -0.29452,-1.984 -0.89905,-4.96 -1.488,-8.83506 9.71844,-3.17747 16.95697,-13.29896 16.95697,-23.51352 0,-14.97304 -10.61749,-25.09453 -25.094551,-25.09453 -0.992001,-5.952 -1.984002,-11.81106 -2.774428,-17.36001 10.416009,-11.02054 17.654439,-23.42055 17.654439,-39.184043 0,-9.036533 -2.77442,-16.368016 -4.37095,-19.948148 -2.37148,-5.053253 -5.254531,-8.525256 -7.037058,-8.525256 -0.697475,0 -3.766429,1.193377 -7.036957,5.053253 -6.355056,7.548135 -8.137483,20.242673 -8.137483,28.566154 0,5.36296 0.496,10.23001 2.185477,21.3435 -0.108525,0.0931 -5.270005,5.34748 -7.347057,7.03706 -9.036435,8.33895 -21.529497,20.42897 -21.529497,40.28451 0,18.53807 16.166541,33.12356 34.627085,33.12356 2.867478,0 5.548956,-0.29452 7.827483,-0.69748 1.890952,9.53244 3.084527,16.47645 3.084527,21.73098 0,10.32306 -5.363054,15.77906 -15.376015,15.77906 -2.387052,0 -4.464004,-0.496 -4.665579,-0.496 -0.09295,-0.10852 -0.294426,-0.20157 -0.294426,-0.29452 0,-0.20148 0.201475,-0.31 0.496001,-0.31 4.665479,-0.79053 9.315484,-4.75853 9.315484,-11.09802 0,-5.36305 -4.061054,-11.02053 -11.501061,-11.02053 -6.944007,0 -11.314962,5.65748 -11.314962,12.19854 M 87.606633,98.283443 c 0.899051,-3.968004 5.456006,-14.384015 10.617586,-14.384015 1.488001,0 3.859481,4.75843 3.859481,11.702437 0,10.323065 -7.62601,18.057595 -14.477067,24.800025 -0.588951,-3.968 -1.084951,-7.82748 -1.084951,-11.99696 0,-3.67348 0.294525,-7.05253 1.084951,-10.121487 m 8.726534,101.974627 c -1.984002,0.40295 -3.859479,0.60443 -5.750531,0.60443 -14.182439,0 -26.287996,-9.92001 -26.287996,-24.9085 0,-12.09007 8.525028,-22.90903 17.267037,-30.45756 1.674002,-1.488 3.270528,-2.86748 4.75853,-4.35548 0.883476,5.34748 1.580952,10.01296 2.278427,14.08949 -9.036434,2.68148 -15.17444,12.19854 -15.17444,21.52955 0,6.944 5.456005,16.46101 13.392013,16.46101 0.790426,0 1.689477,-0.40295 1.689477,-1.28652 0,-0.89895 -0.992001,-1.39495 -2.185477,-2.18548 -3.875054,-2.387 -6.060531,-4.96001 -6.060531,-9.82701 0,-6.04501 4.572529,-10.91206 10.32296,-12.29154 l 5.750531,32.62761 M 110.42266,181.906 c 0,7.05251 -2.88296,14.29102 -9.92001,17.17407 -2.076956,-11.90406 -4.758434,-27.68308 -5.456009,-32.05413 8.928009,0 15.376019,6.06055 15.376019,14.88006"
     id="path100"
     style="stroke-width:0.992001" />
  <path
     class="Clef"
     d="m 1905.165,480.93827 c 0,5.24523 3.968,12.15202 14.6816,12.15202 3.7324,0 6.9936,-0.95478 9.8455,-2.70325 4.2905,-3.01314 5.3941,-8.25837 5.3941,-13.25559 0,-3.08759 -0.4712,-6.65879 -1.2648,-11.18478 -0.2356,-1.5872 -0.7192,-3.968 -1.1904,-7.06805 7.7748,-2.54198 13.5656,-10.63917 13.5656,-18.81082 0,-11.97844 -8.494,-20.07563 -20.0757,-20.07563 -0.7936,-4.7616 -1.5872,-9.44885 -2.2195,-13.88801 8.3328,-8.81643 14.1236,-18.73645 14.1236,-31.34724 0,-7.22923 -2.2196,-13.09442 -3.4968,-15.95853 -1.8972,-4.0426 -4.2036,-6.8202 -5.6297,-6.8202 -0.5579,0 -3.0131,0.9547 -5.6295,4.0426 -5.0841,6.03851 -6.51,16.19414 -6.51,22.85293 0,4.29037 0.3968,8.18401 1.7484,17.0748 -0.087,0.0744 -4.216,4.27799 -5.8777,5.62965 -7.2291,6.67117 -17.2236,16.34318 -17.2236,32.22762 0,14.83046 12.9333,26.49886 27.7017,26.49886 2.294,0 4.4392,-0.23562 6.262,-0.55799 1.5127,7.62595 2.4676,13.18116 2.4676,17.38479 0,8.25845 -4.2904,12.62325 -12.3008,12.62325 -1.9096,0 -3.5712,-0.3968 -3.7325,-0.3968 -0.074,-0.0868 -0.2355,-0.16126 -0.2355,-0.23562 0,-0.16118 0.1612,-0.248 0.3968,-0.248 3.7324,-0.63242 7.4524,-3.80682 7.4524,-8.87841 0,-4.29045 -3.2489,-8.81643 -9.2009,-8.81643 -5.5552,0 -9.0519,4.52598 -9.0519,9.75883 m 16.5911,-105.94573 c 0.7193,-3.17441 4.3648,-11.50722 8.4941,-11.50722 1.1904,0 3.0876,3.80675 3.0876,9.36196 0,8.25845 -6.1008,14.44607 -11.5817,19.84002 -0.4711,-3.1744 -0.8679,-6.26199 -0.8679,-9.59757 0,-2.93879 0.2356,-5.64203 0.8679,-8.09719 m 6.9813,81.57972 c -1.5872,0.32236 -3.0876,0.48354 -4.6005,0.48354 -11.3459,0 -21.0304,-7.93601 -21.0304,-19.9268 0,-9.67206 6.8201,-18.32723 13.8137,-24.36605 1.3392,-1.19041 2.6164,-2.29399 3.8068,-3.48439 0.7068,4.27799 1.2648,8.01037 1.8227,11.2716 -7.2291,2.14518 -12.1395,9.75883 -12.1395,17.22364 0,5.5552 4.3648,13.16881 10.7136,13.16881 0.6323,0 1.3516,-0.32236 1.3516,-1.02922 0,-0.71916 -0.7936,-1.11596 -1.7484,-1.74838 -3.1,-1.9096 -4.8484,-3.968 -4.8484,-7.86161 0,-4.83601 3.658,-8.72965 8.2583,-9.83323 l 4.6005,26.10209 m 11.2716,-14.68166 c 0,5.64201 -2.3064,11.43282 -7.936,13.73926 -1.6616,-9.52325 -3.8068,-22.14647 -4.3649,-25.64331 7.1425,0 12.3009,4.84844 12.3009,11.90405"
     id="path101"
     style="stroke-width:0.793601" />
  <path
     class="Clef"
     d="m 1675.8686,370.71454 c -6.0388,0 -10.8749,3.48446 -10.9616,3.48446 -4.6749,3.40994 -7.6881,8.65519 -7.6881,14.446 0,5.79081 3.3232,10.08119 9.2008,10.08119 5.0841,0 9.0521,-3.40998 9.0521,-8.65519 0,-4.52601 -3.968,-8.24605 -8.4196,-8.24605 -0.9548,0 -1.8229,0.1488 -2.542,0.3968 -0.7936,0.31006 -2.1329,1.10364 -2.7777,1.66164 0.558,-3.49684 2.9389,-6.98123 6.0388,-8.65525 1.984,-1.10358 4.5261,-1.5872 7.3037,-1.5872 8.0972,0 12.0652,6.51007 12.0652,19.84006 0,10.31686 -6.5968,25.15966 -14.3717,32.15326 -8.2583,7.53921 -16.0332,11.11042 -16.1076,11.11042 0,0 -0.9548,0.5456 -0.9548,1.50038 0,0.16118 0.074,0.23562 0.074,0.3968 0.248,0.7936 0.9548,0.95478 1.5128,0.95478 l 0.2356,-0.0744 c 0.1612,0 9.2133,-3.73238 16.43,-9.37441 11.1105,-8.01045 23.6469,-22.13401 23.6469,-36.74127 0,-13.81365 -7.4524,-22.69206 -21.7372,-22.69206 m 24.9116,10.06881 c 0,2.23204 1.7484,3.96804 3.8192,3.96804 2.0584,0 3.8068,-1.736 3.8068,-3.96804 0,-2.21955 -1.7484,-4.04237 -3.8068,-4.04237 -2.0708,0 -3.8192,1.82282 -3.8192,4.04237 m 0,19.60448 c 0,2.21962 1.7484,4.05483 3.8192,4.05483 2.0584,0 3.8068,-1.83521 3.8068,-4.05483 0,-2.21962 -1.7484,-4.04242 -3.8068,-4.04242 -2.0708,0 -3.8192,1.8228 -3.8192,4.04242"
     id="path102"
     style="stroke-width:0.793601" />
  <path
     class="Clef"
     d="m 79.8722,365.73593 c -7.548532,0 -13.593588,4.35557 -13.702014,4.35557 -5.84355,4.26243 -9.610059,10.81899 -9.610059,18.0575 0,7.23851 4.154004,12.60149 11.501012,12.60149 6.355056,0 11.315061,-4.26248 11.315061,-10.81899 0,-5.65751 -4.960005,-10.30756 -10.524536,-10.30756 -1.193476,0 -2.278527,0.186 -3.177478,0.496 -0.992001,0.38757 -2.666053,1.37955 -3.472053,2.07705 0.697505,-4.37105 3.673528,-8.72653 7.548482,-10.81906 2.480003,-1.37948 5.657581,-1.984 9.129584,-1.984 10.121485,0 15.08149,8.13758 15.08149,24.80007 0,12.89607 -8.246008,31.44956 -17.964542,40.19157 -10.322961,9.42401 -20.041516,13.88801 -20.134516,13.88801 0,0 -1.193506,0.682 -1.193506,1.87548 0,0.20148 0.093,0.29453 0.093,0.496 0.31,0.992 1.193506,1.19348 1.891002,1.19348 l 0.294505,-0.093 c 0.201496,0 11.516557,-4.66548 20.537516,-11.71802 13.888014,-10.01306 29.558552,-27.6675 29.558552,-45.92657 0,-17.26706 -9.315482,-28.36507 -27.1715,-28.36507 m 31.13951,12.58601 c 0,2.79005 2.18547,4.96005 4.774,4.96005 2.57295,0 4.75853,-2.17 4.75853,-4.96005 0,-2.77443 -2.18558,-5.05296 -4.75853,-5.05296 -2.58853,0 -4.774,2.27853 -4.774,5.05296 m 0,24.5056 c 0,2.77452 2.18547,5.06853 4.774,5.06853 2.57295,0 4.75853,-2.29401 4.75853,-5.06853 0,-2.77453 -2.18558,-5.05303 -4.75853,-5.05303 -2.58853,0 -4.774,2.2785 -4.774,5.05303"
     id="path103"
     style="stroke-width:0.992001" />
  <path
     class="Clef"
     d="m 1427.675,480.93827 c 0,5.24523 3.968,12.15202 14.6816,12.15202 3.7324,0 6.9936,-0.95478 9.8455,-2.70325 4.2905,-3.01314 5.3941,-8.25837 5.3941,-13.25559 0,-3.08759 -0.4712,-6.65879 -1.2648,-11.18478 -0.2356,-1.5872 -0.7192,-3.968 -1.1904,-7.06805 7.7748,-2.54198 13.5656,-10.63917 13.5656,-18.81082 0,-11.97844 -8.494,-20.07563 -20.0757,-20.07563 -0.7936,-4.7616 -1.5872,-9.44885 -2.2195,-13.88801 8.3328,-8.81643 14.1236,-18.73645 14.1236,-31.34724 0,-7.22923 -2.2196,-13.09442 -3.4968,-15.95853 -1.8972,-4.0426 -4.2036,-6.8202 -5.6297,-6.8202 -0.5579,0 -3.0131,0.9547 -5.6295,4.0426 -5.0841,6.03851 -6.51,16.19414 -6.51,22.85293 0,4.29037 0.3968,8.18401 1.7484,17.0748 -0.087,0.0744 -4.216,4.27799 -5.8777,5.62965 -7.2291,6.67117 -17.2236,16.34318 -17.2236,32.22762 0,14.83046 12.9333,26.49886 27.7017,26.49886 2.294,0 4.4392,-0.23562 6.262,-0.55799 1.5127,7.62595 2.4676,13.18116 2.4676,17.38479 0,8.25845 -4.2904,12.62325 -12.3008,12.62325 -1.9096,0 -3.5712,-0.3968 -3.7325,-0.3968 -0.074,-0.0868 -0.2355,-0.16126 -0.2355,-0.23562 0,-0.16118 0.1612,-0.248 0.3968,-0.248 3.7324,-0.63242 7.4524,-3.80682 7.4524,-8.87841 0,-4.29045 -3.2489,-8.81643 -9.2009,-8.81643 -5.5552,0 -9.0519,4.52598 -9.0519,9.75883 m 16.5911,-105.94573 c 0.7193,-3.17441 4.3648,-11.50722 8.4941,-11.50722 1.1904,0 3.0876,3.80675 3.0876,9.36196 0,8.25845 -6.1008,14.44607 -11.5817,19.84002 -0.4711,-3.1744 -0.8679,-6.26199 -0.8679,-9.59757 0,-2.93879 0.2356,-5.64203 0.8679,-8.09719 m 6.9813,81.57972 c -1.5872,0.32236 -3.0876,0.48354 -4.6005,0.48354 -11.3459,0 -21.0304,-7.93601 -21.0304,-19.9268 0,-9.67206 6.8201,-18.32723 13.8137,-24.36605 1.3392,-1.19041 2.6164,-2.29399 3.8068,-3.48439 0.7068,4.27799 1.2648,8.01037 1.8227,11.2716 -7.2291,2.14518 -12.1395,9.75883 -12.1395,17.22364 0,5.5552 4.3648,13.16881 10.7136,13.16881 0.6323,0 1.3516,-0.32236 1.3516,-1.02922 0,-0.71916 -0.7936,-1.11596 -1.7484,-1.74838 -3.1,-1.9096 -4.8484,-3.968 -4.8484,-7.86161 0,-4.83601 3.658,-8.72965 8.2583,-9.83323 l 4.6005,26.10209 m 11.2716,-14.68166 c 0,5.64201 -2.3064,11.43282 -7.936,13.73926 -1.6616,-9.52325 -3.8068,-22.14647 -4.3649,-25.64331 7.1425,0 12.3009,4.84844 12.3009,11.90405"
     id="path104"
     style="stroke-width:0.793601" />
  <path
     class="KeySig"
     d="m 162.23867,95.01299 c 0.60453,-0.09305 1.10053,-0.790526 1.10053,-1.395052 v -5.843481 c 0,-0.992001 -0.69758,-1.394951 -1.59653,-1.394951 l -3.27053,0.697476 V 72.289917 h -2.77452 v 15.376015 l -8.83498,1.798002 V 75.467495 h -2.77451 v 14.58549 l -3.875,0.790525 c -0.589,0.108426 -1.08501,0.790426 -1.08501,1.394952 v 5.750531 c 0,1.085001 0.79051,1.395001 1.68951,1.395001 l 3.2705,-0.697506 v 16.368022 l -3.875,0.7905 c -0.589,0.093 -1.08501,0.79053 -1.08501,1.39505 v 5.75043 c 0,1.08505 0.79051,1.37958 1.68951,1.37958 l 3.2705,-0.682 v 14.77149 h 2.77451 v -15.37602 l 8.83498,-1.78252 v 13.99653 h 2.77452 v -14.58548 l 3.76653,-0.69758 c 0.60453,-0.10843 1.10053,-0.79043 1.10053,-1.39495 v -5.84353 c 0,-0.992 -0.69758,-1.395 -1.59653,-1.395 l -3.27053,0.6975 V 95.710485 l 3.76653,-0.697495 m -15.37603,3.069003 8.83498,-1.782507 v 16.368024 l -8.83498,1.891 V 98.081993"
     id="path105"
     style="stroke-width:0.992001" />
  <path
     class="KeySig"
     d="m 189.41067,132.21299 c 0.60453,-0.093 1.10053,-0.79053 1.10053,-1.39505 v -5.84348 c 0,-0.992 -0.69758,-1.39495 -1.59653,-1.39495 l -3.27053,0.69747 v -14.78706 h -2.77452 v 15.37601 l -8.83498,1.798 v -13.99644 h -2.77451 v 14.58549 l -3.875,0.79053 c -0.589,0.10843 -1.08501,0.79043 -1.08501,1.39495 v 5.75053 c 0,1.085 0.79051,1.395 1.68951,1.395 l 3.2705,-0.6975 v 16.36802 l -3.875,0.7905 c -0.589,0.0931 -1.08501,0.79053 -1.08501,1.39505 v 5.75043 c 0,1.08505 0.79051,1.37958 1.68951,1.37958 l 3.2705,-0.682 v 14.77149 h 2.77451 v -15.37602 l 8.83498,-1.78252 v 13.99653 h 2.77452 v -14.58548 l 3.76653,-0.69758 c 0.60453,-0.10843 1.10053,-0.79043 1.10053,-1.39495 v -5.84353 c 0,-0.992 -0.69758,-1.395 -1.59653,-1.395 l -3.27053,0.6975 v -16.36802 l 3.76653,-0.6975 m -15.37603,3.069 8.83498,-1.7825 v 16.36802 l -8.83498,1.891 v -16.47652"
     id="path106"
     style="stroke-width:0.992001" />
  <path
     class="KeySig"
     d="m 216.56667,82.612989 c 0.60453,-0.09305 1.10053,-0.790525 1.10053,-1.395051 v -5.843481 c 0,-0.992001 -0.69758,-1.394951 -1.59653,-1.394951 l -3.27053,0.697475 V 59.889917 h -2.77452 v 15.376015 l -8.83498,1.798002 V 63.067495 h -2.77451 v 14.58549 l -3.875,0.790525 c -0.589,0.108426 -1.08501,0.790426 -1.08501,1.394952 v 5.75053 c 0,1.085002 0.79051,1.395002 1.68951,1.395002 l 3.2705,-0.697506 v 16.368022 l -3.875,0.7905 c -0.589,0.0931 -1.08501,0.79053 -1.08501,1.39505 v 5.75043 c 0,1.08505 0.79051,1.37958 1.68951,1.37958 l 3.2705,-0.682 v 14.77149 h 2.77451 v -15.37602 l 8.83498,-1.78252 v 13.99653 h 2.77452 v -14.58548 l 3.76653,-0.69758 c 0.60453,-0.10843 1.10053,-0.79043 1.10053,-1.39495 v -5.84353 c 0,-0.992004 -0.69758,-1.395004 -1.59653,-1.395004 l -3.27053,0.697506 V 83.310485 l 3.76653,-0.697496 m -15.37603,3.069004 8.83498,-1.782507 v 16.368024 l -8.83498,1.891 V 85.681993"
     id="path107"
     style="stroke-width:0.992001" />
  <path
     class="KeySig"
     d="m 243.73767,119.81299 c 0.60453,-0.0931 1.10053,-0.79053 1.10053,-1.39505 v -5.84348 c 0,-0.992 -0.69758,-1.39495 -1.59653,-1.39495 l -3.27053,0.69747 V 97.089917 h -2.77452 v 15.376013 l -8.83498,1.798 v -13.99644 h -2.77451 v 14.58549 l -3.875,0.79053 c -0.589,0.10843 -1.08501,0.79043 -1.08501,1.39495 v 5.75053 c 0,1.085 0.79051,1.395 1.68951,1.395 l 3.2705,-0.6975 v 16.36802 l -3.875,0.7905 c -0.589,0.093 -1.08501,0.79053 -1.08501,1.39505 v 5.75043 c 0,1.08505 0.79051,1.37958 1.68951,1.37958 l 3.2705,-0.682 v 14.77149 h 2.77451 v -15.37602 l 8.83498,-1.78252 v 13.99653 h 2.77452 v -14.58548 l 3.76653,-0.69758 c 0.60453,-0.10843 1.10053,-0.79043 1.10053,-1.39495 v -5.84353 c 0,-0.992 -0.69758,-1.395 -1.59653,-1.395 l -3.27053,0.6975 v -16.36802 l 3.76653,-0.6975 m -15.37603,3.069 8.83498,-1.7825 v 16.36802 l -8.83498,1.891 v -16.47652"
     id="path108"
     style="stroke-width:0.992001" />
  <path
     class="KeySig"
     d="m 162.23867,380.21299 c 0.60453,-0.0931 1.10053,-0.79053 1.10053,-1.39505 v -5.84348 c 0,-0.992 -0.69758,-1.39495 -1.59653,-1.39495 l -3.27053,0.69747 v -14.78706 h -2.77452 v 15.37601 l -8.83498,1.798 v -13.99644 h -2.77451 v 14.58549 l -3.875,0.79053 c -0.589,0.10843 -1.08501,0.79043 -1.08501,1.39495 v 5.75053 c 0,1.085 0.79051,1.395 1.68951,1.395 l 3.2705,-0.6975 v 16.36802 l -3.875,0.7905 c -0.589,0.0931 -1.08501,0.79053 -1.08501,1.39505 v 5.75043 c 0,1.08505 0.79051,1.37958 1.68951,1.37958 l 3.2705,-0.682 v 14.77149 h 2.77451 v -15.37602 l 8.83498,-1.78252 v 13.99653 h 2.77452 v -14.58548 l 3.76653,-0.69758 c 0.60453,-0.10843 1.10053,-0.79043 1.10053,-1.39495 v -5.84353 c 0,-0.992 -0.69758,-1.395 -1.59653,-1.395 l -3.27053,0.6975 v -16.36802 l 3.76653,-0.6975 m -15.37603,3.069 8.83498,-1.7825 v 16.36802 l -8.83498,1.891 v -16.47652"
     id="path109"
     style="stroke-width:0.992001" />
  <path
     class="KeySig"
     d="m 189.41067,417.41299 c 0.60453,-0.0931 1.10053,-0.79053 1.10053,-1.39505 v -5.84348 c 0,-0.992 -0.69758,-1.39495 -1.59653,-1.39495 l -3.27053,0.69747 v -14.78706 h -2.77452 v 15.37601 l -8.83498,1.798 v -13.99644 h -2.77451 v 14.58549 l -3.875,0.79053 c -0.589,0.10843 -1.08501,0.79043 -1.08501,1.39495 v 5.75053 c 0,1.085 0.79051,1.395 1.68951,1.395 l 3.2705,-0.6975 v 16.36802 l -3.875,0.7905 c -0.589,0.0931 -1.08501,0.79053 -1.08501,1.39505 v 5.75043 c 0,1.08505 0.79051,1.37958 1.68951,1.37958 l 3.2705,-0.682 v 14.77149 h 2.77451 v -15.37602 l 8.83498,-1.78252 v 13.99653 h 2.77452 v -14.58548 l 3.76653,-0.69758 c 0.60453,-0.10843 1.10053,-0.79043 1.10053,-1.39495 v -5.84353 c 0,-0.992 -0.69758,-1.395 -1.59653,-1.395 l -3.27053,0.6975 v -16.36802 l 3.76653,-0.6975 m -15.37603,3.069 8.83498,-1.7825 v 16.36802 l -8.83498,1.891 v -16.47652"
     id="path110"
     style="stroke-width:0.992001" />
  <path
     class="KeySig"
     d="m 216.56667,367.81299 c 0.60453,-0.0931 1.10053,-0.79053 1.10053,-1.39505 v -5.84348 c 0,-0.992 -0.69758,-1.39495 -1.59653,-1.39495 l -3.27053,0.69747 v -14.78706 h -2.77452 v 15.37601 l -8.83498,1.798 v -13.99644 h -2.77451 v 14.58549 l -3.875,0.79053 c -0.589,0.10843 -1.08501,0.79043 -1.08501,1.39495 v 5.75053 c 0,1.085 0.79051,1.395 1.68951,1.395 l 3.2705,-0.6975 v 16.36802 l -3.875,0.7905 c -0.589,0.0931 -1.08501,0.79053 -1.08501,1.39505 v 5.75043 c 0,1.08505 0.79051,1.37958 1.68951,1.37958 l 3.2705,-0.682 v 14.77149 h 2.77451 v -15.37602 l 8.83498,-1.78252 v 13.99653 h 2.77452 v -14.58548 l 3.76653,-0.69758 c 0.60453,-0.10843 1.10053,-0.79043 1.10053,-1.39495 v -5.84353 c 0,-0.992 -0.69758,-1.395 -1.59653,-1.395 l -3.27053,0.6975 v -16.36802 l 3.76653,-0.6975 m -15.37603,3.069 8.83498,-1.7825 v 16.36802 l -8.83498,1.891 v -16.47652"
     id="path111"
     style="stroke-width:0.992001" />
  <path
     class="KeySig"
     d="m 243.73767,405.01299 c 0.60453,-0.0931 1.10053,-0.79053 1.10053,-1.39505 v -5.84348 c 0,-0.992 -0.69758,-1.39495 -1.59653,-1.39495 l -3.27053,0.69747 v -14.78706 h -2.77452 v 15.37601 l -8.83498,1.798 v -13.99644 h -2.77451 v 14.58549 l -3.875,0.79053 c -0.589,0.10843 -1.08501,0.79043 -1.08501,1.39495 v 5.75053 c 0,1.085 0.79051,1.395 1.68951,1.395 l 3.2705,-0.6975 v 16.36802 l -3.875,0.7905 c -0.589,0.0931 -1.08501,0.79053 -1.08501,1.39505 v 5.75043 c 0,1.08505 0.79051,1.37958 1.68951,1.37958 l 3.2705,-0.682 v 14.77149 h 2.77451 v -15.37602 l 8.83498,-1.78252 v 13.99653 h 2.77452 v -14.58548 l 3.76653,-0.69758 c 0.60453,-0.10843 1.10053,-0.79043 1.10053,-1.39495 v -5.84353 c 0,-0.992 -0.69758,-1.395 -1.59653,-1.395 l -3.27053,0.6975 v -16.36802 l 3.76653,-0.6975 m -15.37603,3.069 8.83498,-1.7825 v 16.36802 l -8.83498,1.891 v -16.47652"
     id="path112"
     style="stroke-width:0.992001" />
  <path
     class="TimeSig"
     d="m 288.88967,142.83049 v 7.33158 h -8.23053 c -0.69748,0 -1.39495,0.60443 -1.39495,1.39495 v 1.89105 c 0,0.79043 0.69747,1.37948 1.39495,1.37948 h 30.05455 c 0.806,0 1.39495,-0.58905 1.39495,-1.37948 v -1.89105 c 0,-0.79052 -0.58895,-1.39495 -1.39495,-1.39495 h -8.81948 v -7.33158 h 8.81948 c 0.806,0 1.39495,-0.69748 1.39495,-1.488 v -1.89098 c 0,-0.6975 -0.58895,-1.3795 -1.39495,-1.3795 h -8.81948 v -15.77902 c 0,-0.589 -0.29453,-1.085 -0.79053,-1.2865 l -1.19347,-0.6045 c -0.20158,-0.093 -0.496,-0.18605 -0.69758,-0.18605 -0.29442,0.093 -0.69747,0.18605 -0.89895,0.38755 l -9.02106,8.23051 c -0.29442,0.31 -0.40295,0.6975 -0.40295,1.1005 v 8.13751 h -11.40803 c 0,0 11.02056,-11.90401 22.72299,-27.59008 0.40305,-0.496 0.496,-0.992 0.496,-1.37948 0,-0.496 -0.20147,-0.89895 -0.29442,-0.992 l -2.18558,-2.18547 c -0.20147,-0.20148 -0.58895,-0.40305 -0.992,-0.40305 -0.58895,0 -13.99644,0 -14.67844,0 -0.806,0 -1.302,0.60452 -1.39505,1.19357 0,0 -0.496,7.34696 -3.06901,15.37599 -2.58849,8.04451 -5.5645,13.00451 -8.1375,16.66252 0,0 -0.2945,0.496 -0.2945,1.1005 0,0.2015 0,0.38755 0.093,0.58903 0.403,0.69747 0.992,1.78252 0.992,1.78252 0,0 0.2015,0.60443 1.085,0.60443 h 17.06554"
     id="path113"
     style="stroke-width:0.992001" />
  <path
     class="TimeSig"
     d="m 288.88967,192.43049 v 7.33158 h -8.23053 c -0.69748,0 -1.39495,0.60443 -1.39495,1.39495 v 1.89105 c 0,0.79043 0.69747,1.37948 1.39495,1.37948 h 30.05455 c 0.806,0 1.39495,-0.58905 1.39495,-1.37948 v -1.89105 c 0,-0.79052 -0.58895,-1.39495 -1.39495,-1.39495 h -8.81948 v -7.33158 h 8.81948 c 0.806,0 1.39495,-0.69748 1.39495,-1.488 v -1.89098 c 0,-0.6975 -0.58895,-1.3795 -1.39495,-1.3795 h -8.81948 v -15.77902 c 0,-0.589 -0.29453,-1.085 -0.79053,-1.2865 l -1.19347,-0.6045 c -0.20158,-0.093 -0.496,-0.18605 -0.69758,-0.18605 -0.29442,0.093 -0.69747,0.18605 -0.89895,0.38755 l -9.02106,8.23051 c -0.29442,0.31 -0.40295,0.6975 -0.40295,1.1005 v 8.13751 h -11.40803 c 0,0 11.02056,-11.90401 22.72299,-27.59008 0.40305,-0.496 0.496,-0.992 0.496,-1.37948 0,-0.496 -0.20147,-0.89895 -0.29442,-0.992 l -2.18558,-2.18547 c -0.20147,-0.20148 -0.58895,-0.40305 -0.992,-0.40305 -0.58895,0 -13.99644,0 -14.67844,0 -0.806,0 -1.302,0.60452 -1.39505,1.19357 0,0 -0.496,7.34696 -3.06901,15.37599 -2.58849,8.04451 -5.5645,13.00451 -8.1375,16.66252 0,0 -0.2945,0.496 -0.2945,1.1005 0,0.2015 0,0.38755 0.093,0.58903 0.403,0.69747 0.992,1.78252 0.992,1.78252 0,0 0.2015,0.60443 1.085,0.60443 h 17.06554"
     id="path114"
     style="stroke-width:0.992001" />
  <path
     class="TimeSig"
     d="m 288.88967,403.23049 v 7.33158 h -8.23053 c -0.69748,0 -1.39495,0.60443 -1.39495,1.39495 v 1.89105 c 0,0.79043 0.69747,1.37948 1.39495,1.37948 h 30.05455 c 0.806,0 1.39495,-0.58905 1.39495,-1.37948 v -1.89105 c 0,-0.79052 -0.58895,-1.39495 -1.39495,-1.39495 h -8.81948 v -7.33158 h 8.81948 c 0.806,0 1.39495,-0.69748 1.39495,-1.488 v -1.89098 c 0,-0.6975 -0.58895,-1.3795 -1.39495,-1.3795 h -8.81948 v -15.77902 c 0,-0.589 -0.29453,-1.085 -0.79053,-1.2865 l -1.19347,-0.6045 c -0.20158,-0.093 -0.496,-0.18605 -0.69758,-0.18605 -0.29442,0.093 -0.69747,0.18605 -0.89895,0.38755 l -9.02106,8.23051 c -0.29442,0.31 -0.40295,0.6975 -0.40295,1.1005 v 8.13751 h -11.40803 c 0,0 11.02056,-11.90401 22.72299,-27.59008 0.40305,-0.496 0.496,-0.992 0.496,-1.37948 0,-0.496 -0.20147,-0.89895 -0.29442,-0.992 l -2.18558,-2.18547 c -0.20147,-0.20148 -0.58895,-0.40305 -0.992,-0.40305 -0.58895,0 -13.99644,0 -14.67844,0 -0.806,0 -1.302,0.60452 -1.39505,1.19357 0,0 -0.496,7.34696 -3.06901,15.37599 -2.58849,8.04451 -5.5645,13.00451 -8.1375,16.66252 0,0 -0.2945,0.496 -0.2945,1.1005 0,0.2015 0,0.38755 0.093,0.58903 0.403,0.69747 0.992,1.78252 0.992,1.78252 0,0 0.2015,0.60443 1.085,0.60443 h 17.06554"
     id="path115"
     style="stroke-width:0.992001" />
  <path
     class="TimeSig"
     d="m 288.88967,452.83049 v 7.33158 h -8.23053 c -0.69748,0 -1.39495,0.60443 -1.39495,1.39495 v 1.89105 c 0,0.79043 0.69747,1.37948 1.39495,1.37948 h 30.05455 c 0.806,0 1.39495,-0.58905 1.39495,-1.37948 v -1.89105 c 0,-0.79052 -0.58895,-1.39495 -1.39495,-1.39495 h -8.81948 v -7.33158 h 8.81948 c 0.806,0 1.39495,-0.69748 1.39495,-1.488 v -1.89098 c 0,-0.6975 -0.58895,-1.3795 -1.39495,-1.3795 h -8.81948 v -15.77902 c 0,-0.589 -0.29453,-1.085 -0.79053,-1.2865 l -1.19347,-0.6045 c -0.20158,-0.093 -0.496,-0.18605 -0.69758,-0.18605 -0.29442,0.0931 -0.69747,0.18605 -0.89895,0.38755 l -9.02106,8.23051 c -0.29442,0.31 -0.40295,0.6975 -0.40295,1.1005 v 8.13751 h -11.40803 c 0,0 11.02056,-11.90401 22.72299,-27.59008 0.40305,-0.496 0.496,-0.992 0.496,-1.37948 0,-0.496 -0.20147,-0.89895 -0.29442,-0.992 l -2.18558,-2.18547 c -0.20147,-0.20148 -0.58895,-0.40305 -0.992,-0.40305 -0.58895,0 -13.99644,0 -14.67844,0 -0.806,0 -1.302,0.60452 -1.39505,1.19357 0,0 -0.496,7.34696 -3.06901,15.37599 -2.58849,8.04451 -5.5645,13.00451 -8.1375,16.66252 0,0 -0.2945,0.496 -0.2945,1.1005 0,0.2015 0,0.38755 0.093,0.58903 0.403,0.69747 0.992,1.78252 0.992,1.78252 0,0 0.2015,0.60443 1.085,0.60443 h 17.06554"
     id="path116"
     style="stroke-width:0.992001" />
  <path
     class="Rest"
     d="m 1113.0656,134.89445 c -0.093,0 -0.2944,-0.10852 -0.4029,-0.10852 -0.5891,0 -1.0851,0.31 -1.2865,0.806 -2.2786,4.55705 -7.037,10.71056 -12.4001,11.70256 1.0851,-1.2865 1.7826,-2.88298 1.7826,-4.75855 0,-3.87496 -3.1775,-7.05243 -7.0371,-7.05243 -3.968,0 -7.1455,3.17747 -7.1455,7.05243 0,5.34755 5.2545,7.82755 9.92,7.82755 5.2546,0 8.7266,-2.48 12.1055,-6.15355 l -11.3149,35.32456 2.6814,0.79053 13.8881,-43.7411 c 0.1085,-0.10842 0.1085,-0.31 0.1085,-0.496 0,-0.496 -0.31,-0.89895 -0.8991,-1.19348"
     id="path117"
     style="stroke-width:0.992001" />
  <path
     class="Rest"
     d="m 1386.1921,171.49007 c -0.093,-0.0931 -0.2945,-0.29453 -0.5889,-0.682 l -11.408,-14.08956 c -0.1085,-0.10851 -0.2016,-0.403 -0.2016,-0.60451 0,-0.2945 0.093,-0.682 0.2016,-0.8835 l 10.106,-15.28299 c 0.1084,-0.20158 0.2015,-0.496 0.2015,-0.69758 v -0.88347 c 0,-0.29453 -0.093,-0.60453 -0.2946,-0.79053 l -16.0735,-21.73097 c 0,0 -0.3875,-0.60452 -0.992,-0.60452 -0.2945,0 -0.496,0 -0.7905,0.31 -0.403,0.29452 -0.496,0.682 -0.496,0.992 0,0.58905 0.2945,1.08505 0.2945,1.08505 l 7.5486,10.32296 c 0.186,0.29452 0.2944,0.682 0.2944,1.178 0,0.40305 -0.1084,0.89905 -0.2944,1.19348 l -10.0286,15.28306 c -0.093,0.2015 -0.2015,0.589 -0.2015,0.7905 v 0.899 c 0,0.2945 0.1085,0.589 0.31,0.7905 l 11.0981,13.79502 c -0.3876,-0.1085 -1.2865,-0.31 -2.4801,-0.31 -5.053,0 -9.021,4.16953 -9.021,9.23806 0,1.37947 0.2945,2.77442 1.085,3.85947 2.0925,3.17748 9.5325,12.60149 9.5325,12.60149 0,0 0.496,0.60453 1.1936,0.60453 0.186,0 0.3875,0 0.5889,-0.20148 0.496,-0.40305 0.6975,-0.79052 0.6975,-1.19357 0,-0.40295 -0.2015,-0.69748 -0.2944,-0.89895 -0.31,-0.496 -3.4721,-6.24654 -3.4721,-6.24654 0,0 -0.6975,-1.39495 -0.6975,-3.17747 0,-3.17748 2.3716,-5.75053 5.5491,-5.75053 1.2865,0 2.3869,0.40305 3.1774,0.89905 l 3.8751,2.48 c 0,0 0.3875,0.186 0.7904,0.186 0.3876,0 0.6976,-0.0931 0.992,-0.496 0.2016,-0.29453 0.2945,-0.58905 0.2945,-0.88358 0,-0.29442 -0.093,-0.496 -0.2945,-0.79042 l -0.2015,-0.31"
     id="path118"
     style="stroke-width:0.992001" />
  <path
     class="Rest"
     d="m 2021.3361,154.037 c 0,1.395 0,1.395 1.395,1.395 h 29.4656 c 1.3795,0 1.3795,0 1.3795,-1.395 v -10.71054 c 0,-1.39495 0,-1.39495 -1.3795,-1.39495 h -29.4656 c -1.395,0 -1.395,0 -1.395,1.39495 V 154.037"
     id="path119"
     style="stroke-width:0.992001" />
  <path
     class="Rest"
     d="m 361.69312,414.437 c 0,1.395 0,1.395 1.39501,1.395 h 29.46555 c 1.37948,0 1.37948,0 1.37948,-1.395 v -10.71054 c 0,-1.39495 0,-1.39495 -1.37948,-1.39495 h -29.46555 c -1.39501,0 -1.39501,0 -1.39501,1.39495 V 414.437"
     id="path120"
     style="stroke-width:0.992001" />
  <path
     class="Articulation"
     d="m 856.67113,195.01051 c 0.806,0.7905 1.798,1.085 2.79,1.085 0.992,0 1.984,-0.2945 2.77451,-1.085 1.488,-1.5965 1.488,-3.968 0,-5.456 -0.79051,-0.79051 -1.78251,-1.19351 -2.77451,-1.19351 -0.992,0 -1.984,0.403 -2.79,1.19351 -1.48801,1.488 -1.48801,3.8595 0,5.456"
     id="path121"
     style="stroke-width:0.992001" />
  <path
     class="Articulation"
     d="m 1739.5611,120.611 c 0.806,0.682 1.798,1.085 2.79,1.085 0.992,0 1.984,-0.403 2.7745,-1.085 1.488,-1.59651 1.488,-3.96801 0,-5.56451 -0.7905,-0.7905 -1.7825,-1.085 -2.7745,-1.085 -0.992,0 -1.984,0.2945 -2.79,1.085 -1.488,1.5965 -1.488,3.968 0,5.56451"
     id="path122"
     style="stroke-width:0.992001" />
  <path
     class="Beam"
     fill-rule="evenodd"
     d="m 361.69312,198.429 h 174.39301 v 12.4 H 361.69312 v -12.4"
     id="path123" />
  <path
     class="Beam"
     fill-rule="evenodd"
     d="m 361.69312,179.829 h 174.39301 v 12.4 H 361.69312 v -12.4"
     id="path124" />
  <path
     class="Beam"
     fill-rule="evenodd"
     d="m 590.91012,223.229 h 197.626 v 12.4 h -197.626 v -12.4"
     id="path125" />
  <path
     class="Beam"
     fill-rule="evenodd"
     d="m 590.91012,204.629 h 197.626 v 12.4 h -197.626 v -12.4"
     id="path126" />
  <path
     class="Beam"
     fill-rule="evenodd"
     d="m 1086.5761,558.029 h 174.39 v 12.4 h -174.39 v -12.4"
     id="path127" />
  <path
     class="Beam"
     fill-rule="evenodd"
     d="m 1086.5761,539.429 h 174.39 v 12.4 h -174.39 v -12.4"
     id="path128" />
  <path
     class="Beam"
     fill-rule="evenodd"
     d="m 2250.5561,483.629 h 197.63 v 12.4 h -197.63 v -12.4"
     id="path129" />
  <path
     class="Beam"
     fill-rule="evenodd"
     d="m 2250.5561,465.029 h 197.63 v 12.4 h -197.63 v -12.4"
     id="path130" />
  <path
     class="Beam"
     fill-rule="evenodd"
     d="m 2021.3361,458.829 h 174.4 v 12.4 h -174.4 v -12.4"
     id="path131" />
  <path
     class="Beam"
     fill-rule="evenodd"
     d="m 2021.3361,440.229 h 174.4 v 12.4 h -174.4 v -12.4"
     id="path132" />
  <path
     class="Beam"
     fill-rule="evenodd"
     d="m 1755.9961,285.229 h 240.27 v 12.4 h -240.27 v -12.4"
     id="path133" />
  <path
     class="Beam"
     fill-rule="evenodd"
     d="m 1755.9961,303.829 h 240.27 v 12.4 h -240.27 v -12.4"
     id="path134" />
  <path
     class="Beam"
     fill-rule="evenodd"
     d="m 1393.1161,297.61 240.27,18.6 v 12.437 l -240.27,-18.6 V 297.61"
     id="path135" />
  <path
     class="Beam"
     fill-rule="evenodd"
     d="m 1393.1161,316.21 240.27,18.6 v 12.437 l -240.27,-18.6 V 316.21"
     id="path136" />
  <path
     class="Beam"
     fill-rule="evenodd"
     d="m 843.35612,520.799 188.38998,-18.6 v 12.46 l -188.38998,18.6 v -12.46"
     id="path137" />
  <path
     class="Beam"
     fill-rule="evenodd"
     d="m 843.35612,502.199 188.38998,-18.6 v 12.46 l -188.38998,18.6 v -12.46"
     id="path138" />
  <path
     class="Tempo"
     d="m 293.58713,0 h -3.266 v 42.266 c -1.093,-0.687 -2.484,-1.094 -4.062,-1.281 -3.563,0 -6.438,0.39 -9.61,2.172 -3.953,2.078 -8.312,6.437 -8.312,11.281 0,4.75 4.26599,7.031 8.609,7.031 6.938,0 16.641,-5.937 16.641,-13.469 V 0"
     id="path139" />
  <path
     class="Tempo"
     d="m 315.83713,37.954 h 30.234 v -6.907 h -30.234 v 6.907 m 0,12.359 h 30.234 v -6.906 h -30.234 v 6.906 m 74.687,-19.141 c 3.969,-1.5 7.094,-3.843 7.094,-8.578 0,-5.531 -5.234,-9.25 -13.031,-9.25 -9.297,0 -15.297,4.985 -15.297,12.781 0,4.75 2.219,8.219 6.969,10.75 -1.86,0.594 -2.641,0.829 -3.672,1.375 -3,1.563 -4.609,4.313 -4.609,7.797 0,6.485 5.812,10.625 14.937,10.625 9.656,0 16.203,-5.531 16.203,-13.75 0,-5.64 -2.765,-9.359 -8.594,-11.75 m -3.35901,-1.265 c -2.51599,-0.594 -4.375,-1.141 -5.51599,-1.563 -2.75,-1.015 -4.562,-3.469 -4.562,-6.109 0,-3.313 2.76599,-5.766 6.484,-5.766 4.016,0 6.547,2.641 6.547,6.844 0,2.703 -1.031,4.984 -2.953,6.594 m -7.672,8.578 c 2.453,0.672 5.453,1.562 6.953,2.047 3.782,1.312 5.219,2.937 5.219,6 0,4.078 -3.359,7.015 -8.094,7.015 -4.859,0 -7.797,-2.875 -7.797,-7.672 0,-3.187 1.01599,-5.218 3.719,-7.39 m 38.516,-25.141 c -9,0 -15.59401,9.188 -15.59401,21.672 0,12.469 6.59401,21.656 15.59401,21.656 8.812,0 15.547,-9.187 15.547,-21.359 0,-7.078 -1.625,-12.297 -5.172,-16.75 -2.813,-3.406 -6.36,-5.219 -10.375,-5.219 m -0.063,3.125 c 1.797,0 3.25,1.078 3.907,3 0.781,1.985 1.25,8.281 1.25,15.719 0,6.187 -0.469,12.656 -1.016,14.703 -0.656,2.391 -2.094,3.656 -4.141,3.656 -1.859,0 -3.234,-1.015 -3.953,-3 -0.781,-1.984 -1.265,-8.343 -1.265,-15.531 0,-6.312 0.484,-12.844 1.015,-14.891 0.672,-2.39 2.11,-3.656 4.203,-3.656"
     id="path140" />
  <path
     class="Bracket"
     d="m 3.596,285.229 c 6.46158,-6.85505 19.04758,-20.84565 19.04758,-46.748 0,-32.7574 -14.0468745,-65.85175 -14.0468745,-86.304 0,-21.9694 12.5859995,-42.47775 13.3164195,-43.152 0,-0.3934 0,-0.3934 0,-0.73035 0,-0.3934 0,-0.7307 -0.337125,-1.06765 -0.393295,0 -1.12375,0 -1.460875,0.67425 -0.337125,0.3934 -19.778,19.778 -19.778,49.27635 0,31.63365 12.586,53.94 12.586,95.294 0,7.92235 -3.258875,20.50835 -12.248875,31.68975 -0.337125,0 -0.337125,0.67425 -0.67425,1.06765 0,0.33695 0.337125,0.73035 0.67425,1.06765 8.99,11.12495 12.248875,23.71095 12.248875,31.6333 0,41.354 -12.586,63.6607 -12.586,95.294 0,29.16147 19.440875,48.93949 19.778,49.27661 0.337125,0.73044 1.06758,1.06756 1.460875,0.73044 0.337125,-0.33713 0.67425,-0.73044 0.337125,-1.06756 0,0 0,-0.39332 0,-0.73044 -0.73042,-0.73046 -13.3164195,-21.23888 -13.3164195,-43.152 0,-20.50835 14.0468745,-53.60305 14.0468745,-86.304 0,-26.23965 -12.586,-39.9494 -19.04758,-46.748"
     id="path141"
     style="stroke-width:3.596" />
</svg>
