<?xml version="1.0" encoding="UTF-8" standalone="no"?>
<svg
   width="2542.406"
   height="589.29303"
   viewBox="0 0 2542.406 589.29303"
   version="1.2"
   id="svg225"
   sodipodi:docname="moonlightsonata.svg"
   inkscape:version="1.3.2 (091e20ef0f, 2023-11-25)"
   xmlns:inkscape="http://www.inkscape.org/namespaces/inkscape"
   xmlns:sodipodi="http://sodipodi.sourceforge.net/DTD/sodipodi-0.dtd"
   xmlns="http://www.w3.org/2000/svg"
   xmlns:svg="http://www.w3.org/2000/svg">
  <defs
     id="defs225" />
  <sodipodi:namedview
     id="namedview225"
     pagecolor="#ffffff"
     bordercolor="#000000"
     borderopacity="0.25"
     inkscape:showpageshadow="2"
     inkscape:pageopacity="0.0"
     inkscape:pagecheckerboard="0"
     inkscape:deskcolor="#d1d1d1"
     inkscape:zoom="0.20530303"
     inkscape:cx="1222.583"
     inkscape:cy="1712.1033"
     inkscape:window-width="1920"
     inkscape:window-height="1011"
     inkscape:window-x="0"
     inkscape:window-y="32"
     inkscape:window-maximized="1"
     inkscape:current-layer="svg225" />
  <title
     id="title1">Beethoven-Moonlight-Sonata - selection</title>
  <desc
     id="desc1">Generated by MuseScore Studio 4.4.3</desc>
  <polyline
     class="StaffLines"
     fill="none"
     stroke="#000000"
     stroke-width="2.73"
     stroke-linejoin="bevel"
     points="336.599,386.199 2847.4,386.199"
     id="polyline1"
     transform="translate(-304.99387,-268.106)" />
  <polyline
     class="StaffLines"
     fill="none"
     stroke="#000000"
     stroke-width="2.73"
     stroke-linejoin="bevel"
     points="336.599,410.999 2847.4,410.999"
     id="polyline2"
     transform="translate(-304.99387,-268.106)" />
  <polyline
     class="StaffLines"
     fill="none"
     stroke="#000000"
     stroke-width="2.73"
     stroke-linejoin="bevel"
     points="336.599,435.799 2847.4,435.799"
     id="polyline3"
     transform="translate(-304.99387,-268.106)" />
  <polyline
     class="StaffLines"
     fill="none"
     stroke="#000000"
     stroke-width="2.73"
     stroke-linejoin="bevel"
     points="336.599,460.599 2847.4,460.599"
     id="polyline4"
     transform="translate(-304.99387,-268.106)" />
  <polyline
     class="StaffLines"
     fill="none"
     stroke="#000000"
     stroke-width="2.73"
     stroke-linejoin="bevel"
     points="336.599,485.399 2847.4,485.399"
     id="polyline5"
     transform="translate(-304.99387,-268.106)" />
  <polyline
     class="StaffLines"
     fill="none"
     stroke="#000000"
     stroke-width="2.73"
     stroke-linejoin="bevel"
     points="336.599,646.599 2847.4,646.599"
     id="polyline6"
     transform="translate(-304.99387,-268.106)" />
  <polyline
     class="StaffLines"
     fill="none"
     stroke="#000000"
     stroke-width="2.73"
     stroke-linejoin="bevel"
     points="336.599,671.399 2847.4,671.399"
     id="polyline7"
     transform="translate(-304.99387,-268.106)" />
  <polyline
     class="StaffLines"
     fill="none"
     stroke="#000000"
     stroke-width="2.73"
     stroke-linejoin="bevel"
     points="336.599,696.199 2847.4,696.199"
     id="polyline8"
     transform="translate(-304.99387,-268.106)" />
  <polyline
     class="StaffLines"
     fill="none"
     stroke="#000000"
     stroke-width="2.73"
     stroke-linejoin="bevel"
     points="336.599,720.999 2847.4,720.999"
     id="polyline9"
     transform="translate(-304.99387,-268.106)" />
  <polyline
     class="StaffLines"
     fill="none"
     stroke="#000000"
     stroke-width="2.73"
     stroke-linejoin="bevel"
     points="336.599,745.799 2847.4,745.799"
     id="polyline10"
     transform="translate(-304.99387,-268.106)" />
  <path
     class="TieSegment"
     stroke="#000000"
     stroke-width="1.24"
     stroke-linecap="round"
     stroke-linejoin="round"
     fill-rule="evenodd"
     d="m 2174.9261,284.989 c 14.25,14.214 57,14.214 71.26,0 -14.26,21.032 -57.01,21.032 -71.26,0"
     id="path10" />
  <path
     class="TieSegment"
     stroke="#000000"
     stroke-width="1.24"
     stroke-linecap="round"
     stroke-linejoin="round"
     fill-rule="evenodd"
     d="m 404.12312,532.989 c 30.141,20.236 120.56501,20.236 150.706,0 -30.14099,28.172 -120.56499,28.172 -150.706,0"
     id="path11" />
  <path
     class="TieSegment"
     stroke="#000000"
     stroke-width="1.24"
     stroke-linecap="round"
     stroke-linejoin="round"
     fill-rule="evenodd"
     d="m 1466.0861,458.589 c 25.57,11.859 102.28,11.859 127.85,0 -25.57,19.795 -102.28,19.795 -127.85,0"
     id="path12" />
  <path
     class="TieSegment"
     stroke="#000000"
     stroke-width="1.24"
     stroke-linecap="round"
     stroke-linejoin="round"
     fill-rule="evenodd"
     d="m 1459.8861,545.389 c 26.81,19.088 107.24,19.088 134.05,0 -26.81,27.024 -107.24,27.024 -134.05,0"
     id="path13" />
  <path
     class="TieSegment"
     stroke="#000000"
     stroke-width="1.24"
     stroke-linecap="round"
     stroke-linejoin="round"
     fill-rule="evenodd"
     d="m 1306.8761,458.589 c 25.57,11.859 102.29,11.859 127.86,0 -25.57,19.795 -102.29,19.795 -127.86,0"
     id="path14" />
  <path
     class="TieSegment"
     stroke="#000000"
     stroke-width="1.24"
     stroke-linecap="round"
     stroke-linejoin="round"
     fill-rule="evenodd"
     d="m 1300.6761,545.389 c 26.81,19.088 107.25,19.088 134.06,0 -26.81,27.024 -107.25,27.024 -134.06,0"
     id="path15" />
  <path
     class="TieSegment"
     stroke="#000000"
     stroke-width="1.24"
     stroke-linecap="round"
     stroke-linejoin="round"
     fill-rule="evenodd"
     d="m 1133.5061,458.589 c 28.41,12.255 113.62,12.255 142.03,0 -28.41,20.191 -113.62,20.191 -142.03,0"
     id="path16" />
  <path
     class="TieSegment"
     stroke="#000000"
     stroke-width="1.24"
     stroke-linecap="round"
     stroke-linejoin="round"
     fill-rule="evenodd"
     d="m 1124.8261,545.389 c 30.14,20.236 120.57,20.236 150.71,0 -30.14,28.172 -120.57,28.172 -150.71,0"
     id="path17" />
  <path
     class="TieSegment"
     stroke="#000000"
     stroke-width="1.24"
     stroke-linecap="round"
     stroke-linejoin="round"
     fill-rule="evenodd"
     d="m 745.37612,446.189 c 25.57,18.639 102.29,18.639 127.86,0 -25.57,26.575 -102.29,26.575 -127.86,0"
     id="path18" />
  <path
     class="TieSegment"
     stroke="#000000"
     stroke-width="1.24"
     stroke-linecap="round"
     stroke-linejoin="round"
     fill-rule="evenodd"
     d="m 739.17613,532.989 c 26.81,19.088 107.25,19.088 134.06,0 -26.81,27.024 -107.25,27.024 -134.06,0"
     id="path19" />
  <path
     class="TieSegment"
     stroke="#000000"
     stroke-width="1.24"
     stroke-linecap="round"
     stroke-linejoin="round"
     fill-rule="evenodd"
     d="m 586.17612,446.189 c 25.571,18.639 102.284,18.639 127.86,0 -25.576,26.575 -102.289,26.575 -127.86,0"
     id="path20" />
  <path
     class="TieSegment"
     stroke="#000000"
     stroke-width="1.24"
     stroke-linecap="round"
     stroke-linejoin="round"
     fill-rule="evenodd"
     d="m 579.97613,532.989 c 26.811,19.088 107.244,19.088 134.05999,0 -26.816,27.024 -107.249,27.024 -134.05999,0"
     id="path21" />
  <path
     class="TieSegment"
     stroke="#000000"
     stroke-width="1.24"
     stroke-linecap="round"
     stroke-linejoin="round"
     fill-rule="evenodd"
     d="m 412.80313,446.189 c 28.40499,19.648 113.62099,19.648 142.026,0 -28.405,27.584 -113.621,27.584 -142.026,0"
     id="path22" />
  <polyline
     class="BarLine"
     fill="none"
     stroke="#000000"
     stroke-width="4.46"
     stroke-linejoin="bevel"
     points="1360.98,384.835 1360.98,646.599"
     id="polyline22"
     transform="translate(-304.99387,-268.106)" />
  <polyline
     class="BarLine"
     fill="none"
     stroke="#000000"
     stroke-width="4.46"
     stroke-linejoin="bevel"
     points="2081.68,384.835 2081.68,646.599"
     id="polyline23"
     transform="translate(-304.99387,-268.106)" />
  <polyline
     class="BarLine"
     fill="none"
     stroke="#000000"
     stroke-width="4.46"
     stroke-linejoin="bevel"
     points="2822.35,384.835 2822.35,646.599"
     id="polyline24"
     transform="translate(-304.99387,-268.106)" />
  <polyline
     class="BarLine"
     fill="none"
     stroke="#000000"
     stroke-width="13.64"
     stroke-linejoin="bevel"
     points="2840.58,384.835 2840.58,646.599"
     id="polyline25"
     transform="translate(-304.99387,-268.106)" />
  <polyline
     class="BarLine"
     fill="none"
     stroke="#000000"
     stroke-width="4.46"
     stroke-linejoin="bevel"
     points="338.831,384.835 338.831,646.599"
     id="polyline26"
     transform="translate(-304.99387,-268.106)" />
  <polyline
     class="BarLine"
     fill="none"
     stroke="#000000"
     stroke-width="4.46"
     stroke-linejoin="bevel"
     points="338.831,645.235 338.831,747.163"
     id="polyline27"
     transform="translate(-304.99387,-268.106)" />
  <polyline
     class="BarLine"
     fill="none"
     stroke="#000000"
     stroke-width="4.46"
     stroke-linejoin="bevel"
     points="2822.35,645.235 2822.35,747.163"
     id="polyline28"
     transform="translate(-304.99387,-268.106)" />
  <polyline
     class="BarLine"
     fill="none"
     stroke="#000000"
     stroke-width="13.64"
     stroke-linejoin="bevel"
     points="2840.58,645.235 2840.58,747.163"
     id="polyline29"
     transform="translate(-304.99387,-268.106)" />
  <polyline
     class="BarLine"
     fill="none"
     stroke="#000000"
     stroke-width="4.46"
     stroke-linejoin="bevel"
     points="1360.98,645.235 1360.98,747.163"
     id="polyline30"
     transform="translate(-304.99387,-268.106)" />
  <polyline
     class="BarLine"
     fill="none"
     stroke="#000000"
     stroke-width="4.46"
     stroke-linejoin="bevel"
     points="2081.68,645.235 2081.68,747.163"
     id="polyline31"
     transform="translate(-304.99387,-268.106)" />
  <path
     class="Accidental"
     d="m 1811.4972,248.74246 c -0.186,-0.20148 -0.496,-0.29453 -0.8836,-0.29453 l -0.2015,0.093 c 0,0 -0.093,0 -0.093,0 l -12.5086,3.47201 v -17.36002 h -2.7745 v 49.10405 c 0,1.08505 0.899,1.28652 1.7825,1.28652 l 12.5086,-3.472 v 17.36002 h 2.666 c 0,-16.46107 0,-32.13156 0,-49.10405 0,-0.38758 -0.186,-0.88358 -0.496,-1.08505 m -13.6866,27.77605 v -16.27502 l 11.5166,-3.2705 v 16.36802 l -11.5166,3.1775"
     id="path31"
     style="stroke-width:0.992001" />
  <path
     class="Accidental"
     d="m 1212.9901,189.51698 c -4.96,0 -7.843,3.06896 -8.339,3.67348 l 0.403,-31.85255 c 0,-0.79043 -0.589,-1.37948 -1.395,-1.37948 h -1.178 c -0.806,0 -1.395,0.58905 -1.395,1.37948 l 0.496,59.62858 c 0,0.79053 0.589,1.37958 1.395,1.37958 0.186,0 0.589,-0.0931 0.7905,-0.186 8.5251,-4.27801 17.4531,-12.40007 17.4531,-22.63008 0,-5.14605 -2.3715,-10.01301 -8.2306,-10.01301 m -8.6335,27.97751 0.2945,-19.344 c 0.2015,-0.899 1.6895,-3.76655 5.6575,-3.76655 3.5806,0 3.875,3.36355 3.875,5.45605 0,8.81952 -3.2705,12.49302 -9.827,17.6545"
     id="path32"
     style="stroke-width:0.992001" />
  <path
     class="Accidental"
     d="m 492.29114,189.51698 c -4.96001,0 -7.84301,3.06896 -8.33901,3.67348 l 0.403,-31.85255 c 0,-0.79043 -0.589,-1.37948 -1.395,-1.37948 h -1.178 c -0.806,0 -1.39501,0.58905 -1.39501,1.37948 l 0.49601,59.62858 c 0,0.79053 0.589,1.37958 1.395,1.37958 0.186,0 0.589,-0.0931 0.7905,-0.186 8.52503,-4.27801 17.45304,-12.40007 17.45304,-22.63008 0,-5.14605 -2.37148,-10.01301 -8.23053,-10.01301 m -8.63351,27.97751 0.2945,-19.344 c 0.2015,-0.899 1.68951,-3.76655 5.65751,-3.76655 3.58055,0 3.87497,3.36355 3.87497,5.45605 0,8.81952 -3.27048,12.49302 -9.82698,17.6545"
     id="path33"
     style="stroke-width:0.992001" />
  <path
     class="Accidental"
     d="m 2220.2872,211.54246 c -0.186,-0.20148 -0.496,-0.29453 -0.8836,-0.29453 l -0.2015,0.0931 c 0,0 -0.093,0 -0.093,0 l -12.5086,3.472 v -17.36001 h -2.7745 v 49.10405 c 0,1.08505 0.899,1.28652 1.7825,1.28652 l 12.5086,-3.472 v 17.36002 h 2.666 c 0,-16.46107 0,-32.13156 0,-49.10405 0,-0.38758 -0.186,-0.88358 -0.496,-1.08505 m -13.6866,27.77605 v -16.27502 l 11.5166,-3.2705 v 16.36802 l -11.5166,3.1775"
     id="path34"
     style="stroke-width:0.992001" />
  <path
     class="Accidental"
     d="m 1930.5201,189.51698 c -4.96,0 -7.843,3.06896 -8.339,3.67348 l 0.403,-31.85255 c 0,-0.79043 -0.589,-1.37948 -1.395,-1.37948 h -1.178 c -0.806,0 -1.395,0.58905 -1.395,1.37948 l 0.496,59.62858 c 0,0.79053 0.589,1.37958 1.395,1.37958 0.186,0 0.589,-0.0931 0.7905,-0.186 8.5251,-4.27801 17.4531,-12.40007 17.4531,-22.63008 0,-5.14605 -2.3715,-10.01301 -8.2306,-10.01301 m -8.6335,27.97751 0.2945,-19.344 c 0.2015,-0.899 1.6895,-3.76655 5.6575,-3.76655 3.5806,0 3.875,3.36355 3.875,5.45605 0,8.81952 -3.2705,12.49302 -9.827,17.6545"
     id="path35"
     style="stroke-width:0.992001" />
  <path
     class="Accidental"
     d="m 1811.4972,447.14246 c -0.186,-0.20148 -0.496,-0.29453 -0.8836,-0.29453 l -0.2015,0.0931 c 0,0 -0.093,0 -0.093,0 l -12.5086,3.472 v -17.36001 h -2.7745 v 49.10405 c 0,1.08505 0.899,1.28652 1.7825,1.28652 l 12.5086,-3.472 v 17.36002 h 2.666 c 0,-16.46107 0,-32.13156 0,-49.10405 0,-0.38758 -0.186,-0.88358 -0.496,-1.08505 m -13.6866,27.77605 v -16.27502 l 11.5166,-3.2705 v 16.36802 l -11.5166,3.1775"
     id="path36"
     style="stroke-width:0.992001" />
  <path
     class="Accidental"
     d="m 1811.4972,533.94246 c -0.186,-0.20148 -0.496,-0.29453 -0.8836,-0.29453 l -0.2015,0.0931 c 0,0 -0.093,0 -0.093,0 l -12.5086,3.472 v -17.36001 h -2.7745 v 49.10405 c 0,1.08505 0.899,1.28652 1.7825,1.28652 l 12.5086,-3.472 v 17.36002 h 2.666 c 0,-16.46107 0,-32.13156 0,-49.10405 0,-0.38758 -0.186,-0.88358 -0.496,-1.08505 m -13.6866,27.77605 v -16.27502 l 11.5166,-3.2705 v 16.36802 l -11.5166,3.1775"
     id="path37"
     style="stroke-width:0.992001" />
  <path
     class="Accidental"
     d="m 1086.2401,425.11698 c -4.96,0 -7.843,3.06896 -8.339,3.67348 l 0.403,-31.85255 c 0,-0.79043 -0.589,-1.37948 -1.395,-1.37948 h -1.178 c -0.806,0 -1.395,0.58905 -1.395,1.37948 l 0.496,59.62858 c 0,0.79053 0.589,1.37958 1.395,1.37958 0.186,0 0.589,-0.0931 0.7905,-0.186 8.5251,-4.27801 17.4531,-12.40007 17.4531,-22.63008 0,-5.14605 -2.3715,-10.01301 -8.2306,-10.01301 m -8.6335,27.97751 0.2945,-19.344 c 0.2015,-0.899 1.6895,-3.76655 5.6575,-3.76655 3.5806,0 3.875,3.36355 3.875,5.45605 0,8.81952 -3.2705,12.49302 -9.827,17.6545"
     id="path38"
     style="stroke-width:0.992001" />
  <path
     class="Accidental"
     d="m 1086.2401,511.91698 c -4.96,0 -7.843,3.06896 -8.339,3.67348 l 0.403,-31.85255 c 0,-0.79043 -0.589,-1.37948 -1.395,-1.37948 h -1.178 c -0.806,0 -1.395,0.58905 -1.395,1.37948 l 0.496,59.62858 c 0,0.79053 0.589,1.37958 1.395,1.37958 0.186,0 0.589,-0.0931 0.7905,-0.186 8.5251,-4.27801 17.4531,-12.40007 17.4531,-22.63008 0,-5.14605 -2.3715,-10.01301 -8.2306,-10.01301 m -8.6335,27.97751 0.2945,-19.344 c 0.2015,-0.899 1.6895,-3.76655 5.6575,-3.76655 3.5806,0 3.875,3.36355 3.875,5.45605 0,8.81952 -3.2705,12.49302 -9.827,17.6545"
     id="path39"
     style="stroke-width:0.992001" />
  <polyline
     class="LedgerLine"
     fill="none"
     stroke="#000000"
     stroke-width="3.97"
     stroke-linejoin="bevel"
     points="2454.03,534.999 2502.62,534.999"
     id="polyline39"
     transform="translate(-304.99387,-268.106)" />
  <polyline
     class="LedgerLine"
     fill="none"
     stroke="#000000"
     stroke-width="3.97"
     stroke-linejoin="bevel"
     points="2294.83,510.199 2343.42,510.199"
     id="polyline40"
     transform="translate(-304.99387,-268.106)" />
  <polyline
     class="LedgerLine"
     fill="none"
     stroke="#000000"
     stroke-width="3.97"
     stroke-linejoin="bevel"
     points="2530.24,534.999 2578.84,534.999"
     id="polyline41"
     transform="translate(-304.99387,-268.106)" />
  <polyline
     class="LedgerLine"
     fill="none"
     stroke="#000000"
     stroke-width="3.97"
     stroke-linejoin="bevel"
     points="2530.24,510.199 2578.84,510.199"
     id="polyline42"
     transform="translate(-304.99387,-268.106)" />
  <polyline
     class="LedgerLine"
     fill="none"
     stroke="#000000"
     stroke-width="3.97"
     stroke-linejoin="bevel"
     points="2454.03,510.199 2502.62,510.199"
     id="polyline43"
     transform="translate(-304.99387,-268.106)" />
  <polyline
     class="LedgerLine"
     fill="none"
     stroke="#000000"
     stroke-width="3.97"
     stroke-linejoin="bevel"
     points="2294.83,534.999 2343.42,534.999"
     id="polyline44"
     transform="translate(-304.99387,-268.106)" />
  <polyline
     class="LedgerLine"
     fill="none"
     stroke="#000000"
     stroke-width="3.97"
     stroke-linejoin="bevel"
     points="2121.46,510.199 2170.05,510.199"
     id="polyline45"
     transform="translate(-304.99387,-268.106)" />
  <polyline
     class="LedgerLine"
     fill="none"
     stroke="#000000"
     stroke-width="3.97"
     stroke-linejoin="bevel"
     points="2121.46,534.999 2170.05,534.999"
     id="polyline46"
     transform="translate(-304.99387,-268.106)" />
  <polyline
     class="LedgerLine"
     fill="none"
     stroke="#000000"
     stroke-width="3.97"
     stroke-linejoin="bevel"
     points="2636.38,510.199 2684.97,510.199"
     id="polyline47"
     transform="translate(-304.99387,-268.106)" />
  <polyline
     class="LedgerLine"
     fill="none"
     stroke="#000000"
     stroke-width="3.97"
     stroke-linejoin="bevel"
     points="2636.38,534.999 2684.97,534.999"
     id="polyline48"
     transform="translate(-304.99387,-268.106)" />
  <polyline
     class="LedgerLine"
     fill="none"
     stroke="#000000"
     stroke-width="3.97"
     stroke-linejoin="bevel"
     points="1403.93,770.599 1452.52,770.599"
     id="polyline49"
     transform="translate(-304.99387,-268.106)" />
  <polyline
     class="LedgerLine"
     fill="none"
     stroke="#000000"
     stroke-width="3.97"
     stroke-linejoin="bevel"
     points="1403.93,795.399 1452.52,795.399"
     id="polyline50"
     transform="translate(-304.99387,-268.106)" />
  <polyline
     class="LedgerLine"
     fill="none"
     stroke="#000000"
     stroke-width="3.97"
     stroke-linejoin="bevel"
     points="1736.5,770.599 1785.1,770.599"
     id="polyline51"
     transform="translate(-304.99387,-268.106)" />
  <polyline
     class="LedgerLine"
     fill="none"
     stroke="#000000"
     stroke-width="3.97"
     stroke-linejoin="bevel"
     points="2454.03,770.599 2502.62,770.599"
     id="polyline52"
     transform="translate(-304.99387,-268.106)" />
  <polyline
     class="LedgerLine"
     fill="none"
     stroke="#000000"
     stroke-width="3.97"
     stroke-linejoin="bevel"
     points="1577.3,770.599 1625.9,770.599"
     id="polyline53"
     transform="translate(-304.99387,-268.106)" />
  <polyline
     class="LedgerLine"
     fill="none"
     stroke="#000000"
     stroke-width="3.97"
     stroke-linejoin="bevel"
     points="1577.3,795.399 1625.9,795.399"
     id="polyline54"
     transform="translate(-304.99387,-268.106)" />
  <polyline
     class="LedgerLine"
     fill="none"
     stroke="#000000"
     stroke-width="3.97"
     stroke-linejoin="bevel"
     points="1736.5,795.399 1785.1,795.399"
     id="polyline55"
     transform="translate(-304.99387,-268.106)" />
  <polyline
     class="LedgerLine"
     fill="none"
     stroke="#000000"
     stroke-width="3.97"
     stroke-linejoin="bevel"
     points="1895.71,770.599 1944.3,770.599"
     id="polyline56"
     transform="translate(-304.99387,-268.106)" />
  <polyline
     class="LedgerLine"
     fill="none"
     stroke="#000000"
     stroke-width="3.97"
     stroke-linejoin="bevel"
     points="1895.71,795.399 1944.3,795.399"
     id="polyline57"
     transform="translate(-304.99387,-268.106)" />
  <polyline
     class="LedgerLine"
     fill="none"
     stroke="#000000"
     stroke-width="3.97"
     stroke-linejoin="bevel"
     points="2454.03,820.199 2502.62,820.199"
     id="polyline58"
     transform="translate(-304.99387,-268.106)" />
  <polyline
     class="LedgerLine"
     fill="none"
     stroke="#000000"
     stroke-width="3.97"
     stroke-linejoin="bevel"
     points="2454.03,795.399 2502.62,795.399"
     id="polyline59"
     transform="translate(-304.99387,-268.106)" />
  <polyline
     class="LedgerLine"
     fill="none"
     stroke="#000000"
     stroke-width="3.97"
     stroke-linejoin="bevel"
     points="2121.46,770.599 2170.05,770.599"
     id="polyline60"
     transform="translate(-304.99387,-268.106)" />
  <polyline
     class="LedgerLine"
     fill="none"
     stroke="#000000"
     stroke-width="3.97"
     stroke-linejoin="bevel"
     points="2121.46,795.399 2170.05,795.399"
     id="polyline61"
     transform="translate(-304.99387,-268.106)" />
  <polyline
     class="LedgerLine"
     fill="none"
     stroke="#000000"
     stroke-width="3.97"
     stroke-linejoin="bevel"
     points="2121.46,820.199 2170.05,820.199"
     id="polyline62"
     transform="translate(-304.99387,-268.106)" />
  <polyline
     class="LedgerLine"
     fill="none"
     stroke="#000000"
     stroke-width="3.97"
     stroke-linejoin="bevel"
     points="1015.8,770.599 1064.39,770.599"
     id="polyline63"
     transform="translate(-304.99387,-268.106)" />
  <polyline
     class="LedgerLine"
     fill="none"
     stroke="#000000"
     stroke-width="3.97"
     stroke-linejoin="bevel"
     points="683.225,770.599 731.818,770.599"
     id="polyline64"
     transform="translate(-304.99387,-268.106)" />
  <polyline
     class="LedgerLine"
     fill="none"
     stroke="#000000"
     stroke-width="3.97"
     stroke-linejoin="bevel"
     points="856.599,770.599 905.192,770.599"
     id="polyline65"
     transform="translate(-304.99387,-268.106)" />
  <polyline
     class="LedgerLine"
     fill="none"
     stroke="#000000"
     stroke-width="3.97"
     stroke-linejoin="bevel"
     points="1175,770.599 1223.6,770.599"
     id="polyline66"
     transform="translate(-304.99387,-268.106)" />
  <polyline
     class="Stem"
     fill="none"
     stroke="#000000"
     stroke-width="2.48"
     stroke-linejoin="bevel"
     points="2213.69,493.831 2213.69,411.714"
     id="polyline67"
     transform="translate(-304.99387,-268.106)" />
  <polyline
     class="Stem"
     fill="none"
     stroke="#000000"
     stroke-width="2.48"
     stroke-linejoin="bevel"
     points="1563.4,469.031 1563.4,404.909"
     id="polyline68"
     transform="translate(-304.99387,-268.106)" />
  <polyline
     class="Stem"
     fill="none"
     stroke="#000000"
     stroke-width="2.48"
     stroke-linejoin="bevel"
     points="2493.2,531.031 2493.2,392.34"
     id="polyline69"
     transform="translate(-304.99387,-268.106)" />
  <polyline
     class="Stem"
     fill="none"
     stroke="#000000"
     stroke-width="2.48"
     stroke-linejoin="bevel"
     points="2440.13,469.031 2440.13,404.94"
     id="polyline70"
     transform="translate(-304.99387,-268.106)" />
  <polyline
     class="Stem"
     fill="none"
     stroke="#000000"
     stroke-width="2.48"
     stroke-linejoin="bevel"
     points="1161.1,469.031 1161.1,404.937"
     id="polyline71"
     transform="translate(-304.99387,-268.106)" />
  <polyline
     class="Stem"
     fill="none"
     stroke="#000000"
     stroke-width="2.48"
     stroke-linejoin="bevel"
     points="2781.68,456.631 2781.68,386.269"
     id="polyline72"
     transform="translate(-304.99387,-268.106)" />
  <polyline
     class="Stem"
     fill="none"
     stroke="#000000"
     stroke-width="2.48"
     stroke-linejoin="bevel"
     points="1669.54,493.831 1669.54,410.86"
     id="polyline73"
     transform="translate(-304.99387,-268.106)" />
  <polyline
     class="Stem"
     fill="none"
     stroke="#000000"
     stroke-width="2.48"
     stroke-linejoin="bevel"
     points="2334,531.031 2334,417.057"
     id="polyline74"
     transform="translate(-304.99387,-268.106)" />
  <polyline
     class="Stem"
     fill="none"
     stroke="#000000"
     stroke-width="2.48"
     stroke-linejoin="bevel"
     points="1722.61,469.031 1722.61,404.937"
     id="polyline75"
     transform="translate(-304.99387,-268.106)" />
  <polyline
     class="Stem"
     fill="none"
     stroke="#000000"
     stroke-width="2.48"
     stroke-linejoin="bevel"
     points="2280.93,469.031 2280.93,404.924"
     id="polyline76"
     transform="translate(-304.99387,-268.106)" />
  <polyline
     class="Stem"
     fill="none"
     stroke="#000000"
     stroke-width="2.48"
     stroke-linejoin="bevel"
     points="2387.06,493.831 2387.06,410.999"
     id="polyline77"
     transform="translate(-304.99387,-268.106)" />
  <polyline
     class="Stem"
     fill="none"
     stroke="#000000"
     stroke-width="2.48"
     stroke-linejoin="bevel"
     points="948.835,493.831 948.835,410.86"
     id="polyline78"
     transform="translate(-304.99387,-268.106)" />
  <polyline
     class="Stem"
     fill="none"
     stroke="#000000"
     stroke-width="2.48"
     stroke-linejoin="bevel"
     points="1108.04,493.831 1108.04,410.86"
     id="polyline79"
     transform="translate(-304.99387,-268.106)" />
  <polyline
     class="Stem"
     fill="none"
     stroke="#000000"
     stroke-width="2.48"
     stroke-linejoin="bevel"
     points="1001.9,469.031 1001.9,404.937"
     id="polyline80"
     transform="translate(-304.99387,-268.106)" />
  <polyline
     class="Stem"
     fill="none"
     stroke="#000000"
     stroke-width="2.48"
     stroke-linejoin="bevel"
     points="1828.74,493.831 1828.74,410.86"
     id="polyline81"
     transform="translate(-304.99387,-268.106)" />
  <polyline
     class="Stem"
     fill="none"
     stroke="#000000"
     stroke-width="2.48"
     stroke-linejoin="bevel"
     points="1881.81,469.031 1881.81,404.937"
     id="polyline82"
     transform="translate(-304.99387,-268.106)" />
  <polyline
     class="Stem"
     fill="none"
     stroke="#000000"
     stroke-width="2.48"
     stroke-linejoin="bevel"
     points="2160.62,531.031 2160.62,417.073"
     id="polyline83"
     transform="translate(-304.99387,-268.106)" />
  <polyline
     class="Stem"
     fill="none"
     stroke="#000000"
     stroke-width="2.48"
     stroke-linejoin="bevel"
     points="2041.01,469.031 2041.01,404.937"
     id="polyline84"
     transform="translate(-304.99387,-268.106)" />
  <polyline
     class="Stem"
     fill="none"
     stroke="#000000"
     stroke-width="2.48"
     stroke-linejoin="bevel"
     points="1987.94,493.831 1987.94,410.86"
     id="polyline85"
     transform="translate(-304.99387,-268.106)" />
  <polyline
     class="Stem"
     fill="none"
     stroke="#000000"
     stroke-width="2.48"
     stroke-linejoin="bevel"
     points="775.461,493.831 775.461,410.888"
     id="polyline86"
     transform="translate(-304.99387,-268.106)" />
  <polyline
     class="Stem"
     fill="none"
     stroke="#000000"
     stroke-width="2.48"
     stroke-linejoin="bevel"
     points="842.7,469.031 842.7,404.909"
     id="polyline87"
     transform="translate(-304.99387,-268.106)" />
  <polyline
     class="Stem"
     fill="none"
     stroke="#000000"
     stroke-width="2.48"
     stroke-linejoin="bevel"
     points="2569.41,531.031 2569.41,388.754"
     id="polyline88"
     transform="translate(-304.99387,-268.106)" />
  <polyline
     class="Stem"
     fill="none"
     stroke="#000000"
     stroke-width="2.48"
     stroke-linejoin="bevel"
     points="2622.48,456.631 2622.48,386.257"
     id="polyline89"
     transform="translate(-304.99387,-268.106)" />
  <polyline
     class="Stem"
     fill="none"
     stroke="#000000"
     stroke-width="2.48"
     stroke-linejoin="bevel"
     points="2728.61,493.831 2728.61,389.299"
     id="polyline90"
     transform="translate(-304.99387,-268.106)" />
  <polyline
     class="Stem"
     fill="none"
     stroke="#000000"
     stroke-width="2.48"
     stroke-linejoin="bevel"
     points="1267.24,493.831 1267.24,410.86"
     id="polyline91"
     transform="translate(-304.99387,-268.106)" />
  <polyline
     class="Stem"
     fill="none"
     stroke="#000000"
     stroke-width="2.48"
     stroke-linejoin="bevel"
     points="1496.16,493.831 1496.16,410.888"
     id="polyline92"
     transform="translate(-304.99387,-268.106)" />
  <polyline
     class="Stem"
     fill="none"
     stroke="#000000"
     stroke-width="2.48"
     stroke-linejoin="bevel"
     points="2675.55,531.031 2675.55,392.328"
     id="polyline93"
     transform="translate(-304.99387,-268.106)" />
  <polyline
     class="Stem"
     fill="none"
     stroke="#000000"
     stroke-width="2.48"
     stroke-linejoin="bevel"
     points="1320.31,469.031 1320.31,404.937"
     id="polyline94"
     transform="translate(-304.99387,-268.106)" />
  <polyline
     class="Stem"
     fill="none"
     stroke="#000000"
     stroke-width="2.48"
     stroke-linejoin="bevel"
     points="2493.2,828.631 2493.2,658.999"
     id="polyline95"
     transform="translate(-304.99387,-268.106)" />
  <polyline
     class="Stem"
     fill="none"
     stroke="#000000"
     stroke-width="2.48"
     stroke-linejoin="bevel"
     points="722.394,642.631 722.394,584.599"
     id="polyline96"
     transform="translate(-304.99387,-268.106)" />
  <polyline
     class="Stem"
     fill="none"
     stroke="#000000"
     stroke-width="2.48"
     stroke-linejoin="bevel"
     points="2160.62,816.231 2160.62,646.599"
     id="polyline97"
     transform="translate(-304.99387,-268.106)" />
  <polyline
     class="Stem"
     fill="none"
     stroke="#000000"
     stroke-width="2.48"
     stroke-linejoin="bevel"
     points="1443.1,642.631 1443.1,584.599"
     id="polyline98"
     transform="translate(-304.99387,-268.106)" />
  <polyline
     class="Stem"
     fill="none"
     stroke="#000000"
     stroke-width="2.48"
     stroke-linejoin="bevel"
     points="1025.23,650.765 1025.23,844.999"
     id="polyline99"
     transform="translate(-304.99387,-268.106)" />
  <polyline
     class="Stem"
     fill="none"
     stroke="#000000"
     stroke-width="2.48"
     stroke-linejoin="bevel"
     points="1905.13,650.765 1905.13,857.399"
     id="polyline100"
     transform="translate(-304.99387,-268.106)" />
  <polyline
     class="Stem"
     fill="none"
     stroke="#000000"
     stroke-width="2.48"
     stroke-linejoin="bevel"
     points="692.649,700.365 692.649,844.999"
     id="polyline101"
     transform="translate(-304.99387,-268.106)" />
  <polyline
     class="Stem"
     fill="none"
     stroke="#000000"
     stroke-width="2.48"
     stroke-linejoin="bevel"
     points="1745.93,650.765 1745.93,857.399"
     id="polyline102"
     transform="translate(-304.99387,-268.106)" />
  <polyline
     class="Stem"
     fill="none"
     stroke="#000000"
     stroke-width="2.48"
     stroke-linejoin="bevel"
     points="866.023,650.765 866.023,844.999"
     id="polyline103"
     transform="translate(-304.99387,-268.106)" />
  <polyline
     class="Stem"
     fill="none"
     stroke="#000000"
     stroke-width="2.48"
     stroke-linejoin="bevel"
     points="1413.35,712.765 1413.35,857.399"
     id="polyline104"
     transform="translate(-304.99387,-268.106)" />
  <polyline
     class="Stem"
     fill="none"
     stroke="#000000"
     stroke-width="2.48"
     stroke-linejoin="bevel"
     points="1586.73,650.765 1586.73,857.399"
     id="polyline105"
     transform="translate(-304.99387,-268.106)" />
  <polyline
     class="Stem"
     fill="none"
     stroke="#000000"
     stroke-width="2.48"
     stroke-linejoin="bevel"
     points="1184.43,650.765 1184.43,844.999"
     id="polyline106"
     transform="translate(-304.99387,-268.106)" />
  <path
     class="Note"
     d="m 665.92412,209.06251 c 0,4.2625 3.06901,9.02103 11.11349,9.02103 10.30759,0 21.12655,-8.43203 21.12655,-17.15854 0,-5.85901 -4.96001,-9.12949 -11.11349,-9.12949 -9.62548,0 -21.12655,8.13749 -21.12655,17.267"
     id="path106"
     style="stroke-width:0.992001" />
  <path
     class="Note"
     d="m 2392.6361,233.86251 c 0,4.2625 3.069,9.02103 11.1135,9.02103 10.3076,0 21.1266,-8.43203 21.1266,-17.15854 0,-5.85901 -4.96,-9.12949 -11.1135,-9.12949 -9.6255,0 -21.1266,8.13748 -21.1266,17.267"
     id="path107"
     style="stroke-width:0.992001" />
  <path
     class="Note"
     d="m 1705.0361,209.06251 c 0,4.2625 3.069,9.02103 11.1135,9.02103 10.3076,0 21.1266,-8.43203 21.1266,-17.15854 0,-5.85901 -4.96,-9.12949 -11.1135,-9.12949 -9.6255,0 -21.1266,8.13749 -21.1266,17.267"
     id="path108"
     style="stroke-width:0.992001" />
  <path
     class="Note"
     d="m 2104.1561,209.06251 c 0,4.2625 3.069,9.02103 11.1135,9.02103 10.3076,0 21.1266,-8.43203 21.1266,-17.15854 0,-5.85901 -4.96,-9.12949 -11.1135,-9.12949 -9.6255,0 -21.1266,8.13749 -21.1266,17.267"
     id="path109"
     style="stroke-width:0.992001" />
  <path
     class="Note"
     d="m 2051.0861,233.86251 c 0,4.2625 3.069,9.02103 11.1135,9.02103 10.3076,0 21.1266,-8.43203 21.1266,-17.15854 0,-5.85901 -4.96,-9.12949 -11.1135,-9.12949 -9.6255,0 -21.1266,8.13748 -21.1266,17.267"
     id="path110"
     style="stroke-width:0.992001" />
  <path
     class="Note"
     d="m 931.25612,233.86251 c 0,4.2625 3.06901,9.02103 11.11349,9.02103 10.30759,0 21.12655,-8.43203 21.12655,-17.15854 0,-5.85901 -4.96001,-9.12949 -11.11349,-9.12949 -9.62548,0 -21.12655,8.13748 -21.12655,17.267"
     id="path111"
     style="stroke-width:0.992001" />
  <path
     class="Note"
     d="m 2445.7061,196.66251 c 0,4.2625 3.069,9.02103 11.1135,9.02103 10.3076,0 21.1266,-8.43203 21.1266,-17.15854 0,-5.85901 -4.96,-9.12949 -11.1135,-9.12949 -9.6255,0 -21.1266,8.13748 -21.1266,17.267"
     id="path112"
     style="stroke-width:0.992001" />
  <path
     class="Note"
     d="m 1998.0161,271.06251 c 0,4.2625 3.069,9.02103 11.1135,9.02103 10.3076,0 21.1266,-8.43203 21.1266,-17.15854 0,-5.85901 -4.96,-9.12949 -11.1135,-9.12949 -9.6255,0 -21.1266,8.13748 -21.1266,17.267"
     id="path113"
     style="stroke-width:0.992001" />
  <path
     class="Note"
     d="m 1824.6461,271.06251 c 0,4.2625 3.069,9.02103 11.1135,9.02103 10.3076,0 21.1266,-8.43203 21.1266,-17.15854 0,-5.85901 -4.96,-9.12949 -11.1135,-9.12949 -9.6255,0 -21.1266,8.13748 -21.1266,17.267"
     id="path114"
     style="stroke-width:0.992001" />
  <path
     class="Note"
     d="m 2286.5061,196.66251 c 0,4.2625 3.069,9.02103 11.1135,9.02103 10.3076,0 21.1266,-8.43203 21.1266,-17.15854 0,-5.85901 -4.96,-9.12949 -11.1135,-9.12949 -9.6255,0 -21.1266,8.13748 -21.1266,17.267"
     id="path115"
     style="stroke-width:0.992001" />
  <path
     class="Note"
     d="m 1944.9561,209.06251 c 0,4.2625 3.069,9.02103 11.1135,9.02103 10.3076,0 21.1266,-8.43203 21.1266,-17.15854 0,-5.85901 -4.96,-9.12949 -11.1135,-9.12949 -9.6255,0 -21.1266,8.13749 -21.1266,17.267"
     id="path116"
     style="stroke-width:0.992001" />
  <path
     class="Note"
     d="m 506.72212,209.06251 c 0,4.2625 3.06901,9.02103 11.11349,9.02103 10.30759,0 21.12655,-8.43203 21.12655,-17.15854 0,-5.85901 -4.96001,-9.12949 -11.11349,-9.12949 -9.62548,0 -21.12655,8.13749 -21.12655,17.267"
     id="path117"
     style="stroke-width:0.992001" />
  <path
     class="Note"
     d="m 439.48312,233.86251 c 0,4.2625 3.06901,9.02103 11.11349,9.02103 10.30759,0 21.12655,-8.43203 21.12655,-17.15854 0,-5.85901 -4.96001,-9.12949 -11.11349,-9.12949 -9.62548,0 -21.12655,8.13748 -21.12655,17.267"
     id="path118"
     style="stroke-width:0.992001" />
  <path
     class="Note"
     d="m 2233.4361,233.86251 c 0,4.2625 3.069,9.02103 11.1135,9.02103 10.3076,0 21.1266,-8.43203 21.1266,-17.15854 0,-5.85901 -4.96,-9.12949 -11.1135,-9.12949 -9.6255,0 -21.1266,8.13748 -21.1266,17.267"
     id="path119"
     style="stroke-width:0.992001" />
  <path
     class="Note"
     d="m 612.85712,233.86251 c 0,4.2625 3.06901,9.02103 11.11349,9.02103 10.30759,0 21.12655,-8.43203 21.12655,-17.15854 0,-5.85901 -4.96001,-9.12949 -11.11349,-9.12949 -9.62548,0 -21.12655,8.13748 -21.12655,17.267"
     id="path120"
     style="stroke-width:0.992001" />
  <path
     class="Note"
     d="m 2233.4361,271.06251 c 0,4.2625 3.069,9.02103 11.1135,9.02103 10.3076,0 21.1266,-8.43203 21.1266,-17.15854 0,-5.85901 -4.96,-9.12949 -11.1135,-9.12949 -9.6255,0 -21.1266,8.13748 -21.1266,17.267"
     id="path121"
     style="stroke-width:0.992001" />
  <path
     class="Note"
     d="m 2339.5661,271.06251 c 0,4.2625 3.069,9.02103 11.1135,9.02103 10.3076,0 21.1266,-8.43203 21.1266,-17.15854 0,-5.85901 -4.96,-9.12949 -11.1135,-9.12949 -9.6255,0 -21.1266,8.13748 -21.1266,17.267"
     id="path122"
     style="stroke-width:0.992001" />
  <path
     class="Note"
     d="m 2157.2161,271.06251 c 0,4.2625 3.069,9.02103 11.1135,9.02103 10.3076,0 21.1266,-8.43203 21.1266,-17.15854 0,-5.85901 -4.96,-9.12949 -11.1135,-9.12949 -9.6255,0 -21.1266,8.13748 -21.1266,17.267"
     id="path123"
     style="stroke-width:0.992001" />
  <path
     class="Note"
     d="m 1877.7161,233.86251 c 0,4.2625 3.069,9.02103 11.1135,9.02103 10.3076,0 21.1266,-8.43203 21.1266,-17.15854 0,-5.85901 -4.96,-9.12949 -11.1135,-9.12949 -9.6255,0 -21.1266,8.13748 -21.1266,17.267"
     id="path124"
     style="stroke-width:0.992001" />
  <path
     class="Note"
     d="m 1651.9661,233.86251 c 0,4.2625 3.069,9.02103 11.1135,9.02103 10.3076,0 21.1266,-8.43203 21.1266,-17.15854 0,-5.85901 -4.96,-9.12949 -11.1135,-9.12949 -9.6255,0 -21.1266,8.13748 -21.1266,17.267"
     id="path125"
     style="stroke-width:0.992001" />
  <path
     class="Note"
     d="m 984.32612,209.06251 c 0,4.2625 3.06901,9.02103 11.11349,9.02103 10.30759,0 21.12659,-8.43203 21.12659,-17.15854 0,-5.85901 -4.96,-9.12949 -11.1135,-9.12949 -9.62551,0 -21.12658,8.13749 -21.12658,17.267"
     id="path126"
     style="stroke-width:0.992001" />
  <path
     class="Note"
     d="m 1160.1861,233.86251 c 0,4.2625 3.069,9.02103 11.1135,9.02103 10.3076,0 21.1266,-8.43203 21.1266,-17.15854 0,-5.85901 -4.96,-9.12949 -11.1135,-9.12949 -9.6255,0 -21.1266,8.13748 -21.1266,17.267"
     id="path127"
     style="stroke-width:0.992001" />
  <path
     class="Note"
     d="m 1227.4261,209.06251 c 0,4.2625 3.069,9.02103 11.1135,9.02103 10.3076,0 21.1266,-8.43203 21.1266,-17.15854 0,-5.85901 -4.96,-9.12949 -11.1135,-9.12949 -9.6255,0 -21.1266,8.13749 -21.1266,17.267"
     id="path128"
     style="stroke-width:0.992001" />
  <path
     class="Note"
     d="m 825.12612,209.06251 c 0,4.2625 3.06901,9.02103 11.11349,9.02103 10.30759,0 21.12655,-8.43203 21.12655,-17.15854 0,-5.85901 -4.96001,-9.12949 -11.11349,-9.12949 -9.62548,0 -21.12655,8.13749 -21.12655,17.267"
     id="path129"
     style="stroke-width:0.992001" />
  <path
     class="Note"
     d="m 1333.5561,233.86251 c 0,4.2625 3.069,9.02103 11.1135,9.02103 10.3076,0 21.1266,-8.43203 21.1266,-17.15854 0,-5.85901 -4.96,-9.12949 -11.1135,-9.12949 -9.6255,0 -21.1266,8.13748 -21.1266,17.267"
     id="path130"
     style="stroke-width:0.992001" />
  <path
     class="Note"
     d="m 1386.6261,209.06251 c 0,4.2625 3.069,9.02103 11.1135,9.02103 10.3076,0 21.1266,-8.43203 21.1266,-17.15854 0,-5.85901 -4.96,-9.12949 -11.1135,-9.12949 -9.6255,0 -21.1266,8.13749 -21.1266,17.267"
     id="path131"
     style="stroke-width:0.992001" />
  <path
     class="Note"
     d="m 1545.8261,209.06251 c 0,4.2625 3.069,9.02103 11.1135,9.02103 10.3076,0 21.1266,-8.43203 21.1266,-17.15854 0,-5.85901 -4.96,-9.12949 -11.1135,-9.12949 -9.6255,0 -21.1266,8.13749 -21.1266,17.267"
     id="path132"
     style="stroke-width:0.992001" />
  <path
     class="Note"
     d="m 1492.7661,233.86251 c 0,4.2625 3.069,9.02103 11.1135,9.02103 10.3076,0 21.1266,-8.43203 21.1266,-17.15854 0,-5.85901 -4.96,-9.12949 -11.1135,-9.12949 -9.6255,0 -21.1266,8.13748 -21.1266,17.267"
     id="path133"
     style="stroke-width:0.992001" />
  <path
     class="Note"
     d="m 772.05612,233.86251 c 0,4.2625 3.06901,9.02103 11.11349,9.02103 10.30759,0 21.12655,-8.43203 21.12655,-17.15854 0,-5.85901 -4.96001,-9.12949 -11.11349,-9.12949 -9.62548,0 -21.12655,8.13748 -21.12655,17.267"
     id="path134"
     style="stroke-width:0.992001" />
  <path
     class="Note"
     d="m 386.41512,382.66251 c 0,4.2625 3.06901,9.02103 11.11349,9.02103 10.30759,0 21.12655,-8.43203 21.12655,-17.15854 0,-5.85901 -4.96001,-9.12949 -11.11349,-9.12949 -9.62548,0 -21.12655,8.13749 -21.12655,17.267"
     id="path135"
     style="stroke-width:0.992001" />
  <path
     class="Note"
     d="m 1107.1161,382.66251 c 0,4.2625 3.069,9.02103 11.1135,9.02103 10.3076,0 21.1266,-8.43203 21.1266,-17.15854 0,-5.85901 -4.96,-9.12949 -11.1135,-9.12949 -9.6255,0 -21.1266,8.13749 -21.1266,17.267"
     id="path136"
     style="stroke-width:0.992001" />
  <path
     class="Note"
     d="m 2178.3427,464.59551 c -9.6255,0 -21.1266,8.04448 -21.1266,17.267 0,4.2625 3.069,9.02103 11.1135,9.02103 10.3076,0 21.1266,-8.43203 21.1266,-17.15854 0,-5.85901 -4.96,-9.12949 -11.1135,-9.12949 m -13.6866,21.6225 c -3.2705,0 -3.968,-2.666 -3.968,-3.56501 0,-4.867 16.6626,-13.39201 21.3281,-13.39201 2.387,0 3.968,1.395 3.968,3.56501 0,4.96 -16.771,13.39201 -21.3281,13.39201"
     id="path137"
     style="stroke-width:0.992001" />
  <path
     class="Note"
     d="m 2178.3427,551.39551 c -9.6255,0 -21.1266,8.04448 -21.1266,17.267 0,4.2625 3.069,9.02103 11.1135,9.02103 10.3076,0 21.1266,-8.43203 21.1266,-17.15854 0,-5.85901 -4.96,-9.12949 -11.1135,-9.12949 m -13.6866,21.6225 c -3.2705,0 -3.968,-2.666 -3.968,-3.565 0,-4.86701 16.6626,-13.39202 21.3281,-13.39202 2.387,0 3.968,1.395 3.968,3.56501 0,4.96 -16.771,13.39201 -21.3281,13.39201"
     id="path138"
     style="stroke-width:0.992001" />
  <path
     class="Note"
     d="m 1845.7727,452.19551 c -9.6255,0 -21.1266,8.04448 -21.1266,17.267 0,4.2625 3.069,9.02103 11.1135,9.02103 10.3076,0 21.1266,-8.43203 21.1266,-17.15854 0,-5.85901 -4.96,-9.12949 -11.1135,-9.12949 m -13.6866,21.6225 c -3.2705,0 -3.968,-2.666 -3.968,-3.565 0,-4.86701 16.6626,-13.39202 21.328,-13.39202 2.3871,0 3.9681,1.395 3.9681,3.56501 0,4.96 -16.771,13.39201 -21.3281,13.39201"
     id="path139"
     style="stroke-width:0.992001" />
  <path
     class="Note"
     d="m 1845.7727,538.99551 c -9.6255,0 -21.1266,8.04448 -21.1266,17.267 0,4.2625 3.069,9.02103 11.1135,9.02103 10.3076,0 21.1266,-8.43203 21.1266,-17.15854 0,-5.85901 -4.96,-9.12949 -11.1135,-9.12949 m -13.6866,21.6225 c -3.2705,0 -3.968,-2.666 -3.968,-3.56501 0,-4.867 16.6626,-13.39201 21.328,-13.39201 2.3871,0 3.9681,1.395 3.9681,3.56501 0,4.96 -16.771,13.39201 -21.3281,13.39201"
     id="path140"
     style="stroke-width:0.992001" />
  <path
     class="Note"
     d="m 386.41512,432.26251 c 0,4.2625 3.06901,9.02103 11.11349,9.02103 10.30759,0 21.12655,-8.43203 21.12655,-17.15854 0,-5.85901 -4.96001,-9.12949 -11.11349,-9.12949 -9.62548,0 -21.12655,8.13748 -21.12655,17.267"
     id="path141"
     style="stroke-width:0.992001" />
  <path
     class="Note"
     d="m 1598.8961,382.66251 c 0,4.2625 3.069,9.02103 11.1135,9.02103 10.3076,0 21.1266,-8.43203 21.1266,-17.15854 0,-5.85901 -4.96,-9.12949 -11.1135,-9.12949 -9.6255,0 -21.1266,8.13749 -21.1266,17.267"
     id="path142"
     style="stroke-width:0.992001" />
  <path
     class="Note"
     d="m 878.19613,382.66251 c 0,4.2625 3.069,9.02103 11.11348,9.02103 10.30759,0 21.12655,-8.43203 21.12655,-17.15854 0,-5.85901 -4.96001,-9.12949 -11.11349,-9.12949 -9.62548,0 -21.12654,8.13749 -21.12654,17.267"
     id="path143"
     style="stroke-width:0.992001" />
  <path
     class="Note"
     d="m 878.19613,432.26251 c 0,4.2625 3.069,9.02103 11.11348,9.02103 10.30759,0 21.12655,-8.43203 21.12655,-17.15854 0,-5.85901 -4.96001,-9.12949 -11.11349,-9.12949 -9.62548,0 -21.12654,8.13748 -21.12654,17.267"
     id="path144"
     style="stroke-width:0.992001" />
  <path
     class="Note"
     d="m 878.19613,519.06251 c 0,4.2625 3.069,9.02103 11.11348,9.02103 10.30759,0 21.12655,-8.43203 21.12655,-17.15854 0,-5.85901 -4.96001,-9.12949 -11.11349,-9.12949 -9.62548,0 -21.12654,8.13748 -21.12654,17.267"
     id="path145"
     style="stroke-width:0.992001" />
  <path
     class="Note"
     d="m 1598.8961,444.66251 c 0,4.2625 3.069,9.02103 11.1135,9.02103 10.3076,0 21.1266,-8.43203 21.1266,-17.15854 0,-5.85901 -4.96,-9.12949 -11.1135,-9.12949 -9.6255,0 -21.1266,8.13749 -21.1266,17.267"
     id="path146"
     style="stroke-width:0.992001" />
  <path
     class="Note"
     d="m 1107.1161,531.46251 c 0,4.2625 3.069,9.02103 11.1135,9.02103 10.3076,0 21.1266,-8.43203 21.1266,-17.15854 0,-5.85901 -4.96,-9.12949 -11.1135,-9.12949 -9.6255,0 -21.1266,8.13748 -21.1266,17.267"
     id="path147"
     style="stroke-width:0.992001" />
  <path
     class="Note"
     d="m 718.99612,519.06251 c 0,4.2625 3.06901,9.02103 11.11349,9.02103 10.30759,0 21.12655,-8.43203 21.12655,-17.15854 0,-5.85901 -4.96001,-9.12949 -11.11349,-9.12949 -9.62548,0 -21.12655,8.13748 -21.12655,17.267"
     id="path148"
     style="stroke-width:0.992001" />
  <path
     class="Note"
     d="m 1598.8961,531.46251 c 0,4.2625 3.069,9.02103 11.1135,9.02103 10.3076,0 21.1266,-8.43203 21.1266,-17.15854 0,-5.85901 -4.96,-9.12949 -11.1135,-9.12949 -9.6255,0 -21.1266,8.13748 -21.1266,17.267"
     id="path149"
     style="stroke-width:0.992001" />
  <path
     class="Note"
     d="m 1107.1161,444.66251 c 0,4.2625 3.069,9.02103 11.1135,9.02103 10.3076,0 21.1266,-8.43203 21.1266,-17.15854 0,-5.85901 -4.96,-9.12949 -11.1135,-9.12949 -9.6255,0 -21.1266,8.13749 -21.1266,17.267"
     id="path150"
     style="stroke-width:0.992001" />
  <path
     class="Note"
     d="m 718.99612,432.26251 c 0,4.2625 3.06901,9.02103 11.11349,9.02103 10.30759,0 21.12655,-8.43203 21.12655,-17.15854 0,-5.85901 -4.96001,-9.12949 -11.11349,-9.12949 -9.62548,0 -21.12655,8.13748 -21.12655,17.267"
     id="path151"
     style="stroke-width:0.992001" />
  <path
     class="Note"
     d="m 718.99612,382.66251 c 0,4.2625 3.06901,9.02103 11.11349,9.02103 10.30759,0 21.12655,-8.43203 21.12655,-17.15854 0,-5.85901 -4.96001,-9.12949 -11.11349,-9.12949 -9.62548,0 -21.12655,8.13749 -21.12655,17.267"
     id="path152"
     style="stroke-width:0.992001" />
  <path
     class="Note"
     d="m 1280.4961,531.46251 c 0,4.2625 3.069,9.02103 11.1135,9.02103 10.3076,0 21.1266,-8.43203 21.1266,-17.15854 0,-5.85901 -4.96,-9.12949 -11.1135,-9.12949 -9.6255,0 -21.1266,8.13748 -21.1266,17.267"
     id="path153"
     style="stroke-width:0.992001" />
  <path
     class="Note"
     d="m 1280.4961,444.66251 c 0,4.2625 3.069,9.02103 11.1135,9.02103 10.3076,0 21.1266,-8.43203 21.1266,-17.15854 0,-5.85901 -4.96,-9.12949 -11.1135,-9.12949 -9.6255,0 -21.1266,8.13749 -21.1266,17.267"
     id="path154"
     style="stroke-width:0.992001" />
  <path
     class="Note"
     d="m 1280.4961,382.66251 c 0,4.2625 3.069,9.02103 11.1135,9.02103 10.3076,0 21.1266,-8.43203 21.1266,-17.15854 0,-5.85901 -4.96,-9.12949 -11.1135,-9.12949 -9.6255,0 -21.1266,8.13749 -21.1266,17.267"
     id="path155"
     style="stroke-width:0.992001" />
  <path
     class="Note"
     d="m 559.78913,519.06251 c 0,4.2625 3.069,9.02103 11.11348,9.02103 10.30759,0 21.12655,-8.43203 21.12655,-17.15854 0,-5.85901 -4.96001,-9.12949 -11.11349,-9.12949 -9.62548,0 -21.12654,8.13748 -21.12654,17.267"
     id="path156"
     style="stroke-width:0.992001" />
  <path
     class="Note"
     d="m 1439.6961,444.66251 c 0,4.2625 3.069,9.02103 11.1135,9.02103 10.3076,0 21.1266,-8.43203 21.1266,-17.15854 0,-5.85901 -4.96,-9.12949 -11.1135,-9.12949 -9.6255,0 -21.1266,8.13749 -21.1266,17.267"
     id="path157"
     style="stroke-width:0.992001" />
  <path
     class="Note"
     d="m 1439.6961,531.46251 c 0,4.2625 3.069,9.02103 11.1135,9.02103 10.3076,0 21.1266,-8.43203 21.1266,-17.15854 0,-5.85901 -4.96,-9.12949 -11.1135,-9.12949 -9.6255,0 -21.1266,8.13748 -21.1266,17.267"
     id="path158"
     style="stroke-width:0.992001" />
  <path
     class="Note"
     d="m 559.78913,432.26251 c 0,4.2625 3.069,9.02103 11.11348,9.02103 10.30759,0 21.12655,-8.43203 21.12655,-17.15854 0,-5.85901 -4.96001,-9.12949 -11.11349,-9.12949 -9.62548,0 -21.12654,8.13748 -21.12654,17.267"
     id="path159"
     style="stroke-width:0.992001" />
  <path
     class="Note"
     d="m 1439.6961,382.66251 c 0,4.2625 3.069,9.02103 11.1135,9.02103 10.3076,0 21.1266,-8.43203 21.1266,-17.15854 0,-5.85901 -4.96,-9.12949 -11.1135,-9.12949 -9.6255,0 -21.1266,8.13749 -21.1266,17.267"
     id="path160"
     style="stroke-width:0.992001" />
  <path
     class="Note"
     d="m 386.41512,519.06251 c 0,4.2625 3.06901,9.02103 11.11349,9.02103 10.30759,0 21.12655,-8.43203 21.12655,-17.15854 0,-5.85901 -4.96001,-9.12949 -11.11349,-9.12949 -9.62548,0 -21.12655,8.13748 -21.12655,17.267"
     id="path161"
     style="stroke-width:0.992001" />
  <path
     class="Note"
     d="m 559.78913,382.66251 c 0,4.2625 3.069,9.02103 11.11348,9.02103 10.30759,0 21.12655,-8.43203 21.12655,-17.15854 0,-5.85901 -4.96001,-9.12949 -11.11349,-9.12949 -9.62548,0 -21.12654,8.13749 -21.12654,17.267"
     id="path162"
     style="stroke-width:0.992001" />
  <path
     class="Clef"
     d="m 66.867662,243.37958 c 0,6.55653 4.960005,15.19001 18.352019,15.19001 4.66548,0 8.742008,-1.19347 12.306962,-3.37905 5.363057,-3.76643 6.742537,-10.32296 6.742537,-16.56949 0,-3.85948 -0.58896,-8.32349 -1.58096,-13.98097 -0.29452,-1.984 -0.89905,-4.96 -1.488,-8.83506 9.71844,-3.17747 16.95697,-13.29896 16.95697,-23.51352 0,-14.97304 -10.61749,-25.09453 -25.094551,-25.09453 -0.992001,-5.952 -1.984002,-11.81106 -2.774428,-17.36001 10.416009,-11.02054 17.654439,-23.42055 17.654439,-39.18404 0,-9.03654 -2.77442,-16.368019 -4.37095,-19.948151 -2.37148,-5.053253 -5.254531,-8.525256 -7.037058,-8.525256 -0.697475,0 -3.766429,1.193377 -7.036957,5.053253 -6.355056,7.548135 -8.137483,20.242674 -8.137483,28.566154 0,5.36296 0.496,10.23001 2.185477,21.3435 -0.108525,0.0931 -5.270005,5.34748 -7.347057,7.03706 -9.036435,8.33895 -21.529497,20.42897 -21.529497,40.28451 0,18.53807 16.166541,33.12356 34.627085,33.12356 2.867478,0 5.548956,-0.29453 7.827483,-0.69748 1.890952,9.53244 3.084527,16.47645 3.084527,21.73098 0,10.32306 -5.363054,15.77906 -15.376015,15.77906 -2.387052,0 -4.464004,-0.496 -4.665579,-0.496 -0.09295,-0.10852 -0.294426,-0.20157 -0.294426,-0.29452 0,-0.20148 0.201475,-0.31 0.496001,-0.31 4.665479,-0.79053 9.315484,-4.75853 9.315484,-11.09802 0,-5.36305 -4.061054,-11.02053 -11.501061,-11.02053 -6.944007,0 -11.314962,5.65748 -11.314962,12.19854 M 87.606633,110.94744 c 0.899051,-3.968 5.456006,-14.384012 10.617586,-14.384012 1.488001,0 3.859481,4.758432 3.859481,11.702442 0,10.32306 -7.62601,18.05759 -14.477067,24.80002 -0.588951,-3.968 -1.084951,-7.82748 -1.084951,-11.99696 0,-3.67348 0.294525,-7.05253 1.084951,-10.12149 m 8.726534,101.97463 c -1.984002,0.40295 -3.859479,0.60443 -5.750531,0.60443 -14.182439,0 -26.287996,-9.92001 -26.287996,-24.9085 0,-12.09007 8.525028,-22.90903 17.267037,-30.45756 1.674002,-1.488 3.270528,-2.86748 4.75853,-4.35548 0.883476,5.34748 1.580952,10.01296 2.278427,14.08949 -9.036434,2.68148 -15.17444,12.19854 -15.17444,21.52955 0,6.944 5.456005,16.46101 13.392013,16.46101 0.790426,0 1.689477,-0.40295 1.689477,-1.28652 0,-0.89895 -0.992001,-1.39495 -2.185477,-2.18548 -3.875054,-2.387 -6.060531,-4.96001 -6.060531,-9.82701 0,-6.04501 4.572529,-10.91206 10.32296,-12.29154 l 5.750531,32.62761 M 110.42266,194.57 c 0,7.05251 -2.88296,14.29102 -9.92001,17.17407 -2.076956,-11.90406 -4.758434,-27.68308 -5.456009,-32.05413 8.928009,0 15.376019,6.06055 15.376019,14.88006"
     id="path163"
     style="stroke-width:0.992001" />
  <path
     class="Clef"
     d="m 79.8722,378.39993 c -7.548532,0 -13.593588,4.35557 -13.702014,4.35557 -5.84355,4.26243 -9.610059,10.81899 -9.610059,18.0575 0,7.23851 4.154004,12.60149 11.501012,12.60149 6.355056,0 11.315061,-4.26248 11.315061,-10.81899 0,-5.65751 -4.960005,-10.30756 -10.524536,-10.30756 -1.193476,0 -2.278527,0.186 -3.177478,0.496 -0.992001,0.38757 -2.666053,1.37955 -3.472053,2.07705 0.697505,-4.37105 3.673528,-8.72653 7.548482,-10.81906 2.480003,-1.37948 5.657581,-1.984 9.129584,-1.984 10.121485,0 15.08149,8.13758 15.08149,24.80007 0,12.89607 -8.246008,31.44956 -17.964542,40.19157 -10.322961,9.42401 -20.041516,13.88801 -20.134516,13.88801 0,0 -1.193506,0.682 -1.193506,1.87548 0,0.20148 0.093,0.29453 0.093,0.496 0.31,0.992 1.193506,1.19348 1.891002,1.19348 l 0.294505,-0.093 c 0.201496,0 11.516557,-4.66548 20.537516,-11.71802 13.888014,-10.01306 29.558552,-27.6675 29.558552,-45.92657 0,-17.26706 -9.315482,-28.36507 -27.1715,-28.36507 m 31.13951,12.58601 c 0,2.79005 2.18547,4.96005 4.774,4.96005 2.57295,0 4.75853,-2.17 4.75853,-4.96005 0,-2.77443 -2.18558,-5.05296 -4.75853,-5.05296 -2.58853,0 -4.774,2.27853 -4.774,5.05296 m 0,24.5056 c 0,2.77452 2.18547,5.06853 4.774,5.06853 2.57295,0 4.75853,-2.29401 4.75853,-5.06853 0,-2.77453 -2.18558,-5.05303 -4.75853,-5.05303 -2.58853,0 -4.774,2.2785 -4.774,5.05303"
     id="path164"
     style="stroke-width:0.992001" />
  <path
     class="KeySig"
     d="m 151.03214,152.31698 c -4.96001,0 -7.84301,3.06896 -8.33901,3.67348 l 0.403,-31.85255 c 0,-0.79043 -0.589,-1.37948 -1.395,-1.37948 h -1.178 c -0.806,0 -1.39501,0.58905 -1.39501,1.37948 l 0.49601,59.62858 c 0,0.79053 0.589,1.37958 1.395,1.37958 0.186,0 0.589,-0.0931 0.7905,-0.186 8.52503,-4.27801 17.45304,-12.40007 17.45304,-22.63008 0,-5.14605 -2.37148,-10.01301 -8.23053,-10.01301 m -8.63351,27.97751 0.2945,-19.344 c 0.2015,-0.899 1.68951,-3.76655 5.65751,-3.76655 3.58055,0 3.87497,3.36355 3.87497,5.45605 0,8.81952 -3.27048,12.49302 -9.82698,17.6545"
     id="path165"
     style="stroke-width:0.992001" />
  <path
     class="KeySig"
     d="m 178.60714,115.11698 c -4.96001,0 -7.84301,3.06896 -8.33901,3.67348 l 0.403,-31.852554 c 0,-0.790426 -0.589,-1.379476 -1.395,-1.379476 h -1.178 c -0.806,0 -1.39501,0.58905 -1.39501,1.379476 l 0.49601,59.628584 c 0,0.79053 0.589,1.37958 1.395,1.37958 0.186,0 0.589,-0.0931 0.7905,-0.186 8.52503,-4.27801 17.45304,-12.40007 17.45304,-22.63008 0,-5.14605 -2.37148,-10.01301 -8.23053,-10.01301 m -8.63351,27.97751 0.2945,-19.344 c 0.2015,-0.899 1.68951,-3.76655 5.65751,-3.76655 3.58055,0 3.87497,3.36355 3.87497,5.45605 0,8.81952 -3.27048,12.49302 -9.82698,17.6545"
     id="path166"
     style="stroke-width:0.992001" />
  <path
     class="KeySig"
     d="m 206.18114,164.71698 c -4.96001,0 -7.84301,3.06896 -8.33901,3.67348 l 0.403,-31.85255 c 0,-0.79043 -0.589,-1.37948 -1.395,-1.37948 h -1.178 c -0.806,0 -1.39501,0.58905 -1.39501,1.37948 l 0.49601,59.62858 c 0,0.79053 0.589,1.37958 1.395,1.37958 0.186,0 0.589,-0.093 0.7905,-0.186 8.52503,-4.27801 17.45304,-12.40007 17.45304,-22.63008 0,-5.14605 -2.37148,-10.01301 -8.23053,-10.01301 m -8.63351,27.97751 0.2945,-19.344 c 0.2015,-0.899 1.68951,-3.76655 5.65751,-3.76655 3.58055,0 3.87497,3.36355 3.87497,5.45605 0,8.81952 -3.27048,12.49302 -9.82698,17.6545"
     id="path167"
     style="stroke-width:0.992001" />
  <path
     class="KeySig"
     d="m 233.75614,127.51698 c -4.96001,0 -7.84301,3.06896 -8.33901,3.67348 l 0.403,-31.852554 c 0,-0.790426 -0.589,-1.379476 -1.395,-1.379476 h -1.178 c -0.806,0 -1.39501,0.58905 -1.39501,1.379476 l 0.49601,59.628584 c 0,0.79053 0.589,1.37958 1.395,1.37958 0.186,0 0.589,-0.0931 0.7905,-0.186 8.52503,-4.27801 17.45304,-12.40007 17.45304,-22.63008 0,-5.14605 -2.37148,-10.01301 -8.23053,-10.01301 m -8.63351,27.97751 0.2945,-19.344 c 0.2015,-0.899 1.68951,-3.76655 5.65751,-3.76655 3.58055,0 3.87497,3.36355 3.87497,5.45605 0,8.81952 -3.27048,12.49302 -9.82698,17.6545"
     id="path168"
     style="stroke-width:0.992001" />
  <path
     class="KeySig"
     d="m 261.33014,177.11698 c -4.96001,0 -7.84301,3.06896 -8.33901,3.67348 l 0.403,-31.85255 c 0,-0.79043 -0.589,-1.37948 -1.395,-1.37948 h -1.178 c -0.806,0 -1.39501,0.58905 -1.39501,1.37948 l 0.49601,59.62858 c 0,0.79053 0.589,1.37958 1.395,1.37958 0.186,0 0.589,-0.0931 0.7905,-0.186 8.52503,-4.27801 17.45304,-12.40007 17.45304,-22.63008 0,-5.14605 -2.37148,-10.01301 -8.23053,-10.01301 m -8.63351,27.97751 0.2945,-19.344 c 0.2015,-0.899 1.68951,-3.76655 5.65751,-3.76655 3.58055,0 3.87497,3.36355 3.87497,5.45605 0,8.81952 -3.27048,12.49302 -9.82698,17.6545"
     id="path169"
     style="stroke-width:0.992001" />
  <path
     class="KeySig"
     d="m 151.03214,437.51698 c -4.96001,0 -7.84301,3.06896 -8.33901,3.67348 l 0.403,-31.85255 c 0,-0.79043 -0.589,-1.37948 -1.395,-1.37948 h -1.178 c -0.806,0 -1.39501,0.58905 -1.39501,1.37948 l 0.49601,59.62858 c 0,0.79053 0.589,1.37958 1.395,1.37958 0.186,0 0.589,-0.0931 0.7905,-0.186 8.52503,-4.27801 17.45304,-12.40007 17.45304,-22.63008 0,-5.14605 -2.37148,-10.01301 -8.23053,-10.01301 m -8.63351,27.97751 0.2945,-19.344 c 0.2015,-0.899 1.68951,-3.76655 5.65751,-3.76655 3.58055,0 3.87497,3.36355 3.87497,5.45605 0,8.81952 -3.27048,12.49302 -9.82698,17.6545"
     id="path170"
     style="stroke-width:0.992001" />
  <path
     class="KeySig"
     d="m 178.60714,400.31698 c -4.96001,0 -7.84301,3.06896 -8.33901,3.67348 l 0.403,-31.85255 c 0,-0.79043 -0.589,-1.37948 -1.395,-1.37948 h -1.178 c -0.806,0 -1.39501,0.58905 -1.39501,1.37948 l 0.49601,59.62858 c 0,0.79053 0.589,1.37958 1.395,1.37958 0.186,0 0.589,-0.0931 0.7905,-0.186 8.52503,-4.27801 17.45304,-12.40007 17.45304,-22.63008 0,-5.14605 -2.37148,-10.01301 -8.23053,-10.01301 m -8.63351,27.97751 0.2945,-19.344 c 0.2015,-0.899 1.68951,-3.76655 5.65751,-3.76655 3.58055,0 3.87497,3.36355 3.87497,5.45605 0,8.81952 -3.27048,12.49302 -9.82698,17.6545"
     id="path171"
     style="stroke-width:0.992001" />
  <path
     class="KeySig"
     d="m 206.18114,449.91698 c -4.96001,0 -7.84301,3.06896 -8.33901,3.67348 l 0.403,-31.85255 c 0,-0.79043 -0.589,-1.37948 -1.395,-1.37948 h -1.178 c -0.806,0 -1.39501,0.58905 -1.39501,1.37948 l 0.49601,59.62858 c 0,0.79053 0.589,1.37958 1.395,1.37958 0.186,0 0.589,-0.093 0.7905,-0.186 8.52503,-4.27801 17.45304,-12.40007 17.45304,-22.63008 0,-5.14605 -2.37148,-10.01301 -8.23053,-10.01301 m -8.63351,27.97751 0.2945,-19.344 c 0.2015,-0.899 1.68951,-3.76655 5.65751,-3.76655 3.58055,0 3.87497,3.36355 3.87497,5.45605 0,8.81952 -3.27048,12.49302 -9.82698,17.6545"
     id="path172"
     style="stroke-width:0.992001" />
  <path
     class="KeySig"
     d="m 233.75614,412.71698 c -4.96001,0 -7.84301,3.06896 -8.33901,3.67348 l 0.403,-31.85255 c 0,-0.79043 -0.589,-1.37948 -1.395,-1.37948 h -1.178 c -0.806,0 -1.39501,0.58905 -1.39501,1.37948 l 0.49601,59.62858 c 0,0.79053 0.589,1.37958 1.395,1.37958 0.186,0 0.589,-0.0931 0.7905,-0.186 8.52503,-4.27801 17.45304,-12.40007 17.45304,-22.63008 0,-5.14605 -2.37148,-10.01301 -8.23053,-10.01301 m -8.63351,27.97751 0.2945,-19.344 c 0.2015,-0.899 1.68951,-3.76655 5.65751,-3.76655 3.58055,0 3.87497,3.36355 3.87497,5.45605 0,8.81952 -3.27048,12.49302 -9.82698,17.6545"
     id="path173"
     style="stroke-width:0.992001" />
  <path
     class="KeySig"
     d="m 261.33014,462.31698 c -4.96001,0 -7.84301,3.06896 -8.33901,3.67348 l 0.403,-31.85255 c 0,-0.79043 -0.589,-1.37948 -1.395,-1.37948 h -1.178 c -0.806,0 -1.39501,0.58905 -1.39501,1.37948 l 0.49601,59.62858 c 0,0.79053 0.589,1.37958 1.395,1.37958 0.186,0 0.589,-0.0931 0.7905,-0.186 8.52503,-4.27801 17.45304,-12.40007 17.45304,-22.63008 0,-5.14605 -2.37148,-10.01301 -8.23053,-10.01301 m -8.63351,27.97751 0.2945,-19.344 c 0.2015,-0.899 1.68951,-3.76655 5.65751,-3.76655 3.58055,0 3.87497,3.36355 3.87497,5.45605 0,8.81952 -3.27048,12.49302 -9.82698,17.6545"
     id="path174"
     style="stroke-width:0.992001" />
  <path
     class="TimeSig"
     d="m 313.61167,155.49449 v 7.33158 h -8.23053 c -0.69748,0 -1.39495,0.60443 -1.39495,1.39495 v 1.89105 c 0,0.79043 0.69747,1.37948 1.39495,1.37948 h 30.05455 c 0.806,0 1.39495,-0.58905 1.39495,-1.37948 v -1.89105 c 0,-0.79052 -0.58895,-1.39495 -1.39495,-1.39495 h -8.81948 v -7.33158 h 8.81948 c 0.806,0 1.39495,-0.69748 1.39495,-1.488 v -1.89098 c 0,-0.6975 -0.58895,-1.3795 -1.39495,-1.3795 h -8.81948 v -15.77902 c 0,-0.589 -0.29453,-1.085 -0.79053,-1.2865 l -1.19347,-0.6045 c -0.20158,-0.093 -0.496,-0.18605 -0.69758,-0.18605 -0.29442,0.0931 -0.69747,0.18605 -0.89895,0.38755 l -9.02106,8.23051 c -0.29442,0.31 -0.40295,0.6975 -0.40295,1.1005 v 8.13751 h -11.40803 c 0,0 11.02056,-11.90401 22.72299,-27.59008 0.40305,-0.496 0.496,-0.992 0.496,-1.37948 0,-0.496 -0.20147,-0.89895 -0.29442,-0.992 l -2.18558,-2.18547 c -0.20147,-0.20148 -0.58895,-0.40305 -0.992,-0.40305 -0.58895,0 -13.99644,0 -14.67844,0 -0.806,0 -1.302,0.60452 -1.39505,1.19357 0,0 -0.496,7.34696 -3.06901,15.37599 -2.58849,8.04451 -5.5645,13.00451 -8.1375,16.66252 0,0 -0.2945,0.496 -0.2945,1.1005 0,0.2015 0,0.38755 0.093,0.58903 0.403,0.69747 0.992,1.78252 0.992,1.78252 0,0 0.2015,0.60443 1.085,0.60443 h 17.06554"
     id="path175"
     style="stroke-width:0.992001" />
  <path
     class="TimeSig"
     d="m 313.61167,205.09449 v 7.33158 h -8.23053 c -0.69748,0 -1.39495,0.60443 -1.39495,1.39495 v 1.89105 c 0,0.79043 0.69747,1.37948 1.39495,1.37948 h 30.05455 c 0.806,0 1.39495,-0.58905 1.39495,-1.37948 v -1.89105 c 0,-0.79052 -0.58895,-1.39495 -1.39495,-1.39495 h -8.81948 v -7.33158 h 8.81948 c 0.806,0 1.39495,-0.69748 1.39495,-1.488 v -1.89098 c 0,-0.6975 -0.58895,-1.3795 -1.39495,-1.3795 h -8.81948 v -15.77902 c 0,-0.589 -0.29453,-1.085 -0.79053,-1.2865 l -1.19347,-0.6045 c -0.20158,-0.093 -0.496,-0.18605 -0.69758,-0.18605 -0.29442,0.0931 -0.69747,0.18605 -0.89895,0.38755 l -9.02106,8.23051 c -0.29442,0.31 -0.40295,0.6975 -0.40295,1.1005 v 8.13751 h -11.40803 c 0,0 11.02056,-11.90401 22.72299,-27.59008 0.40305,-0.496 0.496,-0.992 0.496,-1.37948 0,-0.496 -0.20147,-0.89895 -0.29442,-0.992 l -2.18558,-2.18547 c -0.20147,-0.20148 -0.58895,-0.40305 -0.992,-0.40305 -0.58895,0 -13.99644,0 -14.67844,0 -0.806,0 -1.302,0.60452 -1.39505,1.19357 0,0 -0.496,7.34696 -3.06901,15.37599 -2.58849,8.04451 -5.5645,13.00451 -8.1375,16.66252 0,0 -0.2945,0.496 -0.2945,1.1005 0,0.2015 0,0.38755 0.093,0.58903 0.403,0.69747 0.992,1.78252 0.992,1.78252 0,0 0.2015,0.60443 1.085,0.60443 h 17.06554"
     id="path176"
     style="stroke-width:0.992001" />
  <path
     class="TimeSig"
     d="m 313.61167,415.89449 v 7.33158 h -8.23053 c -0.69748,0 -1.39495,0.60443 -1.39495,1.39495 v 1.89105 c 0,0.79043 0.69747,1.37948 1.39495,1.37948 h 30.05455 c 0.806,0 1.39495,-0.58905 1.39495,-1.37948 v -1.89105 c 0,-0.79052 -0.58895,-1.39495 -1.39495,-1.39495 h -8.81948 v -7.33158 h 8.81948 c 0.806,0 1.39495,-0.69748 1.39495,-1.488 v -1.89098 c 0,-0.6975 -0.58895,-1.3795 -1.39495,-1.3795 h -8.81948 v -15.77902 c 0,-0.589 -0.29453,-1.085 -0.79053,-1.2865 l -1.19347,-0.6045 c -0.20158,-0.093 -0.496,-0.18605 -0.69758,-0.18605 -0.29442,0.0931 -0.69747,0.18605 -0.89895,0.38755 l -9.02106,8.23051 c -0.29442,0.31 -0.40295,0.6975 -0.40295,1.1005 v 8.13751 h -11.40803 c 0,0 11.02056,-11.90401 22.72299,-27.59008 0.40305,-0.496 0.496,-0.992 0.496,-1.37948 0,-0.496 -0.20147,-0.89895 -0.29442,-0.992 l -2.18558,-2.18547 c -0.20147,-0.20148 -0.58895,-0.40305 -0.992,-0.40305 -0.58895,0 -13.99644,0 -14.67844,0 -0.806,0 -1.302,0.60452 -1.39505,1.19357 0,0 -0.496,7.34696 -3.06901,15.37599 -2.58849,8.04451 -5.5645,13.00451 -8.1375,16.66252 0,0 -0.2945,0.496 -0.2945,1.1005 0,0.2015 0,0.38755 0.093,0.58903 0.403,0.69747 0.992,1.78252 0.992,1.78252 0,0 0.2015,0.60443 1.085,0.60443 h 17.06554"
     id="path177"
     style="stroke-width:0.992001" />
  <path
     class="TimeSig"
     d="m 313.61167,465.49449 v 7.33158 h -8.23053 c -0.69748,0 -1.39495,0.60443 -1.39495,1.39495 v 1.89105 c 0,0.79043 0.69747,1.37948 1.39495,1.37948 h 30.05455 c 0.806,0 1.39495,-0.58905 1.39495,-1.37948 v -1.89105 c 0,-0.79052 -0.58895,-1.39495 -1.39495,-1.39495 h -8.81948 v -7.33158 h 8.81948 c 0.806,0 1.39495,-0.69748 1.39495,-1.488 v -1.89098 c 0,-0.6975 -0.58895,-1.3795 -1.39495,-1.3795 h -8.81948 v -15.77902 c 0,-0.589 -0.29453,-1.085 -0.79053,-1.2865 l -1.19347,-0.6045 c -0.20158,-0.093 -0.496,-0.18605 -0.69758,-0.18605 -0.29442,0.0931 -0.69747,0.18605 -0.89895,0.38755 l -9.02106,8.23051 c -0.29442,0.31 -0.40295,0.6975 -0.40295,1.1005 v 8.13751 h -11.40803 c 0,0 11.02056,-11.90401 22.72299,-27.59008 0.40305,-0.496 0.496,-0.992 0.496,-1.37948 0,-0.496 -0.20147,-0.89895 -0.29442,-0.992 l -2.18558,-2.18547 c -0.20147,-0.20148 -0.58895,-0.40305 -0.992,-0.40305 -0.58895,0 -13.99644,0 -14.67844,0 -0.806,0 -1.302,0.60452 -1.39505,1.19357 0,0 -0.496,7.34696 -3.06901,15.37599 -2.58849,8.04451 -5.5645,13.00451 -8.1375,16.66252 0,0 -0.2945,0.496 -0.2945,1.1005 0,0.2015 0,0.38755 0.093,0.58903 0.403,0.69747 0.992,1.78252 0.992,1.78252 0,0 0.2015,0.60443 1.085,0.60443 h 17.06554"
     id="path178"
     style="stroke-width:0.992001" />
  <path
     class="Rest"
     d="m 586.27863,147.55845 c -0.0929,0 -0.29443,-0.10852 -0.40295,-0.10852 -0.58905,0 -1.08505,0.31 -1.28653,0.806 -2.27853,4.55705 -7.03696,10.71056 -12.40001,11.70256 1.08505,-1.2865 1.78252,-2.88298 1.78252,-4.75855 0,-3.87496 -3.17747,-7.05243 -7.03702,-7.05243 -3.96801,0 -7.14551,3.17747 -7.14551,7.05243 0,5.34755 5.25451,7.82755 9.92001,7.82755 5.25453,0 8.72653,-2.48 12.10548,-6.15355 l -11.31496,35.32456 2.68148,0.79053 13.88801,-43.7411 c 0.10853,-0.10842 0.10853,-0.31 0.10853,-0.496 0,-0.496 -0.31,-0.89895 -0.89905,-1.19348"
     id="path179"
     style="stroke-width:0.992001" />
  <path
     class="Rest"
     d="m 1133.6056,147.55845 c -0.093,0 -0.2944,-0.10852 -0.4029,-0.10852 -0.5891,0 -1.0851,0.31 -1.2865,0.806 -2.2786,4.55705 -7.037,10.71056 -12.4001,11.70256 1.0851,-1.2865 1.7826,-2.88298 1.7826,-4.75855 0,-3.87496 -3.1775,-7.05243 -7.0371,-7.05243 -3.968,0 -7.1455,3.17747 -7.1455,7.05243 0,5.34755 5.2545,7.82755 9.92,7.82755 5.2546,0 8.7266,-2.48 12.1055,-6.15355 l -11.3149,35.32456 2.6814,0.79053 13.8881,-43.7411 c 0.1085,-0.10842 0.1085,-0.31 0.1085,-0.496 0,-0.496 -0.31,-0.89895 -0.8991,-1.19348"
     id="path180"
     style="stroke-width:0.992001" />
  <path
     class="Rest"
     d="m 1466.1856,147.55845 c -0.093,0 -0.2944,-0.10852 -0.4029,-0.10852 -0.5891,0 -1.0851,0.31 -1.2865,0.806 -2.2786,4.55705 -7.037,10.71056 -12.4001,11.70256 1.0851,-1.2865 1.7826,-2.88298 1.7826,-4.75855 0,-3.87496 -3.1775,-7.05243 -7.0371,-7.05243 -3.968,0 -7.1455,3.17747 -7.1455,7.05243 0,5.34755 5.2545,7.82755 9.92,7.82755 5.2546,0 8.7266,-2.48 12.1055,-6.15355 l -11.3149,35.32456 2.6814,0.79053 13.8881,-43.7411 c 0.1085,-0.10842 0.1085,-0.31 0.1085,-0.496 0,-0.496 -0.31,-0.89895 -0.8991,-1.19348"
     id="path181"
     style="stroke-width:0.992001" />
  <path
     class="Rest"
     d="m 904.68563,147.55845 c -0.0929,0 -0.29443,-0.10852 -0.40295,-0.10852 -0.58905,0 -1.08505,0.31 -1.28653,0.806 -2.27853,4.55705 -7.03696,10.71056 -12.40001,11.70256 1.08505,-1.2865 1.78252,-2.88298 1.78252,-4.75855 0,-3.87496 -3.17747,-7.05243 -7.03702,-7.05243 -3.96801,0 -7.14551,3.17747 -7.14551,7.05243 0,5.34755 5.25451,7.82755 9.92001,7.82755 5.25453,0 8.72653,-2.48 12.10548,-6.15355 l -11.31496,35.32456 2.68148,0.79053 13.88801,-43.7411 c 0.10853,-0.10842 0.10853,-0.31 0.10853,-0.496 0,-0.496 -0.31,-0.89895 -0.89905,-1.19348"
     id="path182"
     style="stroke-width:0.992001" />
  <path
     class="Rest"
     d="m 745.48563,147.55845 c -0.0929,0 -0.29443,-0.10852 -0.40295,-0.10852 -0.58905,0 -1.08505,0.31 -1.28653,0.806 -2.27853,4.55705 -7.03696,10.71056 -12.40001,11.70256 1.08505,-1.2865 1.78252,-2.88298 1.78252,-4.75855 0,-3.87496 -3.17747,-7.05243 -7.03702,-7.05243 -3.96801,0 -7.14552,3.17747 -7.14552,7.05243 0,5.34755 5.25452,7.82755 9.92002,7.82755 5.25453,0 8.72653,-2.48 12.10548,-6.15355 l -11.31496,35.32456 2.68148,0.79053 13.88801,-43.7411 c 0.10853,-0.10842 0.10853,-0.31 0.10853,-0.496 0,-0.496 -0.31,-0.89895 -0.89905,-1.19348"
     id="path183"
     style="stroke-width:0.992001" />
  <path
     class="Rest"
     d="m 412.90463,147.55845 c -0.0929,0 -0.29443,-0.10852 -0.40295,-0.10852 -0.58905,0 -1.08505,0.31 -1.28653,0.806 -2.27853,4.55705 -7.03696,10.71056 -12.40001,11.70256 1.08505,-1.2865 1.78252,-2.88298 1.78252,-4.75855 0,-3.87496 -3.17747,-7.05243 -7.03702,-7.05243 -3.96801,0 -7.14552,3.17747 -7.14552,7.05243 0,5.34755 5.25452,7.82755 9.92001,7.82755 5.25454,0 8.72654,-2.48 12.10549,-6.15355 l -11.31496,35.32456 2.68148,0.79053 13.88801,-43.7411 c 0.10853,-0.10842 0.10853,-0.31 0.10853,-0.496 0,-0.496 -0.31,-0.89895 -0.89905,-1.19348"
     id="path184"
     style="stroke-width:0.992001" />
  <path
     class="Rest"
     d="m 1625.3856,147.55845 c -0.093,0 -0.2944,-0.10852 -0.4029,-0.10852 -0.5891,0 -1.0851,0.31 -1.2865,0.806 -2.2786,4.55705 -7.037,10.71056 -12.4001,11.70256 1.0851,-1.2865 1.7826,-2.88298 1.7826,-4.75855 0,-3.87496 -3.1775,-7.05243 -7.0371,-7.05243 -3.968,0 -7.1455,3.17747 -7.1455,7.05243 0,5.34755 5.2545,7.82755 9.92,7.82755 5.2546,0 8.7266,-2.48 12.1055,-6.15355 l -11.3149,35.32456 2.6814,0.79053 13.8881,-43.7411 c 0.1085,-0.10842 0.1085,-0.31 0.1085,-0.496 0,-0.496 -0.31,-0.89895 -0.8991,-1.19348"
     id="path185"
     style="stroke-width:0.992001" />
  <path
     class="Rest"
     d="m 1306.9856,147.55845 c -0.093,0 -0.2944,-0.10852 -0.4029,-0.10852 -0.5891,0 -1.0851,0.31 -1.2865,0.806 -2.2786,4.55705 -7.037,10.71056 -12.4001,11.70256 1.0851,-1.2865 1.7826,-2.88298 1.7826,-4.75855 0,-3.87496 -3.1775,-7.05243 -7.0371,-7.05243 -3.968,0 -7.1455,3.17747 -7.1455,7.05243 0,5.34755 5.2545,7.82755 9.92,7.82755 5.2546,0 8.7266,-2.48 12.1055,-6.15355 l -11.3149,35.32456 2.6814,0.79053 13.8881,-43.7411 c 0.1085,-0.10842 0.1085,-0.31 0.1085,-0.496 0,-0.496 -0.31,-0.89895 -0.8991,-1.19348"
     id="path186"
     style="stroke-width:0.992001" />
  <path
     class="Rest"
     d="m 1485.7312,352.298 h -13.795 v -9.31554 c 0,-0.79052 -0.496,-1.39495 -1.2866,-1.39495 h -29.667 c -0.7905,0 -1.2865,0.60443 -1.2865,1.39495 v 9.31554 h -13.795 v 2.79 h 59.8301 v -2.79"
     id="path187"
     style="stroke-width:0.992001" />
  <path
     class="Rest"
     d="m 582.60515,332.95407 c -0.0929,-0.0931 -0.29453,-0.29453 -0.58895,-0.682 l -11.40801,-14.08956 c -0.10853,-0.10851 -0.20158,-0.403 -0.20158,-0.60451 0,-0.2945 0.093,-0.682 0.20158,-0.8835 l 10.10601,-15.28299 c 0.10842,-0.20158 0.20147,-0.496 0.20147,-0.69758 v -0.88347 c 0,-0.29453 -0.093,-0.60453 -0.29452,-0.79053 l -16.07352,-21.73097 c 0,0 -0.3875,-0.60452 -0.992,-0.60452 -0.2945,0 -0.496,0 -0.7905,0.31 -0.403,0.29452 -0.496,0.682 -0.496,0.992 0,0.58905 0.2945,1.08505 0.2945,1.08505 l 7.54856,10.32296 c 0.186,0.29452 0.29442,0.682 0.29442,1.178 0,0.40305 -0.10842,0.89905 -0.29442,1.19348 l -10.02856,15.28306 c -0.093,0.2015 -0.2015,0.589 -0.2015,0.7905 v 0.899 c 0,0.2945 0.1085,0.589 0.31,0.7905 l 11.09806,13.79502 c -0.38758,-0.1085 -1.28653,-0.31 -2.48006,-0.31 -5.053,0 -9.021,4.16953 -9.021,9.23806 0,1.37947 0.2945,2.77442 1.085,3.85947 2.0925,3.17748 9.53248,12.60149 9.53248,12.60149 0,0 0.496,0.60453 1.19358,0.60453 0.186,0 0.38747,0 0.58895,-0.20148 0.496,-0.40305 0.69747,-0.79052 0.69747,-1.19357 0,-0.40295 -0.20147,-0.69748 -0.29442,-0.89895 -0.31,-0.496 -3.47206,-6.24654 -3.47206,-6.24654 0,0 -0.69749,-1.39495 -0.69749,-3.17747 0,-3.17748 2.37155,-5.75053 5.54902,-5.75053 1.28653,0 2.38696,0.40305 3.17748,0.89905 l 3.87506,2.48 c 0,0 0.38747,0.186 0.79042,0.186 0.38758,0 0.69758,-0.0931 0.992,-0.496 0.20158,-0.29453 0.29453,-0.58905 0.29453,-0.88358 0,-0.29442 -0.0929,-0.496 -0.29453,-0.79042 l -0.20147,-0.31"
     id="path188"
     style="stroke-width:0.992001" />
  <path
     class="Rest"
     d="m 765.03122,352.298 h -13.79506 v -9.31554 c 0,-0.79052 -0.496,-1.39495 -1.28653,-1.39495 h -29.667 c -0.7905,0 -1.28651,0.60443 -1.28651,1.39495 v 9.31554 h -13.79506 v 2.79 h 59.83016 v -2.79"
     id="path189"
     style="stroke-width:0.992001" />
  <path
     class="Rest"
     d="m 1303.3121,332.95407 c -0.093,-0.0931 -0.2945,-0.29453 -0.5889,-0.682 l -11.408,-14.08956 c -0.1085,-0.10851 -0.2016,-0.403 -0.2016,-0.60451 0,-0.2945 0.093,-0.682 0.2016,-0.8835 l 10.106,-15.28299 c 0.1084,-0.20158 0.2015,-0.496 0.2015,-0.69758 v -0.88347 c 0,-0.29453 -0.093,-0.60453 -0.2946,-0.79053 l -16.0735,-21.73097 c 0,0 -0.3875,-0.60452 -0.992,-0.60452 -0.2945,0 -0.496,0 -0.7905,0.31 -0.403,0.29452 -0.496,0.682 -0.496,0.992 0,0.58905 0.2945,1.08505 0.2945,1.08505 l 7.5486,10.32296 c 0.186,0.29452 0.2944,0.682 0.2944,1.178 0,0.40305 -0.1084,0.89905 -0.2944,1.19348 l -10.0286,15.28306 c -0.093,0.2015 -0.2015,0.589 -0.2015,0.7905 v 0.899 c 0,0.2945 0.1085,0.589 0.31,0.7905 l 11.0981,13.79502 c -0.3876,-0.1085 -1.2865,-0.31 -2.4801,-0.31 -5.053,0 -9.021,4.16953 -9.021,9.23806 0,1.37947 0.2945,2.77442 1.085,3.85947 2.0925,3.17748 9.5325,12.60149 9.5325,12.60149 0,0 0.496,0.60453 1.1936,0.60453 0.186,0 0.3875,0 0.5889,-0.20148 0.496,-0.40305 0.6975,-0.79052 0.6975,-1.19357 0,-0.40295 -0.2015,-0.69748 -0.2944,-0.89895 -0.31,-0.496 -3.4721,-6.24654 -3.4721,-6.24654 0,0 -0.6975,-1.39495 -0.6975,-3.17747 0,-3.17748 2.3716,-5.75053 5.5491,-5.75053 1.2865,0 2.3869,0.40305 3.1774,0.89905 l 3.8751,2.48 c 0,0 0.3875,0.186 0.7904,0.186 0.3876,0 0.6976,-0.0931 0.992,-0.496 0.2016,-0.29453 0.2945,-0.58905 0.2945,-0.88358 0,-0.29442 -0.093,-0.496 -0.2945,-0.79042 l -0.2015,-0.31"
     id="path190"
     style="stroke-width:0.992001" />
  <path
     class="Articulation"
     d="m 407.15813,305.488 c 0.806,0.682 1.798,1.085 2.79,1.085 0.992,0 1.984,-0.403 2.77451,-1.085 1.488,-1.59651 1.488,-3.96801 0,-5.56451 -0.79051,-0.7905 -1.78251,-1.085 -2.77451,-1.085 -0.992,0 -1.984,0.2945 -2.79,1.085 -1.48801,1.5965 -1.48801,3.968 0,5.56451"
     id="path191"
     style="stroke-width:0.992001" />
  <path
     class="Articulation"
     d="m 1127.8611,305.488 c 0.806,0.682 1.798,1.085 2.79,1.085 0.992,0 1.984,-0.403 2.7745,-1.085 1.488,-1.59651 1.488,-3.96801 0,-5.56451 -0.7905,-0.7905 -1.7825,-1.085 -2.7745,-1.085 -0.992,0 -1.984,0.2945 -2.79,1.085 -1.488,1.5965 -1.488,3.968 0,5.56451"
     id="path192"
     style="stroke-width:0.992001" />
  <path
     class="Beam"
     fill-rule="evenodd"
     d="m 2369.3161,118.082 108.61,-6.2 v 12.421 l -108.61,6.2 v -12.421"
     id="path193" />
  <path
     class="Beam"
     fill-rule="evenodd"
     d="m 961.00612,136.654 55.54998,-6.2 v 12.477 l -55.54998,6.2 v -12.477"
     id="path194" />
  <path
     class="Beam"
     fill-rule="evenodd"
     d="m 469.22712,136.668 69.71901,-6.2 v 12.449 l -69.71901,6.2 v -12.449"
     id="path195" />
  <path
     class="Beam"
     fill-rule="evenodd"
     d="m 1189.9261,136.668 69.72,-6.2 v 12.449 l -69.72,6.2 v -12.449"
     id="path196" />
  <path
     class="Beam"
     fill-rule="evenodd"
     d="m 2186.9661,118.086 131.76,-6.2 v 12.413 l -131.76,6.2 v -12.413"
     id="path197" />
  <path
     class="Beam"
     fill-rule="evenodd"
     d="m 2027.7661,142.852 108.61,-12.4 v 12.481 l -108.61,12.4 v -12.481"
     id="path198" />
  <path
     class="Beam"
     fill-rule="evenodd"
     d="m 642.60113,136.654 55.54499,-6.2 v 12.477 l -55.54499,6.2 v -12.477"
     id="path199" />
  <path
     class="Beam"
     fill-rule="evenodd"
     d="m 801.80612,136.654 55.54,-6.2 v 12.477 l -55.54,6.2 v -12.477"
     id="path200" />
  <path
     class="Beam"
     fill-rule="evenodd"
     d="m 1363.3061,136.654 55.55,-6.2 v 12.477 l -55.55,6.2 v -12.477"
     id="path201" />
  <path
     class="Beam"
     fill-rule="evenodd"
     d="m 1854.3861,142.861 122.79,-12.4 v 12.463 l -122.79,12.4 v -12.463"
     id="path202" />
  <path
     class="Beam"
     fill-rule="evenodd"
     d="m 1681.7061,136.654 55.55,-6.2 v 12.477 l -55.55,6.2 v -12.477"
     id="path203" />
  <path
     class="Beam"
     fill-rule="evenodd"
     d="m 1522.5061,136.654 55.55,-6.2 v 12.477 l -55.55,6.2 v -12.477"
     id="path204" />
  <path
     class="Tuplet"
     d="m 798.66613,84.854 c 2.13,-0.672 2.97,-1.047 4.05,-1.766 2.11999,-1.391 3.42,-3.859 3.42,-6.391 0,-4.265 -3.42,-7.14 -8.45,-7.14 -4.91001,0 -9.05,3.047 -9.05,6.75 0,1.843 1.13,3.093 2.83,3.093 1.48,0 2.57999,-1.078 2.57999,-2.562 0,-0.766 -0.24,-1.297 -0.96,-2.016 -0.45,-0.406 -0.61999,-0.734 -0.61999,-1.047 0,-1.078 2.25,-2.203 4.35999,-2.203 3.01,0 4.81,1.672 4.81,4.453 0,4.016 -2.83,7.782 -5.84,7.782 -0.14,0 -0.55,-0.032 -1.03,-0.078 -1.31999,-0.094 -1.31999,-0.094 -1.57999,-0.094 -1,0 -1.53,0.453 -1.53,1.265 0,0.719 0.5,1.157 1.29,1.157 0.24,0 0.54999,-0.032 0.91,-0.078 0.62,-0.141 1.31,-0.188 1.7,-0.188 2.13,0 3.56,1.891 3.56,4.688 0,4.859 -2.39,9.531 -7.82,9.531 -2.52,0 -4.69,-1.25 -4.69,-2.703 0,-0.485 0.19,-0.672 0.91,-0.985 1.29,-0.578 1.84,-1.39 1.84,-2.609 0,-1.578 -1.27,-2.781 -2.88,-2.781 -1.93001,0 -3.20001,1.515 -3.20001,3.859 0,4.375 3.33,7.109 8.74,7.109 6.79,0 11.96001,-4.546 11.96001,-10.578 0,-3.5 -2.15001,-5.484 -5.31,-6.468"
     id="path205" />
  <polyline
     class="Tuplet"
     fill="none"
     stroke="#000000"
     stroke-width="2.48"
     stroke-linejoin="miter"
     stroke-miterlimit="2"
     points="1025.23,372.435 1025.23,353.835 1074.96,353.835"
     id="polyline205"
     transform="translate(-304.99387,-268.106)" />
  <polyline
     class="Tuplet"
     fill="none"
     stroke="#000000"
     stroke-width="2.48"
     stroke-linejoin="miter"
     stroke-miterlimit="2"
     points="1123.76,353.835 1173.5,353.835 1173.5,372.435"
     id="polyline206"
     transform="translate(-304.99387,-268.106)" />
  <path
     class="Tuplet"
     d="m 1193.8861,84.854 c 2.12,-0.672 2.96,-1.047 4.04,-1.766 2.13,-1.391 3.42,-3.859 3.42,-6.391 0,-4.265 -3.42,-7.14 -8.45,-7.14 -4.91,0 -9.05,3.047 -9.05,6.75 0,1.843 1.13,3.093 2.83,3.093 1.49,0 2.58,-1.078 2.58,-2.562 0,-0.766 -0.23,-1.297 -0.95,-2.016 -0.46,-0.406 -0.63,-0.734 -0.63,-1.047 0,-1.078 2.25,-2.203 4.36,-2.203 3.02,0 4.81,1.672 4.81,4.453 0,4.016 -2.82,7.782 -5.84,7.782 -0.14,0 -0.55,-0.032 -1.03,-0.078 -1.31,-0.094 -1.31,-0.094 -1.58,-0.094 -1,0 -1.53,0.453 -1.53,1.265 0,0.719 0.5,1.157 1.3,1.157 0.23,0 0.54,-0.032 0.9,-0.078 0.63,-0.141 1.32,-0.188 1.71,-0.188 2.12,0 3.56,1.891 3.56,4.688 0,4.859 -2.39,9.531 -7.83,9.531 -2.52,0 -4.69,-1.25 -4.69,-2.703 0,-0.485 0.19,-0.672 0.91,-0.985 1.3,-0.578 1.84,-1.39 1.84,-2.609 0,-1.578 -1.26,-2.781 -2.87,-2.781 -1.94,0 -3.21,1.515 -3.21,3.859 0,4.375 3.33,7.109 8.74,7.109 6.8,0 11.97,-4.546 11.97,-10.578 0,-3.5 -2.16,-5.484 -5.31,-6.468"
     id="path206" />
  <polyline
     class="Tuplet"
     fill="none"
     stroke="#000000"
     stroke-width="2.48"
     stroke-linejoin="miter"
     stroke-miterlimit="2"
     points="1413.35,372.435 1413.35,353.835 1470.18,353.835"
     id="polyline207"
     transform="translate(-304.99387,-268.106)" />
  <polyline
     class="Tuplet"
     fill="none"
     stroke="#000000"
     stroke-width="2.48"
     stroke-linejoin="miter"
     stroke-miterlimit="2"
     points="1518.98,353.835 1575.8,353.835 1575.8,372.435"
     id="polyline208"
     transform="translate(-304.99387,-268.106)" />
  <path
     class="Tuplet"
     d="m 957.86612,84.854 c 2.13,-0.672 2.97,-1.047 4.05,-1.766 2.13,-1.391 3.42,-3.859 3.42,-6.391 0,-4.265 -3.42,-7.14 -8.45,-7.14 -4.91,0 -9.05,3.047 -9.05,6.75 0,1.843 1.13001,3.093 2.83,3.093 1.48,0 2.58,-1.078 2.58,-2.562 0,-0.766 -0.24,-1.297 -0.95,-2.016 -0.46,-0.406 -0.63,-0.734 -0.63,-1.047 0,-1.078 2.25,-2.203 4.36,-2.203 3.02,0 4.81,1.672 4.81,4.453 0,4.016 -2.83,7.782 -5.84,7.782 -0.14,0 -0.55,-0.032 -1.03,-0.078 -1.32,-0.094 -1.32,-0.094 -1.58,-0.094 -1,0 -1.53,0.453 -1.53,1.265 0,0.719 0.5,1.157 1.29,1.157 0.24,0 0.55,-0.032 0.91,-0.078 0.63,-0.141 1.31,-0.188 1.7,-0.188 2.13,0 3.57,1.891 3.57,4.688 0,4.859 -2.39,9.531 -7.83,9.531 -2.52,0 -4.69,-1.25 -4.69,-2.703 0,-0.485 0.19,-0.672 0.91,-0.985 1.29,-0.578 1.84,-1.39 1.84,-2.609 0,-1.578 -1.26,-2.781 -2.87,-2.781 -1.94,0 -3.21,1.515 -3.21,3.859 0,4.375 3.33,7.109 8.74,7.109 6.79,0 11.97,-4.546 11.97,-10.578 0,-3.5 -2.16,-5.484 -5.32,-6.468"
     id="path208" />
  <polyline
     class="Tuplet"
     fill="none"
     stroke="#000000"
     stroke-width="2.48"
     stroke-linejoin="miter"
     stroke-miterlimit="2"
     points="1184.43,372.435 1184.43,353.835 1234.17,353.835"
     id="polyline209"
     transform="translate(-304.99387,-268.106)" />
  <polyline
     class="Tuplet"
     fill="none"
     stroke="#000000"
     stroke-width="2.48"
     stroke-linejoin="miter"
     stroke-miterlimit="2"
     points="1282.97,353.835 1332.71,353.835 1332.71,372.435"
     id="polyline210"
     transform="translate(-304.99387,-268.106)" />
  <path
     class="Tuplet"
     d="m 1360.1661,84.854 c 2.13,-0.672 2.97,-1.047 4.05,-1.766 2.13,-1.391 3.42,-3.859 3.42,-6.391 0,-4.265 -3.42,-7.14 -8.45,-7.14 -4.91,0 -9.05,3.047 -9.05,6.75 0,1.843 1.13,3.093 2.83,3.093 1.48,0 2.58,-1.078 2.58,-2.562 0,-0.766 -0.24,-1.297 -0.95,-2.016 -0.46,-0.406 -0.63,-0.734 -0.63,-1.047 0,-1.078 2.25,-2.203 4.36,-2.203 3.02,0 4.81,1.672 4.81,4.453 0,4.016 -2.83,7.782 -5.84,7.782 -0.14,0 -0.55,-0.032 -1.03,-0.078 -1.32,-0.094 -1.32,-0.094 -1.58,-0.094 -1,0 -1.53,0.453 -1.53,1.265 0,0.719 0.5,1.157 1.29,1.157 0.24,0 0.55,-0.032 0.91,-0.078 0.63,-0.141 1.31,-0.188 1.7,-0.188 2.13,0 3.57,1.891 3.57,4.688 0,4.859 -2.39,9.531 -7.83,9.531 -2.52,0 -4.69,-1.25 -4.69,-2.703 0,-0.485 0.19,-0.672 0.91,-0.985 1.29,-0.578 1.84,-1.39 1.84,-2.609 0,-1.578 -1.26,-2.781 -2.87,-2.781 -1.94,0 -3.21,1.515 -3.21,3.859 0,4.375 3.33,7.109 8.74,7.109 6.79,0 11.97,-4.546 11.97,-10.578 0,-3.5 -2.16,-5.484 -5.32,-6.468"
     id="path210" />
  <polyline
     class="Tuplet"
     fill="none"
     stroke="#000000"
     stroke-width="2.48"
     stroke-linejoin="miter"
     stroke-miterlimit="2"
     points="1586.73,372.435 1586.73,353.835 1636.47,353.835"
     id="polyline211"
     transform="translate(-304.99387,-268.106)" />
  <polyline
     class="Tuplet"
     fill="none"
     stroke="#000000"
     stroke-width="2.48"
     stroke-linejoin="miter"
     stroke-miterlimit="2"
     points="1685.27,353.835 1735.01,353.835 1735.01,372.435"
     id="polyline212"
     transform="translate(-304.99387,-268.106)" />
  <path
     class="Tuplet"
     d="m 473.17813,84.854 c 2.125,-0.672 2.969,-1.047 4.047,-1.766 2.125,-1.391 3.422,-3.859 3.422,-6.391 0,-4.265 -3.422,-7.14 -8.454,-7.14 -4.906,0 -9.046,3.047 -9.046,6.75 0,1.843 1.125,3.093 2.828,3.093 1.484,0 2.578,-1.078 2.578,-2.562 0,-0.766 -0.23501,-1.297 -0.953,-2.016 -0.453,-0.406 -0.625,-0.734 -0.625,-1.047 0,-1.078 2.25,-2.203 4.359,-2.203 3.016,0 4.813,1.672 4.813,4.453 0,4.016 -2.829,7.782 -5.844,7.782 -0.141,0 -0.54701,-0.032 -1.031,-0.078 -1.313,-0.094 -1.313,-0.094 -1.579,-0.094 -1,0 -1.531,0.453 -1.531,1.265 0,0.719 0.5,1.157 1.297,1.157 0.234,0 0.547,-0.032 0.906,-0.078 0.625,-0.141 1.313,-0.188 1.703,-0.188 2.125,0 3.563,1.891 3.563,4.688 0,4.859 -2.391,9.531 -7.828,9.531 -2.516,0 -4.688,-1.25 -4.688,-2.703 0,-0.485 0.188,-0.672 0.907,-0.985 1.296,-0.578 1.843,-1.39 1.843,-2.609 0,-1.578 -1.265,-2.781 -2.875,-2.781 -1.937,0 -3.203,1.515 -3.203,3.859 0,4.375 3.328,7.109 8.735,7.109 6.796,0 11.968,-4.546 11.968,-10.578 0,-3.5 -2.156,-5.484 -5.312,-6.468"
     id="path212" />
  <polyline
     class="Tuplet"
     fill="none"
     stroke="#000000"
     stroke-width="2.48"
     stroke-linejoin="miter"
     stroke-miterlimit="2"
     points="692.649,372.435 692.649,353.835 749.475,353.835"
     id="polyline213"
     transform="translate(-304.99387,-268.106)" />
  <polyline
     class="Tuplet"
     fill="none"
     stroke="#000000"
     stroke-width="2.48"
     stroke-linejoin="miter"
     stroke-miterlimit="2"
     points="798.275,353.835 855.1,353.835 855.1,372.435"
     id="polyline214"
     transform="translate(-304.99387,-268.106)" />
  <path
     class="Tuplet"
     d="m 1519.3761,84.854 c 2.12,-0.672 2.96,-1.047 4.04,-1.766 2.13,-1.391 3.42,-3.859 3.42,-6.391 0,-4.265 -3.42,-7.14 -8.45,-7.14 -4.91,0 -9.05,3.047 -9.05,6.75 0,1.843 1.13,3.093 2.83,3.093 1.49,0 2.58,-1.078 2.58,-2.562 0,-0.766 -0.23,-1.297 -0.95,-2.016 -0.46,-0.406 -0.63,-0.734 -0.63,-1.047 0,-1.078 2.25,-2.203 4.36,-2.203 3.02,0 4.81,1.672 4.81,4.453 0,4.016 -2.82,7.782 -5.84,7.782 -0.14,0 -0.55,-0.032 -1.03,-0.078 -1.31,-0.094 -1.31,-0.094 -1.58,-0.094 -1,0 -1.53,0.453 -1.53,1.265 0,0.719 0.5,1.157 1.3,1.157 0.23,0 0.54,-0.032 0.9,-0.078 0.63,-0.141 1.32,-0.188 1.71,-0.188 2.12,0 3.56,1.891 3.56,4.688 0,4.859 -2.39,9.531 -7.83,9.531 -2.52,0 -4.69,-1.25 -4.69,-2.703 0,-0.485 0.19,-0.672 0.91,-0.985 1.3,-0.578 1.84,-1.39 1.84,-2.609 0,-1.578 -1.26,-2.781 -2.87,-2.781 -1.94,0 -3.21,1.515 -3.21,3.859 0,4.375 3.33,7.109 8.74,7.109 6.8,0 11.97,-4.546 11.97,-10.578 0,-3.5 -2.16,-5.484 -5.31,-6.468"
     id="path214" />
  <polyline
     class="Tuplet"
     fill="none"
     stroke="#000000"
     stroke-width="2.48"
     stroke-linejoin="miter"
     stroke-miterlimit="2"
     points="1745.93,372.435 1745.93,353.835 1795.67,353.835"
     id="polyline215"
     transform="translate(-304.99387,-268.106)" />
  <polyline
     class="Tuplet"
     fill="none"
     stroke="#000000"
     stroke-width="2.48"
     stroke-linejoin="miter"
     stroke-miterlimit="2"
     points="1844.47,353.835 1894.21,353.835 1894.21,372.435"
     id="polyline216"
     transform="translate(-304.99387,-268.106)" />
  <path
     class="Tuplet"
     d="m 1678.5761,84.854 c 2.12,-0.672 2.97,-1.047 4.04,-1.766 2.13,-1.391 3.43,-3.859 3.43,-6.391 0,-4.265 -3.43,-7.14 -8.46,-7.14 -4.9,0 -9.04,3.047 -9.04,6.75 0,1.843 1.12,3.093 2.82,3.093 1.49,0 2.58,-1.078 2.58,-2.562 0,-0.766 -0.23,-1.297 -0.95,-2.016 -0.45,-0.406 -0.63,-0.734 -0.63,-1.047 0,-1.078 2.25,-2.203 4.36,-2.203 3.02,0 4.82,1.672 4.82,4.453 0,4.016 -2.83,7.782 -5.85,7.782 -0.14,0 -0.54,-0.032 -1.03,-0.078 -1.31,-0.094 -1.31,-0.094 -1.58,-0.094 -1,0 -1.53,0.453 -1.53,1.265 0,0.719 0.5,1.157 1.3,1.157 0.23,0 0.55,-0.032 0.9,-0.078 0.63,-0.141 1.32,-0.188 1.71,-0.188 2.12,0 3.56,1.891 3.56,4.688 0,4.859 -2.39,9.531 -7.83,9.531 -2.51,0 -4.69,-1.25 -4.69,-2.703 0,-0.485 0.19,-0.672 0.91,-0.985 1.3,-0.578 1.84,-1.39 1.84,-2.609 0,-1.578 -1.26,-2.781 -2.87,-2.781 -1.94,0 -3.2,1.515 -3.2,3.859 0,4.375 3.32,7.109 8.73,7.109 6.8,0 11.97,-4.546 11.97,-10.578 0,-3.5 -2.16,-5.484 -5.31,-6.468"
     id="path216" />
  <polyline
     class="Tuplet"
     fill="none"
     stroke="#000000"
     stroke-width="2.48"
     stroke-linejoin="miter"
     stroke-miterlimit="2"
     points="1905.13,372.435 1905.13,353.835 1954.87,353.835"
     id="polyline217"
     transform="translate(-304.99387,-268.106)" />
  <polyline
     class="Tuplet"
     fill="none"
     stroke="#000000"
     stroke-width="2.48"
     stroke-linejoin="miter"
     stroke-miterlimit="2"
     points="2003.67,353.835 2053.41,353.835 2053.41,372.435"
     id="polyline218"
     transform="translate(-304.99387,-268.106)" />
  <path
     class="Tuplet"
     d="m 1918.8361,86.218 c 2.13,-0.672 2.97,-1.047 4.05,-1.766 2.13,-1.391 3.42,-3.859 3.42,-6.391 0,-4.265 -3.42,-7.14 -8.45,-7.14 -4.91,0 -9.05,3.047 -9.05,6.75 0,1.843 1.13,3.093 2.83,3.093 1.48,0 2.58,-1.078 2.58,-2.562 0,-0.766 -0.24,-1.297 -0.95,-2.016 -0.46,-0.406 -0.63,-0.734 -0.63,-1.047 0,-1.078 2.25,-2.203 4.36,-2.203 3.02,0 4.81,1.672 4.81,4.453 0,4.016 -2.83,7.782 -5.84,7.782 -0.14,0 -0.55,-0.032 -1.03,-0.078 -1.32,-0.094 -1.32,-0.094 -1.58,-0.094 -1,0 -1.53,0.453 -1.53,1.265 0,0.719 0.5,1.157 1.29,1.157 0.24,0 0.55,-0.032 0.91,-0.078 0.63,-0.141 1.31,-0.188 1.7,-0.188 2.13,0 3.57,1.891 3.57,4.688 0,4.859 -2.39,9.531 -7.83,9.531 -2.52,0 -4.69,-1.25 -4.69,-2.703 0,-0.485 0.19,-0.672 0.91,-0.985 1.29,-0.578 1.84,-1.39 1.84,-2.609 0,-1.578 -1.26,-2.781 -2.87,-2.781 -1.94,0 -3.21,1.515 -3.21,3.859 0,4.375 3.33,7.109 8.74,7.109 6.79,0 11.97,-4.546 11.97,-10.578 0,-3.5 -2.16,-5.484 -5.32,-6.468"
     id="path218" />
  <path
     class="Tuplet"
     d="m 2085.1261,86.218 c 2.13,-0.672 2.97,-1.047 4.05,-1.766 2.12,-1.391 3.42,-3.859 3.42,-6.391 0,-4.265 -3.42,-7.14 -8.45,-7.14 -4.91,0 -9.05,3.047 -9.05,6.75 0,1.843 1.13,3.093 2.83,3.093 1.48,0 2.58,-1.078 2.58,-2.562 0,-0.766 -0.24,-1.297 -0.96,-2.016 -0.45,-0.406 -0.62,-0.734 -0.62,-1.047 0,-1.078 2.25,-2.203 4.36,-2.203 3.01,0 4.81,1.672 4.81,4.453 0,4.016 -2.83,7.782 -5.84,7.782 -0.14,0 -0.55,-0.032 -1.03,-0.078 -1.32,-0.094 -1.32,-0.094 -1.58,-0.094 -1,0 -1.53,0.453 -1.53,1.265 0,0.719 0.5,1.157 1.29,1.157 0.24,0 0.55,-0.032 0.91,-0.078 0.62,-0.141 1.31,-0.188 1.7,-0.188 2.13,0 3.56,1.891 3.56,4.688 0,4.859 -2.39,9.531 -7.82,9.531 -2.52,0 -4.69,-1.25 -4.69,-2.703 0,-0.485 0.19,-0.672 0.91,-0.985 1.29,-0.578 1.84,-1.39 1.84,-2.609 0,-1.578 -1.27,-2.781 -2.88,-2.781 -1.93,0 -3.2,1.515 -3.2,3.859 0,4.375 3.33,7.109 8.74,7.109 6.79,0 11.96,-4.546 11.96,-10.578 0,-3.5 -2.15,-5.484 -5.31,-6.468"
     id="path219" />
  <path
     class="Tuplet"
     d="m 2255.9061,83.03 c 2.12,-0.672 2.97,-1.047 4.04,-1.766 2.13,-1.39 3.43,-3.859 3.43,-6.39 0,-4.266 -3.43,-7.141 -8.46,-7.141 -4.9,0 -9.04,3.047 -9.04,6.75 0,1.844 1.12,3.094 2.82,3.094 1.49,0 2.58,-1.078 2.58,-2.563 0,-0.765 -0.23,-1.297 -0.95,-2.015 -0.45,-0.407 -0.63,-0.735 -0.63,-1.047 0,-1.078 2.25,-2.203 4.36,-2.203 3.02,0 4.82,1.672 4.82,4.453 0,4.015 -2.83,7.781 -5.85,7.781 -0.14,0 -0.55,-0.031 -1.03,-0.078 -1.31,-0.094 -1.31,-0.094 -1.58,-0.094 -1,0 -1.53,0.453 -1.53,1.266 0,0.719 0.5,1.156 1.3,1.156 0.23,0 0.54,-0.031 0.9,-0.078 0.63,-0.141 1.32,-0.188 1.71,-0.188 2.12,0 3.56,1.891 3.56,4.688 0,4.859 -2.39,9.531 -7.83,9.531 -2.51,0 -4.69,-1.25 -4.69,-2.703 0,-0.484 0.19,-0.672 0.91,-0.984 1.3,-0.578 1.84,-1.391 1.84,-2.61 0,-1.578 -1.26,-2.781 -2.87,-2.781 -1.94,0 -3.2,1.516 -3.2,3.859 0,4.375 3.32,7.11 8.73,7.11 6.8,0 11.97,-4.547 11.97,-10.578 0,-3.5 -2.16,-5.485 -5.31,-6.469"
     id="path220" />
  <path
     class="Tuplet"
     d="m 2426.6761,83.118 c 2.13,-0.672 2.97,-1.047 4.05,-1.766 2.12,-1.391 3.42,-3.859 3.42,-6.391 0,-4.265 -3.42,-7.14 -8.45,-7.14 -4.91,0 -9.05,3.047 -9.05,6.75 0,1.843 1.13,3.093 2.83,3.093 1.48,0 2.58,-1.078 2.58,-2.562 0,-0.766 -0.24,-1.297 -0.96,-2.016 -0.45,-0.406 -0.62,-0.734 -0.62,-1.047 0,-1.078 2.25,-2.203 4.36,-2.203 3.01,0 4.81,1.672 4.81,4.453 0,4.016 -2.83,7.782 -5.84,7.782 -0.14,0 -0.55,-0.032 -1.03,-0.078 -1.32,-0.094 -1.32,-0.094 -1.58,-0.094 -1,0 -1.53,0.453 -1.53,1.265 0,0.719 0.5,1.157 1.29,1.157 0.24,0 0.55,-0.032 0.91,-0.078 0.62,-0.141 1.31,-0.188 1.7,-0.188 2.13,0 3.56,1.891 3.56,4.688 0,4.859 -2.39,9.531 -7.82,9.531 -2.52,0 -4.69,-1.25 -4.69,-2.703 0,-0.485 0.19,-0.672 0.91,-0.985 1.29,-0.578 1.84,-1.39 1.84,-2.609 0,-1.578 -1.27,-2.781 -2.88,-2.781 -1.93,0 -3.2,1.515 -3.2,3.859 0,4.375 3.33,7.109 8.74,7.109 6.79,0 11.96,-4.546 11.96,-10.578 0,-3.5 -2.15,-5.484 -5.31,-6.468"
     id="path221" />
  <path
     class="Tuplet"
     d="m 639.46613,84.854 c 2.125,-0.672 2.96799,-1.047 4.047,-1.766 2.125,-1.391 3.421,-3.859 3.421,-6.391 0,-4.265 -3.421,-7.14 -8.453,-7.14 -4.906,0 -9.047,3.047 -9.047,6.75 0,1.843 1.125,3.093 2.829,3.093 1.484,0 2.578,-1.078 2.578,-2.562 0,-0.766 -0.235,-1.297 -0.953,-2.016 -0.454,-0.406 -0.625,-0.734 -0.625,-1.047 0,-1.078 2.25,-2.203 4.359,-2.203 3.016,0 4.812,1.672 4.812,4.453 0,4.016 -2.828,7.782 -5.843,7.782 -0.141,0 -0.547,-0.032 -1.032,-0.078 -1.312,-0.094 -1.312,-0.094 -1.578,-0.094 -1,0 -1.531,0.453 -1.531,1.265 0,0.719 0.5,1.157 1.297,1.157 0.234,0 0.547,-0.032 0.906,-0.078 0.625,-0.141 1.313,-0.188 1.703,-0.188 2.125,0 3.563,1.891 3.563,4.688 0,4.859 -2.391,9.531 -7.828,9.531 -2.516,0 -4.688,-1.25 -4.688,-2.703 0,-0.485 0.188,-0.672 0.906,-0.985 1.297,-0.578 1.844,-1.39 1.844,-2.609 0,-1.578 -1.265,-2.781 -2.875,-2.781 -1.937,0 -3.203,1.515 -3.203,3.859 0,4.375 3.328,7.109 8.734,7.109 6.797,0 11.969,-4.546 11.969,-10.578 0,-3.5 -2.156,-5.484 -5.312,-6.468"
     id="path222" />
  <polyline
     class="Tuplet"
     fill="none"
     stroke="#000000"
     stroke-width="2.48"
     stroke-linejoin="miter"
     stroke-miterlimit="2"
     points="866.023,372.435 866.023,353.835 915.763,353.835"
     id="polyline222"
     transform="translate(-304.99387,-268.106)" />
  <polyline
     class="Tuplet"
     fill="none"
     stroke="#000000"
     stroke-width="2.48"
     stroke-linejoin="miter"
     stroke-miterlimit="2"
     points="964.563,353.835 1014.3,353.835 1014.3,372.435"
     id="polyline223"
     transform="translate(-304.99387,-268.106)" />
  <path
     class="Tempo"
     d="m 318.30912,0 h -3.265 v 42.266 c -1.094,-0.687 -2.485,-1.094 -4.06299,-1.281 -3.56201,0 -6.43701,0.39 -9.60901,2.172 -3.953,2.078 -8.313,6.437 -8.313,11.281 0,4.75 4.266,7.031 8.61,7.031 6.93701,0 16.64,-5.937 16.64,-13.469 V 0"
     id="path223" />
  <path
     class="Tempo"
     d="m 340.55912,37.954 h 30.235 v -6.907 h -30.235 v 6.907 m 0,12.359 h 30.235 v -6.906 h -30.235 v 6.906 m 55.5,-17.281 c -1.39,1.437 -1.562,1.734 -1.562,2.703 0,1.25 0.953,2.219 2.21901,2.219 1.312,0 2.45299,-1.079 2.45299,-2.407 0,-0.234 -0.047,-0.593 -0.11,-0.953 1.86,-1.5 4.141,-2.281 6.65701,-2.281 4.5,0 6.78099,3.297 6.78099,9.781 0,7.313 -2.578,11.156 -7.375,11.156 -2.703,0 -5.28099,-1.265 -5.28099,-2.515 0,-0.36 0.172,-0.547 0.71799,-0.844 2.391,-1.141 3.235,-2.281 3.235,-4.328 0,-3 -2.047,-4.906 -5.094,-4.906 -3.484,0 -5.766,2.39 -5.766,6.109 0,6 5.40701,9.906 13.688,9.906 9.828,0 16.547,-6 16.547,-14.89 0,-7.797 -6.297,-13.547 -14.93799,-13.547 -2.81201,0 -4.60901,0.469 -8.64,2.281 l 0.90599,-7.75 c 2.875,0.609 5.21901,0.906 7.562,0.906 4.96901,0 9.11,-1.687 11.329,-4.625 1.14,-1.5 2.046,-3.718 2.046,-5.031 0,-0.422 -0.187,-0.672 -0.484,-0.672 -0.234,0 -0.594,0.063 -0.953,0.188 -2.15599,0.531 -6.063,0.843 -10.859,0.843 -5.047,0 -8.047,-0.25 -11.704,-1.031 -0.296,5.047 -0.296,5.531 -1.015,15.36 l -0.36,4.328 m 46.67201,-19.688 c -9,0 -15.593,9.188 -15.593,21.672 0,12.469 6.593,21.656 15.593,21.656 8.81299,0 15.547,-9.187 15.547,-21.359 0,-7.078 -1.625,-12.297 -5.172,-16.75 -2.81201,-3.406 -6.35901,-5.219 -10.375,-5.219 m -0.062,3.125 c 1.79701,0 3.25,1.078 3.906,3 0.781,1.985 1.25,8.281 1.25,15.719 0,6.187 -0.469,12.656 -1.016,14.703 -0.65599,2.391 -2.09299,3.656 -4.14,3.656 -1.86,0 -3.235,-1.015 -3.95299,-3 -0.78201,-1.984 -1.266,-8.343 -1.266,-15.531 0,-6.312 0.484,-12.844 1.016,-14.891 0.672,-2.39 2.109,-3.656 4.20299,-3.656"
     id="path224" />
  <path
     class="Bracket"
     d="m 3.596,297.893 c 6.46158,-6.85505 19.04758,-20.84565 19.04758,-46.748 0,-32.7574 -14.0468745,-65.85175 -14.0468745,-86.304 0,-21.9694 12.5859995,-42.47775 13.3164195,-43.152 0,-0.3934 0,-0.3934 0,-0.73035 0,-0.3934 0,-0.7307 -0.337125,-1.06765 -0.393295,0 -1.12375,0 -1.460875,0.67425 -0.337125,0.3934 -19.778,19.778 -19.778,49.27635 0,31.63365 12.586,53.94 12.586,95.294 0,7.92235 -3.258875,20.50835 -12.248875,31.68975 -0.337125,0 -0.337125,0.67425 -0.67425,1.06765 0,0.33695 0.337125,0.73035 0.67425,1.06765 8.99,11.12495 12.248875,23.71095 12.248875,31.6333 0,41.354 -12.586,63.6607 -12.586,95.294 0,29.16147 19.440875,48.93949 19.778,49.27661 0.337125,0.73044 1.06758,1.06756 1.460875,0.73044 0.337125,-0.33713 0.67425,-0.73044 0.337125,-1.06756 0,0 0,-0.39332 0,-0.73044 -0.73042,-0.73046 -13.3164195,-21.23888 -13.3164195,-43.152 0,-20.50835 14.0468745,-53.60305 14.0468745,-86.304 0,-26.23965 -12.586,-39.9494 -19.04758,-46.748"
     id="path225"
     style="stroke-width:3.596" />
</svg>
