<?xml version="1.0" encoding="UTF-8" standalone="no"?>
<svg
   width="2510.801"
   height="329.41953"
   viewBox="0 0 2510.801 329.41953"
   version="1.2"
   id="svg175"
   sodipodi:docname="preludeinc.svg"
   inkscape:version="1.3.2 (091e20ef0f, 2023-11-25)"
   xmlns:inkscape="http://www.inkscape.org/namespaces/inkscape"
   xmlns:sodipodi="http://sodipodi.sourceforge.net/DTD/sodipodi-0.dtd"
   xmlns="http://www.w3.org/2000/svg"
   xmlns:svg="http://www.w3.org/2000/svg">
  <defs
     id="defs175" />
  <sodipodi:namedview
     id="namedview175"
     pagecolor="#ffffff"
     bordercolor="#000000"
     borderopacity="0.25"
     inkscape:showpageshadow="2"
     inkscape:pageopacity="0.0"
     inkscape:pagecheckerboard="0"
     inkscape:deskcolor="#d1d1d1"
     inkscape:zoom="0.20530303"
     inkscape:cx="1193.3579"
     inkscape:cy="1697.4908"
     inkscape:window-width="1920"
     inkscape:window-height="1011"
     inkscape:window-x="0"
     inkscape:window-y="32"
     inkscape:window-maximized="1"
     inkscape:current-layer="svg175" />
  <title
     id="title1">Bach_Prelude_in_C_BWV_847a - selection</title>
  <desc
     id="desc1">Generated by MuseScore Studio 4.4.3</desc>
  <polyline
     class="StaffLines"
     fill="none"
     stroke="#000000"
     stroke-width="2.73"
     stroke-linejoin="bevel"
     points="336.599,386.199 2847.4,386.199"
     id="polyline1"
     transform="translate(-336.599,-280.77)" />
  <polyline
     class="StaffLines"
     fill="none"
     stroke="#000000"
     stroke-width="2.73"
     stroke-linejoin="bevel"
     points="336.599,410.999 2847.4,410.999"
     id="polyline2"
     transform="translate(-336.599,-280.77)" />
  <polyline
     class="StaffLines"
     fill="none"
     stroke="#000000"
     stroke-width="2.73"
     stroke-linejoin="bevel"
     points="336.599,435.799 2847.4,435.799"
     id="polyline3"
     transform="translate(-336.599,-280.77)" />
  <polyline
     class="StaffLines"
     fill="none"
     stroke="#000000"
     stroke-width="2.73"
     stroke-linejoin="bevel"
     points="336.599,460.599 2847.4,460.599"
     id="polyline4"
     transform="translate(-336.599,-280.77)" />
  <polyline
     class="StaffLines"
     fill="none"
     stroke="#000000"
     stroke-width="2.73"
     stroke-linejoin="bevel"
     points="336.599,485.399 2847.4,485.399"
     id="polyline5"
     transform="translate(-336.599,-280.77)" />
  <polyline
     class="BarLine"
     fill="none"
     stroke="#000000"
     stroke-width="4.46"
     stroke-linejoin="bevel"
     points="2822.35,384.835 2822.35,486.763"
     id="polyline6"
     transform="translate(-336.599,-280.77)" />
  <polyline
     class="BarLine"
     fill="none"
     stroke="#000000"
     stroke-width="13.64"
     stroke-linejoin="bevel"
     points="2840.58,384.835 2840.58,486.763"
     id="polyline7"
     transform="translate(-336.599,-280.77)" />
  <polyline
     class="BarLine"
     fill="none"
     stroke="#000000"
     stroke-width="4.46"
     stroke-linejoin="bevel"
     points="1709.27,384.835 1709.27,486.763"
     id="polyline8"
     transform="translate(-336.599,-280.77)" />
  <polyline
     class="LedgerLine"
     fill="none"
     stroke="#000000"
     stroke-width="3.97"
     stroke-linejoin="bevel"
     points="1868.74,510.199 1917.33,510.199"
     id="polyline9"
     transform="translate(-336.599,-280.77)" />
  <polyline
     class="LedgerLine"
     fill="none"
     stroke="#000000"
     stroke-width="3.97"
     stroke-linejoin="bevel"
     points="1293.36,510.199 1341.95,510.199"
     id="polyline10"
     transform="translate(-336.599,-280.77)" />
  <polyline
     class="LedgerLine"
     fill="none"
     stroke="#000000"
     stroke-width="3.97"
     stroke-linejoin="bevel"
     points="1801.53,534.999 1850.12,534.999"
     id="polyline11"
     transform="translate(-336.599,-280.77)" />
  <polyline
     class="LedgerLine"
     fill="none"
     stroke="#000000"
     stroke-width="3.97"
     stroke-linejoin="bevel"
     points="1801.53,510.199 1850.12,510.199"
     id="polyline12"
     transform="translate(-336.599,-280.77)" />
  <polyline
     class="LedgerLine"
     fill="none"
     stroke="#000000"
     stroke-width="3.97"
     stroke-linejoin="bevel"
     points="2675.3,510.199 2723.89,510.199"
     id="polyline13"
     transform="translate(-336.599,-280.77)" />
  <polyline
     class="LedgerLine"
     fill="none"
     stroke="#000000"
     stroke-width="3.97"
     stroke-linejoin="bevel"
     points="1734.31,584.599 1782.91,584.599"
     id="polyline14"
     transform="translate(-336.599,-280.77)" />
  <polyline
     class="LedgerLine"
     fill="none"
     stroke="#000000"
     stroke-width="3.97"
     stroke-linejoin="bevel"
     points="1734.31,559.799 1782.91,559.799"
     id="polyline15"
     transform="translate(-336.599,-280.77)" />
  <polyline
     class="LedgerLine"
     fill="none"
     stroke="#000000"
     stroke-width="3.97"
     stroke-linejoin="bevel"
     points="1734.31,534.999 1782.91,534.999"
     id="polyline16"
     transform="translate(-336.599,-280.77)" />
  <polyline
     class="LedgerLine"
     fill="none"
     stroke="#000000"
     stroke-width="3.97"
     stroke-linejoin="bevel"
     points="1734.31,510.199 1782.91,510.199"
     id="polyline17"
     transform="translate(-336.599,-280.77)" />
  <polyline
     class="LedgerLine"
     fill="none"
     stroke="#000000"
     stroke-width="3.97"
     stroke-linejoin="bevel"
     points="1629.43,534.999 1678.02,534.999"
     id="polyline18"
     transform="translate(-336.599,-280.77)" />
  <polyline
     class="LedgerLine"
     fill="none"
     stroke="#000000"
     stroke-width="3.97"
     stroke-linejoin="bevel"
     points="1629.43,510.199 1678.02,510.199"
     id="polyline19"
     transform="translate(-336.599,-280.77)" />
  <polyline
     class="LedgerLine"
     fill="none"
     stroke="#000000"
     stroke-width="3.97"
     stroke-linejoin="bevel"
     points="1562.21,559.799 1610.8,559.799"
     id="polyline20"
     transform="translate(-336.599,-280.77)" />
  <polyline
     class="LedgerLine"
     fill="none"
     stroke="#000000"
     stroke-width="3.97"
     stroke-linejoin="bevel"
     points="1562.21,534.999 1610.8,534.999"
     id="polyline21"
     transform="translate(-336.599,-280.77)" />
  <polyline
     class="LedgerLine"
     fill="none"
     stroke="#000000"
     stroke-width="3.97"
     stroke-linejoin="bevel"
     points="1562.21,510.199 1610.8,510.199"
     id="polyline22"
     transform="translate(-336.599,-280.77)" />
  <polyline
     class="LedgerLine"
     fill="none"
     stroke="#000000"
     stroke-width="3.97"
     stroke-linejoin="bevel"
     points="1495,534.999 1543.59,534.999"
     id="polyline23"
     transform="translate(-336.599,-280.77)" />
  <polyline
     class="LedgerLine"
     fill="none"
     stroke="#000000"
     stroke-width="3.97"
     stroke-linejoin="bevel"
     points="1495,510.199 1543.59,510.199"
     id="polyline24"
     transform="translate(-336.599,-280.77)" />
  <polyline
     class="LedgerLine"
     fill="none"
     stroke="#000000"
     stroke-width="3.97"
     stroke-linejoin="bevel"
     points="2675.3,534.999 2723.89,534.999"
     id="polyline25"
     transform="translate(-336.599,-280.77)" />
  <polyline
     class="LedgerLine"
     fill="none"
     stroke="#000000"
     stroke-width="3.97"
     stroke-linejoin="bevel"
     points="1427.79,559.799 1476.38,559.799"
     id="polyline26"
     transform="translate(-336.599,-280.77)" />
  <polyline
     class="LedgerLine"
     fill="none"
     stroke="#000000"
     stroke-width="3.97"
     stroke-linejoin="bevel"
     points="1427.79,534.999 1476.38,534.999"
     id="polyline27"
     transform="translate(-336.599,-280.77)" />
  <polyline
     class="LedgerLine"
     fill="none"
     stroke="#000000"
     stroke-width="3.97"
     stroke-linejoin="bevel"
     points="1427.79,510.199 1476.38,510.199"
     id="polyline28"
     transform="translate(-336.599,-280.77)" />
  <polyline
     class="LedgerLine"
     fill="none"
     stroke="#000000"
     stroke-width="3.97"
     stroke-linejoin="bevel"
     points="1360.57,534.999 1409.16,534.999"
     id="polyline29"
     transform="translate(-336.599,-280.77)" />
  <polyline
     class="LedgerLine"
     fill="none"
     stroke="#000000"
     stroke-width="3.97"
     stroke-linejoin="bevel"
     points="1360.57,510.199 1409.16,510.199"
     id="polyline30"
     transform="translate(-336.599,-280.77)" />
  <polyline
     class="LedgerLine"
     fill="none"
     stroke="#000000"
     stroke-width="3.97"
     stroke-linejoin="bevel"
     points="1293.36,559.799 1341.95,559.799"
     id="polyline31"
     transform="translate(-336.599,-280.77)" />
  <polyline
     class="LedgerLine"
     fill="none"
     stroke="#000000"
     stroke-width="3.97"
     stroke-linejoin="bevel"
     points="1293.36,534.999 1341.95,534.999"
     id="polyline32"
     transform="translate(-336.599,-280.77)" />
  <polyline
     class="LedgerLine"
     fill="none"
     stroke="#000000"
     stroke-width="3.97"
     stroke-linejoin="bevel"
     points="2608.09,510.199 2656.68,510.199"
     id="polyline33"
     transform="translate(-336.599,-280.77)" />
  <polyline
     class="LedgerLine"
     fill="none"
     stroke="#000000"
     stroke-width="3.97"
     stroke-linejoin="bevel"
     points="2272.02,534.999 2320.61,534.999"
     id="polyline34"
     transform="translate(-336.599,-280.77)" />
  <polyline
     class="LedgerLine"
     fill="none"
     stroke="#000000"
     stroke-width="3.97"
     stroke-linejoin="bevel"
     points="2608.09,534.999 2656.68,534.999"
     id="polyline35"
     transform="translate(-336.599,-280.77)" />
  <polyline
     class="LedgerLine"
     fill="none"
     stroke="#000000"
     stroke-width="3.97"
     stroke-linejoin="bevel"
     points="2540.87,559.799 2589.47,559.799"
     id="polyline36"
     transform="translate(-336.599,-280.77)" />
  <polyline
     class="LedgerLine"
     fill="none"
     stroke="#000000"
     stroke-width="3.97"
     stroke-linejoin="bevel"
     points="2540.87,534.999 2589.47,534.999"
     id="polyline37"
     transform="translate(-336.599,-280.77)" />
  <polyline
     class="LedgerLine"
     fill="none"
     stroke="#000000"
     stroke-width="3.97"
     stroke-linejoin="bevel"
     points="2540.87,510.199 2589.47,510.199"
     id="polyline38"
     transform="translate(-336.599,-280.77)" />
  <polyline
     class="LedgerLine"
     fill="none"
     stroke="#000000"
     stroke-width="3.97"
     stroke-linejoin="bevel"
     points="2473.66,534.999 2522.25,534.999"
     id="polyline39"
     transform="translate(-336.599,-280.77)" />
  <polyline
     class="LedgerLine"
     fill="none"
     stroke="#000000"
     stroke-width="3.97"
     stroke-linejoin="bevel"
     points="2473.66,510.199 2522.25,510.199"
     id="polyline40"
     transform="translate(-336.599,-280.77)" />
  <polyline
     class="LedgerLine"
     fill="none"
     stroke="#000000"
     stroke-width="3.97"
     stroke-linejoin="bevel"
     points="2406.45,534.999 2455.04,534.999"
     id="polyline41"
     transform="translate(-336.599,-280.77)" />
  <polyline
     class="LedgerLine"
     fill="none"
     stroke="#000000"
     stroke-width="3.97"
     stroke-linejoin="bevel"
     points="2406.45,510.199 2455.04,510.199"
     id="polyline42"
     transform="translate(-336.599,-280.77)" />
  <polyline
     class="LedgerLine"
     fill="none"
     stroke="#000000"
     stroke-width="3.97"
     stroke-linejoin="bevel"
     points="2339.23,534.999 2387.83,534.999"
     id="polyline43"
     transform="translate(-336.599,-280.77)" />
  <polyline
     class="LedgerLine"
     fill="none"
     stroke="#000000"
     stroke-width="3.97"
     stroke-linejoin="bevel"
     points="2339.23,510.199 2387.83,510.199"
     id="polyline44"
     transform="translate(-336.599,-280.77)" />
  <polyline
     class="LedgerLine"
     fill="none"
     stroke="#000000"
     stroke-width="3.97"
     stroke-linejoin="bevel"
     points="2272.02,584.599 2320.61,584.599"
     id="polyline45"
     transform="translate(-336.599,-280.77)" />
  <polyline
     class="LedgerLine"
     fill="none"
     stroke="#000000"
     stroke-width="3.97"
     stroke-linejoin="bevel"
     points="2272.02,559.799 2320.61,559.799"
     id="polyline46"
     transform="translate(-336.599,-280.77)" />
  <polyline
     class="LedgerLine"
     fill="none"
     stroke="#000000"
     stroke-width="3.97"
     stroke-linejoin="bevel"
     points="1868.74,534.999 1917.33,534.999"
     id="polyline47"
     transform="translate(-336.599,-280.77)" />
  <polyline
     class="LedgerLine"
     fill="none"
     stroke="#000000"
     stroke-width="3.97"
     stroke-linejoin="bevel"
     points="2272.02,510.199 2320.61,510.199"
     id="polyline48"
     transform="translate(-336.599,-280.77)" />
  <polyline
     class="LedgerLine"
     fill="none"
     stroke="#000000"
     stroke-width="3.97"
     stroke-linejoin="bevel"
     points="2204.81,534.999 2253.4,534.999"
     id="polyline49"
     transform="translate(-336.599,-280.77)" />
  <polyline
     class="LedgerLine"
     fill="none"
     stroke="#000000"
     stroke-width="3.97"
     stroke-linejoin="bevel"
     points="2204.81,510.199 2253.4,510.199"
     id="polyline50"
     transform="translate(-336.599,-280.77)" />
  <polyline
     class="LedgerLine"
     fill="none"
     stroke="#000000"
     stroke-width="3.97"
     stroke-linejoin="bevel"
     points="2137.59,534.999 2186.19,534.999"
     id="polyline51"
     transform="translate(-336.599,-280.77)" />
  <polyline
     class="LedgerLine"
     fill="none"
     stroke="#000000"
     stroke-width="3.97"
     stroke-linejoin="bevel"
     points="2137.59,510.199 2186.19,510.199"
     id="polyline52"
     transform="translate(-336.599,-280.77)" />
  <polyline
     class="LedgerLine"
     fill="none"
     stroke="#000000"
     stroke-width="3.97"
     stroke-linejoin="bevel"
     points="2070.38,534.999 2118.97,534.999"
     id="polyline53"
     transform="translate(-336.599,-280.77)" />
  <polyline
     class="LedgerLine"
     fill="none"
     stroke="#000000"
     stroke-width="3.97"
     stroke-linejoin="bevel"
     points="2070.38,510.199 2118.97,510.199"
     id="polyline54"
     transform="translate(-336.599,-280.77)" />
  <polyline
     class="LedgerLine"
     fill="none"
     stroke="#000000"
     stroke-width="3.97"
     stroke-linejoin="bevel"
     points="2003.17,559.799 2051.76,559.799"
     id="polyline55"
     transform="translate(-336.599,-280.77)" />
  <polyline
     class="LedgerLine"
     fill="none"
     stroke="#000000"
     stroke-width="3.97"
     stroke-linejoin="bevel"
     points="2003.17,534.999 2051.76,534.999"
     id="polyline56"
     transform="translate(-336.599,-280.77)" />
  <polyline
     class="LedgerLine"
     fill="none"
     stroke="#000000"
     stroke-width="3.97"
     stroke-linejoin="bevel"
     points="2003.17,510.199 2051.76,510.199"
     id="polyline57"
     transform="translate(-336.599,-280.77)" />
  <polyline
     class="LedgerLine"
     fill="none"
     stroke="#000000"
     stroke-width="3.97"
     stroke-linejoin="bevel"
     points="1935.95,534.999 1984.55,534.999"
     id="polyline58"
     transform="translate(-336.599,-280.77)" />
  <polyline
     class="LedgerLine"
     fill="none"
     stroke="#000000"
     stroke-width="3.97"
     stroke-linejoin="bevel"
     points="1935.95,510.199 1984.55,510.199"
     id="polyline59"
     transform="translate(-336.599,-280.77)" />
  <polyline
     class="LedgerLine"
     fill="none"
     stroke="#000000"
     stroke-width="3.97"
     stroke-linejoin="bevel"
     points="1024.51,510.199 1073.1,510.199"
     id="polyline60"
     transform="translate(-336.599,-280.77)" />
  <polyline
     class="LedgerLine"
     fill="none"
     stroke="#000000"
     stroke-width="3.97"
     stroke-linejoin="bevel"
     points="621.225,534.999 669.818,534.999"
     id="polyline61"
     transform="translate(-336.599,-280.77)" />
  <polyline
     class="LedgerLine"
     fill="none"
     stroke="#000000"
     stroke-width="3.97"
     stroke-linejoin="bevel"
     points="822.865,510.199 871.458,510.199"
     id="polyline62"
     transform="translate(-336.599,-280.77)" />
  <polyline
     class="LedgerLine"
     fill="none"
     stroke="#000000"
     stroke-width="3.97"
     stroke-linejoin="bevel"
     points="1091.72,510.199 1140.31,510.199"
     id="polyline63"
     transform="translate(-336.599,-280.77)" />
  <polyline
     class="LedgerLine"
     fill="none"
     stroke="#000000"
     stroke-width="3.97"
     stroke-linejoin="bevel"
     points="621.225,559.799 669.818,559.799"
     id="polyline64"
     transform="translate(-336.599,-280.77)" />
  <polyline
     class="LedgerLine"
     fill="none"
     stroke="#000000"
     stroke-width="3.97"
     stroke-linejoin="bevel"
     points="621.225,584.599 669.818,584.599"
     id="polyline65"
     transform="translate(-336.599,-280.77)" />
  <polyline
     class="LedgerLine"
     fill="none"
     stroke="#000000"
     stroke-width="3.97"
     stroke-linejoin="bevel"
     points="1024.51,559.799 1073.1,559.799"
     id="polyline66"
     transform="translate(-336.599,-280.77)" />
  <polyline
     class="LedgerLine"
     fill="none"
     stroke="#000000"
     stroke-width="3.97"
     stroke-linejoin="bevel"
     points="1024.51,534.999 1073.1,534.999"
     id="polyline67"
     transform="translate(-336.599,-280.77)" />
  <polyline
     class="LedgerLine"
     fill="none"
     stroke="#000000"
     stroke-width="3.97"
     stroke-linejoin="bevel"
     points="822.865,534.999 871.458,534.999"
     id="polyline68"
     transform="translate(-336.599,-280.77)" />
  <polyline
     class="LedgerLine"
     fill="none"
     stroke="#000000"
     stroke-width="3.97"
     stroke-linejoin="bevel"
     points="1091.72,534.999 1140.31,534.999"
     id="polyline69"
     transform="translate(-336.599,-280.77)" />
  <polyline
     class="LedgerLine"
     fill="none"
     stroke="#000000"
     stroke-width="3.97"
     stroke-linejoin="bevel"
     points="2742.51,510.199 2791.11,510.199"
     id="polyline70"
     transform="translate(-336.599,-280.77)" />
  <polyline
     class="LedgerLine"
     fill="none"
     stroke="#000000"
     stroke-width="3.97"
     stroke-linejoin="bevel"
     points="957.292,534.999 1005.88,534.999"
     id="polyline71"
     transform="translate(-336.599,-280.77)" />
  <polyline
     class="LedgerLine"
     fill="none"
     stroke="#000000"
     stroke-width="3.97"
     stroke-linejoin="bevel"
     points="957.292,510.199 1005.88,510.199"
     id="polyline72"
     transform="translate(-336.599,-280.77)" />
  <polyline
     class="LedgerLine"
     fill="none"
     stroke="#000000"
     stroke-width="3.97"
     stroke-linejoin="bevel"
     points="890.079,510.199 938.671,510.199"
     id="polyline73"
     transform="translate(-336.599,-280.77)" />
  <polyline
     class="LedgerLine"
     fill="none"
     stroke="#000000"
     stroke-width="3.97"
     stroke-linejoin="bevel"
     points="890.079,534.999 938.671,534.999"
     id="polyline74"
     transform="translate(-336.599,-280.77)" />
  <polyline
     class="LedgerLine"
     fill="none"
     stroke="#000000"
     stroke-width="3.97"
     stroke-linejoin="bevel"
     points="890.079,559.799 938.671,559.799"
     id="polyline75"
     transform="translate(-336.599,-280.77)" />
  <polyline
     class="LedgerLine"
     fill="none"
     stroke="#000000"
     stroke-width="3.97"
     stroke-linejoin="bevel"
     points="2742.51,534.999 2791.11,534.999"
     id="polyline76"
     transform="translate(-336.599,-280.77)" />
  <polyline
     class="LedgerLine"
     fill="none"
     stroke="#000000"
     stroke-width="3.97"
     stroke-linejoin="bevel"
     points="1158.93,510.199 1207.52,510.199"
     id="polyline77"
     transform="translate(-336.599,-280.77)" />
  <polyline
     class="LedgerLine"
     fill="none"
     stroke="#000000"
     stroke-width="3.97"
     stroke-linejoin="bevel"
     points="688.439,534.999 737.031,534.999"
     id="polyline78"
     transform="translate(-336.599,-280.77)" />
  <polyline
     class="LedgerLine"
     fill="none"
     stroke="#000000"
     stroke-width="3.97"
     stroke-linejoin="bevel"
     points="1226.15,534.999 1274.74,534.999"
     id="polyline79"
     transform="translate(-336.599,-280.77)" />
  <polyline
     class="LedgerLine"
     fill="none"
     stroke="#000000"
     stroke-width="3.97"
     stroke-linejoin="bevel"
     points="1226.15,510.199 1274.74,510.199"
     id="polyline80"
     transform="translate(-336.599,-280.77)" />
  <polyline
     class="LedgerLine"
     fill="none"
     stroke="#000000"
     stroke-width="3.97"
     stroke-linejoin="bevel"
     points="688.439,510.199 737.031,510.199"
     id="polyline81"
     transform="translate(-336.599,-280.77)" />
  <polyline
     class="LedgerLine"
     fill="none"
     stroke="#000000"
     stroke-width="3.97"
     stroke-linejoin="bevel"
     points="755.652,510.199 804.245,510.199"
     id="polyline82"
     transform="translate(-336.599,-280.77)" />
  <polyline
     class="LedgerLine"
     fill="none"
     stroke="#000000"
     stroke-width="3.97"
     stroke-linejoin="bevel"
     points="755.652,534.999 804.245,534.999"
     id="polyline83"
     transform="translate(-336.599,-280.77)" />
  <polyline
     class="LedgerLine"
     fill="none"
     stroke="#000000"
     stroke-width="3.97"
     stroke-linejoin="bevel"
     points="755.652,559.799 804.245,559.799"
     id="polyline84"
     transform="translate(-336.599,-280.77)" />
  <polyline
     class="LedgerLine"
     fill="none"
     stroke="#000000"
     stroke-width="3.97"
     stroke-linejoin="bevel"
     points="1158.93,584.599 1207.52,584.599"
     id="polyline85"
     transform="translate(-336.599,-280.77)" />
  <polyline
     class="LedgerLine"
     fill="none"
     stroke="#000000"
     stroke-width="3.97"
     stroke-linejoin="bevel"
     points="1158.93,559.799 1207.52,559.799"
     id="polyline86"
     transform="translate(-336.599,-280.77)" />
  <polyline
     class="LedgerLine"
     fill="none"
     stroke="#000000"
     stroke-width="3.97"
     stroke-linejoin="bevel"
     points="621.225,510.199 669.818,510.199"
     id="polyline87"
     transform="translate(-336.599,-280.77)" />
  <polyline
     class="LedgerLine"
     fill="none"
     stroke="#000000"
     stroke-width="3.97"
     stroke-linejoin="bevel"
     points="1158.93,534.999 1207.52,534.999"
     id="polyline88"
     transform="translate(-336.599,-280.77)" />
  <polyline
     class="Stem"
     fill="none"
     stroke="#000000"
     stroke-width="2.48"
     stroke-linejoin="bevel"
     points="727.607,543.431 727.607,441.999"
     id="polyline89"
     transform="translate(-336.599,-280.77)" />
  <polyline
     class="Stem"
     fill="none"
     stroke="#000000"
     stroke-width="2.48"
     stroke-linejoin="bevel"
     points="2714.47,543.431 2714.47,441.999"
     id="polyline90"
     transform="translate(-336.599,-280.77)" />
  <polyline
     class="Stem"
     fill="none"
     stroke="#000000"
     stroke-width="2.48"
     stroke-linejoin="bevel"
     points="2243.98,531.031 2243.98,441.999"
     id="polyline91"
     transform="translate(-336.599,-280.77)" />
  <polyline
     class="Stem"
     fill="none"
     stroke="#000000"
     stroke-width="2.48"
     stroke-linejoin="bevel"
     points="2109.55,531.031 2109.55,441.999"
     id="polyline92"
     transform="translate(-336.599,-280.77)" />
  <polyline
     class="Stem"
     fill="none"
     stroke="#000000"
     stroke-width="2.48"
     stroke-linejoin="bevel"
     points="929.247,568.231 929.247,441.999"
     id="polyline93"
     transform="translate(-336.599,-280.77)" />
  <polyline
     class="Stem"
     fill="none"
     stroke="#000000"
     stroke-width="2.48"
     stroke-linejoin="bevel"
     points="1332.53,555.831 1332.53,441.999"
     id="polyline94"
     transform="translate(-336.599,-280.77)" />
  <polyline
     class="Stem"
     fill="none"
     stroke="#000000"
     stroke-width="2.48"
     stroke-linejoin="bevel"
     points="2042.34,555.831 2042.34,441.999"
     id="polyline95"
     transform="translate(-336.599,-280.77)" />
  <polyline
     class="Stem"
     fill="none"
     stroke="#000000"
     stroke-width="2.48"
     stroke-linejoin="bevel"
     points="2311.19,593.031 2311.19,441.999"
     id="polyline96"
     transform="translate(-336.599,-280.77)" />
  <polyline
     class="Stem"
     fill="none"
     stroke="#000000"
     stroke-width="2.48"
     stroke-linejoin="bevel"
     points="794.821,555.831 794.821,441.999"
     id="polyline97"
     transform="translate(-336.599,-280.77)" />
  <polyline
     class="Stem"
     fill="none"
     stroke="#000000"
     stroke-width="2.48"
     stroke-linejoin="bevel"
     points="2176.76,543.431 2176.76,441.999"
     id="polyline98"
     transform="translate(-336.599,-280.77)" />
  <polyline
     class="Stem"
     fill="none"
     stroke="#000000"
     stroke-width="2.48"
     stroke-linejoin="bevel"
     points="1975.12,531.031 1975.12,441.999"
     id="polyline99"
     transform="translate(-336.599,-280.77)" />
  <polyline
     class="Stem"
     fill="none"
     stroke="#000000"
     stroke-width="2.48"
     stroke-linejoin="bevel"
     points="2445.62,543.431 2445.62,441.999"
     id="polyline100"
     transform="translate(-336.599,-280.77)" />
  <polyline
     class="Stem"
     fill="none"
     stroke="#000000"
     stroke-width="2.48"
     stroke-linejoin="bevel"
     points="862.034,543.431 862.034,441.999"
     id="polyline101"
     transform="translate(-336.599,-280.77)" />
  <polyline
     class="Stem"
     fill="none"
     stroke="#000000"
     stroke-width="2.48"
     stroke-linejoin="bevel"
     points="2378.4,531.031 2378.4,441.999"
     id="polyline102"
     transform="translate(-336.599,-280.77)" />
  <polyline
     class="Stem"
     fill="none"
     stroke="#000000"
     stroke-width="2.48"
     stroke-linejoin="bevel"
     points="1130.89,543.431 1130.89,441.999"
     id="polyline103"
     transform="translate(-336.599,-280.77)" />
  <polyline
     class="Stem"
     fill="none"
     stroke="#000000"
     stroke-width="2.48"
     stroke-linejoin="bevel"
     points="1466.95,568.231 1466.95,441.999"
     id="polyline104"
     transform="translate(-336.599,-280.77)" />
  <polyline
     class="Stem"
     fill="none"
     stroke="#000000"
     stroke-width="2.48"
     stroke-linejoin="bevel"
     points="660.394,593.031 660.394,441.999"
     id="polyline105"
     transform="translate(-336.599,-280.77)" />
  <polyline
     class="Stem"
     fill="none"
     stroke="#000000"
     stroke-width="2.48"
     stroke-linejoin="bevel"
     points="1534.17,543.431 1534.17,441.999"
     id="polyline106"
     transform="translate(-336.599,-280.77)" />
  <polyline
     class="Stem"
     fill="none"
     stroke="#000000"
     stroke-width="2.48"
     stroke-linejoin="bevel"
     points="1198.1,593.031 1198.1,441.999"
     id="polyline107"
     transform="translate(-336.599,-280.77)" />
  <polyline
     class="Stem"
     fill="none"
     stroke="#000000"
     stroke-width="2.48"
     stroke-linejoin="bevel"
     points="1601.38,555.831 1601.38,441.999"
     id="polyline108"
     transform="translate(-336.599,-280.77)" />
  <polyline
     class="Stem"
     fill="none"
     stroke="#000000"
     stroke-width="2.48"
     stroke-linejoin="bevel"
     points="2580.04,555.831 2580.04,441.999"
     id="polyline109"
     transform="translate(-336.599,-280.77)" />
  <polyline
     class="Stem"
     fill="none"
     stroke="#000000"
     stroke-width="2.48"
     stroke-linejoin="bevel"
     points="1265.31,543.431 1265.31,441.999"
     id="polyline110"
     transform="translate(-336.599,-280.77)" />
  <polyline
     class="Stem"
     fill="none"
     stroke="#000000"
     stroke-width="2.48"
     stroke-linejoin="bevel"
     points="1668.59,543.431 1668.59,441.999"
     id="polyline111"
     transform="translate(-336.599,-280.77)" />
  <polyline
     class="Stem"
     fill="none"
     stroke="#000000"
     stroke-width="2.48"
     stroke-linejoin="bevel"
     points="1773.48,593.031 1773.48,441.999"
     id="polyline112"
     transform="translate(-336.599,-280.77)" />
  <polyline
     class="Stem"
     fill="none"
     stroke="#000000"
     stroke-width="2.48"
     stroke-linejoin="bevel"
     points="1063.67,555.831 1063.67,441.999"
     id="polyline113"
     transform="translate(-336.599,-280.77)" />
  <polyline
     class="Stem"
     fill="none"
     stroke="#000000"
     stroke-width="2.48"
     stroke-linejoin="bevel"
     points="2512.83,531.031 2512.83,441.999"
     id="polyline114"
     transform="translate(-336.599,-280.77)" />
  <polyline
     class="Stem"
     fill="none"
     stroke="#000000"
     stroke-width="2.48"
     stroke-linejoin="bevel"
     points="1399.74,543.431 1399.74,441.999"
     id="polyline115"
     transform="translate(-336.599,-280.77)" />
  <polyline
     class="Stem"
     fill="none"
     stroke="#000000"
     stroke-width="2.48"
     stroke-linejoin="bevel"
     points="2647.26,531.031 2647.26,441.999"
     id="polyline116"
     transform="translate(-336.599,-280.77)" />
  <polyline
     class="Stem"
     fill="none"
     stroke="#000000"
     stroke-width="2.48"
     stroke-linejoin="bevel"
     points="1840.7,531.031 1840.7,441.999"
     id="polyline117"
     transform="translate(-336.599,-280.77)" />
  <polyline
     class="Stem"
     fill="none"
     stroke="#000000"
     stroke-width="2.48"
     stroke-linejoin="bevel"
     points="996.461,543.431 996.461,441.999"
     id="polyline118"
     transform="translate(-336.599,-280.77)" />
  <polyline
     class="Stem"
     fill="none"
     stroke="#000000"
     stroke-width="2.48"
     stroke-linejoin="bevel"
     points="2781.68,531.031 2781.68,441.999"
     id="polyline119"
     transform="translate(-336.599,-280.77)" />
  <polyline
     class="Stem"
     fill="none"
     stroke="#000000"
     stroke-width="2.48"
     stroke-linejoin="bevel"
     points="1907.91,543.431 1907.91,441.999"
     id="polyline120"
     transform="translate(-336.599,-280.77)" />
  <path
     class="Note"
     d="m 897.731,270.79851 c 0,4.2625 3.069,9.02103 11.11349,9.02103 10.30758,0 21.12654,-8.43203 21.12654,-17.15854 0,-5.85901 -4.96,-9.12949 -11.11348,-9.12949 -9.62549,0 -21.12655,8.13748 -21.12655,17.267"
     id="path120"
     style="stroke-width:0.992001" />
  <path
     class="Note"
     d="m 2414.101,258.39851 c 0,4.2625 3.069,9.02103 11.1135,9.02103 10.3076,0 21.1265,-8.43203 21.1265,-17.15854 0,-5.85901 -4.96,-9.12949 -11.1135,-9.12949 -9.6254,0 -21.1265,8.13749 -21.1265,17.267"
     id="path121"
     style="stroke-width:0.992001" />
  <path
     class="Note"
     d="m 2212.461,283.19851 c 0,4.2625 3.069,9.02103 11.1135,9.02103 10.3076,0 21.1265,-8.43203 21.1265,-17.15854 0,-5.85901 -4.96,-9.12949 -11.1135,-9.12949 -9.6254,0 -21.1265,8.13748 -21.1265,17.267"
     id="path122"
     style="stroke-width:0.992001" />
  <path
     class="Note"
     d="m 1943.601,320.39851 c 0,4.2625 3.069,9.02103 11.1135,9.02103 10.3076,0 21.1265,-8.43203 21.1265,-17.15854 0,-5.85901 -4.96,-9.12949 -11.1135,-9.12949 -9.6254,0 -21.1265,8.13749 -21.1265,17.267"
     id="path123"
     style="stroke-width:0.992001" />
  <path
     class="Note"
     d="m 2279.671,258.39851 c 0,4.2625 3.069,9.02103 11.1135,9.02103 10.3076,0 21.1265,-8.43203 21.1265,-17.15854 0,-5.85901 -4.96,-9.12949 -11.1135,-9.12949 -9.6254,0 -21.1265,8.13749 -21.1265,17.267"
     id="path124"
     style="stroke-width:0.992001" />
  <path
     class="Note"
     d="m 2145.241,258.39851 c 0,4.2625 3.069,9.02103 11.1135,9.02103 10.3076,0 21.1265,-8.43203 21.1265,-17.15854 0,-5.85901 -4.96,-9.12949 -11.1135,-9.12949 -9.6254,0 -21.1265,8.13749 -21.1265,17.267"
     id="path125"
     style="stroke-width:0.992001" />
  <path
     class="Note"
     d="m 2078.031,270.79851 c 0,4.2625 3.069,9.02103 11.1135,9.02103 10.3076,0 21.1265,-8.43203 21.1265,-17.15854 0,-5.85901 -4.96,-9.12949 -11.1135,-9.12949 -9.6254,0 -21.1265,8.13748 -21.1265,17.267"
     id="path126"
     style="stroke-width:0.992001" />
  <path
     class="Note"
     d="m 2010.821,258.39851 c 0,4.2625 3.069,9.02103 11.1135,9.02103 10.3076,0 21.1265,-8.43203 21.1265,-17.15854 0,-5.85901 -4.96,-9.12949 -11.1135,-9.12949 -9.6254,0 -21.1265,8.13749 -21.1265,17.267"
     id="path127"
     style="stroke-width:0.992001" />
  <path
     class="Note"
     d="m 292.81,320.39851 c 0,4.2625 3.069,9.02103 11.11349,9.02103 10.30758,0 21.12654,-8.43203 21.12654,-17.15854 0,-5.85901 -4.96,-9.12949 -11.11348,-9.12949 -9.62549,0 -21.12655,8.13749 -21.12655,17.267"
     id="path128"
     style="stroke-width:0.992001" />
  <path
     class="Note"
     d="m 1876.391,258.39851 c 0,4.2625 3.069,9.02103 11.1135,9.02103 10.3076,0 21.1265,-8.43203 21.1265,-17.15854 0,-5.85901 -4.96,-9.12949 -11.1135,-9.12949 -9.6254,0 -21.1265,8.13749 -21.1265,17.267"
     id="path129"
     style="stroke-width:0.992001" />
  <path
     class="Note"
     d="m 964.941,283.19851 c 0,4.2625 3.069,9.02103 11.11349,9.02103 10.30758,0 21.12654,-8.43203 21.12654,-17.15854 0,-5.85901 -4.96,-9.12949 -11.11348,-9.12949 -9.62549,0 -21.12655,8.13748 -21.12655,17.267"
     id="path130"
     style="stroke-width:0.992001" />
  <path
     class="Note"
     d="m 2346.881,270.79851 c 0,4.2625 3.069,9.02103 11.1135,9.02103 10.3076,0 21.1265,-8.43203 21.1265,-17.15854 0,-5.85901 -4.96,-9.12949 -11.1135,-9.12949 -9.6254,0 -21.1265,8.13748 -21.1265,17.267"
     id="path131"
     style="stroke-width:0.992001" />
  <path
     class="Note"
     d="m 1032.161,270.79851 c 0,4.2625 3.069,9.02103 11.1135,9.02103 10.3076,0 21.1265,-8.43203 21.1265,-17.15854 0,-5.85901 -4.96,-9.12949 -11.1135,-9.12949 -9.6254,0 -21.1265,8.13748 -21.1265,17.267"
     id="path132"
     style="stroke-width:0.992001" />
  <path
     class="Note"
     d="m 830.521,320.39851 c 0,4.2625 3.069,9.02103 11.11349,9.02103 10.30758,0 21.12654,-8.43203 21.12654,-17.15854 0,-5.85901 -4.96,-9.12949 -11.11348,-9.12949 -9.62549,0 -21.12655,8.13749 -21.12655,17.267"
     id="path133"
     style="stroke-width:0.992001" />
  <path
     class="Note"
     d="m 1099.371,295.59851 c 0,4.2625 3.069,9.02103 11.1135,9.02103 10.3076,0 21.1265,-8.43203 21.1265,-17.15854 0,-5.85901 -4.96,-9.12949 -11.1135,-9.12949 -9.6254,0 -21.1265,8.13748 -21.1265,17.267"
     id="path134"
     style="stroke-width:0.992001" />
  <path
     class="Note"
     d="m 1166.581,270.79851 c 0,4.2625 3.069,9.02103 11.1135,9.02103 10.3076,0 21.1265,-8.43203 21.1265,-17.15854 0,-5.85901 -4.96,-9.12949 -11.1135,-9.12949 -9.6254,0 -21.1265,8.13748 -21.1265,17.267"
     id="path135"
     style="stroke-width:0.992001" />
  <path
     class="Note"
     d="m 763.301,270.79851 c 0,4.2625 3.069,9.02103 11.11349,9.02103 10.30758,0 21.12654,-8.43203 21.12654,-17.15854 0,-5.85901 -4.96,-9.12949 -11.11348,-9.12949 -9.62549,0 -21.12655,8.13748 -21.12655,17.267"
     id="path136"
     style="stroke-width:0.992001" />
  <path
     class="Note"
     d="m 1233.801,283.19851 c 0,4.2625 3.069,9.02103 11.1135,9.02103 10.3076,0 21.1265,-8.43203 21.1265,-17.15854 0,-5.85901 -4.96,-9.12949 -11.1135,-9.12949 -9.6254,0 -21.1265,8.13748 -21.1265,17.267"
     id="path137"
     style="stroke-width:0.992001" />
  <path
     class="Note"
     d="m 696.091,283.19851 c 0,4.2625 3.069,9.02103 11.11349,9.02103 10.30758,0 21.12654,-8.43203 21.12654,-17.15854 0,-5.85901 -4.96,-9.12949 -11.11348,-9.12949 -9.62549,0 -21.12655,8.13748 -21.12655,17.267"
     id="path138"
     style="stroke-width:0.992001" />
  <path
     class="Note"
     d="m 1301.011,270.79851 c 0,4.2625 3.069,9.02103 11.1135,9.02103 10.3076,0 21.1265,-8.43203 21.1265,-17.15854 0,-5.85901 -4.96,-9.12949 -11.1135,-9.12949 -9.6254,0 -21.1265,8.13748 -21.1265,17.267"
     id="path139"
     style="stroke-width:0.992001" />
  <path
     class="Note"
     d="m 628.877,270.79851 c 0,4.2625 3.069,9.02103 11.11349,9.02103 10.30758,0 21.12654,-8.43203 21.12654,-17.15854 0,-5.85901 -4.96,-9.12949 -11.11348,-9.12949 -9.62549,0 -21.12655,8.13748 -21.12655,17.267"
     id="path140"
     style="stroke-width:0.992001" />
  <path
     class="Note"
     d="m 1405.901,320.39851 c 0,4.2625 3.069,9.02103 11.1135,9.02103 10.3076,0 21.1265,-8.43203 21.1265,-17.15854 0,-5.85901 -4.96,-9.12949 -11.1135,-9.12949 -9.6254,0 -21.1265,8.13749 -21.1265,17.267"
     id="path141"
     style="stroke-width:0.992001" />
  <path
     class="Note"
     d="m 1473.111,258.39851 c 0,4.2625 3.069,9.02103 11.1135,9.02103 10.3076,0 21.1265,-8.43203 21.1265,-17.15854 0,-5.85901 -4.96,-9.12949 -11.1135,-9.12949 -9.6254,0 -21.1265,8.13749 -21.1265,17.267"
     id="path142"
     style="stroke-width:0.992001" />
  <path
     class="Note"
     d="m 561.664,295.59851 c 0,4.2625 3.069,9.02103 11.11349,9.02103 10.30758,0 21.12654,-8.43203 21.12654,-17.15854 0,-5.85901 -4.96,-9.12949 -11.11348,-9.12949 -9.62549,0 -21.12655,8.13748 -21.12655,17.267"
     id="path143"
     style="stroke-width:0.992001" />
  <path
     class="Note"
     d="m 1540.321,270.79851 c 0,4.2625 3.069,9.02103 11.1135,9.02103 10.3076,0 21.1265,-8.43203 21.1265,-17.15854 0,-5.85901 -4.96,-9.12949 -11.1135,-9.12949 -9.6254,0 -21.1265,8.13748 -21.1265,17.267"
     id="path144"
     style="stroke-width:0.992001" />
  <path
     class="Note"
     d="m 1607.541,258.39851 c 0,4.2625 3.069,9.02103 11.1135,9.02103 10.3076,0 21.1265,-8.43203 21.1265,-17.15854 0,-5.85901 -4.96,-9.12949 -11.1135,-9.12949 -9.6254,0 -21.1265,8.13749 -21.1265,17.267"
     id="path145"
     style="stroke-width:0.992001" />
  <path
     class="Note"
     d="m 494.45,270.79851 c 0,4.2625 3.069,9.02103 11.11349,9.02103 10.30758,0 21.12654,-8.43203 21.12654,-17.15854 0,-5.85901 -4.96,-9.12949 -11.11348,-9.12949 -9.62549,0 -21.12655,8.13748 -21.12655,17.267"
     id="path146"
     style="stroke-width:0.992001" />
  <path
     class="Note"
     d="m 1674.751,283.19851 c 0,4.2625 3.069,9.02103 11.1135,9.02103 10.3076,0 21.1265,-8.43203 21.1265,-17.15854 0,-5.85901 -4.96,-9.12949 -11.1135,-9.12949 -9.6254,0 -21.1265,8.13748 -21.1265,17.267"
     id="path147"
     style="stroke-width:0.992001" />
  <path
     class="Note"
     d="m 1741.961,258.39851 c 0,4.2625 3.069,9.02103 11.1135,9.02103 10.3076,0 21.1265,-8.43203 21.1265,-17.15854 0,-5.85901 -4.96,-9.12949 -11.1135,-9.12949 -9.6254,0 -21.1265,8.13749 -21.1265,17.267"
     id="path148"
     style="stroke-width:0.992001" />
  <path
     class="Note"
     d="m 427.237,283.19851 c 0,4.2625 3.069,9.02103 11.11349,9.02103 10.30758,0 21.12654,-8.43203 21.12654,-17.15854 0,-5.85901 -4.96,-9.12949 -11.11348,-9.12949 -9.62549,0 -21.12655,8.13748 -21.12655,17.267"
     id="path149"
     style="stroke-width:0.992001" />
  <path
     class="Note"
     d="m 1809.181,270.79851 c 0,4.2625 3.069,9.02103 11.1135,9.02103 10.3076,0 21.1265,-8.43203 21.1265,-17.15854 0,-5.85901 -4.96,-9.12949 -11.1135,-9.12949 -9.6254,0 -21.1265,8.13748 -21.1265,17.267"
     id="path150"
     style="stroke-width:0.992001" />
  <path
     class="Note"
     d="m 360.024,270.79851 c 0,4.2625 3.069,9.02103 11.11349,9.02103 10.30758,0 21.12654,-8.43203 21.12654,-17.15854 0,-5.85901 -4.96,-9.12949 -11.11348,-9.12949 -9.62549,0 -21.12655,8.13748 -21.12655,17.267"
     id="path151"
     style="stroke-width:0.992001" />
  <path
     class="Clef"
     d="m 30.798537,230.71558 c 0,6.55653 4.960005,15.19001 18.352019,15.19001 4.66548,0 8.742008,-1.19347 12.306962,-3.37905 5.363055,-3.76643 6.742532,-10.32296 6.742532,-16.56949 0,-3.85948 -0.588951,-8.32349 -1.580952,-13.98097 -0.294525,-1.984 -0.89905,-4.96 -1.488001,-8.83506 9.718435,-3.17747 16.956967,-13.29896 16.956967,-23.51352 0,-14.97304 -10.617486,-25.09453 -25.09455,-25.09453 -0.992001,-5.952 -1.984002,-11.81106 -2.774428,-17.36001 10.41601,-11.02054 17.654443,-23.42055 17.654443,-39.184043 0,-9.036533 -2.774428,-16.368016 -4.370955,-19.948148 -2.371477,-5.053253 -5.25453,-8.525256 -7.037057,-8.525256 -0.697475,0 -3.766429,1.193377 -7.036957,5.053253 -6.355056,7.548135 -8.137483,20.242673 -8.137483,28.566154 0,5.36296 0.496,10.23001 2.185477,21.3435 -0.108525,0.0931 -5.270005,5.34748 -7.347057,7.03706 C 31.093062,139.85443 18.6,151.94445 18.6,171.79999 c 0,18.53807 16.166541,33.12356 34.627085,33.12356 2.867478,0 5.548956,-0.29452 7.827483,-0.69748 1.890952,9.53244 3.084528,16.47645 3.084528,21.73098 0,10.32306 -5.363055,15.77906 -15.376016,15.77906 -2.387052,0 -4.464004,-0.496 -4.665579,-0.496 -0.09295,-0.10852 -0.294426,-0.20157 -0.294426,-0.29452 0,-0.20148 0.201475,-0.31 0.496001,-0.31 4.665479,-0.79053 9.315484,-4.75853 9.315484,-11.09802 0,-5.36305 -4.061054,-11.02053 -11.501061,-11.02053 -6.944007,0 -11.314962,5.65748 -11.314962,12.19854 M 51.537508,98.283443 c 0.899051,-3.968004 5.456006,-14.384015 10.617586,-14.384015 1.488001,0 3.859479,4.75843 3.859479,11.702437 0,10.323065 -7.626008,18.057595 -14.477065,24.800025 -0.588951,-3.968 -1.084951,-7.82748 -1.084951,-11.99696 0,-3.67348 0.294525,-7.05253 1.084951,-10.121487 m 8.726534,101.974627 c -1.984002,0.40295 -3.859479,0.60443 -5.750531,0.60443 -14.182439,0 -26.287996,-9.92001 -26.287996,-24.9085 0,-12.09007 8.525028,-22.90903 17.267037,-30.45756 1.674002,-1.488 3.270528,-2.86748 4.75853,-4.35548 0.883476,5.34748 1.580952,10.01296 2.278427,14.08949 -9.036434,2.68148 -15.17444,12.19854 -15.17444,21.52955 0,6.944 5.456005,16.46101 13.392013,16.46101 0.790426,0 1.689477,-0.40295 1.689477,-1.28652 0,-0.89895 -0.992001,-1.39495 -2.185477,-2.18548 -3.875054,-2.387 -6.060531,-4.96001 -6.060531,-9.82701 0,-6.04501 4.572529,-10.91206 10.32296,-12.29154 l 5.750531,32.62761 M 74.353531,181.906 c 0,7.05251 -2.882953,14.29102 -9.92001,17.17407 -2.076952,-11.90406 -4.75843,-27.68308 -5.456005,-32.05413 8.928009,0 15.376015,6.06055 15.376015,14.88006"
     id="path152"
     style="stroke-width:0.992001" />
  <path
     class="KeySig"
     d="m 112.57601,139.65298 c -4.96,0 -7.84301,3.06896 -8.33901,3.67348 l 0.403,-31.85255 c 0,-0.79043 -0.589,-1.37948 -1.395,-1.37948 h -1.178 c -0.806,0 -1.395,0.58905 -1.395,1.37948 l 0.496,59.62858 c 0,0.79053 0.589,1.37958 1.395,1.37958 0.186,0 0.589,-0.0931 0.79051,-0.186 8.52503,-4.27801 17.45304,-12.40007 17.45304,-22.63008 0,-5.14605 -2.37148,-10.01301 -8.23054,-10.01301 m -8.6335,27.97751 0.29449,-19.344 c 0.20151,-0.899 1.68951,-3.76655 5.65751,-3.76655 3.58055,0 3.87498,3.36355 3.87498,5.45605 0,8.81952 -3.27048,12.49302 -9.82698,17.6545"
     id="path153"
     style="stroke-width:0.992001" />
  <path
     class="KeySig"
     d="m 140.15101,102.45298 c -4.96,0 -7.84301,3.06896 -8.33901,3.67348 l 0.403,-31.852554 c 0,-0.790426 -0.589,-1.379476 -1.395,-1.379476 h -1.178 c -0.806,0 -1.395,0.58905 -1.395,1.379476 l 0.496,59.628584 c 0,0.79053 0.589,1.37958 1.395,1.37958 0.186,0 0.589,-0.0931 0.79051,-0.186 8.52503,-4.27801 17.45304,-12.40007 17.45304,-22.63008 0,-5.14605 -2.37148,-10.01301 -8.23054,-10.01301 m -8.6335,27.97751 0.29449,-19.344 c 0.20151,-0.899 1.68951,-3.76655 5.65751,-3.76655 3.58055,0 3.87498,3.36355 3.87498,5.45605 0,8.81952 -3.27048,12.49302 -9.82698,17.6545"
     id="path154"
     style="stroke-width:0.992001" />
  <path
     class="KeySig"
     d="m 167.72501,152.05298 c -4.96,0 -7.84301,3.06896 -8.33901,3.67348 l 0.403,-31.85255 c 0,-0.79043 -0.589,-1.37948 -1.395,-1.37948 h -1.178 c -0.806,0 -1.395,0.58905 -1.395,1.37948 l 0.496,59.62858 c 0,0.79053 0.589,1.37958 1.395,1.37958 0.186,0 0.589,-0.0931 0.79051,-0.186 8.52503,-4.27801 17.45304,-12.40007 17.45304,-22.63008 0,-5.14605 -2.37148,-10.01301 -8.23054,-10.01301 m -8.6335,27.97751 0.29449,-19.344 c 0.20151,-0.899 1.68951,-3.76655 5.65751,-3.76655 3.58055,0 3.87498,3.36355 3.87498,5.45605 0,8.81952 -3.27048,12.49302 -9.82698,17.6545"
     id="path155"
     style="stroke-width:0.992001" />
  <path
     class="TimeSig"
     d="m 220.00655,142.83049 v 7.33158 h -8.23054 c -0.69747,0 -1.39495,0.60443 -1.39495,1.39495 v 1.89105 c 0,0.79043 0.69748,1.37948 1.39495,1.37948 h 30.05456 c 0.806,0 1.39495,-0.58905 1.39495,-1.37948 v -1.89105 c 0,-0.79052 -0.58895,-1.39495 -1.39495,-1.39495 h -8.81949 v -7.33158 h 8.81949 c 0.806,0 1.39495,-0.69748 1.39495,-1.488 v -1.89098 c 0,-0.6975 -0.58895,-1.3795 -1.39495,-1.3795 h -8.81949 v -15.77902 c 0,-0.589 -0.29452,-1.085 -0.79052,-1.2865 l -1.19348,-0.6045 c -0.20157,-0.093 -0.496,-0.18605 -0.69757,-0.18605 -0.29443,0.093 -0.69748,0.18605 -0.89895,0.38755 l -9.02106,8.23051 c -0.29443,0.31 -0.40295,0.6975 -0.40295,1.1005 v 8.13751 h -11.40804 c 0,0 11.02056,-11.90401 22.723,-27.59008 0.40305,-0.496 0.496,-0.992 0.496,-1.37948 0,-0.496 -0.20148,-0.89895 -0.29443,-0.992 l -2.18557,-2.18547 c -0.20148,-0.20148 -0.58896,-0.40305 -0.99201,-0.40305 -0.58895,0 -13.99644,0 -14.67844,0 -0.806,0 -1.302,0.60452 -1.39505,1.19357 0,0 -0.496,7.34696 -3.069,15.37599 -2.5885,8.04451 -5.5645,13.00451 -8.1375,16.66252 0,0 -0.29451,0.496 -0.29451,1.1005 0,0.2015 0,0.38755 0.093,0.58903 0.403,0.69747 0.992,1.78252 0.992,1.78252 0,0 0.20151,0.60443 1.085,0.60443 h 17.06555"
     id="path156"
     style="stroke-width:0.992001" />
  <path
     class="TimeSig"
     d="m 220.00655,192.43049 v 7.33158 h -8.23054 c -0.69747,0 -1.39495,0.60443 -1.39495,1.39495 v 1.89105 c 0,0.79043 0.69748,1.37948 1.39495,1.37948 h 30.05456 c 0.806,0 1.39495,-0.58905 1.39495,-1.37948 v -1.89105 c 0,-0.79052 -0.58895,-1.39495 -1.39495,-1.39495 h -8.81949 v -7.33158 h 8.81949 c 0.806,0 1.39495,-0.69748 1.39495,-1.488 v -1.89098 c 0,-0.6975 -0.58895,-1.3795 -1.39495,-1.3795 h -8.81949 v -15.77902 c 0,-0.589 -0.29452,-1.085 -0.79052,-1.2865 l -1.19348,-0.6045 c -0.20157,-0.093 -0.496,-0.18605 -0.69757,-0.18605 -0.29443,0.093 -0.69748,0.18605 -0.89895,0.38755 l -9.02106,8.23051 c -0.29443,0.31 -0.40295,0.6975 -0.40295,1.1005 v 8.13751 h -11.40804 c 0,0 11.02056,-11.90401 22.723,-27.59008 0.40305,-0.496 0.496,-0.992 0.496,-1.37948 0,-0.496 -0.20148,-0.89895 -0.29443,-0.992 l -2.18557,-2.18547 c -0.20148,-0.20148 -0.58896,-0.40305 -0.99201,-0.40305 -0.58895,0 -13.99644,0 -14.67844,0 -0.806,0 -1.302,0.60452 -1.39505,1.19357 0,0 -0.496,7.34696 -3.069,15.37599 -2.5885,8.04451 -5.5645,13.00451 -8.1375,16.66252 0,0 -0.29451,0.496 -0.29451,1.1005 0,0.2015 0,0.38755 0.093,0.58903 0.403,0.69747 0.992,1.78252 0.992,1.78252 0,0 0.20151,0.60443 1.085,0.60443 h 17.06555"
     id="path157"
     style="stroke-width:0.992001" />
  <path
     class="Beam"
     fill-rule="evenodd"
     d="m 2242.201,155.029 h 204.12 v 12.4 h -204.12 v -12.4"
     id="path158" />
  <path
     class="Beam"
     fill-rule="evenodd"
     d="m 2242.201,173.629 h 204.12 v 12.4 h -204.12 v -12.4"
     id="path159" />
  <path
     class="Beam"
     fill-rule="evenodd"
     d="m 1973.351,155.029 h 204.12 v 12.4 h -204.12 v -12.4"
     id="path160" />
  <path
     class="Beam"
     fill-rule="evenodd"
     d="m 1973.351,173.629 h 204.12 v 12.4 h -204.12 v -12.4"
     id="path161" />
  <path
     class="Beam"
     fill-rule="evenodd"
     d="m 1704.501,155.029 h 204.12 v 12.4 h -204.12 v -12.4"
     id="path162" />
  <path
     class="Beam"
     fill-rule="evenodd"
     d="m 1704.501,173.629 h 204.12 v 12.4 h -204.12 v -12.4"
     id="path163" />
  <path
     class="Beam"
     fill-rule="evenodd"
     d="m 1435.641,155.029 h 204.12 v 12.4 h -204.12 v -12.4"
     id="path164" />
  <path
     class="Beam"
     fill-rule="evenodd"
     d="m 1435.641,173.629 h 204.12 v 12.4 h -204.12 v -12.4"
     id="path165" />
  <path
     class="Beam"
     fill-rule="evenodd"
     d="m 1129.111,155.029 h 204.12 v 12.4 h -204.12 v -12.4"
     id="path166" />
  <path
     class="Beam"
     fill-rule="evenodd"
     d="m 1129.111,173.629 h 204.12 v 12.4 h -204.12 v -12.4"
     id="path167" />
  <path
     class="Beam"
     fill-rule="evenodd"
     d="m 860.261,155.029 h 204.12 v 12.4 h -204.12 v -12.4"
     id="path168" />
  <path
     class="Beam"
     fill-rule="evenodd"
     d="m 860.261,173.629 h 204.12 v 12.4 h -204.12 v -12.4"
     id="path169" />
  <path
     class="Beam"
     fill-rule="evenodd"
     d="m 591.408,155.029 h 204.123 v 12.4 H 591.408 v -12.4"
     id="path170" />
  <path
     class="Beam"
     fill-rule="evenodd"
     d="m 591.408,173.629 h 204.123 v 12.4 H 591.408 v -12.4"
     id="path171" />
  <path
     class="Beam"
     fill-rule="evenodd"
     d="m 322.555,155.029 h 204.12 v 12.4 h -204.12 v -12.4"
     id="path172" />
  <path
     class="Beam"
     fill-rule="evenodd"
     d="m 322.555,173.629 h 204.12 v 12.4 h -204.12 v -12.4"
     id="path173" />
  <path
     class="Tempo"
     d="m 224.704,0 h -3.265 v 42.266 c -1.094,-0.687 -2.485,-1.094 -4.063,-1.281 -3.562,0 -6.437,0.39 -9.609,2.172 -3.953,2.078 -8.313,6.437 -8.313,11.281 0,4.75 4.266,7.031 8.61,7.031 6.937,0 16.64,-5.937 16.64,-13.469 V 0"
     id="path174" />
  <path
     class="Tempo"
     d="m 246.954,37.954 h 30.235 v -6.907 h -30.235 v 6.907 m 0,12.359 h 30.235 v -6.906 h -30.235 v 6.906 m 72.782,-36.969 h -2.11 c -3.781,2.828 -8.031,4.031 -15.172,4.141 v 3.359 h 2.516 c 5.344,0 5.406,0.125 5.344,5.047 v 21.297 c 0,3.719 0,3.906 -0.422,4.5 -0.547,0.656 -1.75,0.906 -4.984,0.906 h -1.922 v 3.235 h 23.937 v -3.235 h -1.922 c -3.172,0 -4.312,-0.25 -4.859,-0.906 -0.406,-0.594 -0.406,-0.844 -0.406,-4.5 V 13.344 m 34.437,0 h -2.109 c -3.781,2.828 -8.031,4.031 -15.172,4.141 v 3.359 h 2.516 c 5.343,0 5.406,0.125 5.343,5.047 v 21.297 c 0,3.719 0,3.906 -0.422,4.5 -0.546,0.656 -1.75,0.906 -4.984,0.906 h -1.922 v 3.235 h 23.938 v -3.235 h -1.922 c -3.172,0 -4.313,-0.25 -4.86,-0.906 -0.406,-0.594 -0.406,-0.844 -0.406,-4.5 V 13.344 m 44.938,0 c -4.032,0.672 -7.391,0.844 -13.625,0.844 -5.703,0 -7.922,-0.125 -14.407,-0.844 l -2.031,17.953 3.297,0.36 0.594,-2.703 c 1.14,-5.282 1.562,-6.063 3.719,-6.063 0.25,0 0.609,0 1.031,0.063 1.672,0.062 5.39,0.171 6.828,0.171 0.609,0 2.594,-0.062 5.594,-0.109 l 2.328,-0.062 -4.078,6.062 -3,4.672 c -4.672,7.328 -4.672,7.328 -6.11,10.625 -1.203,2.641 -1.687,4.609 -1.687,6.469 0,3.609 2.156,5.89 5.515,5.89 3.782,0 5.938,-2.343 5.938,-6.609 -0.047,-11.094 1.141,-15.172 10.094,-34.188 v -2.531"
     id="path175" />
</svg>
