<?xml version="1.0" encoding="UTF-8" standalone="no"?>
<svg
   width="2510.801"
   height="452.23657"
   viewBox="0 0 2510.801 452.23657"
   version="1.2"
   id="svg141"
   sodipodi:docname="theentertainer.svg"
   inkscape:version="1.3.2 (091e20ef0f, 2023-11-25)"
   xmlns:inkscape="http://www.inkscape.org/namespaces/inkscape"
   xmlns:sodipodi="http://sodipodi.sourceforge.net/DTD/sodipodi-0.dtd"
   xmlns="http://www.w3.org/2000/svg"
   xmlns:svg="http://www.w3.org/2000/svg">
  <defs
     id="defs141" />
  <sodipodi:namedview
     id="namedview141"
     pagecolor="#ffffff"
     bordercolor="#000000"
     borderopacity="0.25"
     inkscape:showpageshadow="2"
     inkscape:pageopacity="0.0"
     inkscape:pagecheckerboard="0"
     inkscape:deskcolor="#d1d1d1"
     inkscape:zoom="0.20530303"
     inkscape:cx="1193.3579"
     inkscape:cy="1765.6827"
     inkscape:window-width="1920"
     inkscape:window-height="1011"
     inkscape:window-x="0"
     inkscape:window-y="32"
     inkscape:window-maximized="1"
     inkscape:current-layer="svg141" />
  <title
     id="title1">The Entertainer - selection</title>
  <desc
     id="desc1">Generated by MuseScore Studio 4.4.3</desc>
  <polyline
     class="StaffLines"
     fill="none"
     stroke="#000000"
     stroke-width="2.73"
     stroke-linejoin="bevel"
     points="336.599,386.199 2847.4,386.199"
     id="polyline1"
     transform="translate(-336.599,-212.75293)" />
  <polyline
     class="StaffLines"
     fill="none"
     stroke="#000000"
     stroke-width="2.73"
     stroke-linejoin="bevel"
     points="336.599,410.999 2847.4,410.999"
     id="polyline2"
     transform="translate(-336.599,-212.75293)" />
  <polyline
     class="StaffLines"
     fill="none"
     stroke="#000000"
     stroke-width="2.73"
     stroke-linejoin="bevel"
     points="336.599,435.799 2847.4,435.799"
     id="polyline3"
     transform="translate(-336.599,-212.75293)" />
  <polyline
     class="StaffLines"
     fill="none"
     stroke="#000000"
     stroke-width="2.73"
     stroke-linejoin="bevel"
     points="336.599,460.599 2847.4,460.599"
     id="polyline4"
     transform="translate(-336.599,-212.75293)" />
  <polyline
     class="StaffLines"
     fill="none"
     stroke="#000000"
     stroke-width="2.73"
     stroke-linejoin="bevel"
     points="336.599,485.399 2847.4,485.399"
     id="polyline5"
     transform="translate(-336.599,-212.75293)" />
  <path
     class="TieSegment"
     stroke="#000000"
     stroke-width="1.24"
     stroke-linecap="round"
     stroke-linejoin="round"
     fill-rule="evenodd"
     d="m 1229.041,192.54907 c 17.91,-19.064 71.65,-19.064 89.56,0 -17.91,-11.513 -71.65,-11.513 -89.56,0"
     id="path5" />
  <path
     class="TieSegment"
     stroke="#000000"
     stroke-width="1.24"
     stroke-linecap="round"
     stroke-linejoin="round"
     fill-rule="evenodd"
     d="m 2101.411,80.949068 c 11.31,-18.977 45.26,-18.977 56.57,0 -11.31,-12.746 -45.26,-12.746 -56.57,0"
     id="path6" />
  <path
     class="TieSegment"
     stroke="#000000"
     stroke-width="1.24"
     stroke-linecap="round"
     stroke-linejoin="round"
     fill-rule="evenodd"
     d="m 1328.521,192.54907 c 33.7,-38.541 134.79,-38.541 168.48,0 -33.69,-30.605 -134.78,-30.605 -168.48,0"
     id="path7" />
  <path
     class="TieSegment"
     stroke="#000000"
     stroke-width="1.24"
     stroke-linecap="round"
     stroke-linejoin="round"
     fill-rule="evenodd"
     d="m 2081.931,179.14207 c 11.1,12.626 44.42,12.626 55.52,0 -11.1,18.815 -44.42,18.815 -55.52,0"
     id="path8" />
  <polyline
     class="BarLine"
     fill="none"
     stroke="#000000"
     stroke-width="4.46"
     stroke-linejoin="bevel"
     points="2822.35,384.835 2822.35,486.763"
     id="polyline8"
     transform="translate(-336.599,-212.75293)" />
  <polyline
     class="BarLine"
     fill="none"
     stroke="#000000"
     stroke-width="13.64"
     stroke-linejoin="bevel"
     points="2840.58,384.835 2840.58,486.763"
     id="polyline9"
     transform="translate(-336.599,-212.75293)" />
  <polyline
     class="BarLine"
     fill="none"
     stroke="#000000"
     stroke-width="4.46"
     stroke-linejoin="bevel"
     points="1608.87,384.835 1608.87,486.763"
     id="polyline10"
     transform="translate(-336.599,-212.75293)" />
  <polyline
     class="BarLine"
     fill="none"
     stroke="#000000"
     stroke-width="4.46"
     stroke-linejoin="bevel"
     points="1026.08,384.835 1026.08,486.763"
     id="polyline11"
     transform="translate(-336.599,-212.75293)" />
  <polyline
     class="BarLine"
     fill="none"
     stroke="#000000"
     stroke-width="4.46"
     stroke-linejoin="bevel"
     points="2133.02,384.835 2133.02,486.763"
     id="polyline12"
     transform="translate(-336.599,-212.75293)" />
  <path
     class="Accidental"
     d="m 1704.2515,163.03006 c 0.6046,-0.0931 1.1006,-0.79053 1.1006,-1.39505 v -5.84348 c 0,-0.99201 -0.6976,-1.39496 -1.5966,-1.39496 l -3.2705,0.69748 v -14.78706 h -2.7745 V 155.683 l -8.835,1.798 v -13.99644 h -2.7745 v 14.58549 l -3.875,0.79053 c -0.589,0.10842 -1.085,0.79042 -1.085,1.39495 v 5.75053 c 0,1.085 0.7905,1.395 1.6895,1.395 l 3.2705,-0.6975 v 16.36802 l -3.875,0.7905 c -0.589,0.0931 -1.085,0.79052 -1.085,1.39505 v 5.75043 c 0,1.08505 0.7905,1.37958 1.6895,1.37958 l 3.2705,-0.682 v 14.77149 h 2.7745 v -15.37602 l 8.835,-1.78253 v 13.99654 h 2.7745 v -14.58549 l 3.7665,-0.69757 c 0.6046,-0.10843 1.1006,-0.79043 1.1006,-1.39495 v -5.84353 c 0,-0.99201 -0.6976,-1.39501 -1.5966,-1.39501 l -3.2705,0.69751 v -16.36803 l 3.7665,-0.69749 m -15.376,3.069 8.835,-1.78251 v 16.36803 l -8.835,1.891 v -16.47652"
     id="path12"
     style="stroke-width:0.992001" />
  <path
     class="Accidental"
     d="m 1695.125,83.669053 c -4.96,0 -7.843,3.068953 -8.339,3.673479 l 0.403,-31.852557 c 0,-0.790427 -0.589,-1.379477 -1.395,-1.379477 h -1.178 c -0.806,0 -1.395,0.58905 -1.395,1.379477 l 0.496,59.628585 c 0,0.79053 0.589,1.37958 1.395,1.37958 0.186,0 0.589,-0.0931 0.7905,-0.186 8.525,-4.27801 17.453,-12.40007 17.453,-22.630077 0,-5.146055 -2.3714,-10.01301 -8.2305,-10.01301 m -8.6335,27.977507 0.2945,-19.344004 c 0.2015,-0.899 1.6895,-3.766548 5.6575,-3.766548 3.5806,0 3.875,3.363548 3.875,5.456055 0,8.819517 -3.2705,12.493017 -9.827,17.654497"
     id="path13"
     style="stroke-width:0.992001" />
  <path
     class="Accidental"
     d="m 594.63101,257.27005 c -4.96,0 -7.84301,3.06896 -8.33901,3.67348 l 0.403,-31.85256 c 0,-0.79042 -0.589,-1.37947 -1.395,-1.37947 h -1.178 c -0.806,0 -1.395,0.58905 -1.395,1.37947 l 0.496,59.62859 c 0,0.79053 0.589,1.37958 1.395,1.37958 0.186,0 0.589,-0.0931 0.79051,-0.186 8.52503,-4.27801 17.45304,-12.40007 17.45304,-22.63008 0,-5.14605 -2.37148,-10.01301 -8.23054,-10.01301 m -8.6335,27.97751 0.29449,-19.344 c 0.20151,-0.899 1.68951,-3.76655 5.65751,-3.76655 3.58055,0 3.87498,3.36355 3.87498,5.45605 0,8.81952 -3.27048,12.49302 -9.82698,17.6545"
     id="path14"
     style="stroke-width:0.992001" />
  <path
     class="Accidental"
     d="m 406.89207,204.89553 c -0.186,-0.20148 -0.496,-0.29453 -0.88358,-0.29453 l -0.20147,0.0931 c 0,0 -0.093,0 -0.093,0 l -12.50856,3.472 V 190.80604 H 390.431 v 49.10405 c 0,1.08505 0.899,1.28652 1.78251,1.28652 l 12.50855,-3.472 v 17.36002 h 2.66601 c 0,-16.46107 0,-32.13156 0,-49.10405 0,-0.38758 -0.186,-0.88358 -0.496,-1.08505 m -13.68656,27.77605 v -16.27502 l 11.51655,-3.2705 v 16.36801 l -11.51655,3.17751"
     id="path15"
     style="stroke-width:0.992001" />
  <path
     class="Accidental"
     d="m 2274.9021,118.09553 c -0.186,-0.20148 -0.496,-0.29453 -0.8836,-0.29453 l -0.2015,0.093 c 0,0 -0.093,0 -0.093,0 l -12.5086,3.472 v -17.36001 h -2.7745 v 49.10405 c 0,1.08505 0.899,1.28652 1.7825,1.28652 l 12.5086,-3.472 v 17.36002 h 2.666 c 0,-16.46107 0,-32.13156 0,-49.10405 0,-0.38758 -0.186,-0.88358 -0.496,-1.08505 m -13.6866,27.77605 v -16.27502 l 11.5166,-3.2705 v 16.36801 l -11.5166,3.17751"
     id="path16"
     style="stroke-width:0.992001" />
  <polyline
     class="LedgerLine"
     fill="none"
     stroke="#000000"
     stroke-width="3.97"
     stroke-linejoin="bevel"
     points="2392.64,311.798 2441.23,311.798"
     id="polyline16"
     transform="translate(-336.599,-212.75293)" />
  <polyline
     class="LedgerLine"
     fill="none"
     stroke="#000000"
     stroke-width="3.97"
     stroke-linejoin="bevel"
     points="2616.46,361.399 2665.06,361.399"
     id="polyline17"
     transform="translate(-336.599,-212.75293)" />
  <polyline
     class="LedgerLine"
     fill="none"
     stroke="#000000"
     stroke-width="3.97"
     stroke-linejoin="bevel"
     points="2392.64,361.399 2441.23,361.399"
     id="polyline18"
     transform="translate(-336.599,-212.75293)" />
  <polyline
     class="LedgerLine"
     fill="none"
     stroke="#000000"
     stroke-width="3.97"
     stroke-linejoin="bevel"
     points="2392.64,336.599 2441.23,336.599"
     id="polyline19"
     transform="translate(-336.599,-212.75293)" />
  <polyline
     class="LedgerLine"
     fill="none"
     stroke="#000000"
     stroke-width="3.97"
     stroke-linejoin="bevel"
     points="1888.04,336.599 1936.63,336.599"
     id="polyline20"
     transform="translate(-336.599,-212.75293)" />
  <polyline
     class="LedgerLine"
     fill="none"
     stroke="#000000"
     stroke-width="3.97"
     stroke-linejoin="bevel"
     points="1888.04,361.399 1936.63,361.399"
     id="polyline21"
     transform="translate(-336.599,-212.75293)" />
  <polyline
     class="LedgerLine"
     fill="none"
     stroke="#000000"
     stroke-width="3.97"
     stroke-linejoin="bevel"
     points="1966.23,336.599 2014.82,336.599"
     id="polyline22"
     transform="translate(-336.599,-212.75293)" />
  <polyline
     class="LedgerLine"
     fill="none"
     stroke="#000000"
     stroke-width="3.97"
     stroke-linejoin="bevel"
     points="1966.23,361.399 2014.82,361.399"
     id="polyline23"
     transform="translate(-336.599,-212.75293)" />
  <polyline
     class="LedgerLine"
     fill="none"
     stroke="#000000"
     stroke-width="3.97"
     stroke-linejoin="bevel"
     points="2044.42,311.798 2093.01,311.798"
     id="polyline24"
     transform="translate(-336.599,-212.75293)" />
  <polyline
     class="LedgerLine"
     fill="none"
     stroke="#000000"
     stroke-width="3.97"
     stroke-linejoin="bevel"
     points="2044.42,336.599 2093.01,336.599"
     id="polyline25"
     transform="translate(-336.599,-212.75293)" />
  <polyline
     class="LedgerLine"
     fill="none"
     stroke="#000000"
     stroke-width="3.97"
     stroke-linejoin="bevel"
     points="2044.42,361.399 2093.01,361.399"
     id="polyline26"
     transform="translate(-336.599,-212.75293)" />
  <polyline
     class="LedgerLine"
     fill="none"
     stroke="#000000"
     stroke-width="3.97"
     stroke-linejoin="bevel"
     points="2158.07,361.399 2206.66,361.399"
     id="polyline27"
     transform="translate(-336.599,-212.75293)" />
  <polyline
     class="LedgerLine"
     fill="none"
     stroke="#000000"
     stroke-width="3.97"
     stroke-linejoin="bevel"
     points="2314.45,361.399 2363.04,361.399"
     id="polyline28"
     transform="translate(-336.599,-212.75293)" />
  <polyline
     class="LedgerLine"
     fill="none"
     stroke="#000000"
     stroke-width="3.97"
     stroke-linejoin="bevel"
     points="2314.45,336.599 2363.04,336.599"
     id="polyline29"
     transform="translate(-336.599,-212.75293)" />
  <polyline
     class="LedgerLine"
     fill="none"
     stroke="#000000"
     stroke-width="3.97"
     stroke-linejoin="bevel"
     points="2470.83,311.798 2519.42,311.798"
     id="polyline30"
     transform="translate(-336.599,-212.75293)" />
  <polyline
     class="LedgerLine"
     fill="none"
     stroke="#000000"
     stroke-width="3.97"
     stroke-linejoin="bevel"
     points="2236.26,361.399 2284.85,361.399"
     id="polyline31"
     transform="translate(-336.599,-212.75293)" />
  <polyline
     class="LedgerLine"
     fill="none"
     stroke="#000000"
     stroke-width="3.97"
     stroke-linejoin="bevel"
     points="2236.26,336.599 2284.85,336.599"
     id="polyline32"
     transform="translate(-336.599,-212.75293)" />
  <polyline
     class="LedgerLine"
     fill="none"
     stroke="#000000"
     stroke-width="3.97"
     stroke-linejoin="bevel"
     points="2470.83,336.599 2519.42,336.599"
     id="polyline33"
     transform="translate(-336.599,-212.75293)" />
  <polyline
     class="LedgerLine"
     fill="none"
     stroke="#000000"
     stroke-width="3.97"
     stroke-linejoin="bevel"
     points="2470.83,361.399 2519.42,361.399"
     id="polyline34"
     transform="translate(-336.599,-212.75293)" />
  <polyline
     class="LedgerLine"
     fill="none"
     stroke="#000000"
     stroke-width="3.97"
     stroke-linejoin="bevel"
     points="2158.07,311.798 2206.66,311.798"
     id="polyline35"
     transform="translate(-336.599,-212.75293)" />
  <polyline
     class="LedgerLine"
     fill="none"
     stroke="#000000"
     stroke-width="3.97"
     stroke-linejoin="bevel"
     points="2158.07,336.599 2206.66,336.599"
     id="polyline36"
     transform="translate(-336.599,-212.75293)" />
  <polyline
     class="LedgerLine"
     fill="none"
     stroke="#000000"
     stroke-width="3.97"
     stroke-linejoin="bevel"
     points="566.076,534.999 614.669,534.999"
     id="polyline37"
     transform="translate(-336.599,-212.75293)" />
  <polyline
     class="LedgerLine"
     fill="none"
     stroke="#000000"
     stroke-width="3.97"
     stroke-linejoin="bevel"
     points="566.076,584.599 614.669,584.599"
     id="polyline38"
     transform="translate(-336.599,-212.75293)" />
  <polyline
     class="LedgerLine"
     fill="none"
     stroke="#000000"
     stroke-width="3.97"
     stroke-linejoin="bevel"
     points="566.076,559.799 614.669,559.799"
     id="polyline39"
     transform="translate(-336.599,-212.75293)" />
  <polyline
     class="LedgerLine"
     fill="none"
     stroke="#000000"
     stroke-width="3.97"
     stroke-linejoin="bevel"
     points="566.076,609.399 614.669,609.399"
     id="polyline40"
     transform="translate(-336.599,-212.75293)" />
  <polyline
     class="LedgerLine"
     fill="none"
     stroke="#000000"
     stroke-width="3.97"
     stroke-linejoin="bevel"
     points="2694.65,336.599 2743.25,336.599"
     id="polyline41"
     transform="translate(-336.599,-212.75293)" />
  <polyline
     class="LedgerLine"
     fill="none"
     stroke="#000000"
     stroke-width="3.97"
     stroke-linejoin="bevel"
     points="2694.65,361.399 2743.25,361.399"
     id="polyline42"
     transform="translate(-336.599,-212.75293)" />
  <polyline
     class="LedgerLine"
     fill="none"
     stroke="#000000"
     stroke-width="3.97"
     stroke-linejoin="bevel"
     points="566.076,634.199 614.669,634.199"
     id="polyline43"
     transform="translate(-336.599,-212.75293)" />
  <polyline
     class="LedgerLine"
     fill="none"
     stroke="#000000"
     stroke-width="3.97"
     stroke-linejoin="bevel"
     points="566.076,510.199 614.669,510.199"
     id="polyline44"
     transform="translate(-336.599,-212.75293)" />
  <polyline
     class="Stem"
     fill="none"
     stroke="#000000"
     stroke-width="2.48"
     stroke-linejoin="bevel"
     points="1897.46,340.765 1897.46,501.921"
     id="polyline45"
     transform="translate(-336.599,-212.75293)" />
  <polyline
     class="Stem"
     fill="none"
     stroke="#000000"
     stroke-width="2.48"
     stroke-linejoin="bevel"
     points="781.171,456.631 781.171,311.954"
     id="polyline46"
     transform="translate(-336.599,-212.75293)" />
  <polyline
     class="Stem"
     fill="none"
     stroke="#000000"
     stroke-width="2.48"
     stroke-linejoin="bevel"
     points="2053.84,315.965 2053.84,497.831"
     id="polyline47"
     transform="translate(-336.599,-212.75293)" />
  <polyline
     class="Stem"
     fill="none"
     stroke="#000000"
     stroke-width="2.48"
     stroke-linejoin="bevel"
     points="1975.65,328.365 1975.65,499.876"
     id="polyline48"
     transform="translate(-336.599,-212.75293)" />
  <polyline
     class="Stem"
     fill="none"
     stroke="#000000"
     stroke-width="2.48"
     stroke-linejoin="bevel"
     points="1090.3,481.431 1090.3,348.999"
     id="polyline49"
     transform="translate(-336.599,-212.75293)" />
  <polyline
     class="Stem"
     fill="none"
     stroke="#000000"
     stroke-width="2.48"
     stroke-linejoin="bevel"
     points="2509.99,307.83 2509.99,214.037"
     id="polyline50"
     transform="translate(-336.599,-212.75293)" />
  <polyline
     class="Stem"
     fill="none"
     stroke="#000000"
     stroke-width="2.48"
     stroke-linejoin="bevel"
     points="1168.49,419.431 1168.49,348.999"
     id="polyline51"
     transform="translate(-336.599,-212.75293)" />
  <polyline
     class="Stem"
     fill="none"
     stroke="#000000"
     stroke-width="2.48"
     stroke-linejoin="bevel"
     points="898.455,493.831 898.455,326.647"
     id="polyline52"
     transform="translate(-336.599,-212.75293)" />
  <polyline
     class="Stem"
     fill="none"
     stroke="#000000"
     stroke-width="2.48"
     stroke-linejoin="bevel"
     points="976.645,481.431 976.645,336.443"
     id="polyline53"
     transform="translate(-336.599,-212.75293)" />
  <polyline
     class="Stem"
     fill="none"
     stroke="#000000"
     stroke-width="2.48"
     stroke-linejoin="bevel"
     points="1559.44,419.431 1559.44,348.999"
     id="polyline54"
     transform="translate(-336.599,-212.75293)" />
  <polyline
     class="Stem"
     fill="none"
     stroke="#000000"
     stroke-width="2.48"
     stroke-linejoin="bevel"
     points="1363.96,419.431 1363.96,348.999"
     id="polyline55"
     transform="translate(-336.599,-212.75293)" />
  <polyline
     class="Stem"
     fill="none"
     stroke="#000000"
     stroke-width="2.48"
     stroke-linejoin="bevel"
     points="605.245,630.231 605.245,435.799"
     id="polyline56"
     transform="translate(-336.599,-212.75293)" />
  <polyline
     class="Stem"
     fill="none"
     stroke="#000000"
     stroke-width="2.48"
     stroke-linejoin="bevel"
     points="1481.25,481.431 1481.25,348.999"
     id="polyline57"
     transform="translate(-336.599,-212.75293)" />
  <polyline
     class="Stem"
     fill="none"
     stroke="#000000"
     stroke-width="2.48"
     stroke-linejoin="bevel"
     points="1285.77,481.431 1285.77,348.999"
     id="polyline58"
     transform="translate(-336.599,-212.75293)" />
  <polyline
     class="Stem"
     fill="none"
     stroke="#000000"
     stroke-width="2.48"
     stroke-linejoin="bevel"
     points="1643.34,427.565 1643.34,503.999"
     id="polyline59"
     transform="translate(-336.599,-212.75293)" />
  <polyline
     class="Stem"
     fill="none"
     stroke="#000000"
     stroke-width="2.48"
     stroke-linejoin="bevel"
     points="2431.81,307.83 2431.81,231.298"
     id="polyline60"
     transform="translate(-336.599,-212.75293)" />
  <polyline
     class="Stem"
     fill="none"
     stroke="#000000"
     stroke-width="2.48"
     stroke-linejoin="bevel"
     points="1819.27,427.565 1819.27,503.966"
     id="polyline61"
     transform="translate(-336.599,-212.75293)" />
  <polyline
     class="Stem"
     fill="none"
     stroke="#000000"
     stroke-width="2.48"
     stroke-linejoin="bevel"
     points="2625.89,353.165 2625.89,485.399"
     id="polyline62"
     transform="translate(-336.599,-212.75293)" />
  <polyline
     class="Stem"
     fill="none"
     stroke="#000000"
     stroke-width="2.48"
     stroke-linejoin="bevel"
     points="2245.68,340.765 2245.68,479.199"
     id="polyline63"
     transform="translate(-336.599,-212.75293)" />
  <polyline
     class="Stem"
     fill="none"
     stroke="#000000"
     stroke-width="2.48"
     stroke-linejoin="bevel"
     points="2167.49,315.965 2167.49,479.199"
     id="polyline64"
     transform="translate(-336.599,-212.75293)" />
  <polyline
     class="Stem"
     fill="none"
     stroke="#000000"
     stroke-width="2.48"
     stroke-linejoin="bevel"
     points="2480.25,377.965 2480.25,485.399"
     id="polyline65"
     transform="translate(-336.599,-212.75293)" />
  <polyline
     class="Stem"
     fill="none"
     stroke="#000000"
     stroke-width="2.48"
     stroke-linejoin="bevel"
     points="2402.06,377.965 2402.06,479.199"
     id="polyline66"
     transform="translate(-336.599,-212.75293)" />
  <polyline
     class="Stem"
     fill="none"
     stroke="#000000"
     stroke-width="2.48"
     stroke-linejoin="bevel"
     points="2704.08,328.365 2704.08,485.399"
     id="polyline67"
     transform="translate(-336.599,-212.75293)" />
  <polyline
     class="Stem"
     fill="none"
     stroke="#000000"
     stroke-width="2.48"
     stroke-linejoin="bevel"
     points="2323.87,328.365 2323.87,479.199"
     id="polyline68"
     transform="translate(-336.599,-212.75293)" />
  <path
     class="Hook"
     d="m 2172.151,56.342582 c 0,0.294525 0.7905,0.697575 1.488,0.992001 2.573,0.89905 10.3231,5.859055 16.2751,14.678539 3.3634,5.06853 4.154,8.633484 4.154,12.012537 0,0.588951 0,1.084952 -0.093,1.674002 0,2.480002 -0.6975,7.440007 -2.1855,11.423487 -0.093,0.496 -0.3874,1.08505 -0.3874,1.581051 0,0.402951 0.186,0.790426 0.682,1.084951 0.2014,0.108525 0.4029,0.108525 0.496,0.108525 0.6974,0 1.1004,-0.790525 1.488,-1.395051 1.798,-2.774428 4.3709,-8.137483 4.3709,-13.686439 0,-2.883053 -0.2014,-5.25453 -0.496,-7.347057 0.992,-3.766529 1.8911,-8.028959 1.8911,-12.988964 0,-2.480002 -0.4031,-4.960005 -1.1005,-7.238532 0.6974,-3.084528 1.1005,-6.153481 1.1005,-9.331059 0,-5.16148 -1.3951,-9.82696 -4.774,-14.290965 -4.65,-6.153531 -9.7186,-11.206536 -13.4851,-16.755541 -3.7665,-5.456006 -6.541,-15.6860658 -6.541,-15.6860658 C 2174.8325,0.4960005 2174.724,0 2173.639,0 c -1.1935,0 -1.488,0.4960005 -1.488,1.1780012 V 56.342582 m 18.6465,-20.041496 c 3.875,5.053055 4.7586,9.129485 4.7586,12.896013 0,0.604526 -0.093,1.100526 -0.093,1.596527 -0.093,-0.201476 -0.2945,-0.40305 -0.4029,-0.604526 -4.65,-6.153481 -12.896,-13.097488 -16.6626,-18.553494 -1.488,-2.185477 -2.2785,-4.665529 -2.7745,-6.835531 5.053,0 11.6095,6.835531 15.1745,11.501011 m 2.0926,29.171079 c -2.6816,-3.472003 -5.6576,-6.556531 -10.5246,-11.516536 -3.8595,-3.859479 -5.6575,-7.238532 -6.2465,-9.811485 -0.2015,-0.496001 -0.2945,-1.302002 -0.403,-2.092527 5.0685,0 11.5165,6.153481 15.0815,10.818961 3.875,5.16158 4.7586,9.222534 4.7586,12.896013 0,1.193576 -0.093,2.387052 -0.186,3.565053 -0.806,-1.488001 -1.6896,-2.774527 -2.48,-3.859479"
     id="path68"
     style="stroke-width:0.992001" />
  <path
     class="Hook"
     d="m 2093.971,56.249631 c 0,0.294525 0.7905,0.682001 1.488,0.992001 2.573,0.883476 10.3231,5.843481 16.2751,14.67854 3.3634,5.052955 4.154,8.633484 4.154,11.996962 0,0.604526 0,1.100526 -0.093,1.689477 0,2.387052 -0.6975,7.440008 -2.1855,11.408012 -0.093,0.496 -0.3874,1.100526 -0.3874,1.596526 0,0.387476 0.186,0.790526 0.682,1.085051 0.2014,0.09295 0.4029,0.09295 0.496,0.09295 0.6974,0 1.1004,-0.790525 1.488,-1.379476 1.798,-2.774528 4.3709,-8.137484 4.3709,-13.702014 0,-2.867478 -0.2014,-5.25453 -0.496,-7.331483 1.1006,-3.673578 1.8911,-7.347057 1.8911,-12.198537 0,-5.16148 -1.3951,-9.827059 -4.774,-14.291064 -4.65,-6.153481 -9.7186,-11.206437 -13.4851,-16.770967 -3.7665,-5.456006 -6.541,-15.670541 -6.541,-15.670541 -0.2015,-0.697501 -0.31,-1.193506 -1.395,-1.193506 -1.1935,0 -1.488,0.496005 -1.488,1.193506 v 37.804563 m 20.7391,9.114009 c -2.6816,-3.472003 -5.6576,-6.634006 -10.5246,-11.501061 -3.8595,-3.874954 -5.6575,-7.238433 -6.2465,-9.82696 -0.2015,-0.496001 -0.2945,-1.193477 -0.403,-1.984002 5.0685,0.108525 11.5165,6.850957 15.0815,11.516536 3.875,5.052956 4.7586,9.129485 4.7586,12.787488 0,0.992001 -0.093,1.984002 -0.186,2.976003 -0.806,-1.581051 -1.6896,-2.867478 -2.48,-3.968004"
     id="path69"
     style="stroke-width:0.992001" />
  <path
     class="Note"
     d="m 1716.001,103.21458 c 0,4.2625 3.069,9.02103 11.1135,9.02103 10.3076,0 21.1265,-8.43203 21.1265,-17.158546 0,-5.859006 -4.96,-9.129484 -11.1135,-9.129484 -9.6254,0 -21.1265,8.137483 -21.1265,17.267"
     id="path70"
     style="stroke-width:0.992001" />
  <path
     class="Note"
     d="m 996.381,214.81558 c 0,4.2625 3.069,9.02103 11.1135,9.02103 10.3076,0 21.1265,-8.43203 21.1265,-17.15855 0,-5.859 -4.96,-9.12948 -11.1135,-9.12948 -9.6254,0 -21.1265,8.13748 -21.1265,17.267"
     id="path71"
     style="stroke-width:0.992001" />
  <path
     class="Note"
     d="m 918.191,276.81558 c 0,4.2625 3.069,9.02103 11.11349,9.02103 10.30758,0 21.12654,-8.43203 21.12654,-17.15855 0,-5.859 -4.96,-9.12948 -11.11348,-9.12948 -9.62549,0 -21.12655,8.13748 -21.12655,17.267"
     id="path72"
     style="stroke-width:0.992001" />
  <path
     class="Note"
     d="m 2064.221,103.21458 c 0,4.2625 3.069,9.02103 11.1135,9.02103 10.3076,0 21.1265,-8.43203 21.1265,-17.158546 0,-5.859006 -4.96,-9.129484 -11.1135,-9.129484 -9.6254,0 -21.1265,8.137483 -21.1265,17.267"
     id="path73"
     style="stroke-width:0.992001" />
  <path
     class="Note"
     d="m 1113.661,276.81558 c 0,4.2625 3.069,9.02103 11.1135,9.02103 10.3076,0 21.1265,-8.43203 21.1265,-17.15855 0,-5.859 -4.96,-9.12948 -11.1135,-9.12948 -9.6254,0 -21.1265,8.13748 -21.1265,17.267"
     id="path74"
     style="stroke-width:0.992001" />
  <path
     class="Note"
     d="m 1191.851,214.81558 c 0,4.2625 3.069,9.02103 11.1135,9.02103 10.3076,0 21.1265,-8.43203 21.1265,-17.15855 0,-5.859 -4.96,-9.12948 -11.1135,-9.12948 -9.6254,0 -21.1265,8.13748 -21.1265,17.267"
     id="path75"
     style="stroke-width:0.992001" />
  <path
     class="Note"
     d="m 1305.501,214.81558 c 0,4.2625 3.069,9.02103 11.1135,9.02103 10.3076,0 21.1265,-8.43203 21.1265,-17.15855 0,-5.859 -4.96,-9.12948 -11.1135,-9.12948 -9.6254,0 -21.1265,8.13748 -21.1265,17.267"
     id="path76"
     style="stroke-width:0.992001" />
  <path
     class="Note"
     d="m 1481.431,214.81558 c 0,4.2625 3.069,9.02103 11.1135,9.02103 10.3076,0 21.1265,-8.43203 21.1265,-17.15855 0,-5.859 -4.96,-9.12948 -11.1135,-9.12948 -9.6254,0 -21.1265,8.13748 -21.1265,17.267"
     id="path77"
     style="stroke-width:0.992001" />
  <path
     class="Note"
     d="m 800.901,214.81558 c 0,4.2625 3.069,9.02103 11.11349,9.02103 10.30758,0 21.12654,-8.43203 21.12654,-17.15855 0,-5.859 -4.96,-9.12948 -11.11348,-9.12948 -9.62549,0 -21.12655,8.13748 -21.12655,17.267"
     id="path78"
     style="stroke-width:0.992001" />
  <path
     class="Note"
     d="m 1559.621,190.01558 c 0,4.2625 3.069,9.02103 11.1135,9.02103 10.3076,0 21.1265,-8.43203 21.1265,-17.15855 0,-5.859 -4.96,-9.12948 -11.1135,-9.12948 -9.6254,0 -21.1265,8.13748 -21.1265,17.267"
     id="path79"
     style="stroke-width:0.992001" />
  <path
     class="Note"
     d="m 1559.621,128.01558 c 0,4.2625 3.069,9.02103 11.1135,9.02103 10.3076,0 21.1265,-8.43203 21.1265,-17.15855 0,-5.859 -4.96,-9.12948 -11.1135,-9.12948 -9.6254,0 -21.1265,8.13748 -21.1265,17.267"
     id="path80"
     style="stroke-width:0.992001" />
  <path
     class="Note"
     d="m 237.661,425.61558 c 0,4.2625 3.069,9.02103 11.11349,9.02103 10.30758,0 21.12654,-8.43203 21.12654,-17.15855 0,-5.859 -4.96,-9.12948 -11.11348,-9.12948 -9.62549,0 -21.12655,8.13748 -21.12655,17.267"
     id="path81"
     style="stroke-width:0.992001" />
  <path
     class="Note"
     d="m 1637.811,177.61558 c 0,4.2625 3.069,9.02103 11.1135,9.02103 10.3076,0 21.1265,-8.43203 21.1265,-17.15855 0,-5.859 -4.96,-9.12948 -11.1135,-9.12948 -9.6254,0 -21.1265,8.13748 -21.1265,17.267"
     id="path82"
     style="stroke-width:0.992001" />
  <path
     class="Note"
     d="m 1637.811,115.61558 c 0,4.2625 3.069,9.02103 11.1135,9.02103 10.3076,0 21.1265,-8.43203 21.1265,-17.15855 0,-5.859 -4.96,-9.12948 -11.1135,-9.12948 -9.6254,0 -21.1265,8.13748 -21.1265,17.267"
     id="path83"
     style="stroke-width:0.992001" />
  <path
     class="Note"
     d="m 609.061,276.81558 c 0,4.2625 3.069,9.02103 11.11349,9.02103 10.30758,0 21.12654,-8.43203 21.12654,-17.15855 0,-5.859 -4.96,-9.12948 -11.11348,-9.12948 -9.62549,0 -21.12655,8.13748 -21.12655,17.267"
     id="path84"
     style="stroke-width:0.992001" />
  <path
     class="Note"
     d="m 1716.001,177.61558 c 0,4.2625 3.069,9.02103 11.1135,9.02103 10.3076,0 21.1265,-8.43203 21.1265,-17.15855 0,-5.859 -4.96,-9.12948 -11.1135,-9.12948 -9.6254,0 -21.1265,8.13748 -21.1265,17.267"
     id="path85"
     style="stroke-width:0.992001" />
  <path
     class="Note"
     d="m 530.872,289.21558 c 0,4.2625 3.069,9.02103 11.11349,9.02103 10.30758,0 21.12654,-8.43203 21.12654,-17.15855 0,-5.859 -4.96,-9.12948 -11.11348,-9.12948 -9.62549,0 -21.12655,8.13748 -21.12655,17.267"
     id="path86"
     style="stroke-width:0.992001" />
  <path
     class="Note"
     d="m 413.588,227.21558 c 0,4.2625 3.069,9.02103 11.11349,9.02103 10.30758,0 21.12654,-8.43203 21.12654,-17.15855 0,-5.859 -4.96,-9.12948 -11.11348,-9.12948 -9.62549,0 -21.12655,8.13748 -21.12655,17.267"
     id="path87"
     style="stroke-width:0.992001" />
  <path
     class="Note"
     d="m 413.588,202.41558 c 0,4.2625 3.069,9.02103 11.11349,9.02103 10.30758,0 21.12654,-8.43203 21.12654,-17.15855 0,-5.859 -4.96,-9.12948 -11.11348,-9.12948 -9.62549,0 -21.12655,8.13748 -21.12655,17.267"
     id="path88"
     style="stroke-width:0.992001" />
  <path
     class="Note"
     d="m 413.588,165.21558 c 0,4.2625 3.069,9.02103 11.11349,9.02103 10.30758,0 21.12654,-8.43203 21.12654,-17.15855 0,-5.859 -4.96,-9.12948 -11.11348,-9.12948 -9.62549,0 -21.12655,8.13748 -21.12655,17.267"
     id="path89"
     style="stroke-width:0.992001" />
  <path
     class="Note"
     d="m 722.711,276.81558 c 0,4.2625 3.069,9.02103 11.11349,9.02103 10.30758,0 21.12654,-8.43203 21.12654,-17.15855 0,-5.859 -4.96,-9.12948 -11.11348,-9.12948 -9.62549,0 -21.12655,8.13748 -21.12655,17.267"
     id="path90"
     style="stroke-width:0.992001" />
  <path
     class="Note"
     d="m 413.588,252.01558 c 0,4.2625 3.069,9.02103 11.11349,9.02103 10.30758,0 21.12654,-8.43203 21.12654,-17.15855 0,-5.859 -4.96,-9.12948 -11.11348,-9.12948 -9.62549,0 -21.12655,8.13748 -21.12655,17.267"
     id="path91"
     style="stroke-width:0.992001" />
  <path
     class="Note"
     d="m 2142.411,103.21458 c 0,4.2625 3.069,9.02103 11.1135,9.02103 10.3076,0 21.1265,-8.43203 21.1265,-17.158546 0,-5.859006 -4.96,-9.129484 -11.1135,-9.129484 -9.6254,0 -21.1265,8.137483 -21.1265,17.267"
     id="path92"
     style="stroke-width:0.992001" />
  <path
     class="Note"
     d="m 1986.031,177.61558 c 0,4.2625 3.069,9.02103 11.1135,9.02103 10.3076,0 21.1265,-8.43203 21.1265,-17.15855 0,-5.859 -4.96,-9.12948 -11.1135,-9.12948 -9.6254,0 -21.1265,8.13748 -21.1265,17.267"
     id="path93"
     style="stroke-width:0.992001" />
  <path
     class="Note"
     d="m 2064.221,165.21558 c 0,4.2625 3.069,9.02103 11.1135,9.02103 10.3076,0 21.1265,-8.43203 21.1265,-17.15855 0,-5.859 -4.96,-9.12948 -11.1135,-9.12948 -9.6254,0 -21.1265,8.13748 -21.1265,17.267"
     id="path94"
     style="stroke-width:0.992001" />
  <path
     class="Note"
     d="m 2288.051,140.41558 c 0,4.2625 3.069,9.02103 11.1135,9.02103 10.3076,0 21.1265,-8.43203 21.1265,-17.15855 0,-5.859 -4.96,-9.12948 -11.1135,-9.12948 -9.6254,0 -21.1265,8.13748 -21.1265,17.267"
     id="path95"
     style="stroke-width:0.992001" />
  <path
     class="Note"
     d="m 2366.241,115.61558 c 0,4.2625 3.069,9.02103 11.1135,9.02103 10.3076,0 21.1265,-8.43203 21.1265,-17.15855 0,-5.859 -4.96,-9.12948 -11.1135,-9.12948 -9.6254,0 -21.1265,8.13748 -21.1265,17.267"
     id="path96"
     style="stroke-width:0.992001" />
  <path
     class="Note"
     d="m 2142.411,165.21558 c 0,4.2625 3.069,9.02103 11.1135,9.02103 10.3076,0 21.1265,-8.43203 21.1265,-17.15855 0,-5.859 -4.96,-9.12948 -11.1135,-9.12948 -9.6254,0 -21.1265,8.13748 -21.1265,17.267"
     id="path97"
     style="stroke-width:0.992001" />
  <path
     class="Note"
     d="m 1986.031,115.61558 c 0,4.2625 3.069,9.02103 11.1135,9.02103 10.3076,0 21.1265,-8.43203 21.1265,-17.15855 0,-5.859 -4.96,-9.12948 -11.1135,-9.12948 -9.6254,0 -21.1265,8.13748 -21.1265,17.267"
     id="path98"
     style="stroke-width:0.992001" />
  <path
     class="Note"
     d="m 2288.051,202.41558 c 0,4.2625 3.069,9.02103 11.1135,9.02103 10.3076,0 21.1265,-8.43203 21.1265,-17.15855 0,-5.859 -4.96,-9.12948 -11.1135,-9.12948 -9.6254,0 -21.1265,8.13748 -21.1265,17.267"
     id="path99"
     style="stroke-width:0.992001" />
  <path
     class="Note"
     d="m 1907.841,128.01558 c 0,4.2625 3.069,9.02103 11.1135,9.02103 10.3076,0 21.1265,-8.43203 21.1265,-17.15855 0,-5.859 -4.96,-9.12948 -11.1135,-9.12948 -9.6254,0 -21.1265,8.13748 -21.1265,17.267"
     id="path100"
     style="stroke-width:0.992001" />
  <path
     class="Note"
     d="m 1907.841,190.01558 c 0,4.2625 3.069,9.02103 11.1135,9.02103 10.3076,0 21.1265,-8.43203 21.1265,-17.15855 0,-5.859 -4.96,-9.12948 -11.1135,-9.12948 -9.6254,0 -21.1265,8.13748 -21.1265,17.267"
     id="path101"
     style="stroke-width:0.992001" />
  <path
     class="Note"
     d="m 2366.241,177.61558 c 0,4.2625 3.069,9.02103 11.1135,9.02103 10.3076,0 21.1265,-8.43203 21.1265,-17.15855 0,-5.859 -4.96,-9.12948 -11.1135,-9.12948 -9.6254,0 -21.1265,8.13748 -21.1265,17.267"
     id="path102"
     style="stroke-width:0.992001" />
  <path
     class="Note"
     d="m 1829.651,165.21558 c 0,4.2625 3.069,9.02103 11.1135,9.02103 10.3076,0 21.1265,-8.43203 21.1265,-17.15855 0,-5.859 -4.96,-9.12948 -11.1135,-9.12948 -9.6254,0 -21.1265,8.13748 -21.1265,17.267"
     id="path103"
     style="stroke-width:0.992001" />
  <path
     class="Note"
     d="m 1829.651,103.21458 c 0,4.2625 3.069,9.02103 11.1135,9.02103 10.3076,0 21.1265,-8.43203 21.1265,-17.158546 0,-5.859006 -4.96,-9.129484 -11.1135,-9.129484 -9.6254,0 -21.1265,8.137483 -21.1265,17.267"
     id="path104"
     style="stroke-width:0.992001" />
  <path
     class="Clef"
     d="m 30.798537,298.73264 c 0,6.55654 4.960005,15.19002 18.352019,15.19002 4.66548,0 8.742008,-1.19348 12.306962,-3.37905 5.363055,-3.76643 6.742532,-10.32296 6.742532,-16.5695 0,-3.85947 -0.588951,-8.32348 -1.580952,-13.98096 -0.294525,-1.984 -0.89905,-4.96 -1.488001,-8.83506 9.718435,-3.17748 16.956967,-13.29896 16.956967,-23.51352 0,-14.97304 -10.617486,-25.09453 -25.09455,-25.09453 -0.992001,-5.952 -1.984002,-11.81106 -2.774428,-17.36001 10.41601,-11.02054 17.654443,-23.42055 17.654443,-39.18404 0,-9.03654 -2.774428,-16.36802 -4.370955,-19.94815 -2.371477,-5.05326 -5.25453,-8.52526 -7.037057,-8.52526 -0.697475,0 -3.766429,1.19338 -7.036957,5.05325 -6.355056,7.54814 -8.137483,20.24268 -8.137483,28.56616 0,5.36296 0.496,10.23001 2.185477,21.3435 -0.108525,0.0931 -5.270005,5.34748 -7.347057,7.03705 C 31.093062,207.8715 18.6,219.96152 18.6,239.81706 c 0,18.53807 16.166541,33.12356 34.627085,33.12356 2.867478,0 5.548956,-0.29453 7.827483,-0.69748 1.890952,9.53244 3.084528,16.47644 3.084528,21.73097 0,10.32306 -5.363055,15.77907 -15.376016,15.77907 -2.387052,0 -4.464004,-0.496 -4.665579,-0.496 -0.09295,-0.10853 -0.294426,-0.20157 -0.294426,-0.29453 0,-0.20147 0.201475,-0.31 0.496001,-0.31 4.665479,-0.79052 9.315484,-4.75853 9.315484,-11.09801 0,-5.36305 -4.061054,-11.02053 -11.501061,-11.02053 -6.944007,0 -11.314962,5.65748 -11.314962,12.19853 M 51.537508,166.30051 c 0.899051,-3.968 5.456006,-14.38401 10.617586,-14.38401 1.488001,0 3.859479,4.75843 3.859479,11.70243 0,10.32306 -7.626008,18.0576 -14.477065,24.80003 -0.588951,-3.96801 -1.084951,-7.82748 -1.084951,-11.99696 0,-3.67348 0.294525,-7.05254 1.084951,-10.12149 m 8.726534,101.97463 c -1.984002,0.40295 -3.859479,0.60442 -5.750531,0.60442 -14.182439,0 -26.287996,-9.92001 -26.287996,-24.9085 0,-12.09006 8.525028,-22.90902 17.267037,-30.45755 1.674002,-1.488 3.270528,-2.86748 4.75853,-4.35548 0.883476,5.34748 1.580952,10.01296 2.278427,14.08949 -9.036434,2.68148 -15.17444,12.19854 -15.17444,21.52955 0,6.944 5.456005,16.46101 13.392013,16.46101 0.790426,0 1.689477,-0.40295 1.689477,-1.28652 0,-0.89896 -0.992001,-1.39496 -2.185477,-2.18548 -3.875054,-2.387 -6.060531,-4.96001 -6.060531,-9.82701 0,-6.04501 4.572529,-10.91206 10.32296,-12.29154 l 5.750531,32.62761 m 14.089489,-18.35207 c 0,7.05251 -2.882953,14.29101 -9.92001,17.17407 -2.076952,-11.90406 -4.75843,-27.68308 -5.456005,-32.05413 8.928009,0 15.376015,6.06055 15.376015,14.88006"
     id="path105"
     style="stroke-width:0.992001" />
  <path
     class="Clef"
     d="m 332.67183,288.55534 c 0,5.24523 3.96801,12.15201 14.68162,12.15201 3.73239,0 6.99361,-0.95478 9.84557,-2.70324 4.29045,-3.01314 5.39403,-8.25837 5.39403,-13.2556 0,-3.08758 -0.47116,-6.65878 -1.26476,-11.18477 -0.23562,-1.5872 -0.71924,-3.968 -1.1904,-7.06805 7.77475,-2.54198 13.56557,-10.63917 13.56557,-18.81082 0,-11.97844 -8.49399,-20.07563 -20.07564,-20.07563 -0.7936,-4.7616 -1.5872,-9.44885 -2.21954,-13.88801 8.33281,-8.81644 14.12355,-18.73645 14.12355,-31.34724 0,-7.22923 -2.21954,-13.09442 -3.49676,-15.95853 -1.89718,-4.0426 -4.20363,-6.8202 -5.62965,-6.8202 -0.55798,0 -3.01314,0.9547 -5.62957,4.0426 -5.08404,6.03851 -6.50998,16.19414 -6.50998,22.85293 0,4.29037 0.3968,8.18401 1.74838,17.0748 -0.0868,0.0744 -4.21601,4.27799 -5.87765,5.62965 -7.22915,6.67117 -17.2236,16.34318 -17.2236,32.22762 0,14.83046 12.93324,26.49885 27.70167,26.49885 2.29399,0 4.43917,-0.23562 6.26199,-0.55798 1.51276,7.62595 2.46763,13.18116 2.46763,17.38478 0,8.25845 -4.29045,12.62326 -12.30082,12.62326 -1.90964,0 -3.5712,-0.3968 -3.73246,-0.3968 -0.0744,-0.0868 -0.23554,-0.16126 -0.23554,-0.23562 0,-0.16118 0.16118,-0.248 0.3968,-0.248 3.73238,-0.63242 7.45239,-3.80683 7.45239,-8.87841 0,-4.29045 -3.24885,-8.81643 -9.20086,-8.81643 -5.5552,0 -9.05197,4.52598 -9.05197,9.75883 m 16.59118,-105.94573 c 0.71924,-3.17441 4.36481,-11.50722 8.49407,-11.50722 1.19041,0 3.08759,3.80675 3.08759,9.36195 0,8.25845 -6.10081,14.44608 -11.58166,19.84003 -0.47116,-3.17441 -0.86796,-6.26199 -0.86796,-9.59757 0,-2.93879 0.23562,-5.64203 0.86796,-8.09719 m 6.98123,81.57972 c -1.5872,0.32236 -3.08758,0.48354 -4.60042,0.48354 -11.34596,0 -21.03041,-7.93601 -21.03041,-19.92681 0,-9.67205 6.82003,-18.32722 13.81364,-24.36605 1.3392,-1.1904 2.61642,-2.29398 3.80682,-3.48438 0.70678,4.27798 1.26476,8.01037 1.82274,11.27159 -7.22915,2.14519 -12.13955,9.75884 -12.13955,17.22365 0,5.5552 4.3648,13.16881 10.71361,13.16881 0.63234,0 1.35158,-0.32236 1.35158,-1.02922 0,-0.71916 -0.7936,-1.11596 -1.74838,-1.74838 -3.10004,-1.9096 -4.84842,-3.96801 -4.84842,-7.86161 0,-4.83601 3.65802,-8.72965 8.25837,-9.83323 l 4.60042,26.10209 m 11.2716,-14.68166 c 0,5.64201 -2.30637,11.43281 -7.93601,13.73926 -1.66157,-9.52325 -3.80675,-22.14647 -4.36481,-25.64331 7.14241,0 12.30082,4.84844 12.30082,11.90405"
     id="path106"
     style="stroke-width:0.793601" />
  <path
     class="KeySig"
     d="m 112.57601,207.67005 c -4.96,0 -7.84301,3.06896 -8.33901,3.67348 l 0.403,-31.85256 c 0,-0.79042 -0.589,-1.37947 -1.395,-1.37947 h -1.178 c -0.806,0 -1.395,0.58905 -1.395,1.37947 l 0.496,59.62859 c 0,0.79053 0.589,1.37958 1.395,1.37958 0.186,0 0.589,-0.0931 0.79051,-0.186 8.52503,-4.27801 17.45304,-12.40007 17.45304,-22.63008 0,-5.14605 -2.37148,-10.01301 -8.23054,-10.01301 m -8.6335,27.97751 0.29449,-19.344 c 0.20151,-0.899 1.68951,-3.76655 5.65751,-3.76655 3.58055,0 3.87498,3.36355 3.87498,5.45605 0,8.81952 -3.27048,12.49302 -9.82698,17.6545"
     id="path107"
     style="stroke-width:0.992001" />
  <path
     class="TimeSig"
     d="m 181.42751,202.61707 c -0.79043,2.17 -2.77443,9.31554 -7.64148,9.31554 -6.44801,0 -7.84296,-3.96803 -13.19054,-3.96803 -0.79043,0 -1.59643,0.1085 -2.58843,0.2945 0,0 2.48,-3.7665 13.00444,-7.03701 10.50906,-3.2705 13.19054,-8.43201 13.19054,-14.38401 0,-4.16948 -1.87548,-12.40002 -16.86402,-12.40002 -14.97302,0 -17.76302,9.02096 -17.76302,13.59349 0,4.06103 3.37901,7.33153 7.44001,7.33153 4.07648,0 7.34701,-3.2705 7.34701,-7.33153 0,-2.77453 -1.98401,-5.85895 -4.55696,-6.85095 -0.31,-0.0931 -0.69757,-0.58905 -0.69757,-1.08506 0,-0.60452 0.496,-1.28652 2.27852,-1.78252 0.496,-0.20148 1.89106,-0.496 3.37906,-0.496 5.642,0 6.74243,3.472 6.74243,8.52506 0,11.60951 -13.79496,14.08951 -19.5455,22.72307 0,0 -2.976,4.154 -2.976,8.81948 0,4.66548 2.387,4.96001 3.56501,4.96001 1.5965,0 3.286,-1.28653 3.286,-3.06906 0,-0.40295 -0.1085,-0.79042 -0.31,-1.28642 -0.589,-1.39505 -0.7905,-2.48 -0.7905,-3.28601 0,-0.29452 0,-0.58905 0.1085,-0.88357 0.093,-0.60443 0.8835,-1.59643 3.27048,-1.59643 2.86757,0 3.968,3.37896 5.75053,5.95201 1.78252,2.58843 4.55705,4.16948 7.73453,4.16948 3.17748,0 7.44001,-2.27853 9.23801,-5.95201 1.78253,-3.67348 4.06095,-11.11353 4.06095,-13.77954 0,-1.302 -0.79042,-1.891 -1.68947,-1.891 -0.69748,0 -1.37948,0.403 -1.78253,1.395"
     id="path108"
     style="stroke-width:0.992001" />
  <path
     class="TimeSig"
     d="m 164.85755,260.44756 v 7.33158 h -8.23054 c -0.69747,0 -1.39495,0.60442 -1.39495,1.39495 v 1.89105 c 0,0.79043 0.69748,1.37948 1.39495,1.37948 h 30.05456 c 0.806,0 1.39495,-0.58905 1.39495,-1.37948 v -1.89105 c 0,-0.79053 -0.58895,-1.39495 -1.39495,-1.39495 h -8.81949 v -7.33158 h 8.81949 c 0.806,0 1.39495,-0.69748 1.39495,-1.48801 v -1.89097 c 0,-0.6975 -0.58895,-1.3795 -1.39495,-1.3795 h -8.81949 v -15.77902 c 0,-0.589 -0.29452,-1.085 -0.79052,-1.28651 l -1.19348,-0.60449 c -0.20157,-0.093 -0.496,-0.18605 -0.69757,-0.18605 -0.29443,0.0931 -0.69748,0.18605 -0.89895,0.38754 l -9.02106,8.23052 c -0.29443,0.31 -0.40295,0.6975 -0.40295,1.1005 v 8.13751 h -11.40804 c 0,0 11.02056,-11.90402 22.723,-27.59008 0.40305,-0.496 0.496,-0.992 0.496,-1.37948 0,-0.496 -0.20148,-0.89895 -0.29443,-0.992 l -2.18557,-2.18548 c -0.20148,-0.20147 -0.58896,-0.40305 -0.99201,-0.40305 -0.58895,0 -13.99644,0 -14.67844,0 -0.806,0 -1.302,0.60453 -1.39505,1.19358 0,0 -0.496,7.34696 -3.069,15.37599 -2.5885,8.04451 -5.5645,13.00451 -8.1375,16.66252 0,0 -0.29451,0.496 -0.29451,1.1005 0,0.2015 0,0.38755 0.093,0.58902 0.403,0.69748 0.992,1.78253 0.992,1.78253 0,0 0.20151,0.60443 1.085,0.60443 h 17.06555"
     id="path109"
     style="stroke-width:0.992001" />
  <path
     class="Rest"
     d="m 2020.0536,18.6 c 0.1085,-0.201475 0.1085,-0.31 0.1085,-0.496 0,-0.496001 -0.2945,-0.992001 -0.8991,-1.193477 -0.2014,-0.108525 -0.3874,-0.108525 -0.496,-0.108525 -0.5889,0 -0.992,0.310001 -1.2865,0.806001 -2.3869,4.75853 -6.3549,10.10606 -11.811,11.501061 1.1935,-1.395001 1.6895,-2.976003 1.6895,-4.758529 0,-3.874955 -3.472,-6.850958 -7.3469,-6.850958 -3.8596,0.201476 -6.8356,3.472004 -6.8356,7.346958 0.2015,5.549026 5.549,7.440027 10.2145,7.440027 4.96,-0.201495 8.8351,-2.681497 11.8111,-6.556551 l -4.464,15.779066 c -1.3951,4.758509 -7.0526,11.113486 -12.1056,12.400012 1.085,-1.394952 1.6896,-3.068953 1.6896,-4.758529 0,-3.967975 -3.3791,-6.850978 -7.2541,-6.850978 -3.968,0 -6.944,3.379004 -6.944,7.346978 0,2.976003 2.0925,5.456006 4.6655,6.339581 1.891,0.806001 3.5805,0.992001 5.5646,0.992001 4.96,-0.09305 8.8194,-2.666003 11.7954,-6.541056 l -10.1214,36.208036 2.6814,0.697476 L 2020.0536,18.6"
     id="path110"
     style="stroke-width:0.992001" />
  <path
     class="Rest"
     d="m 1856.1405,29.310523 c -0.093,0 -0.2944,-0.108525 -0.4029,-0.108525 -0.5891,0 -1.0851,0.31 -1.2866,0.806001 -2.2785,4.557054 -7.0369,10.710555 -12.4,11.702556 1.0851,-1.286496 1.7825,-2.882973 1.7825,-4.758549 0,-3.874954 -3.1774,-7.052433 -7.037,-7.052433 -3.968,0 -7.1455,3.177479 -7.1455,7.052433 0,5.34755 5.2545,7.827553 9.92,7.827553 5.2545,0 8.7265,-2.480003 12.1055,-6.153551 l -11.315,35.32456 2.6815,0.790526 L 1856.931,31 c 0.1086,-0.108426 0.1086,-0.31 0.1086,-0.496001 0,-0.496 -0.31,-0.898951 -0.8991,-1.193476"
     id="path111"
     style="stroke-width:0.992001" />
  <path
     class="Rest"
     d="m 2223.4741,81.778063 c 9.0364,0 12.71,-6.246481 13.0975,-6.944056 l -3.6735,15.081569 c -2.17,5.068501 -5.952,11.702554 -11.7026,13.298984 1.1006,-1.39495 1.395,-2.976 1.395,-4.75843 0,-3.968054 -3.1775,-6.556552 -7.0525,-6.556552 -3.8595,0 -7.037,2.976003 -7.037,6.944027 0,5.161485 4.371,7.641485 9.6255,7.641485 5.2545,0 9.424,-2.88296 12.4,-6.944009 l -9.0364,36.812559 2.6814,0.58895 23.0175,-94.240091 c 0.1086,-0.108525 0.1086,-0.31 0.1086,-0.402951 0,-0.58905 -0.4031,-0.992001 -0.992,-1.193575 -0.1086,-0.09295 -0.31,-0.09295 -0.4031,-0.09295 -0.5889,0 -0.992,0.387476 -1.2864,0.883476 -1.8911,4.16948 -6.3551,10.028535 -11.222,11.222012 1.1935,-1.488002 1.5035,-2.976003 1.5035,-4.774005 0,-3.766529 -3.0846,-6.634007 -6.9595,-6.634007 -3.8596,0 -7.13,2.976003 -7.13,7.130007 0,5.270006 4.65,7.254008 9.114,7.548533 0.4029,0 0.806,0 1.302,-0.108525 4.8515,-0.294525 8.8195,-3.068954 11.6095,-6.944007 l -3.8751,15.980541 c -1.984,4.960005 -6.2464,11.904012 -11.811,13.299013 1.1935,-1.488001 1.488,-2.976052 1.488,-4.774054 0,-3.968004 -3.2705,-6.634007 -7.1454,-6.634007 -3.8596,0 -6.9441,3.069053 -6.9441,7.037057 0,4.665499 4.4641,7.533007 8.9281,7.533007"
     id="path112"
     style="stroke-width:0.992001" />
  <path
     class="Rest"
     d="m 2322.0736,43.4 c 0.1085,-0.201475 0.1085,-0.31 0.1085,-0.496 0,-0.496001 -0.2945,-0.992001 -0.8991,-1.193477 -0.2014,-0.108525 -0.3874,-0.108525 -0.496,-0.108525 -0.5889,0 -0.992,0.310001 -1.2865,0.806001 -2.3869,4.75853 -6.3549,10.10606 -11.811,11.501061 1.1935,-1.395001 1.6895,-2.976003 1.6895,-4.758529 0,-3.874955 -3.472,-6.850958 -7.3469,-6.850958 -3.8596,0.201476 -6.8356,3.472004 -6.8356,7.346958 0.2015,5.549026 5.549,7.440027 10.2145,7.440027 4.96,-0.201495 8.8351,-2.681497 11.8111,-6.556551 l -4.464,15.779066 c -1.3951,4.758509 -7.0526,11.113486 -12.1056,12.400012 1.085,-1.394952 1.6896,-3.068953 1.6896,-4.758529 0,-3.967975 -3.3791,-6.850978 -7.2541,-6.850978 -3.968,0 -6.944,3.379004 -6.944,7.346978 0,2.976003 2.0925,5.456006 4.6655,6.339581 1.891,0.806001 3.5805,0.992001 5.5646,0.992001 4.96,-0.09305 8.8194,-2.666003 11.7954,-6.541056 l -10.1214,36.208038 2.6814,0.69747 L 2322.0736,43.4"
     id="path113"
     style="stroke-width:0.992001" />
  <path
     class="Rest"
     d="m 2392.7305,41.710523 c -0.093,0 -0.2944,-0.108525 -0.4029,-0.108525 -0.5891,0 -1.0851,0.310001 -1.2866,0.806001 -2.2785,4.557054 -7.0369,10.710555 -12.4,11.702556 1.0851,-1.286496 1.7825,-2.882973 1.7825,-4.758549 0,-3.874954 -3.1774,-7.052433 -7.037,-7.052433 -3.968,0 -7.1455,3.177479 -7.1455,7.052433 0,5.34755 5.2545,7.827553 9.92,7.827553 5.2545,0 8.7265,-2.480003 12.1055,-6.153551 l -11.315,35.32456 2.6815,0.790526 L 2393.521,43.4 c 0.1086,-0.108426 0.1086,-0.31 0.1086,-0.496 0,-0.496001 -0.31,-0.898952 -0.8991,-1.193477"
     id="path114"
     style="stroke-width:0.992001" />
  <path
     class="Articulation"
     d="m 1126.966,302.35158 c 0.806,0.7905 1.798,1.085 2.79,1.085 0.992,0 1.984,-0.2945 2.7745,-1.085 1.488,-1.59651 1.488,-3.968 0,-5.45601 -0.7905,-0.7905 -1.7825,-1.1935 -2.7745,-1.1935 -0.992,0 -1.984,0.403 -2.79,1.1935 -1.488,1.48801 -1.488,3.8595 0,5.45601"
     id="path115"
     style="stroke-width:0.992001" />
  <path
     class="Articulation"
     d="m 250.968,451.15158 c 0.806,0.7905 1.798,1.085 2.79,1.085 0.992,0 1.98401,-0.2945 2.77451,-1.085 1.488,-1.59651 1.488,-3.968 0,-5.45601 -0.7905,-0.7905 -1.78251,-1.1935 -2.77451,-1.1935 -0.992,0 -1.984,0.403 -2.79,1.1935 -1.488,1.48801 -1.488,3.8595 0,5.45601"
     id="path116"
     style="stroke-width:0.992001" />
  <path
     class="Articulation"
     d="m 736.026,302.35158 c 0.806,0.7905 1.798,1.085 2.79,1.085 0.992,0 1.98401,-0.2945 2.77451,-1.085 1.488,-1.59651 1.488,-3.968 0,-5.45601 -0.7905,-0.7905 -1.78251,-1.1935 -2.77451,-1.1935 -0.992,0 -1.984,0.403 -2.79,1.1935 -1.488,1.48801 -1.488,3.8595 0,5.45601"
     id="path117"
     style="stroke-width:0.992001" />
  <path
     class="Articulation"
     d="m 814.216,238.22758 c 0.806,0.7905 1.798,1.085 2.79,1.085 0.992,0 1.98401,-0.2945 2.77451,-1.085 1.488,-1.59651 1.488,-3.968 0,-5.45601 -0.7905,-0.7905 -1.78251,-1.1935 -2.77451,-1.1935 -0.992,0 -1.984,0.403 -2.79,1.1935 -1.488,1.48801 -1.488,3.8595 0,5.45601"
     id="path118"
     style="stroke-width:0.992001" />
  <path
     class="Articulation"
     d="m 931.496,302.35158 c 0.806,0.7905 1.798,1.085 2.79,1.085 0.992,0 1.98401,-0.2945 2.77451,-1.085 1.488,-1.59651 1.488,-3.968 0,-5.45601 -0.7905,-0.7905 -1.78251,-1.1935 -2.77451,-1.1935 -0.992,0 -1.984,0.403 -2.79,1.1935 -1.488,1.48801 -1.488,3.8595 0,5.45601"
     id="path119"
     style="stroke-width:0.992001" />
  <path
     class="Articulation"
     d="m 1009.686,238.22758 c 0.806,0.7905 1.798,1.085 2.79,1.085 0.992,0 1.984,-0.2945 2.7745,-1.085 1.488,-1.59651 1.488,-3.968 0,-5.45601 -0.7905,-0.7905 -1.7825,-1.1935 -2.7745,-1.1935 -0.992,0 -1.984,0.403 -2.79,1.1935 -1.488,1.48801 -1.488,3.8595 0,5.45601"
     id="path120"
     style="stroke-width:0.992001" />
  <path
     class="Articulation"
     d="m 1572.926,99.704067 c 0.806,0.682003 1.798,1.085003 2.79,1.085003 0.992,0 1.984,-0.403 2.7745,-1.085003 1.488,-1.596506 1.488,-3.968004 0,-5.56451 -0.7905,-0.790496 -1.7825,-1.085002 -2.7745,-1.085002 -0.992,0 -1.984,0.294506 -2.79,1.085002 -1.488,1.596506 -1.488,3.968004 0,5.56451"
     id="path121"
     style="stroke-width:0.992001" />
  <path
     class="Articulation"
     d="m 1651.116,87.304067 c 0.806,0.682001 1.798,1.085001 2.79,1.085001 0.992,0 1.984,-0.403 2.7745,-1.085001 1.488,-1.596506 1.488,-3.968004 0,-5.56451 -0.7905,-0.790496 -1.7825,-1.085002 -2.7745,-1.085002 -0.992,0 -1.984,0.294506 -2.79,1.085002 -1.488,1.596506 -1.488,3.968004 0,5.56451"
     id="path122"
     style="stroke-width:0.992001" />
  <path
     class="Articulation"
     d="m 1729.306,74.904067 c 0.806,0.682001 1.798,1.085001 2.79,1.085001 0.992,0 1.984,-0.403 2.7745,-1.085001 1.488,-1.596506 1.488,-3.968004 0,-5.56451 -0.7905,-0.790496 -1.7825,-1.085002 -2.7745,-1.085002 -0.992,0 -1.984,0.294506 -2.79,1.085002 -1.488,1.596506 -1.488,3.968004 0,5.56451"
     id="path123"
     style="stroke-width:0.992001" />
  <path
     class="Articulation"
     d="m 1991.906,289.21558 c 0.806,0.7905 1.798,1.085 2.79,1.085 0.992,0 1.984,-0.2945 2.7745,-1.085 1.488,-1.59651 1.488,-3.968 0,-5.45601 -0.7905,-0.7905 -1.7825,-1.1935 -2.7745,-1.1935 -0.992,0 -1.984,0.403 -2.79,1.1935 -1.488,1.48801 -1.488,3.8595 0,5.45601"
     id="path124"
     style="stroke-width:0.992001" />
  <path
     class="Articulation"
     d="m 2372.106,295.41558 c 0.806,0.7905 1.798,1.085 2.79,1.085 0.992,0 1.984,-0.2945 2.7745,-1.085 1.488,-1.59651 1.488,-3.968 0,-5.45601 -0.7905,-0.7905 -1.7825,-1.1935 -2.7745,-1.1935 -0.992,0 -1.984,0.403 -2.79,1.1935 -1.488,1.48801 -1.488,3.8595 0,5.45601"
     id="path125"
     style="stroke-width:0.992001" />
  <path
     class="Articulation"
     d="m 2293.916,295.41558 c 0.806,0.7905 1.798,1.085 2.79,1.085 0.992,0 1.984,-0.2945 2.7745,-1.085 1.488,-1.59651 1.488,-3.968 0,-5.45601 -0.7905,-0.7905 -1.7825,-1.1935 -2.7745,-1.1935 -0.992,0 -1.984,0.403 -2.79,1.1935 -1.488,1.48801 -1.488,3.8595 0,5.45601"
     id="path126"
     style="stroke-width:0.992001" />
  <path
     class="Articulation"
     d="m 1835.526,289.21558 c 0.806,0.7905 1.798,1.085 2.79,1.085 0.992,0 1.984,-0.2945 2.7745,-1.085 1.488,-1.59651 1.488,-3.968 0,-5.45601 -0.7905,-0.7905 -1.7825,-1.1935 -2.7745,-1.1935 -0.992,0 -1.984,0.403 -2.79,1.1935 -1.488,1.48801 -1.488,3.8595 0,5.45601"
     id="path127"
     style="stroke-width:0.992001" />
  <path
     class="Articulation"
     d="m 1913.716,289.21558 c 0.806,0.7905 1.798,1.085 2.79,1.085 0.992,0 1.984,-0.2945 2.7745,-1.085 1.488,-1.59651 1.488,-3.968 0,-5.45601 -0.7905,-0.7905 -1.7825,-1.1935 -2.7745,-1.1935 -0.992,0 -1.984,0.403 -2.79,1.1935 -1.488,1.48801 -1.488,3.8595 0,5.45601"
     id="path128"
     style="stroke-width:0.992001" />
  <path
     class="Beam"
     fill-rule="evenodd"
     d="m 1026.121,130.04607 h 197.96 v 12.4 h -197.96 v -12.4"
     id="path129" />
  <path
     class="Beam"
     fill-rule="evenodd"
     d="m 1143.411,148.64607 h 80.67 v 12.4 h -80.67 v -12.4"
     id="path130" />
  <path
     class="Beam"
     fill-rule="evenodd"
     d="m 1481.431,285.04407 237.05,-6.2 v 12.404 l -237.05,6.2 v -12.404"
     id="path131" />
  <path
     class="Beam"
     fill-rule="evenodd"
     d="m 1481.431,266.44407 237.05,-6.2 v 12.404 l -237.05,6.2 v -12.404"
     id="path132" />
  <path
     class="Beam"
     fill-rule="evenodd"
     d="m 752.461,130.04607 h 197.95 v 12.4 h -197.95 v -12.4"
     id="path133" />
  <path
     class="Beam"
     fill-rule="evenodd"
     d="m 752.461,148.64607 h 27.28 v 12.4 h -27.28 v -12.4"
     id="path134" />
  <path
     class="Beam"
     fill-rule="evenodd"
     d="m 950.411,148.64607 h -27.28 v 12.4 h 27.28 v -12.4"
     id="path135" />
  <path
     class="Beam"
     fill-rule="evenodd"
     d="m 443.332,92.797068 197.954,24.800002 v 12.497 l -197.954,-24.8 V 92.797068"
     id="path136" />
  <path
     class="Beam"
     fill-rule="evenodd"
     d="m 560.616,126.09107 80.67,10.106 v 12.497 l -80.67,-10.106 v -12.497"
     id="path137" />
  <path
     class="Beam"
     fill-rule="evenodd"
     d="m 2142.411,266.44607 h 226.31 v 12.4 h -226.31 v -12.4"
     id="path138" />
  <path
     class="Beam"
     fill-rule="evenodd"
     d="m 2142.411,247.84607 h 148.12 v 12.4 h -148.12 v -12.4"
     id="path139" />
  <path
     class="Beam"
     fill-rule="evenodd"
     d="m 1829.651,260.24607 h 237.05 v 12.4 h -237.05 v -12.4"
     id="path140" />
  <path
     class="Beam"
     fill-rule="evenodd"
     d="m 1829.651,241.64607 h 237.05 v 12.4 h -237.05 v -12.4"
     id="path141" />
</svg>
